G75*
%MOIN*%
%OFA0B0*%
%FSLAX25Y25*%
%IPPOS*%
%LPD*%
%AMOC8*
5,1,8,0,0,1.08239X$1,22.5*
%
%ADD10C,0.00000*%
%ADD11R,0.05118X0.05906*%
%ADD12R,0.11024X0.09449*%
%ADD13R,0.05906X0.05118*%
%ADD14R,0.07677X0.05906*%
%ADD15R,0.05512X0.03937*%
%ADD16R,0.02362X0.03150*%
%ADD17R,0.04724X0.05906*%
%ADD18R,0.03937X0.00787*%
%ADD19R,0.00787X0.03937*%
%ADD20R,0.02362X0.03543*%
%ADD21C,0.00039*%
%ADD22C,0.05543*%
%ADD23C,0.05600*%
%ADD24C,0.06000*%
%ADD25R,0.08661X0.06299*%
%ADD26OC8,0.08500*%
%ADD27C,0.01600*%
%ADD28C,0.02775*%
%ADD29C,0.01000*%
%ADD30C,0.01200*%
%ADD31C,0.02400*%
%ADD32C,0.06600*%
%ADD33C,0.07000*%
D10*
X0031644Y0065933D02*
X0031644Y0260894D01*
X0225345Y0260894D01*
X0225345Y0065933D01*
X0031644Y0065933D01*
X0035244Y0090933D02*
X0035246Y0091093D01*
X0035252Y0091252D01*
X0035262Y0091411D01*
X0035276Y0091570D01*
X0035294Y0091729D01*
X0035315Y0091887D01*
X0035341Y0092044D01*
X0035371Y0092201D01*
X0035404Y0092357D01*
X0035442Y0092512D01*
X0035483Y0092666D01*
X0035528Y0092819D01*
X0035577Y0092971D01*
X0035630Y0093122D01*
X0035686Y0093271D01*
X0035747Y0093419D01*
X0035810Y0093565D01*
X0035878Y0093710D01*
X0035949Y0093853D01*
X0036023Y0093994D01*
X0036101Y0094133D01*
X0036183Y0094270D01*
X0036268Y0094405D01*
X0036356Y0094538D01*
X0036448Y0094669D01*
X0036542Y0094797D01*
X0036640Y0094923D01*
X0036741Y0095047D01*
X0036845Y0095168D01*
X0036952Y0095286D01*
X0037062Y0095402D01*
X0037175Y0095515D01*
X0037291Y0095625D01*
X0037409Y0095732D01*
X0037530Y0095836D01*
X0037654Y0095937D01*
X0037780Y0096035D01*
X0037908Y0096129D01*
X0038039Y0096221D01*
X0038172Y0096309D01*
X0038307Y0096394D01*
X0038444Y0096476D01*
X0038583Y0096554D01*
X0038724Y0096628D01*
X0038867Y0096699D01*
X0039012Y0096767D01*
X0039158Y0096830D01*
X0039306Y0096891D01*
X0039455Y0096947D01*
X0039606Y0097000D01*
X0039758Y0097049D01*
X0039911Y0097094D01*
X0040065Y0097135D01*
X0040220Y0097173D01*
X0040376Y0097206D01*
X0040533Y0097236D01*
X0040690Y0097262D01*
X0040848Y0097283D01*
X0041007Y0097301D01*
X0041166Y0097315D01*
X0041325Y0097325D01*
X0041484Y0097331D01*
X0041644Y0097333D01*
X0041804Y0097331D01*
X0041963Y0097325D01*
X0042122Y0097315D01*
X0042281Y0097301D01*
X0042440Y0097283D01*
X0042598Y0097262D01*
X0042755Y0097236D01*
X0042912Y0097206D01*
X0043068Y0097173D01*
X0043223Y0097135D01*
X0043377Y0097094D01*
X0043530Y0097049D01*
X0043682Y0097000D01*
X0043833Y0096947D01*
X0043982Y0096891D01*
X0044130Y0096830D01*
X0044276Y0096767D01*
X0044421Y0096699D01*
X0044564Y0096628D01*
X0044705Y0096554D01*
X0044844Y0096476D01*
X0044981Y0096394D01*
X0045116Y0096309D01*
X0045249Y0096221D01*
X0045380Y0096129D01*
X0045508Y0096035D01*
X0045634Y0095937D01*
X0045758Y0095836D01*
X0045879Y0095732D01*
X0045997Y0095625D01*
X0046113Y0095515D01*
X0046226Y0095402D01*
X0046336Y0095286D01*
X0046443Y0095168D01*
X0046547Y0095047D01*
X0046648Y0094923D01*
X0046746Y0094797D01*
X0046840Y0094669D01*
X0046932Y0094538D01*
X0047020Y0094405D01*
X0047105Y0094270D01*
X0047187Y0094133D01*
X0047265Y0093994D01*
X0047339Y0093853D01*
X0047410Y0093710D01*
X0047478Y0093565D01*
X0047541Y0093419D01*
X0047602Y0093271D01*
X0047658Y0093122D01*
X0047711Y0092971D01*
X0047760Y0092819D01*
X0047805Y0092666D01*
X0047846Y0092512D01*
X0047884Y0092357D01*
X0047917Y0092201D01*
X0047947Y0092044D01*
X0047973Y0091887D01*
X0047994Y0091729D01*
X0048012Y0091570D01*
X0048026Y0091411D01*
X0048036Y0091252D01*
X0048042Y0091093D01*
X0048044Y0090933D01*
X0048042Y0090773D01*
X0048036Y0090614D01*
X0048026Y0090455D01*
X0048012Y0090296D01*
X0047994Y0090137D01*
X0047973Y0089979D01*
X0047947Y0089822D01*
X0047917Y0089665D01*
X0047884Y0089509D01*
X0047846Y0089354D01*
X0047805Y0089200D01*
X0047760Y0089047D01*
X0047711Y0088895D01*
X0047658Y0088744D01*
X0047602Y0088595D01*
X0047541Y0088447D01*
X0047478Y0088301D01*
X0047410Y0088156D01*
X0047339Y0088013D01*
X0047265Y0087872D01*
X0047187Y0087733D01*
X0047105Y0087596D01*
X0047020Y0087461D01*
X0046932Y0087328D01*
X0046840Y0087197D01*
X0046746Y0087069D01*
X0046648Y0086943D01*
X0046547Y0086819D01*
X0046443Y0086698D01*
X0046336Y0086580D01*
X0046226Y0086464D01*
X0046113Y0086351D01*
X0045997Y0086241D01*
X0045879Y0086134D01*
X0045758Y0086030D01*
X0045634Y0085929D01*
X0045508Y0085831D01*
X0045380Y0085737D01*
X0045249Y0085645D01*
X0045116Y0085557D01*
X0044981Y0085472D01*
X0044844Y0085390D01*
X0044705Y0085312D01*
X0044564Y0085238D01*
X0044421Y0085167D01*
X0044276Y0085099D01*
X0044130Y0085036D01*
X0043982Y0084975D01*
X0043833Y0084919D01*
X0043682Y0084866D01*
X0043530Y0084817D01*
X0043377Y0084772D01*
X0043223Y0084731D01*
X0043068Y0084693D01*
X0042912Y0084660D01*
X0042755Y0084630D01*
X0042598Y0084604D01*
X0042440Y0084583D01*
X0042281Y0084565D01*
X0042122Y0084551D01*
X0041963Y0084541D01*
X0041804Y0084535D01*
X0041644Y0084533D01*
X0041484Y0084535D01*
X0041325Y0084541D01*
X0041166Y0084551D01*
X0041007Y0084565D01*
X0040848Y0084583D01*
X0040690Y0084604D01*
X0040533Y0084630D01*
X0040376Y0084660D01*
X0040220Y0084693D01*
X0040065Y0084731D01*
X0039911Y0084772D01*
X0039758Y0084817D01*
X0039606Y0084866D01*
X0039455Y0084919D01*
X0039306Y0084975D01*
X0039158Y0085036D01*
X0039012Y0085099D01*
X0038867Y0085167D01*
X0038724Y0085238D01*
X0038583Y0085312D01*
X0038444Y0085390D01*
X0038307Y0085472D01*
X0038172Y0085557D01*
X0038039Y0085645D01*
X0037908Y0085737D01*
X0037780Y0085831D01*
X0037654Y0085929D01*
X0037530Y0086030D01*
X0037409Y0086134D01*
X0037291Y0086241D01*
X0037175Y0086351D01*
X0037062Y0086464D01*
X0036952Y0086580D01*
X0036845Y0086698D01*
X0036741Y0086819D01*
X0036640Y0086943D01*
X0036542Y0087069D01*
X0036448Y0087197D01*
X0036356Y0087328D01*
X0036268Y0087461D01*
X0036183Y0087596D01*
X0036101Y0087733D01*
X0036023Y0087872D01*
X0035949Y0088013D01*
X0035878Y0088156D01*
X0035810Y0088301D01*
X0035747Y0088447D01*
X0035686Y0088595D01*
X0035630Y0088744D01*
X0035577Y0088895D01*
X0035528Y0089047D01*
X0035483Y0089200D01*
X0035442Y0089354D01*
X0035404Y0089509D01*
X0035371Y0089665D01*
X0035341Y0089822D01*
X0035315Y0089979D01*
X0035294Y0090137D01*
X0035276Y0090296D01*
X0035262Y0090455D01*
X0035252Y0090614D01*
X0035246Y0090773D01*
X0035244Y0090933D01*
X0075244Y0090933D02*
X0075246Y0091093D01*
X0075252Y0091252D01*
X0075262Y0091411D01*
X0075276Y0091570D01*
X0075294Y0091729D01*
X0075315Y0091887D01*
X0075341Y0092044D01*
X0075371Y0092201D01*
X0075404Y0092357D01*
X0075442Y0092512D01*
X0075483Y0092666D01*
X0075528Y0092819D01*
X0075577Y0092971D01*
X0075630Y0093122D01*
X0075686Y0093271D01*
X0075747Y0093419D01*
X0075810Y0093565D01*
X0075878Y0093710D01*
X0075949Y0093853D01*
X0076023Y0093994D01*
X0076101Y0094133D01*
X0076183Y0094270D01*
X0076268Y0094405D01*
X0076356Y0094538D01*
X0076448Y0094669D01*
X0076542Y0094797D01*
X0076640Y0094923D01*
X0076741Y0095047D01*
X0076845Y0095168D01*
X0076952Y0095286D01*
X0077062Y0095402D01*
X0077175Y0095515D01*
X0077291Y0095625D01*
X0077409Y0095732D01*
X0077530Y0095836D01*
X0077654Y0095937D01*
X0077780Y0096035D01*
X0077908Y0096129D01*
X0078039Y0096221D01*
X0078172Y0096309D01*
X0078307Y0096394D01*
X0078444Y0096476D01*
X0078583Y0096554D01*
X0078724Y0096628D01*
X0078867Y0096699D01*
X0079012Y0096767D01*
X0079158Y0096830D01*
X0079306Y0096891D01*
X0079455Y0096947D01*
X0079606Y0097000D01*
X0079758Y0097049D01*
X0079911Y0097094D01*
X0080065Y0097135D01*
X0080220Y0097173D01*
X0080376Y0097206D01*
X0080533Y0097236D01*
X0080690Y0097262D01*
X0080848Y0097283D01*
X0081007Y0097301D01*
X0081166Y0097315D01*
X0081325Y0097325D01*
X0081484Y0097331D01*
X0081644Y0097333D01*
X0081804Y0097331D01*
X0081963Y0097325D01*
X0082122Y0097315D01*
X0082281Y0097301D01*
X0082440Y0097283D01*
X0082598Y0097262D01*
X0082755Y0097236D01*
X0082912Y0097206D01*
X0083068Y0097173D01*
X0083223Y0097135D01*
X0083377Y0097094D01*
X0083530Y0097049D01*
X0083682Y0097000D01*
X0083833Y0096947D01*
X0083982Y0096891D01*
X0084130Y0096830D01*
X0084276Y0096767D01*
X0084421Y0096699D01*
X0084564Y0096628D01*
X0084705Y0096554D01*
X0084844Y0096476D01*
X0084981Y0096394D01*
X0085116Y0096309D01*
X0085249Y0096221D01*
X0085380Y0096129D01*
X0085508Y0096035D01*
X0085634Y0095937D01*
X0085758Y0095836D01*
X0085879Y0095732D01*
X0085997Y0095625D01*
X0086113Y0095515D01*
X0086226Y0095402D01*
X0086336Y0095286D01*
X0086443Y0095168D01*
X0086547Y0095047D01*
X0086648Y0094923D01*
X0086746Y0094797D01*
X0086840Y0094669D01*
X0086932Y0094538D01*
X0087020Y0094405D01*
X0087105Y0094270D01*
X0087187Y0094133D01*
X0087265Y0093994D01*
X0087339Y0093853D01*
X0087410Y0093710D01*
X0087478Y0093565D01*
X0087541Y0093419D01*
X0087602Y0093271D01*
X0087658Y0093122D01*
X0087711Y0092971D01*
X0087760Y0092819D01*
X0087805Y0092666D01*
X0087846Y0092512D01*
X0087884Y0092357D01*
X0087917Y0092201D01*
X0087947Y0092044D01*
X0087973Y0091887D01*
X0087994Y0091729D01*
X0088012Y0091570D01*
X0088026Y0091411D01*
X0088036Y0091252D01*
X0088042Y0091093D01*
X0088044Y0090933D01*
X0088042Y0090773D01*
X0088036Y0090614D01*
X0088026Y0090455D01*
X0088012Y0090296D01*
X0087994Y0090137D01*
X0087973Y0089979D01*
X0087947Y0089822D01*
X0087917Y0089665D01*
X0087884Y0089509D01*
X0087846Y0089354D01*
X0087805Y0089200D01*
X0087760Y0089047D01*
X0087711Y0088895D01*
X0087658Y0088744D01*
X0087602Y0088595D01*
X0087541Y0088447D01*
X0087478Y0088301D01*
X0087410Y0088156D01*
X0087339Y0088013D01*
X0087265Y0087872D01*
X0087187Y0087733D01*
X0087105Y0087596D01*
X0087020Y0087461D01*
X0086932Y0087328D01*
X0086840Y0087197D01*
X0086746Y0087069D01*
X0086648Y0086943D01*
X0086547Y0086819D01*
X0086443Y0086698D01*
X0086336Y0086580D01*
X0086226Y0086464D01*
X0086113Y0086351D01*
X0085997Y0086241D01*
X0085879Y0086134D01*
X0085758Y0086030D01*
X0085634Y0085929D01*
X0085508Y0085831D01*
X0085380Y0085737D01*
X0085249Y0085645D01*
X0085116Y0085557D01*
X0084981Y0085472D01*
X0084844Y0085390D01*
X0084705Y0085312D01*
X0084564Y0085238D01*
X0084421Y0085167D01*
X0084276Y0085099D01*
X0084130Y0085036D01*
X0083982Y0084975D01*
X0083833Y0084919D01*
X0083682Y0084866D01*
X0083530Y0084817D01*
X0083377Y0084772D01*
X0083223Y0084731D01*
X0083068Y0084693D01*
X0082912Y0084660D01*
X0082755Y0084630D01*
X0082598Y0084604D01*
X0082440Y0084583D01*
X0082281Y0084565D01*
X0082122Y0084551D01*
X0081963Y0084541D01*
X0081804Y0084535D01*
X0081644Y0084533D01*
X0081484Y0084535D01*
X0081325Y0084541D01*
X0081166Y0084551D01*
X0081007Y0084565D01*
X0080848Y0084583D01*
X0080690Y0084604D01*
X0080533Y0084630D01*
X0080376Y0084660D01*
X0080220Y0084693D01*
X0080065Y0084731D01*
X0079911Y0084772D01*
X0079758Y0084817D01*
X0079606Y0084866D01*
X0079455Y0084919D01*
X0079306Y0084975D01*
X0079158Y0085036D01*
X0079012Y0085099D01*
X0078867Y0085167D01*
X0078724Y0085238D01*
X0078583Y0085312D01*
X0078444Y0085390D01*
X0078307Y0085472D01*
X0078172Y0085557D01*
X0078039Y0085645D01*
X0077908Y0085737D01*
X0077780Y0085831D01*
X0077654Y0085929D01*
X0077530Y0086030D01*
X0077409Y0086134D01*
X0077291Y0086241D01*
X0077175Y0086351D01*
X0077062Y0086464D01*
X0076952Y0086580D01*
X0076845Y0086698D01*
X0076741Y0086819D01*
X0076640Y0086943D01*
X0076542Y0087069D01*
X0076448Y0087197D01*
X0076356Y0087328D01*
X0076268Y0087461D01*
X0076183Y0087596D01*
X0076101Y0087733D01*
X0076023Y0087872D01*
X0075949Y0088013D01*
X0075878Y0088156D01*
X0075810Y0088301D01*
X0075747Y0088447D01*
X0075686Y0088595D01*
X0075630Y0088744D01*
X0075577Y0088895D01*
X0075528Y0089047D01*
X0075483Y0089200D01*
X0075442Y0089354D01*
X0075404Y0089509D01*
X0075371Y0089665D01*
X0075341Y0089822D01*
X0075315Y0089979D01*
X0075294Y0090137D01*
X0075276Y0090296D01*
X0075262Y0090455D01*
X0075252Y0090614D01*
X0075246Y0090773D01*
X0075244Y0090933D01*
X0049872Y0158335D02*
X0049874Y0158419D01*
X0049880Y0158502D01*
X0049890Y0158585D01*
X0049904Y0158668D01*
X0049921Y0158750D01*
X0049943Y0158831D01*
X0049968Y0158910D01*
X0049997Y0158989D01*
X0050030Y0159066D01*
X0050066Y0159141D01*
X0050106Y0159215D01*
X0050149Y0159287D01*
X0050196Y0159356D01*
X0050246Y0159423D01*
X0050299Y0159488D01*
X0050355Y0159550D01*
X0050413Y0159610D01*
X0050475Y0159667D01*
X0050539Y0159720D01*
X0050606Y0159771D01*
X0050675Y0159818D01*
X0050746Y0159863D01*
X0050819Y0159903D01*
X0050894Y0159940D01*
X0050971Y0159974D01*
X0051049Y0160004D01*
X0051128Y0160030D01*
X0051209Y0160053D01*
X0051291Y0160071D01*
X0051373Y0160086D01*
X0051456Y0160097D01*
X0051539Y0160104D01*
X0051623Y0160107D01*
X0051707Y0160106D01*
X0051790Y0160101D01*
X0051874Y0160092D01*
X0051956Y0160079D01*
X0052038Y0160063D01*
X0052119Y0160042D01*
X0052200Y0160018D01*
X0052278Y0159990D01*
X0052356Y0159958D01*
X0052432Y0159922D01*
X0052506Y0159883D01*
X0052578Y0159841D01*
X0052648Y0159795D01*
X0052716Y0159746D01*
X0052781Y0159694D01*
X0052844Y0159639D01*
X0052904Y0159581D01*
X0052962Y0159520D01*
X0053016Y0159456D01*
X0053068Y0159390D01*
X0053116Y0159322D01*
X0053161Y0159251D01*
X0053202Y0159178D01*
X0053241Y0159104D01*
X0053275Y0159028D01*
X0053306Y0158950D01*
X0053333Y0158871D01*
X0053357Y0158790D01*
X0053376Y0158709D01*
X0053392Y0158627D01*
X0053404Y0158544D01*
X0053412Y0158460D01*
X0053416Y0158377D01*
X0053416Y0158293D01*
X0053412Y0158210D01*
X0053404Y0158126D01*
X0053392Y0158043D01*
X0053376Y0157961D01*
X0053357Y0157880D01*
X0053333Y0157799D01*
X0053306Y0157720D01*
X0053275Y0157642D01*
X0053241Y0157566D01*
X0053202Y0157492D01*
X0053161Y0157419D01*
X0053116Y0157348D01*
X0053068Y0157280D01*
X0053016Y0157214D01*
X0052962Y0157150D01*
X0052904Y0157089D01*
X0052844Y0157031D01*
X0052781Y0156976D01*
X0052716Y0156924D01*
X0052648Y0156875D01*
X0052578Y0156829D01*
X0052506Y0156787D01*
X0052432Y0156748D01*
X0052356Y0156712D01*
X0052278Y0156680D01*
X0052200Y0156652D01*
X0052119Y0156628D01*
X0052038Y0156607D01*
X0051956Y0156591D01*
X0051874Y0156578D01*
X0051790Y0156569D01*
X0051707Y0156564D01*
X0051623Y0156563D01*
X0051539Y0156566D01*
X0051456Y0156573D01*
X0051373Y0156584D01*
X0051291Y0156599D01*
X0051209Y0156617D01*
X0051128Y0156640D01*
X0051049Y0156666D01*
X0050971Y0156696D01*
X0050894Y0156730D01*
X0050819Y0156767D01*
X0050746Y0156807D01*
X0050675Y0156852D01*
X0050606Y0156899D01*
X0050539Y0156950D01*
X0050475Y0157003D01*
X0050413Y0157060D01*
X0050355Y0157120D01*
X0050299Y0157182D01*
X0050246Y0157247D01*
X0050196Y0157314D01*
X0050149Y0157383D01*
X0050106Y0157455D01*
X0050066Y0157529D01*
X0050030Y0157604D01*
X0049997Y0157681D01*
X0049968Y0157760D01*
X0049943Y0157839D01*
X0049921Y0157920D01*
X0049904Y0158002D01*
X0049890Y0158085D01*
X0049880Y0158168D01*
X0049874Y0158251D01*
X0049872Y0158335D01*
X0049872Y0175657D02*
X0049874Y0175741D01*
X0049880Y0175824D01*
X0049890Y0175907D01*
X0049904Y0175990D01*
X0049921Y0176072D01*
X0049943Y0176153D01*
X0049968Y0176232D01*
X0049997Y0176311D01*
X0050030Y0176388D01*
X0050066Y0176463D01*
X0050106Y0176537D01*
X0050149Y0176609D01*
X0050196Y0176678D01*
X0050246Y0176745D01*
X0050299Y0176810D01*
X0050355Y0176872D01*
X0050413Y0176932D01*
X0050475Y0176989D01*
X0050539Y0177042D01*
X0050606Y0177093D01*
X0050675Y0177140D01*
X0050746Y0177185D01*
X0050819Y0177225D01*
X0050894Y0177262D01*
X0050971Y0177296D01*
X0051049Y0177326D01*
X0051128Y0177352D01*
X0051209Y0177375D01*
X0051291Y0177393D01*
X0051373Y0177408D01*
X0051456Y0177419D01*
X0051539Y0177426D01*
X0051623Y0177429D01*
X0051707Y0177428D01*
X0051790Y0177423D01*
X0051874Y0177414D01*
X0051956Y0177401D01*
X0052038Y0177385D01*
X0052119Y0177364D01*
X0052200Y0177340D01*
X0052278Y0177312D01*
X0052356Y0177280D01*
X0052432Y0177244D01*
X0052506Y0177205D01*
X0052578Y0177163D01*
X0052648Y0177117D01*
X0052716Y0177068D01*
X0052781Y0177016D01*
X0052844Y0176961D01*
X0052904Y0176903D01*
X0052962Y0176842D01*
X0053016Y0176778D01*
X0053068Y0176712D01*
X0053116Y0176644D01*
X0053161Y0176573D01*
X0053202Y0176500D01*
X0053241Y0176426D01*
X0053275Y0176350D01*
X0053306Y0176272D01*
X0053333Y0176193D01*
X0053357Y0176112D01*
X0053376Y0176031D01*
X0053392Y0175949D01*
X0053404Y0175866D01*
X0053412Y0175782D01*
X0053416Y0175699D01*
X0053416Y0175615D01*
X0053412Y0175532D01*
X0053404Y0175448D01*
X0053392Y0175365D01*
X0053376Y0175283D01*
X0053357Y0175202D01*
X0053333Y0175121D01*
X0053306Y0175042D01*
X0053275Y0174964D01*
X0053241Y0174888D01*
X0053202Y0174814D01*
X0053161Y0174741D01*
X0053116Y0174670D01*
X0053068Y0174602D01*
X0053016Y0174536D01*
X0052962Y0174472D01*
X0052904Y0174411D01*
X0052844Y0174353D01*
X0052781Y0174298D01*
X0052716Y0174246D01*
X0052648Y0174197D01*
X0052578Y0174151D01*
X0052506Y0174109D01*
X0052432Y0174070D01*
X0052356Y0174034D01*
X0052278Y0174002D01*
X0052200Y0173974D01*
X0052119Y0173950D01*
X0052038Y0173929D01*
X0051956Y0173913D01*
X0051874Y0173900D01*
X0051790Y0173891D01*
X0051707Y0173886D01*
X0051623Y0173885D01*
X0051539Y0173888D01*
X0051456Y0173895D01*
X0051373Y0173906D01*
X0051291Y0173921D01*
X0051209Y0173939D01*
X0051128Y0173962D01*
X0051049Y0173988D01*
X0050971Y0174018D01*
X0050894Y0174052D01*
X0050819Y0174089D01*
X0050746Y0174129D01*
X0050675Y0174174D01*
X0050606Y0174221D01*
X0050539Y0174272D01*
X0050475Y0174325D01*
X0050413Y0174382D01*
X0050355Y0174442D01*
X0050299Y0174504D01*
X0050246Y0174569D01*
X0050196Y0174636D01*
X0050149Y0174705D01*
X0050106Y0174777D01*
X0050066Y0174851D01*
X0050030Y0174926D01*
X0049997Y0175003D01*
X0049968Y0175082D01*
X0049943Y0175161D01*
X0049921Y0175242D01*
X0049904Y0175324D01*
X0049890Y0175407D01*
X0049880Y0175490D01*
X0049874Y0175573D01*
X0049872Y0175657D01*
D11*
X0115404Y0180933D03*
X0122884Y0180933D03*
X0122884Y0190933D03*
X0115404Y0190933D03*
X0115404Y0200933D03*
X0122884Y0200933D03*
X0122884Y0211051D03*
X0115404Y0211051D03*
X0115404Y0220933D03*
X0122884Y0220933D03*
X0122884Y0230933D03*
X0115404Y0230933D03*
X0115404Y0241130D03*
X0122884Y0241130D03*
X0122884Y0251681D03*
X0115404Y0251681D03*
D12*
X0169144Y0125835D03*
X0169144Y0101031D03*
D13*
X0164144Y0087173D03*
X0164144Y0079693D03*
X0191644Y0082193D03*
X0191644Y0089673D03*
X0203144Y0089673D03*
X0203144Y0082193D03*
D14*
X0194557Y0133433D03*
X0194557Y0140933D03*
X0183730Y0140933D03*
X0183730Y0133433D03*
D15*
X0123474Y0152193D03*
X0123474Y0159673D03*
X0123474Y0164693D03*
X0123474Y0172173D03*
X0114813Y0168433D03*
X0114813Y0155933D03*
D16*
X0155620Y0110972D03*
X0155620Y0101130D03*
X0185644Y0090854D03*
X0185644Y0081012D03*
D17*
X0156644Y0077724D03*
X0156644Y0089142D03*
D18*
X0143849Y0169772D03*
X0143849Y0171740D03*
X0143849Y0173709D03*
X0143849Y0175677D03*
X0143849Y0177646D03*
X0143849Y0179614D03*
X0143849Y0181583D03*
X0143849Y0183551D03*
X0143849Y0185520D03*
X0143849Y0187488D03*
X0143849Y0189457D03*
X0143849Y0191425D03*
X0179282Y0191425D03*
X0179282Y0189457D03*
X0179282Y0187488D03*
X0179282Y0185520D03*
X0179282Y0183551D03*
X0179282Y0181583D03*
X0179282Y0179614D03*
X0179282Y0177646D03*
X0179282Y0175677D03*
X0179282Y0173709D03*
X0179282Y0171740D03*
X0179282Y0169772D03*
D19*
X0172392Y0162882D03*
X0170423Y0162882D03*
X0168455Y0162882D03*
X0166486Y0162882D03*
X0164518Y0162882D03*
X0162549Y0162882D03*
X0160581Y0162882D03*
X0158612Y0162882D03*
X0156644Y0162882D03*
X0154675Y0162882D03*
X0152707Y0162882D03*
X0150738Y0162882D03*
X0150738Y0198315D03*
X0152707Y0198315D03*
X0154675Y0198315D03*
X0156644Y0198315D03*
X0158612Y0198315D03*
X0160581Y0198315D03*
X0162549Y0198315D03*
X0164518Y0198315D03*
X0166486Y0198315D03*
X0168455Y0198315D03*
X0170423Y0198315D03*
X0172392Y0198315D03*
D20*
X0172904Y0090461D03*
X0176644Y0090461D03*
X0180384Y0090461D03*
X0180384Y0081406D03*
X0176644Y0081406D03*
X0172904Y0081406D03*
D21*
X0092394Y0069240D02*
X0030894Y0069240D01*
D22*
X0054144Y0115933D03*
X0059144Y0125933D03*
X0069144Y0125933D03*
X0074144Y0115933D03*
X0064144Y0115933D03*
X0049144Y0125933D03*
D23*
X0081658Y0194893D02*
X0081658Y0200493D01*
X0081644Y0206735D02*
X0081644Y0212335D01*
X0091644Y0212335D02*
X0091644Y0206735D01*
X0091658Y0200493D02*
X0091658Y0194893D01*
X0169144Y0101031D02*
X0169045Y0100933D01*
D24*
X0208723Y0153315D02*
X0214723Y0153315D01*
X0214723Y0163315D02*
X0208723Y0163315D01*
X0208723Y0173315D02*
X0214723Y0173315D01*
X0214723Y0183315D02*
X0208723Y0183315D01*
X0208723Y0193315D02*
X0214723Y0193315D01*
X0214723Y0203315D02*
X0208723Y0203315D01*
X0211152Y0243425D02*
X0211152Y0249425D01*
X0201152Y0249425D02*
X0201152Y0243425D01*
X0191152Y0243425D02*
X0191152Y0249425D01*
X0181152Y0249425D02*
X0181152Y0243425D01*
X0171152Y0243425D02*
X0171152Y0249425D01*
X0161152Y0249425D02*
X0161152Y0243425D01*
X0151152Y0243425D02*
X0151152Y0249425D01*
X0141152Y0249425D02*
X0141152Y0243425D01*
D25*
X0199144Y0126031D03*
X0199144Y0100835D03*
D26*
X0188844Y0232941D03*
X0214444Y0232941D03*
D27*
X0206644Y0145933D02*
X0191644Y0145933D01*
X0191644Y0145686D01*
X0193881Y0145686D01*
X0193881Y0141610D01*
X0195234Y0141610D01*
X0195234Y0145686D01*
X0198633Y0145686D01*
X0199091Y0145563D01*
X0199501Y0145326D01*
X0199836Y0144991D01*
X0200073Y0144581D01*
X0200196Y0144123D01*
X0200196Y0141609D01*
X0195234Y0141609D01*
X0195234Y0140257D01*
X0200196Y0140257D01*
X0200196Y0137743D01*
X0200073Y0137286D01*
X0200014Y0137183D01*
X0200073Y0137081D01*
X0200196Y0136623D01*
X0200196Y0134109D01*
X0195234Y0134109D01*
X0195234Y0132757D01*
X0200196Y0132757D01*
X0200196Y0130981D01*
X0203711Y0130981D01*
X0204169Y0130858D01*
X0204580Y0130621D01*
X0204915Y0130286D01*
X0205152Y0129876D01*
X0205274Y0129418D01*
X0205274Y0126806D01*
X0199919Y0126806D01*
X0199919Y0125257D01*
X0205274Y0125257D01*
X0205274Y0122645D01*
X0205152Y0122187D01*
X0204915Y0121777D01*
X0204580Y0121442D01*
X0204169Y0121205D01*
X0203711Y0121082D01*
X0199919Y0121082D01*
X0199919Y0125257D01*
X0198369Y0125257D01*
X0193013Y0125257D01*
X0193013Y0122645D01*
X0193136Y0122187D01*
X0193373Y0121777D01*
X0193708Y0121442D01*
X0194118Y0121205D01*
X0194576Y0121082D01*
X0198369Y0121082D01*
X0198369Y0125257D01*
X0198369Y0126806D01*
X0193013Y0126806D01*
X0193013Y0128680D01*
X0191644Y0128680D01*
X0191644Y0108630D01*
X0206644Y0108433D01*
X0206644Y0145933D01*
X0206644Y0145859D02*
X0191644Y0145859D01*
X0193881Y0144260D02*
X0195234Y0144260D01*
X0195234Y0142662D02*
X0193881Y0142662D01*
X0194557Y0140933D02*
X0194557Y0133433D01*
X0199144Y0128846D01*
X0199144Y0126031D01*
X0209144Y0116031D01*
X0209144Y0085933D01*
X0205404Y0082193D01*
X0203144Y0082193D01*
X0202904Y0082193D01*
X0192894Y0072183D01*
X0154144Y0072183D01*
X0151644Y0074683D01*
X0151644Y0083433D01*
X0156644Y0088433D01*
X0156644Y0089142D01*
X0164144Y0079693D02*
X0165404Y0079693D01*
X0164144Y0079693D02*
X0162175Y0077724D01*
X0156644Y0077724D01*
X0172894Y0078433D02*
X0176644Y0074683D01*
X0191894Y0074683D01*
X0198144Y0080933D01*
X0198144Y0089673D01*
X0203144Y0089673D01*
X0198144Y0089673D02*
X0191644Y0089673D01*
X0185491Y0089683D02*
X0185491Y0092869D01*
X0185978Y0094045D01*
X0186878Y0094945D01*
X0186894Y0094951D01*
X0186894Y0095933D01*
X0204144Y0095933D01*
X0205144Y0096933D01*
X0205144Y0103899D01*
X0205000Y0104063D01*
X0182500Y0104063D01*
X0179144Y0100608D01*
X0179144Y0095150D01*
X0179638Y0094945D01*
X0180538Y0094045D01*
X0181025Y0092869D01*
X0181025Y0088433D01*
X0181644Y0088433D01*
X0182894Y0089683D01*
X0185491Y0089683D01*
X0185491Y0089911D02*
X0181025Y0089911D01*
X0181025Y0091509D02*
X0185491Y0091509D01*
X0185590Y0093108D02*
X0180926Y0093108D01*
X0179876Y0094706D02*
X0186640Y0094706D01*
X0179144Y0096305D02*
X0204516Y0096305D01*
X0205144Y0097903D02*
X0179144Y0097903D01*
X0179144Y0099502D02*
X0205144Y0099502D01*
X0205144Y0101100D02*
X0179622Y0101100D01*
X0181175Y0102699D02*
X0205144Y0102699D01*
X0206644Y0109093D02*
X0191644Y0109093D01*
X0191644Y0110691D02*
X0206644Y0110691D01*
X0206644Y0112290D02*
X0191644Y0112290D01*
X0191644Y0113888D02*
X0206644Y0113888D01*
X0206644Y0115487D02*
X0191644Y0115487D01*
X0191644Y0117085D02*
X0206644Y0117085D01*
X0206644Y0118684D02*
X0191644Y0118684D01*
X0191644Y0120282D02*
X0206644Y0120282D01*
X0206644Y0121881D02*
X0204975Y0121881D01*
X0205274Y0123479D02*
X0206644Y0123479D01*
X0206644Y0125078D02*
X0205274Y0125078D01*
X0206644Y0126677D02*
X0199919Y0126677D01*
X0198369Y0126677D02*
X0191644Y0126677D01*
X0191644Y0128275D02*
X0193013Y0128275D01*
X0193013Y0125078D02*
X0191644Y0125078D01*
X0191644Y0123479D02*
X0193013Y0123479D01*
X0193312Y0121881D02*
X0191644Y0121881D01*
X0187175Y0121881D02*
X0176456Y0121881D01*
X0176456Y0120873D02*
X0176456Y0125035D01*
X0169944Y0125035D01*
X0169944Y0126635D01*
X0168344Y0126635D01*
X0168344Y0132359D01*
X0163395Y0132359D01*
X0162937Y0132236D01*
X0162527Y0131999D01*
X0162192Y0131664D01*
X0161955Y0131254D01*
X0161832Y0130796D01*
X0161832Y0126635D01*
X0168344Y0126635D01*
X0168344Y0125035D01*
X0161832Y0125035D01*
X0161832Y0120873D01*
X0161955Y0120415D01*
X0162192Y0120005D01*
X0162527Y0119670D01*
X0162937Y0119433D01*
X0163395Y0119310D01*
X0168344Y0119310D01*
X0168344Y0125035D01*
X0169944Y0125035D01*
X0169944Y0119310D01*
X0174893Y0119310D01*
X0175350Y0119433D01*
X0175761Y0119670D01*
X0176096Y0120005D01*
X0176333Y0120415D01*
X0176456Y0120873D01*
X0176256Y0120282D02*
X0187175Y0120282D01*
X0187175Y0118684D02*
X0161644Y0118684D01*
X0161644Y0120282D02*
X0162031Y0120282D01*
X0161832Y0121881D02*
X0161644Y0121881D01*
X0161644Y0123479D02*
X0161832Y0123479D01*
X0161644Y0125078D02*
X0168344Y0125078D01*
X0168344Y0126677D02*
X0169944Y0126677D01*
X0169944Y0126635D02*
X0169944Y0132359D01*
X0174893Y0132359D01*
X0175350Y0132236D01*
X0175761Y0131999D01*
X0176096Y0131664D01*
X0176333Y0131254D01*
X0176456Y0130796D01*
X0176456Y0126635D01*
X0169944Y0126635D01*
X0169944Y0125078D02*
X0187175Y0125078D01*
X0187175Y0126677D02*
X0176456Y0126677D01*
X0176456Y0128275D02*
X0187175Y0128275D01*
X0187175Y0128680D02*
X0187175Y0108630D01*
X0161644Y0108433D01*
X0161644Y0145933D01*
X0187175Y0145933D01*
X0187175Y0145686D01*
X0184407Y0145686D01*
X0184407Y0141610D01*
X0183054Y0141610D01*
X0183054Y0145686D01*
X0179655Y0145686D01*
X0179197Y0145563D01*
X0178787Y0145326D01*
X0178451Y0144991D01*
X0178214Y0144581D01*
X0178092Y0144123D01*
X0178092Y0141609D01*
X0183054Y0141609D01*
X0183054Y0140257D01*
X0178092Y0140257D01*
X0178092Y0137743D01*
X0178214Y0137286D01*
X0178274Y0137183D01*
X0178214Y0137081D01*
X0178092Y0136623D01*
X0178092Y0134109D01*
X0183054Y0134109D01*
X0183054Y0132757D01*
X0178092Y0132757D01*
X0178092Y0130243D01*
X0178214Y0129786D01*
X0178451Y0129375D01*
X0178787Y0129040D01*
X0179197Y0128803D01*
X0179655Y0128680D01*
X0183054Y0128680D01*
X0183054Y0132757D01*
X0184407Y0132757D01*
X0184407Y0128680D01*
X0187175Y0128680D01*
X0184407Y0129874D02*
X0183054Y0129874D01*
X0183054Y0131472D02*
X0184407Y0131472D01*
X0183730Y0133433D02*
X0183730Y0140933D01*
X0183054Y0141063D02*
X0161644Y0141063D01*
X0161644Y0139465D02*
X0178092Y0139465D01*
X0178092Y0137866D02*
X0161644Y0137866D01*
X0161644Y0136268D02*
X0178092Y0136268D01*
X0178092Y0134669D02*
X0161644Y0134669D01*
X0161644Y0133071D02*
X0183054Y0133071D01*
X0183054Y0134110D02*
X0183054Y0140257D01*
X0184407Y0140257D01*
X0184407Y0136180D01*
X0184407Y0134110D01*
X0183054Y0134110D01*
X0183054Y0134669D02*
X0184407Y0134669D01*
X0184407Y0136268D02*
X0183054Y0136268D01*
X0183054Y0137866D02*
X0184407Y0137866D01*
X0184407Y0139465D02*
X0183054Y0139465D01*
X0183054Y0142662D02*
X0184407Y0142662D01*
X0184407Y0144260D02*
X0183054Y0144260D01*
X0187175Y0145859D02*
X0161644Y0145859D01*
X0161644Y0144260D02*
X0178129Y0144260D01*
X0178092Y0142662D02*
X0161644Y0142662D01*
X0161644Y0131472D02*
X0162081Y0131472D01*
X0161832Y0129874D02*
X0161644Y0129874D01*
X0161644Y0128275D02*
X0161832Y0128275D01*
X0161832Y0126677D02*
X0161644Y0126677D01*
X0168344Y0128275D02*
X0169944Y0128275D01*
X0169944Y0129874D02*
X0168344Y0129874D01*
X0168344Y0131472D02*
X0169944Y0131472D01*
X0176207Y0131472D02*
X0178092Y0131472D01*
X0178191Y0129874D02*
X0176456Y0129874D01*
X0176456Y0123479D02*
X0187175Y0123479D01*
X0187175Y0117085D02*
X0161644Y0117085D01*
X0161644Y0115487D02*
X0187175Y0115487D01*
X0187175Y0113888D02*
X0161644Y0113888D01*
X0161644Y0112290D02*
X0187175Y0112290D01*
X0187175Y0110691D02*
X0161644Y0110691D01*
X0161644Y0109093D02*
X0187175Y0109093D01*
X0198369Y0121881D02*
X0199919Y0121881D01*
X0199919Y0123479D02*
X0198369Y0123479D01*
X0198369Y0125078D02*
X0199919Y0125078D01*
X0205274Y0128275D02*
X0206644Y0128275D01*
X0206644Y0129874D02*
X0205152Y0129874D01*
X0206644Y0131472D02*
X0200196Y0131472D01*
X0200196Y0134669D02*
X0206644Y0134669D01*
X0206644Y0133071D02*
X0195234Y0133071D01*
X0195234Y0134110D02*
X0193881Y0134110D01*
X0193881Y0140257D01*
X0195234Y0140257D01*
X0195234Y0136180D01*
X0195234Y0134110D01*
X0195234Y0134669D02*
X0193881Y0134669D01*
X0193881Y0136268D02*
X0195234Y0136268D01*
X0195234Y0137866D02*
X0193881Y0137866D01*
X0193881Y0139465D02*
X0195234Y0139465D01*
X0195234Y0141063D02*
X0206644Y0141063D01*
X0206644Y0139465D02*
X0200196Y0139465D01*
X0200196Y0137866D02*
X0206644Y0137866D01*
X0206644Y0136268D02*
X0200196Y0136268D01*
X0200196Y0142662D02*
X0206644Y0142662D01*
X0206644Y0144260D02*
X0200159Y0144260D01*
X0169944Y0123479D02*
X0168344Y0123479D01*
X0168344Y0121881D02*
X0169944Y0121881D01*
X0169944Y0120282D02*
X0168344Y0120282D01*
X0169144Y0101031D02*
X0172904Y0097272D01*
X0172904Y0090461D01*
X0176644Y0090461D01*
X0176644Y0081406D02*
X0176644Y0078433D01*
X0177894Y0077183D01*
X0182894Y0077183D01*
X0187904Y0082193D01*
X0187904Y0078443D01*
X0187894Y0078433D01*
X0187904Y0082193D02*
X0191644Y0082193D01*
X0180394Y0081415D02*
X0180384Y0081406D01*
X0172904Y0081406D02*
X0172894Y0081396D01*
X0172894Y0078433D01*
X0130069Y0141130D02*
X0121801Y0141130D01*
X0114715Y0148217D01*
X0114715Y0155835D01*
X0114813Y0155933D01*
X0119833Y0159634D02*
X0123435Y0159634D01*
X0123474Y0159673D01*
X0119833Y0159634D02*
X0114813Y0164654D01*
X0114813Y0168433D01*
D28*
X0108809Y0170657D03*
X0100541Y0165539D03*
X0109203Y0181287D03*
X0109203Y0189949D03*
X0108612Y0200972D03*
X0102116Y0205697D03*
X0108022Y0213965D03*
X0109597Y0217902D03*
X0102116Y0228531D03*
X0108219Y0242705D03*
X0102313Y0251760D03*
X0088730Y0249988D03*
X0088927Y0255500D03*
X0064321Y0252941D03*
X0065108Y0215539D03*
X0130463Y0209240D03*
X0139124Y0208256D03*
X0142077Y0210028D03*
X0144242Y0212783D03*
X0139321Y0217508D03*
X0139124Y0221642D03*
X0131644Y0221642D03*
X0147786Y0224004D03*
X0147392Y0228138D03*
X0156053Y0239949D03*
X0165896Y0227744D03*
X0165896Y0217114D03*
X0161565Y0208059D03*
X0163534Y0204516D03*
X0170423Y0193098D03*
X0179478Y0196051D03*
X0185187Y0192114D03*
X0171801Y0180106D03*
X0174163Y0173217D03*
X0180266Y0160224D03*
X0186368Y0159240D03*
X0189912Y0159240D03*
X0193455Y0159240D03*
X0186959Y0176366D03*
X0189321Y0178925D03*
X0172392Y0156484D03*
X0177894Y0140933D03*
X0177894Y0133433D03*
X0204478Y0141524D03*
X0205266Y0112783D03*
X0187894Y0078433D03*
X0160384Y0100972D03*
X0121408Y0087587D03*
X0130069Y0141130D03*
X0131250Y0166327D03*
X0140305Y0166327D03*
X0150738Y0169772D03*
X0153691Y0168098D03*
X0151526Y0183551D03*
X0151723Y0187980D03*
X0142667Y0198610D03*
X0136467Y0189457D03*
X0137943Y0186406D03*
X0136959Y0181583D03*
X0131644Y0181287D03*
X0178888Y0210421D03*
D29*
X0172589Y0202547D02*
X0172392Y0202350D01*
X0172392Y0198315D01*
X0172392Y0195264D01*
X0172982Y0194673D01*
X0172982Y0181287D01*
X0171801Y0180106D01*
X0171801Y0174988D01*
X0171408Y0174594D01*
X0171408Y0171839D01*
X0173376Y0169870D01*
X0173376Y0169772D01*
X0179282Y0169772D01*
X0179282Y0171740D02*
X0175640Y0171740D01*
X0174163Y0173217D01*
X0179282Y0173709D02*
X0188632Y0173709D01*
X0208238Y0193315D01*
X0211723Y0193315D01*
X0211723Y0173315D02*
X0193160Y0173315D01*
X0180069Y0160224D01*
X0180266Y0160224D01*
X0180069Y0160224D02*
X0178494Y0158650D01*
X0173967Y0158650D01*
X0172392Y0160224D01*
X0172392Y0162882D01*
X0170423Y0162882D02*
X0170423Y0158453D01*
X0172392Y0156484D01*
X0171211Y0153335D02*
X0211703Y0153335D01*
X0211723Y0153315D01*
X0186959Y0176366D02*
X0186270Y0175677D01*
X0179282Y0175677D01*
X0179282Y0177646D02*
X0183908Y0177646D01*
X0185187Y0178925D01*
X0189321Y0178925D01*
X0186959Y0176366D02*
X0186663Y0176071D01*
X0186171Y0181583D02*
X0179282Y0181583D01*
X0179282Y0183551D02*
X0184104Y0183551D01*
X0185187Y0184634D01*
X0185187Y0192114D01*
X0188337Y0193295D02*
X0185581Y0196051D01*
X0179478Y0196051D01*
X0170423Y0198315D02*
X0170423Y0193098D01*
X0162549Y0198315D02*
X0162549Y0203531D01*
X0163534Y0204516D01*
X0161565Y0207272D02*
X0160581Y0206287D01*
X0160581Y0198315D01*
X0158612Y0198315D02*
X0158612Y0226563D01*
X0163140Y0231091D01*
X0176801Y0231091D01*
X0191152Y0245441D01*
X0191152Y0246425D01*
X0194045Y0253531D02*
X0177904Y0253531D01*
X0176132Y0251760D01*
X0176132Y0240146D01*
X0170620Y0234634D01*
X0161368Y0234634D01*
X0154675Y0227941D01*
X0154675Y0198315D01*
X0152707Y0198315D02*
X0152707Y0233650D01*
X0156053Y0236996D01*
X0156053Y0239949D01*
X0151723Y0237685D02*
X0151723Y0245854D01*
X0151152Y0246425D01*
X0151723Y0237685D02*
X0150738Y0236701D01*
X0150738Y0198315D01*
X0156644Y0198315D02*
X0156644Y0227350D01*
X0162156Y0232862D01*
X0171604Y0232862D01*
X0181053Y0242311D01*
X0181053Y0246327D01*
X0181152Y0246425D01*
X0194045Y0253531D02*
X0201152Y0246425D01*
X0161565Y0208059D02*
X0161565Y0207272D01*
X0147786Y0211209D02*
X0147786Y0224004D01*
X0142274Y0223020D02*
X0141880Y0223413D01*
X0142274Y0223020D02*
X0142274Y0214752D01*
X0141093Y0213571D01*
X0141093Y0211012D01*
X0142077Y0210028D01*
X0141289Y0210815D01*
X0139124Y0208256D02*
X0135384Y0211996D01*
X0132234Y0211996D01*
X0123297Y0220933D01*
X0122884Y0220933D01*
X0128297Y0220461D02*
X0128297Y0227941D01*
X0125305Y0230933D01*
X0122884Y0230933D01*
X0128297Y0220461D02*
X0131250Y0217508D01*
X0139321Y0217508D01*
X0139124Y0221642D02*
X0131644Y0221642D01*
X0144242Y0230323D02*
X0144242Y0212783D01*
X0144242Y0230323D02*
X0122884Y0251681D01*
X0122884Y0241130D02*
X0124360Y0241130D01*
X0091644Y0209535D02*
X0091093Y0210087D01*
X0091093Y0212193D01*
X0085187Y0218098D01*
X0074360Y0218098D01*
X0047963Y0191701D01*
X0047963Y0127114D01*
X0049144Y0125933D01*
X0074144Y0115933D02*
X0123770Y0115933D01*
X0157628Y0149791D01*
X0157628Y0154516D01*
X0145817Y0154516D01*
X0135581Y0164752D01*
X0135581Y0177350D01*
X0131644Y0181287D01*
X0131289Y0180933D01*
X0122884Y0180933D01*
X0117569Y0185618D02*
X0122884Y0190933D01*
X0117569Y0185618D02*
X0106841Y0185618D01*
X0103691Y0182469D01*
X0103691Y0178531D01*
X0106841Y0175382D01*
X0118258Y0175382D01*
X0121112Y0172528D01*
X0121112Y0172134D01*
X0136959Y0181583D02*
X0143849Y0181583D01*
X0143849Y0183551D02*
X0151526Y0183551D01*
X0143849Y0187488D02*
X0138927Y0187488D01*
X0137943Y0186504D01*
X0137943Y0186406D01*
X0136467Y0189457D02*
X0143849Y0189457D01*
X0153494Y0168098D02*
X0153691Y0168098D01*
X0153494Y0168098D02*
X0152707Y0167311D01*
X0152707Y0162882D01*
X0158612Y0162882D02*
X0158612Y0155500D01*
X0157628Y0154516D01*
X0168455Y0156091D02*
X0171211Y0153335D01*
X0168455Y0156091D02*
X0168455Y0162882D01*
X0186171Y0181583D02*
X0186270Y0181681D01*
X0186368Y0181681D01*
X0188337Y0183650D01*
X0188337Y0193295D01*
X0183730Y0140933D02*
X0177894Y0140933D01*
X0177894Y0133433D02*
X0183730Y0133433D01*
D30*
X0183130Y0133050D02*
X0144139Y0133050D01*
X0145338Y0134248D02*
X0178292Y0134248D01*
X0178292Y0134033D02*
X0183130Y0134033D01*
X0183130Y0132833D01*
X0178292Y0132833D01*
X0178292Y0130270D01*
X0178401Y0129863D01*
X0178612Y0129498D01*
X0178909Y0129200D01*
X0179274Y0128989D01*
X0179681Y0128880D01*
X0183130Y0128880D01*
X0183130Y0132833D01*
X0184330Y0132833D01*
X0184330Y0128880D01*
X0187780Y0128880D01*
X0188187Y0128989D01*
X0188551Y0129200D01*
X0188644Y0129292D01*
X0188644Y0108650D01*
X0188636Y0108073D01*
X0188644Y0108054D01*
X0188644Y0108033D01*
X0188714Y0107863D01*
X0183227Y0107863D01*
X0183201Y0107873D01*
X0182473Y0107863D01*
X0181744Y0107863D01*
X0181718Y0107852D01*
X0181689Y0107852D01*
X0181021Y0107563D01*
X0180348Y0107284D01*
X0180327Y0107264D01*
X0180301Y0107253D01*
X0179794Y0106731D01*
X0179279Y0106216D01*
X0179268Y0106189D01*
X0176456Y0103295D01*
X0176456Y0106501D01*
X0175401Y0107556D01*
X0162886Y0107556D01*
X0161832Y0106501D01*
X0161832Y0106430D01*
X0157980Y0106430D01*
X0158509Y0106649D01*
X0159944Y0108084D01*
X0160720Y0109958D01*
X0160720Y0111987D01*
X0159944Y0113861D01*
X0159842Y0113963D01*
X0159786Y0114098D01*
X0158352Y0115532D01*
X0156477Y0116309D01*
X0145196Y0116309D01*
X0143322Y0115532D01*
X0140516Y0112726D01*
X0077402Y0112726D01*
X0078019Y0113343D01*
X0078139Y0113633D01*
X0124722Y0113633D01*
X0158581Y0147491D01*
X0159928Y0148839D01*
X0159928Y0153563D01*
X0160912Y0154547D01*
X0160912Y0159113D01*
X0166155Y0159113D01*
X0166155Y0155138D01*
X0168911Y0152382D01*
X0170258Y0151035D01*
X0204472Y0151035D01*
X0204653Y0150596D01*
X0206004Y0149246D01*
X0206758Y0148933D01*
X0191047Y0148933D01*
X0189944Y0148476D01*
X0189101Y0147632D01*
X0188644Y0146530D01*
X0188644Y0145074D01*
X0188551Y0145166D01*
X0188187Y0145377D01*
X0187780Y0145486D01*
X0184330Y0145486D01*
X0184330Y0141533D01*
X0183130Y0141533D01*
X0183130Y0140333D01*
X0178292Y0140333D01*
X0178292Y0137770D01*
X0178401Y0137363D01*
X0178505Y0137183D01*
X0178401Y0137003D01*
X0178292Y0136596D01*
X0178292Y0134033D01*
X0178292Y0135447D02*
X0146536Y0135447D01*
X0147735Y0136645D02*
X0178305Y0136645D01*
X0178292Y0137844D02*
X0148933Y0137844D01*
X0150132Y0139042D02*
X0178292Y0139042D01*
X0178292Y0140241D02*
X0151330Y0140241D01*
X0152529Y0141439D02*
X0183130Y0141439D01*
X0183130Y0141533D02*
X0178292Y0141533D01*
X0178292Y0144096D01*
X0178401Y0144503D01*
X0178612Y0144868D01*
X0178909Y0145166D01*
X0179274Y0145377D01*
X0179681Y0145486D01*
X0183130Y0145486D01*
X0183130Y0141533D01*
X0183130Y0142638D02*
X0184330Y0142638D01*
X0184330Y0143836D02*
X0183130Y0143836D01*
X0183130Y0145035D02*
X0184330Y0145035D01*
X0188644Y0146233D02*
X0157323Y0146233D01*
X0156124Y0145035D02*
X0178778Y0145035D01*
X0178292Y0143836D02*
X0154926Y0143836D01*
X0153727Y0142638D02*
X0178292Y0142638D01*
X0183130Y0140333D02*
X0184330Y0140333D01*
X0184330Y0136380D01*
X0184330Y0134033D01*
X0183130Y0134033D01*
X0183130Y0140333D01*
X0183130Y0140241D02*
X0184330Y0140241D01*
X0184330Y0139042D02*
X0183130Y0139042D01*
X0183130Y0137844D02*
X0184330Y0137844D01*
X0184330Y0136645D02*
X0183130Y0136645D01*
X0183130Y0135447D02*
X0184330Y0135447D01*
X0184330Y0134248D02*
X0183130Y0134248D01*
X0183130Y0131851D02*
X0184330Y0131851D01*
X0184330Y0130653D02*
X0183130Y0130653D01*
X0183130Y0129454D02*
X0184330Y0129454D01*
X0188644Y0128256D02*
X0176256Y0128256D01*
X0176256Y0129454D02*
X0178655Y0129454D01*
X0178292Y0130653D02*
X0176256Y0130653D01*
X0176256Y0130770D02*
X0176147Y0131177D01*
X0175936Y0131541D01*
X0175638Y0131839D01*
X0175273Y0132050D01*
X0174866Y0132159D01*
X0169744Y0132159D01*
X0169744Y0126435D01*
X0168544Y0126435D01*
X0168544Y0132159D01*
X0163421Y0132159D01*
X0163014Y0132050D01*
X0162650Y0131839D01*
X0162352Y0131541D01*
X0162141Y0131177D01*
X0162032Y0130770D01*
X0162032Y0126435D01*
X0168544Y0126435D01*
X0168544Y0125235D01*
X0162032Y0125235D01*
X0162032Y0120900D01*
X0162141Y0120493D01*
X0162352Y0120128D01*
X0162650Y0119830D01*
X0163014Y0119619D01*
X0163421Y0119510D01*
X0168544Y0119510D01*
X0168544Y0125235D01*
X0169744Y0125235D01*
X0169744Y0126435D01*
X0176256Y0126435D01*
X0176256Y0130770D01*
X0175618Y0131851D02*
X0178292Y0131851D01*
X0176256Y0127057D02*
X0188644Y0127057D01*
X0188644Y0125859D02*
X0169744Y0125859D01*
X0169744Y0125235D02*
X0176256Y0125235D01*
X0176256Y0120900D01*
X0176147Y0120493D01*
X0175936Y0120128D01*
X0175638Y0119830D01*
X0175273Y0119619D01*
X0174866Y0119510D01*
X0169744Y0119510D01*
X0169744Y0125235D01*
X0169744Y0124660D02*
X0168544Y0124660D01*
X0168544Y0123462D02*
X0169744Y0123462D01*
X0169744Y0122263D02*
X0168544Y0122263D01*
X0168544Y0121065D02*
X0169744Y0121065D01*
X0169744Y0119866D02*
X0168544Y0119866D01*
X0162613Y0119866D02*
X0130955Y0119866D01*
X0129757Y0118668D02*
X0188644Y0118668D01*
X0188644Y0119866D02*
X0175674Y0119866D01*
X0176256Y0121065D02*
X0188644Y0121065D01*
X0188644Y0122263D02*
X0176256Y0122263D01*
X0176256Y0123462D02*
X0188644Y0123462D01*
X0188644Y0124660D02*
X0176256Y0124660D01*
X0169744Y0127057D02*
X0168544Y0127057D01*
X0168544Y0125859D02*
X0136948Y0125859D01*
X0138147Y0127057D02*
X0162032Y0127057D01*
X0162032Y0128256D02*
X0139345Y0128256D01*
X0140544Y0129454D02*
X0162032Y0129454D01*
X0162032Y0130653D02*
X0141742Y0130653D01*
X0142941Y0131851D02*
X0162670Y0131851D01*
X0168544Y0131851D02*
X0169744Y0131851D01*
X0169744Y0130653D02*
X0168544Y0130653D01*
X0168544Y0129454D02*
X0169744Y0129454D01*
X0169744Y0128256D02*
X0168544Y0128256D01*
X0162032Y0124660D02*
X0135750Y0124660D01*
X0134551Y0123462D02*
X0162032Y0123462D01*
X0162032Y0122263D02*
X0133352Y0122263D01*
X0132154Y0121065D02*
X0162032Y0121065D01*
X0158812Y0115072D02*
X0188644Y0115072D01*
X0188644Y0113874D02*
X0159932Y0113874D01*
X0160435Y0112675D02*
X0188644Y0112675D01*
X0188644Y0111477D02*
X0160720Y0111477D01*
X0160720Y0110278D02*
X0188644Y0110278D01*
X0188644Y0109079D02*
X0160356Y0109079D01*
X0159741Y0107881D02*
X0188707Y0107881D01*
X0188644Y0116271D02*
X0156569Y0116271D01*
X0158543Y0106682D02*
X0162013Y0106682D01*
X0160384Y0100972D02*
X0155778Y0100972D01*
X0155620Y0101130D01*
X0152160Y0097094D02*
X0087079Y0097094D01*
X0086289Y0097885D02*
X0083275Y0099133D01*
X0080013Y0099133D01*
X0076999Y0097885D01*
X0074692Y0095578D01*
X0073444Y0092564D01*
X0073444Y0089302D01*
X0074692Y0086288D01*
X0076999Y0083981D01*
X0080013Y0082733D01*
X0083275Y0082733D01*
X0086289Y0083981D01*
X0088595Y0086288D01*
X0089844Y0089302D01*
X0089844Y0092564D01*
X0088595Y0095578D01*
X0086289Y0097885D01*
X0085303Y0098293D02*
X0151059Y0098293D01*
X0151127Y0098128D02*
X0152618Y0096637D01*
X0154566Y0095830D01*
X0161832Y0095830D01*
X0161832Y0095561D01*
X0162886Y0094507D01*
X0170304Y0094507D01*
X0170304Y0093359D01*
X0169923Y0092978D01*
X0169923Y0089573D01*
X0168897Y0089573D01*
X0168897Y0090478D01*
X0167842Y0091532D01*
X0160806Y0091532D01*
X0160806Y0092840D01*
X0159752Y0093894D01*
X0153536Y0093894D01*
X0152482Y0092840D01*
X0152482Y0087948D01*
X0150171Y0085637D01*
X0149440Y0084906D01*
X0149044Y0083950D01*
X0149044Y0074166D01*
X0149440Y0073210D01*
X0151940Y0070710D01*
X0152671Y0069979D01*
X0153627Y0069583D01*
X0193411Y0069583D01*
X0194367Y0069979D01*
X0195098Y0070710D01*
X0195098Y0070710D01*
X0202222Y0077834D01*
X0206842Y0077834D01*
X0207897Y0078888D01*
X0207897Y0081009D01*
X0210617Y0083729D01*
X0211348Y0084460D01*
X0211744Y0085416D01*
X0211744Y0116549D01*
X0211348Y0117504D01*
X0209644Y0119208D01*
X0209644Y0138524D01*
X0213737Y0138524D01*
X0214839Y0138980D01*
X0222320Y0146461D01*
X0223163Y0147305D01*
X0223545Y0148225D01*
X0223545Y0067733D01*
X0093460Y0067733D01*
X0094213Y0068486D01*
X0094213Y0069994D01*
X0093148Y0071060D01*
X0033444Y0071060D01*
X0033444Y0259094D01*
X0223545Y0259094D01*
X0223545Y0200177D01*
X0223163Y0201097D01*
X0219191Y0205069D01*
X0218792Y0206034D01*
X0217441Y0207384D01*
X0215677Y0208115D01*
X0207768Y0208115D01*
X0206004Y0207384D01*
X0204934Y0206315D01*
X0172760Y0206315D01*
X0171657Y0205858D01*
X0170045Y0204247D01*
X0169589Y0203144D01*
X0169589Y0202083D01*
X0165609Y0202083D01*
X0166236Y0202710D01*
X0166721Y0203882D01*
X0166721Y0205150D01*
X0166236Y0206321D01*
X0165339Y0207218D01*
X0164752Y0207461D01*
X0164752Y0208693D01*
X0164267Y0209865D01*
X0163371Y0210761D01*
X0162199Y0211246D01*
X0160931Y0211246D01*
X0160912Y0211239D01*
X0160912Y0225610D01*
X0164093Y0228791D01*
X0177754Y0228791D01*
X0182994Y0234030D01*
X0182994Y0233241D01*
X0188544Y0233241D01*
X0188544Y0238791D01*
X0187754Y0238791D01*
X0188376Y0239413D01*
X0188433Y0239356D01*
X0189797Y0238791D01*
X0189144Y0238791D01*
X0189144Y0233241D01*
X0194694Y0233241D01*
X0194694Y0235364D01*
X0191433Y0238625D01*
X0192106Y0238625D01*
X0193871Y0239356D01*
X0195221Y0240706D01*
X0195952Y0242470D01*
X0195952Y0248373D01*
X0196352Y0247973D01*
X0196352Y0242470D01*
X0197082Y0240706D01*
X0198433Y0239356D01*
X0200197Y0238625D01*
X0202106Y0238625D01*
X0203871Y0239356D01*
X0205221Y0240706D01*
X0205952Y0242470D01*
X0205952Y0250380D01*
X0205221Y0252144D01*
X0203871Y0253494D01*
X0202106Y0254225D01*
X0200197Y0254225D01*
X0198433Y0253494D01*
X0197884Y0252946D01*
X0196345Y0254484D01*
X0194998Y0255831D01*
X0176951Y0255831D01*
X0175179Y0254060D01*
X0174242Y0253123D01*
X0173871Y0253494D01*
X0172106Y0254225D01*
X0170197Y0254225D01*
X0168433Y0253494D01*
X0167082Y0252144D01*
X0166352Y0250380D01*
X0166352Y0242470D01*
X0167082Y0240706D01*
X0168433Y0239356D01*
X0170197Y0238625D01*
X0171359Y0238625D01*
X0169667Y0236934D01*
X0160416Y0236934D01*
X0159068Y0235587D01*
X0155007Y0231525D01*
X0155007Y0232697D01*
X0157006Y0234696D01*
X0158353Y0236043D01*
X0158353Y0237741D01*
X0158755Y0238143D01*
X0159214Y0239250D01*
X0159386Y0239162D01*
X0160074Y0238938D01*
X0160752Y0238831D01*
X0160752Y0246025D01*
X0161552Y0246025D01*
X0161552Y0246825D01*
X0165752Y0246825D01*
X0165752Y0249787D01*
X0165638Y0250502D01*
X0165415Y0251191D01*
X0165086Y0251836D01*
X0164660Y0252422D01*
X0164148Y0252934D01*
X0163563Y0253359D01*
X0162917Y0253688D01*
X0162229Y0253912D01*
X0161552Y0254019D01*
X0161552Y0246825D01*
X0160752Y0246825D01*
X0160752Y0254019D01*
X0160074Y0253912D01*
X0159386Y0253688D01*
X0158741Y0253359D01*
X0158155Y0252934D01*
X0157643Y0252422D01*
X0157217Y0251836D01*
X0156889Y0251191D01*
X0156665Y0250502D01*
X0156552Y0249787D01*
X0156552Y0246825D01*
X0160752Y0246825D01*
X0160752Y0246025D01*
X0156552Y0246025D01*
X0156552Y0243136D01*
X0155952Y0243136D01*
X0155952Y0250380D01*
X0155221Y0252144D01*
X0153871Y0253494D01*
X0152106Y0254225D01*
X0150197Y0254225D01*
X0148433Y0253494D01*
X0147082Y0252144D01*
X0146352Y0250380D01*
X0146352Y0242470D01*
X0147082Y0240706D01*
X0148433Y0239356D01*
X0149423Y0238946D01*
X0149423Y0238638D01*
X0148438Y0237653D01*
X0148438Y0227184D01*
X0148420Y0227191D01*
X0147152Y0227191D01*
X0146542Y0226939D01*
X0146542Y0231276D01*
X0145195Y0232623D01*
X0138482Y0239335D01*
X0140197Y0238625D01*
X0142106Y0238625D01*
X0143871Y0239356D01*
X0145221Y0240706D01*
X0145952Y0242470D01*
X0145952Y0250380D01*
X0145221Y0252144D01*
X0143871Y0253494D01*
X0142106Y0254225D01*
X0140197Y0254225D01*
X0138433Y0253494D01*
X0137082Y0252144D01*
X0136352Y0250380D01*
X0136352Y0242470D01*
X0137062Y0240756D01*
X0127243Y0250575D01*
X0127243Y0255379D01*
X0126189Y0256434D01*
X0119579Y0256434D01*
X0119144Y0255998D01*
X0118708Y0256434D01*
X0112099Y0256434D01*
X0111045Y0255379D01*
X0111045Y0254081D01*
X0104499Y0254081D01*
X0104119Y0254462D01*
X0102947Y0254947D01*
X0101679Y0254947D01*
X0100508Y0254462D01*
X0099611Y0253565D01*
X0099126Y0252394D01*
X0099126Y0251126D01*
X0099611Y0249954D01*
X0100508Y0249058D01*
X0101679Y0248572D01*
X0102947Y0248572D01*
X0104119Y0249058D01*
X0104342Y0249281D01*
X0111045Y0249281D01*
X0111045Y0247983D01*
X0112099Y0246928D01*
X0118708Y0246928D01*
X0119144Y0247364D01*
X0119579Y0246928D01*
X0124384Y0246928D01*
X0125430Y0245883D01*
X0119579Y0245883D01*
X0119144Y0245447D01*
X0118708Y0245883D01*
X0112099Y0245883D01*
X0111045Y0244828D01*
X0111045Y0244211D01*
X0110921Y0244510D01*
X0110024Y0245407D01*
X0108853Y0245892D01*
X0107585Y0245892D01*
X0106413Y0245407D01*
X0105516Y0244510D01*
X0105031Y0243339D01*
X0105031Y0242987D01*
X0092115Y0255904D01*
X0092115Y0256134D01*
X0091629Y0257306D01*
X0090733Y0258202D01*
X0089561Y0258687D01*
X0088293Y0258687D01*
X0087122Y0258202D01*
X0086225Y0257306D01*
X0085740Y0256134D01*
X0085740Y0254866D01*
X0086225Y0253694D01*
X0087122Y0252798D01*
X0087153Y0252785D01*
X0086925Y0252690D01*
X0086028Y0251794D01*
X0085543Y0250622D01*
X0085543Y0249354D01*
X0086028Y0248183D01*
X0086925Y0247286D01*
X0088096Y0246801D01*
X0088524Y0246801D01*
X0105523Y0229801D01*
X0105523Y0225495D01*
X0105889Y0224613D01*
X0111045Y0219457D01*
X0111045Y0217235D01*
X0111315Y0216965D01*
X0109264Y0216965D01*
X0105116Y0221113D01*
X0105116Y0227445D01*
X0105304Y0227897D01*
X0105304Y0229166D01*
X0104818Y0230337D01*
X0103922Y0231234D01*
X0102750Y0231719D01*
X0101482Y0231719D01*
X0100311Y0231234D01*
X0099414Y0230337D01*
X0098929Y0229166D01*
X0098929Y0227897D01*
X0099116Y0227445D01*
X0099116Y0219273D01*
X0099573Y0218171D01*
X0100417Y0217327D01*
X0105132Y0212611D01*
X0105320Y0212159D01*
X0106216Y0211262D01*
X0107388Y0210777D01*
X0108656Y0210777D01*
X0109108Y0210965D01*
X0111045Y0210965D01*
X0111045Y0207353D01*
X0112099Y0206298D01*
X0115269Y0206298D01*
X0114656Y0205686D01*
X0112099Y0205686D01*
X0111045Y0204631D01*
X0111045Y0203372D01*
X0110720Y0203372D01*
X0110418Y0203675D01*
X0109246Y0204160D01*
X0107978Y0204160D01*
X0106807Y0203675D01*
X0105910Y0202778D01*
X0105723Y0202326D01*
X0097998Y0194601D01*
X0097541Y0193498D01*
X0097541Y0172778D01*
X0084658Y0185662D01*
X0084658Y0191388D01*
X0085557Y0192287D01*
X0086258Y0193978D01*
X0086258Y0201408D01*
X0085557Y0203099D01*
X0084893Y0203762D01*
X0085000Y0203869D01*
X0085407Y0204429D01*
X0085721Y0205046D01*
X0085935Y0205705D01*
X0086044Y0206389D01*
X0086044Y0209235D01*
X0081944Y0209235D01*
X0081944Y0209835D01*
X0086044Y0209835D01*
X0086044Y0212682D01*
X0085935Y0213366D01*
X0085721Y0214024D01*
X0085423Y0214610D01*
X0087044Y0212989D01*
X0087044Y0205820D01*
X0087744Y0204130D01*
X0088267Y0203607D01*
X0087758Y0203099D01*
X0087058Y0201408D01*
X0087058Y0193978D01*
X0087758Y0192287D01*
X0089052Y0190993D01*
X0090743Y0190293D01*
X0092573Y0190293D01*
X0094263Y0190993D01*
X0095557Y0192287D01*
X0096258Y0193978D01*
X0096258Y0201408D01*
X0095557Y0203099D01*
X0095035Y0203621D01*
X0095543Y0204130D01*
X0096244Y0205820D01*
X0096244Y0213250D01*
X0095543Y0214941D01*
X0094249Y0216235D01*
X0092559Y0216935D01*
X0090729Y0216935D01*
X0089933Y0216606D01*
X0086140Y0220398D01*
X0073408Y0220398D01*
X0045663Y0192653D01*
X0045663Y0128917D01*
X0045268Y0128523D01*
X0044572Y0126842D01*
X0044572Y0125024D01*
X0045268Y0123343D01*
X0046554Y0122057D01*
X0048234Y0121361D01*
X0050053Y0121361D01*
X0051733Y0122057D01*
X0053019Y0123343D01*
X0053715Y0125024D01*
X0053715Y0126842D01*
X0053019Y0128523D01*
X0051733Y0129809D01*
X0050263Y0130418D01*
X0050263Y0155041D01*
X0050933Y0154763D01*
X0052354Y0154763D01*
X0053667Y0155307D01*
X0054672Y0156311D01*
X0055215Y0157624D01*
X0055215Y0159045D01*
X0054672Y0160358D01*
X0053667Y0161363D01*
X0052354Y0161906D01*
X0050933Y0161906D01*
X0050263Y0161628D01*
X0050263Y0172364D01*
X0050933Y0172086D01*
X0052354Y0172086D01*
X0053667Y0172630D01*
X0054672Y0173634D01*
X0055215Y0174947D01*
X0055215Y0176368D01*
X0054672Y0177681D01*
X0053667Y0178685D01*
X0052354Y0179229D01*
X0050933Y0179229D01*
X0050263Y0178951D01*
X0050263Y0190748D01*
X0075313Y0215798D01*
X0078924Y0215798D01*
X0078777Y0215692D01*
X0078288Y0215202D01*
X0077881Y0214642D01*
X0077566Y0214024D01*
X0077352Y0213366D01*
X0077244Y0212682D01*
X0077244Y0209835D01*
X0081344Y0209835D01*
X0081344Y0209235D01*
X0077244Y0209235D01*
X0077244Y0206389D01*
X0077352Y0205705D01*
X0077566Y0205046D01*
X0077881Y0204429D01*
X0078288Y0203869D01*
X0078408Y0203749D01*
X0077758Y0203099D01*
X0077058Y0201408D01*
X0077058Y0193978D01*
X0077758Y0192287D01*
X0078658Y0191388D01*
X0078658Y0183823D01*
X0079114Y0182720D01*
X0079958Y0181876D01*
X0093401Y0168433D01*
X0081047Y0168433D01*
X0079944Y0167976D01*
X0079101Y0167132D01*
X0078644Y0166030D01*
X0078644Y0164836D01*
X0079101Y0163734D01*
X0079944Y0162890D01*
X0081047Y0162433D01*
X0099712Y0162433D01*
X0099907Y0162352D01*
X0101175Y0162352D01*
X0102347Y0162837D01*
X0103244Y0163734D01*
X0103729Y0164905D01*
X0103729Y0165590D01*
X0110464Y0158854D01*
X0110257Y0158647D01*
X0110257Y0153219D01*
X0111312Y0152165D01*
X0112115Y0152165D01*
X0112115Y0147699D01*
X0112510Y0146744D01*
X0113242Y0146012D01*
X0120328Y0138926D01*
X0121284Y0138530D01*
X0128161Y0138530D01*
X0128263Y0138428D01*
X0129435Y0137943D01*
X0130703Y0137943D01*
X0131874Y0138428D01*
X0132771Y0139324D01*
X0133256Y0140496D01*
X0133256Y0141764D01*
X0132771Y0142935D01*
X0131874Y0143832D01*
X0130703Y0144317D01*
X0129435Y0144317D01*
X0128263Y0143832D01*
X0128161Y0143730D01*
X0122878Y0143730D01*
X0117315Y0149293D01*
X0117315Y0152165D01*
X0118315Y0152165D01*
X0118919Y0152769D01*
X0118919Y0149479D01*
X0119973Y0148424D01*
X0126976Y0148424D01*
X0128030Y0149479D01*
X0128030Y0154907D01*
X0127004Y0155933D01*
X0128030Y0156959D01*
X0128030Y0167407D01*
X0127004Y0168433D01*
X0128030Y0169459D01*
X0128030Y0174887D01*
X0126976Y0175942D01*
X0120951Y0175942D01*
X0120712Y0176180D01*
X0126189Y0176180D01*
X0127243Y0177235D01*
X0127243Y0178633D01*
X0129790Y0178633D01*
X0129838Y0178585D01*
X0131010Y0178100D01*
X0131578Y0178100D01*
X0133281Y0176398D01*
X0133281Y0163799D01*
X0134628Y0162452D01*
X0144864Y0152216D01*
X0155328Y0152216D01*
X0155328Y0150744D01*
X0122817Y0118233D01*
X0078139Y0118233D01*
X0078019Y0118523D01*
X0076733Y0119809D01*
X0075053Y0120505D01*
X0073234Y0120505D01*
X0071554Y0119809D01*
X0070268Y0118523D01*
X0069572Y0116842D01*
X0069572Y0115024D01*
X0070268Y0113343D01*
X0070886Y0112726D01*
X0067402Y0112726D01*
X0068019Y0113343D01*
X0068715Y0115024D01*
X0068715Y0116842D01*
X0068019Y0118523D01*
X0066733Y0119809D01*
X0065053Y0120505D01*
X0063234Y0120505D01*
X0061554Y0119809D01*
X0060268Y0118523D01*
X0059713Y0117183D01*
X0058746Y0118150D01*
X0058467Y0118822D01*
X0057033Y0120257D01*
X0055158Y0121033D01*
X0053129Y0121033D01*
X0051255Y0120257D01*
X0049820Y0118822D01*
X0049044Y0116948D01*
X0049044Y0114525D01*
X0049820Y0112650D01*
X0051255Y0111216D01*
X0059168Y0103302D01*
X0061043Y0102526D01*
X0143642Y0102526D01*
X0145517Y0103302D01*
X0148323Y0106109D01*
X0153790Y0106109D01*
X0152618Y0105623D01*
X0151127Y0104132D01*
X0150320Y0102184D01*
X0150320Y0100076D01*
X0151127Y0098128D01*
X0150562Y0099491D02*
X0033444Y0099491D01*
X0033444Y0098293D02*
X0037984Y0098293D01*
X0036999Y0097885D02*
X0034692Y0095578D01*
X0033444Y0092564D01*
X0033444Y0089302D01*
X0034692Y0086288D01*
X0036999Y0083981D01*
X0040013Y0082733D01*
X0043275Y0082733D01*
X0046289Y0083981D01*
X0048595Y0086288D01*
X0049844Y0089302D01*
X0049844Y0092564D01*
X0048595Y0095578D01*
X0046289Y0097885D01*
X0043275Y0099133D01*
X0040013Y0099133D01*
X0036999Y0097885D01*
X0036209Y0097094D02*
X0033444Y0097094D01*
X0033444Y0095896D02*
X0035010Y0095896D01*
X0034327Y0094697D02*
X0033444Y0094697D01*
X0033444Y0093499D02*
X0033831Y0093499D01*
X0033444Y0092300D02*
X0033444Y0092300D01*
X0033444Y0091102D02*
X0033444Y0091102D01*
X0033444Y0089903D02*
X0033444Y0089903D01*
X0033444Y0088705D02*
X0033691Y0088705D01*
X0033444Y0087506D02*
X0034188Y0087506D01*
X0034684Y0086308D02*
X0033444Y0086308D01*
X0033444Y0085109D02*
X0035871Y0085109D01*
X0037170Y0083911D02*
X0033444Y0083911D01*
X0033444Y0082712D02*
X0149044Y0082712D01*
X0149044Y0081514D02*
X0033444Y0081514D01*
X0033444Y0080315D02*
X0149044Y0080315D01*
X0149044Y0079117D02*
X0033444Y0079117D01*
X0033444Y0077918D02*
X0149044Y0077918D01*
X0149044Y0076720D02*
X0033444Y0076720D01*
X0033444Y0075521D02*
X0149044Y0075521D01*
X0149044Y0074323D02*
X0033444Y0074323D01*
X0033444Y0073124D02*
X0149526Y0073124D01*
X0150724Y0071926D02*
X0033444Y0071926D01*
X0046118Y0083911D02*
X0077170Y0083911D01*
X0075871Y0085109D02*
X0047417Y0085109D01*
X0048604Y0086308D02*
X0074684Y0086308D01*
X0074188Y0087506D02*
X0049100Y0087506D01*
X0049596Y0088705D02*
X0073691Y0088705D01*
X0073444Y0089903D02*
X0049844Y0089903D01*
X0049844Y0091102D02*
X0073444Y0091102D01*
X0073444Y0092300D02*
X0049844Y0092300D01*
X0049457Y0093499D02*
X0073831Y0093499D01*
X0074327Y0094697D02*
X0048960Y0094697D01*
X0048278Y0095896D02*
X0075010Y0095896D01*
X0076209Y0097094D02*
X0047079Y0097094D01*
X0045303Y0098293D02*
X0077984Y0098293D01*
X0088278Y0095896D02*
X0154407Y0095896D01*
X0153140Y0093499D02*
X0089457Y0093499D01*
X0089844Y0092300D02*
X0152482Y0092300D01*
X0152482Y0091102D02*
X0089844Y0091102D01*
X0089844Y0089903D02*
X0152482Y0089903D01*
X0152482Y0088705D02*
X0089596Y0088705D01*
X0089100Y0087506D02*
X0152040Y0087506D01*
X0150842Y0086308D02*
X0088604Y0086308D01*
X0087417Y0085109D02*
X0149643Y0085109D01*
X0149044Y0083911D02*
X0086118Y0083911D01*
X0088960Y0094697D02*
X0162696Y0094697D01*
X0160147Y0093499D02*
X0170304Y0093499D01*
X0169923Y0092300D02*
X0160806Y0092300D01*
X0164144Y0087173D02*
X0179134Y0087173D01*
X0180394Y0088433D01*
X0180394Y0090451D01*
X0180384Y0090461D01*
X0179144Y0084683D02*
X0180394Y0083433D01*
X0180394Y0081415D01*
X0179144Y0084683D02*
X0170394Y0084683D01*
X0165404Y0079693D01*
X0168897Y0076388D02*
X0167842Y0075334D01*
X0163198Y0075334D01*
X0162692Y0075124D01*
X0160806Y0075124D01*
X0160806Y0074783D01*
X0172867Y0074783D01*
X0170690Y0076960D01*
X0170294Y0077916D01*
X0170294Y0078517D01*
X0169923Y0078888D01*
X0169923Y0080818D01*
X0168897Y0079792D01*
X0168897Y0076388D01*
X0168897Y0076720D02*
X0170930Y0076720D01*
X0170294Y0077918D02*
X0168897Y0077918D01*
X0168897Y0079117D02*
X0169923Y0079117D01*
X0169923Y0080315D02*
X0169420Y0080315D01*
X0168029Y0075521D02*
X0172129Y0075521D01*
X0176644Y0078360D02*
X0176644Y0081405D01*
X0176644Y0078360D01*
X0176644Y0078360D01*
X0176970Y0078034D02*
X0178036Y0078034D01*
X0178210Y0078081D01*
X0178457Y0077834D01*
X0182311Y0077834D01*
X0183090Y0078614D01*
X0183182Y0078455D01*
X0183480Y0078157D01*
X0183845Y0077946D01*
X0184252Y0077837D01*
X0185644Y0077837D01*
X0187036Y0077837D01*
X0187442Y0077946D01*
X0187807Y0078157D01*
X0187896Y0078245D01*
X0188073Y0078143D01*
X0188480Y0078034D01*
X0191044Y0078034D01*
X0191044Y0081593D01*
X0192244Y0081593D01*
X0192244Y0078710D01*
X0190817Y0077283D01*
X0177721Y0077283D01*
X0176970Y0078034D01*
X0177086Y0077918D02*
X0178373Y0077918D01*
X0176644Y0079117D02*
X0176644Y0079117D01*
X0176644Y0080315D02*
X0176644Y0080315D01*
X0176644Y0081405D02*
X0176644Y0081405D01*
X0182395Y0077918D02*
X0183949Y0077918D01*
X0185644Y0077918D02*
X0185644Y0077918D01*
X0185644Y0077837D02*
X0185644Y0081012D01*
X0185644Y0081012D01*
X0185644Y0084187D01*
X0187036Y0084187D01*
X0187091Y0084172D01*
X0187091Y0084963D01*
X0187200Y0085370D01*
X0187411Y0085734D01*
X0187468Y0085792D01*
X0187377Y0085883D01*
X0184468Y0085883D01*
X0183796Y0085212D01*
X0182580Y0084708D01*
X0183365Y0083923D01*
X0183365Y0083752D01*
X0183480Y0083867D01*
X0183845Y0084078D01*
X0184252Y0084187D01*
X0185644Y0084187D01*
X0185644Y0081012D01*
X0185644Y0081012D01*
X0185644Y0077837D01*
X0185644Y0079117D02*
X0185644Y0079117D01*
X0185644Y0080315D02*
X0185644Y0080315D01*
X0185644Y0081514D02*
X0185644Y0081514D01*
X0185644Y0082712D02*
X0185644Y0082712D01*
X0185644Y0083911D02*
X0185644Y0083911D01*
X0187130Y0085109D02*
X0183549Y0085109D01*
X0183556Y0083911D02*
X0183365Y0083911D01*
X0187338Y0077918D02*
X0191452Y0077918D01*
X0191044Y0079117D02*
X0192244Y0079117D01*
X0192244Y0080315D02*
X0191044Y0080315D01*
X0191044Y0081514D02*
X0192244Y0081514D01*
X0198710Y0074323D02*
X0223545Y0074323D01*
X0223545Y0075521D02*
X0199909Y0075521D01*
X0201107Y0076720D02*
X0223545Y0076720D01*
X0223545Y0077918D02*
X0206926Y0077918D01*
X0207897Y0079117D02*
X0223545Y0079117D01*
X0223545Y0080315D02*
X0207897Y0080315D01*
X0208401Y0081514D02*
X0223545Y0081514D01*
X0223545Y0082712D02*
X0209600Y0082712D01*
X0210798Y0083911D02*
X0223545Y0083911D01*
X0223545Y0085109D02*
X0211617Y0085109D01*
X0211744Y0086308D02*
X0223545Y0086308D01*
X0223545Y0087506D02*
X0211744Y0087506D01*
X0211744Y0088705D02*
X0223545Y0088705D01*
X0223545Y0089903D02*
X0211744Y0089903D01*
X0211744Y0091102D02*
X0223545Y0091102D01*
X0223545Y0092300D02*
X0211744Y0092300D01*
X0211744Y0093499D02*
X0223545Y0093499D01*
X0223545Y0094697D02*
X0211744Y0094697D01*
X0211744Y0095896D02*
X0223545Y0095896D01*
X0223545Y0097094D02*
X0211744Y0097094D01*
X0211744Y0098293D02*
X0223545Y0098293D01*
X0223545Y0099491D02*
X0211744Y0099491D01*
X0211744Y0100690D02*
X0223545Y0100690D01*
X0223545Y0101888D02*
X0211744Y0101888D01*
X0211744Y0103087D02*
X0223545Y0103087D01*
X0223545Y0104285D02*
X0211744Y0104285D01*
X0211744Y0105484D02*
X0223545Y0105484D01*
X0223545Y0106682D02*
X0211744Y0106682D01*
X0211744Y0107881D02*
X0223545Y0107881D01*
X0223545Y0109079D02*
X0211744Y0109079D01*
X0211744Y0110278D02*
X0223545Y0110278D01*
X0223545Y0111477D02*
X0211744Y0111477D01*
X0211744Y0112675D02*
X0223545Y0112675D01*
X0223545Y0113874D02*
X0211744Y0113874D01*
X0211744Y0115072D02*
X0223545Y0115072D01*
X0223545Y0116271D02*
X0211744Y0116271D01*
X0211363Y0117469D02*
X0223545Y0117469D01*
X0223545Y0118668D02*
X0210185Y0118668D01*
X0209644Y0119866D02*
X0223545Y0119866D01*
X0223545Y0121065D02*
X0209644Y0121065D01*
X0209644Y0122263D02*
X0223545Y0122263D01*
X0223545Y0123462D02*
X0209644Y0123462D01*
X0209644Y0124660D02*
X0223545Y0124660D01*
X0223545Y0125859D02*
X0209644Y0125859D01*
X0209644Y0127057D02*
X0223545Y0127057D01*
X0223545Y0128256D02*
X0209644Y0128256D01*
X0209644Y0129454D02*
X0223545Y0129454D01*
X0223545Y0130653D02*
X0209644Y0130653D01*
X0209644Y0131851D02*
X0223545Y0131851D01*
X0223545Y0133050D02*
X0209644Y0133050D01*
X0209644Y0134248D02*
X0223545Y0134248D01*
X0223545Y0135447D02*
X0209644Y0135447D01*
X0209644Y0136645D02*
X0223545Y0136645D01*
X0223545Y0137844D02*
X0209644Y0137844D01*
X0214901Y0139042D02*
X0223545Y0139042D01*
X0223545Y0140241D02*
X0216100Y0140241D01*
X0217298Y0141439D02*
X0223545Y0141439D01*
X0223545Y0142638D02*
X0218497Y0142638D01*
X0219695Y0143836D02*
X0223545Y0143836D01*
X0223545Y0145035D02*
X0220894Y0145035D01*
X0222092Y0146233D02*
X0223545Y0146233D01*
X0223545Y0147432D02*
X0223216Y0147432D01*
X0216038Y0148664D02*
X0211897Y0144524D01*
X0209644Y0144524D01*
X0209644Y0146530D01*
X0209187Y0147632D01*
X0208343Y0148476D01*
X0208250Y0148515D01*
X0215677Y0148515D01*
X0216038Y0148664D01*
X0216004Y0148630D02*
X0215956Y0148630D01*
X0214805Y0147432D02*
X0209270Y0147432D01*
X0209644Y0146233D02*
X0213607Y0146233D01*
X0212408Y0145035D02*
X0209644Y0145035D01*
X0205420Y0149829D02*
X0159928Y0149829D01*
X0159928Y0151027D02*
X0204475Y0151027D01*
X0204488Y0155635D02*
X0175490Y0155635D01*
X0175579Y0155850D01*
X0175579Y0156350D01*
X0179447Y0156350D01*
X0180134Y0157037D01*
X0180900Y0157037D01*
X0182071Y0157522D01*
X0182968Y0158419D01*
X0183453Y0159590D01*
X0183453Y0160356D01*
X0194112Y0171015D01*
X0204480Y0171015D01*
X0204653Y0170596D01*
X0206004Y0169246D01*
X0207768Y0168515D01*
X0215677Y0168515D01*
X0217441Y0169246D01*
X0217620Y0169424D01*
X0217620Y0167206D01*
X0217441Y0167384D01*
X0215677Y0168115D01*
X0207768Y0168115D01*
X0206004Y0167384D01*
X0204653Y0166034D01*
X0203923Y0164270D01*
X0203923Y0162360D01*
X0204653Y0160596D01*
X0206004Y0159246D01*
X0207768Y0158515D01*
X0215677Y0158515D01*
X0217441Y0159246D01*
X0217620Y0159424D01*
X0217620Y0157206D01*
X0217441Y0157384D01*
X0215677Y0158115D01*
X0207768Y0158115D01*
X0206004Y0157384D01*
X0204653Y0156034D01*
X0204488Y0155635D01*
X0204565Y0155821D02*
X0175567Y0155821D01*
X0180117Y0157020D02*
X0205639Y0157020D01*
X0205832Y0159417D02*
X0183381Y0159417D01*
X0183713Y0160615D02*
X0204645Y0160615D01*
X0204149Y0161814D02*
X0184911Y0161814D01*
X0186110Y0163012D02*
X0203923Y0163012D01*
X0203923Y0164211D02*
X0187308Y0164211D01*
X0188507Y0165410D02*
X0204395Y0165410D01*
X0205227Y0166608D02*
X0189705Y0166608D01*
X0190904Y0167807D02*
X0207023Y0167807D01*
X0206585Y0169005D02*
X0192102Y0169005D01*
X0193301Y0170204D02*
X0205046Y0170204D01*
X0204480Y0175615D02*
X0193791Y0175615D01*
X0207006Y0188830D01*
X0207768Y0188515D01*
X0215677Y0188515D01*
X0217441Y0189246D01*
X0217620Y0189424D01*
X0217620Y0186896D01*
X0217133Y0187249D01*
X0216488Y0187578D01*
X0215800Y0187802D01*
X0215085Y0187915D01*
X0212123Y0187915D01*
X0212123Y0183715D01*
X0211323Y0183715D01*
X0211323Y0187915D01*
X0208360Y0187915D01*
X0207645Y0187802D01*
X0206957Y0187578D01*
X0206312Y0187249D01*
X0205726Y0186824D01*
X0205214Y0186312D01*
X0204788Y0185726D01*
X0204460Y0185081D01*
X0204236Y0184392D01*
X0204129Y0183715D01*
X0211322Y0183715D01*
X0211322Y0182915D01*
X0204129Y0182915D01*
X0204236Y0182238D01*
X0204460Y0181549D01*
X0204788Y0180904D01*
X0205214Y0180318D01*
X0205726Y0179806D01*
X0206312Y0179381D01*
X0206957Y0179052D01*
X0207645Y0178828D01*
X0208360Y0178715D01*
X0211323Y0178715D01*
X0211323Y0182915D01*
X0212123Y0182915D01*
X0212123Y0178715D01*
X0215085Y0178715D01*
X0215800Y0178828D01*
X0216488Y0179052D01*
X0217133Y0179381D01*
X0217620Y0179734D01*
X0217620Y0177206D01*
X0217441Y0177384D01*
X0215677Y0178115D01*
X0207768Y0178115D01*
X0206004Y0177384D01*
X0204653Y0176034D01*
X0204480Y0175615D01*
X0204815Y0176196D02*
X0194372Y0176196D01*
X0195571Y0177395D02*
X0206029Y0177395D01*
X0205746Y0179792D02*
X0197968Y0179792D01*
X0199166Y0180990D02*
X0204744Y0180990D01*
X0204252Y0182189D02*
X0200365Y0182189D01*
X0201563Y0183387D02*
X0211322Y0183387D01*
X0211323Y0182189D02*
X0212123Y0182189D01*
X0212123Y0180990D02*
X0211323Y0180990D01*
X0211323Y0179792D02*
X0212123Y0179792D01*
X0212123Y0184586D02*
X0211323Y0184586D01*
X0211323Y0185784D02*
X0212123Y0185784D01*
X0212123Y0186983D02*
X0211323Y0186983D01*
X0206357Y0188181D02*
X0217620Y0188181D01*
X0217620Y0186983D02*
X0217500Y0186983D01*
X0217576Y0189380D02*
X0217620Y0189380D01*
X0217620Y0197206D02*
X0217441Y0197384D01*
X0215677Y0198115D01*
X0207768Y0198115D01*
X0206004Y0197384D01*
X0204653Y0196034D01*
X0203923Y0194270D01*
X0203923Y0192360D01*
X0203954Y0192284D01*
X0192134Y0180463D01*
X0192023Y0180731D01*
X0191126Y0181627D01*
X0190024Y0182084D01*
X0190637Y0182697D01*
X0190637Y0194248D01*
X0189289Y0195595D01*
X0186533Y0198351D01*
X0181686Y0198351D01*
X0181284Y0198753D01*
X0180112Y0199239D01*
X0178844Y0199239D01*
X0177673Y0198753D01*
X0176776Y0197857D01*
X0176291Y0196685D01*
X0176291Y0195417D01*
X0176776Y0194246D01*
X0177403Y0193619D01*
X0176567Y0193619D01*
X0175513Y0192564D01*
X0175513Y0172569D01*
X0175718Y0172364D01*
X0175713Y0172345D01*
X0175713Y0172072D01*
X0174427Y0172072D01*
X0174329Y0172170D01*
X0173708Y0172791D01*
X0173708Y0173642D01*
X0174101Y0174035D01*
X0174101Y0177899D01*
X0174503Y0178301D01*
X0174989Y0179472D01*
X0174989Y0180041D01*
X0175282Y0180335D01*
X0175282Y0195626D01*
X0174692Y0196216D01*
X0174692Y0200315D01*
X0204934Y0200315D01*
X0206004Y0199246D01*
X0207768Y0198515D01*
X0215677Y0198515D01*
X0216797Y0198979D01*
X0217620Y0198155D01*
X0217620Y0197206D01*
X0217620Y0197769D02*
X0216512Y0197769D01*
X0216771Y0198968D02*
X0216807Y0198968D01*
X0220499Y0203762D02*
X0223545Y0203762D01*
X0223545Y0204960D02*
X0219300Y0204960D01*
X0218667Y0206159D02*
X0223545Y0206159D01*
X0223545Y0207357D02*
X0217468Y0207357D01*
X0223545Y0208556D02*
X0164752Y0208556D01*
X0165002Y0207357D02*
X0205977Y0207357D01*
X0205083Y0200166D02*
X0174692Y0200166D01*
X0174692Y0198968D02*
X0178191Y0198968D01*
X0176740Y0197769D02*
X0174692Y0197769D01*
X0174692Y0196571D02*
X0176291Y0196571D01*
X0176310Y0195372D02*
X0175282Y0195372D01*
X0175282Y0194174D02*
X0176848Y0194174D01*
X0175924Y0192975D02*
X0175282Y0192975D01*
X0175282Y0191777D02*
X0175513Y0191777D01*
X0175513Y0190578D02*
X0175282Y0190578D01*
X0175282Y0189380D02*
X0175513Y0189380D01*
X0175513Y0188181D02*
X0175282Y0188181D01*
X0175282Y0186983D02*
X0175513Y0186983D01*
X0175513Y0185784D02*
X0175282Y0185784D01*
X0175282Y0184586D02*
X0175513Y0184586D01*
X0175513Y0183387D02*
X0175282Y0183387D01*
X0175282Y0182189D02*
X0175513Y0182189D01*
X0175513Y0180990D02*
X0175282Y0180990D01*
X0175513Y0179792D02*
X0174989Y0179792D01*
X0174624Y0178593D02*
X0175513Y0178593D01*
X0175513Y0177395D02*
X0174101Y0177395D01*
X0174101Y0176196D02*
X0175513Y0176196D01*
X0175513Y0174998D02*
X0174101Y0174998D01*
X0173865Y0173799D02*
X0175513Y0173799D01*
X0175513Y0172601D02*
X0173898Y0172601D01*
X0170988Y0169005D02*
X0153871Y0169005D01*
X0153926Y0169138D02*
X0153926Y0170406D01*
X0153440Y0171577D01*
X0152544Y0172474D01*
X0151372Y0172959D01*
X0150104Y0172959D01*
X0148933Y0172474D01*
X0148631Y0172172D01*
X0147617Y0172172D01*
X0147617Y0182722D01*
X0147412Y0182927D01*
X0147417Y0182947D01*
X0147417Y0183120D01*
X0150231Y0183120D01*
X0151114Y0183485D01*
X0151789Y0184160D01*
X0151789Y0184160D01*
X0152467Y0184839D01*
X0153528Y0185278D01*
X0154425Y0186175D01*
X0154910Y0187346D01*
X0154910Y0188614D01*
X0154425Y0189786D01*
X0153528Y0190682D01*
X0152357Y0191168D01*
X0151089Y0191168D01*
X0149917Y0190682D01*
X0149020Y0189786D01*
X0148535Y0188614D01*
X0148535Y0187920D01*
X0147617Y0187920D01*
X0147617Y0192564D01*
X0146563Y0193619D01*
X0144824Y0193619D01*
X0144326Y0193825D01*
X0139429Y0193825D01*
X0139106Y0194149D01*
X0138224Y0194514D01*
X0131954Y0194514D01*
X0131072Y0194149D01*
X0130397Y0193474D01*
X0130256Y0193333D01*
X0127243Y0193333D01*
X0127243Y0194631D01*
X0126189Y0195686D01*
X0125284Y0195686D01*
X0125284Y0196180D01*
X0126189Y0196180D01*
X0127243Y0197235D01*
X0127243Y0203100D01*
X0142554Y0203100D01*
X0143436Y0203465D01*
X0148438Y0208467D01*
X0148438Y0197362D01*
X0148545Y0197256D01*
X0148545Y0195601D01*
X0149599Y0194546D01*
X0169594Y0194546D01*
X0169799Y0194752D01*
X0169819Y0194746D01*
X0170092Y0194746D01*
X0170092Y0194311D01*
X0170682Y0193721D01*
X0170682Y0183093D01*
X0169996Y0182808D01*
X0169099Y0181912D01*
X0168614Y0180740D01*
X0168614Y0179472D01*
X0169099Y0178301D01*
X0169501Y0177899D01*
X0169501Y0175941D01*
X0169108Y0175547D01*
X0169108Y0170886D01*
X0171076Y0168917D01*
X0171076Y0168819D01*
X0172423Y0167472D01*
X0180234Y0167472D01*
X0180341Y0167578D01*
X0181996Y0167578D01*
X0183050Y0168632D01*
X0183050Y0170911D01*
X0182845Y0171116D01*
X0182850Y0171136D01*
X0182850Y0171409D01*
X0188001Y0171409D01*
X0180004Y0163412D01*
X0179632Y0163412D01*
X0178460Y0162927D01*
X0177564Y0162030D01*
X0177116Y0160950D01*
X0174919Y0160950D01*
X0174692Y0161177D01*
X0174692Y0163835D01*
X0174586Y0163941D01*
X0174586Y0165596D01*
X0173531Y0166650D01*
X0153536Y0166650D01*
X0153331Y0166445D01*
X0153311Y0166450D01*
X0153138Y0166450D01*
X0153138Y0167664D01*
X0153440Y0167966D01*
X0153926Y0169138D01*
X0153926Y0170204D02*
X0169790Y0170204D01*
X0169108Y0171402D02*
X0153513Y0171402D01*
X0152238Y0172601D02*
X0169108Y0172601D01*
X0169108Y0173799D02*
X0147617Y0173799D01*
X0147617Y0172601D02*
X0149239Y0172601D01*
X0147617Y0174998D02*
X0169108Y0174998D01*
X0169501Y0176196D02*
X0147617Y0176196D01*
X0147617Y0177395D02*
X0169501Y0177395D01*
X0168978Y0178593D02*
X0147617Y0178593D01*
X0147617Y0179792D02*
X0168614Y0179792D01*
X0168717Y0180990D02*
X0147617Y0180990D01*
X0147617Y0182189D02*
X0169376Y0182189D01*
X0170682Y0183387D02*
X0150877Y0183387D01*
X0152214Y0184586D02*
X0170682Y0184586D01*
X0170682Y0185784D02*
X0154034Y0185784D01*
X0154759Y0186983D02*
X0170682Y0186983D01*
X0170682Y0188181D02*
X0154910Y0188181D01*
X0154593Y0189380D02*
X0170682Y0189380D01*
X0170682Y0190578D02*
X0153632Y0190578D01*
X0151723Y0187980D02*
X0151723Y0187488D01*
X0149754Y0185520D01*
X0143849Y0185520D01*
X0147617Y0188181D02*
X0148535Y0188181D01*
X0148852Y0189380D02*
X0147617Y0189380D01*
X0147617Y0190578D02*
X0149813Y0190578D01*
X0147617Y0191777D02*
X0170682Y0191777D01*
X0170682Y0192975D02*
X0147206Y0192975D01*
X0148773Y0195372D02*
X0126502Y0195372D01*
X0126579Y0196571D02*
X0148545Y0196571D01*
X0148438Y0197769D02*
X0127243Y0197769D01*
X0127243Y0198968D02*
X0148438Y0198968D01*
X0148438Y0200166D02*
X0127243Y0200166D01*
X0127243Y0201365D02*
X0148438Y0201365D01*
X0148438Y0202563D02*
X0127243Y0202563D01*
X0122884Y0200933D02*
X0122884Y0190933D01*
X0131250Y0190933D01*
X0132431Y0192114D01*
X0137746Y0192114D01*
X0138435Y0191425D01*
X0143849Y0191425D01*
X0139045Y0194174D02*
X0170229Y0194174D01*
X0169589Y0202563D02*
X0166089Y0202563D01*
X0166671Y0203762D02*
X0169845Y0203762D01*
X0170759Y0204960D02*
X0166721Y0204960D01*
X0166303Y0206159D02*
X0172383Y0206159D01*
X0164313Y0209754D02*
X0223545Y0209754D01*
X0223545Y0210953D02*
X0162908Y0210953D01*
X0160912Y0212151D02*
X0223545Y0212151D01*
X0223545Y0213350D02*
X0160912Y0213350D01*
X0160912Y0214548D02*
X0223545Y0214548D01*
X0223545Y0215747D02*
X0160912Y0215747D01*
X0160912Y0216945D02*
X0223545Y0216945D01*
X0223545Y0218144D02*
X0160912Y0218144D01*
X0160912Y0219343D02*
X0223545Y0219343D01*
X0223545Y0220541D02*
X0160912Y0220541D01*
X0160912Y0221740D02*
X0223545Y0221740D01*
X0223545Y0222938D02*
X0160912Y0222938D01*
X0160912Y0224137D02*
X0223545Y0224137D01*
X0223545Y0225335D02*
X0160912Y0225335D01*
X0161836Y0226534D02*
X0223545Y0226534D01*
X0223545Y0227732D02*
X0217791Y0227732D01*
X0216950Y0226891D02*
X0220494Y0230435D01*
X0220494Y0235447D01*
X0216950Y0238991D01*
X0212989Y0238991D01*
X0213871Y0239356D01*
X0215221Y0240706D01*
X0215952Y0242470D01*
X0215952Y0250380D01*
X0215221Y0252144D01*
X0213871Y0253494D01*
X0212106Y0254225D01*
X0210197Y0254225D01*
X0208433Y0253494D01*
X0207082Y0252144D01*
X0206352Y0250380D01*
X0206352Y0242470D01*
X0207082Y0240706D01*
X0208433Y0239356D01*
X0210197Y0238625D01*
X0211572Y0238625D01*
X0208394Y0235447D01*
X0208394Y0230435D01*
X0211938Y0226891D01*
X0216950Y0226891D01*
X0218989Y0228931D02*
X0223545Y0228931D01*
X0223545Y0230129D02*
X0220188Y0230129D01*
X0220494Y0231328D02*
X0223545Y0231328D01*
X0223545Y0232526D02*
X0220494Y0232526D01*
X0220494Y0233725D02*
X0223545Y0233725D01*
X0223545Y0234923D02*
X0220494Y0234923D01*
X0219819Y0236122D02*
X0223545Y0236122D01*
X0223545Y0237320D02*
X0218621Y0237320D01*
X0217422Y0238519D02*
X0223545Y0238519D01*
X0223545Y0239717D02*
X0214232Y0239717D01*
X0215308Y0240916D02*
X0223545Y0240916D01*
X0223545Y0242114D02*
X0215804Y0242114D01*
X0215952Y0243313D02*
X0223545Y0243313D01*
X0223545Y0244511D02*
X0215952Y0244511D01*
X0215952Y0245710D02*
X0223545Y0245710D01*
X0223545Y0246908D02*
X0215952Y0246908D01*
X0215952Y0248107D02*
X0223545Y0248107D01*
X0223545Y0249305D02*
X0215952Y0249305D01*
X0215900Y0250504D02*
X0223545Y0250504D01*
X0223545Y0251702D02*
X0215404Y0251702D01*
X0214464Y0252901D02*
X0223545Y0252901D01*
X0223545Y0254099D02*
X0212410Y0254099D01*
X0209893Y0254099D02*
X0202410Y0254099D01*
X0204464Y0252901D02*
X0207839Y0252901D01*
X0206899Y0251702D02*
X0205404Y0251702D01*
X0205900Y0250504D02*
X0206403Y0250504D01*
X0206352Y0249305D02*
X0205952Y0249305D01*
X0205952Y0248107D02*
X0206352Y0248107D01*
X0206352Y0246908D02*
X0205952Y0246908D01*
X0205952Y0245710D02*
X0206352Y0245710D01*
X0206352Y0244511D02*
X0205952Y0244511D01*
X0205952Y0243313D02*
X0206352Y0243313D01*
X0206499Y0242114D02*
X0205804Y0242114D01*
X0205308Y0240916D02*
X0206996Y0240916D01*
X0208071Y0239717D02*
X0204232Y0239717D01*
X0209069Y0236122D02*
X0193936Y0236122D01*
X0194694Y0234923D02*
X0208394Y0234923D01*
X0208394Y0233725D02*
X0194694Y0233725D01*
X0194694Y0232641D02*
X0189144Y0232641D01*
X0189144Y0233241D01*
X0188544Y0233241D01*
X0188544Y0232641D01*
X0189144Y0232641D01*
X0189144Y0227091D01*
X0191267Y0227091D01*
X0194694Y0230518D01*
X0194694Y0232641D01*
X0194694Y0232526D02*
X0208394Y0232526D01*
X0208394Y0231328D02*
X0194694Y0231328D01*
X0194305Y0230129D02*
X0208700Y0230129D01*
X0209898Y0228931D02*
X0193107Y0228931D01*
X0191908Y0227732D02*
X0211097Y0227732D01*
X0210267Y0237320D02*
X0192738Y0237320D01*
X0191539Y0238519D02*
X0211466Y0238519D01*
X0198071Y0239717D02*
X0194232Y0239717D01*
X0195308Y0240916D02*
X0196996Y0240916D01*
X0196499Y0242114D02*
X0195804Y0242114D01*
X0195952Y0243313D02*
X0196352Y0243313D01*
X0196352Y0244511D02*
X0195952Y0244511D01*
X0195952Y0245710D02*
X0196352Y0245710D01*
X0196352Y0246908D02*
X0195952Y0246908D01*
X0195952Y0248107D02*
X0196217Y0248107D01*
X0196730Y0254099D02*
X0199893Y0254099D01*
X0195532Y0255298D02*
X0223545Y0255298D01*
X0223545Y0256496D02*
X0091965Y0256496D01*
X0091240Y0257695D02*
X0223545Y0257695D01*
X0223545Y0258893D02*
X0033444Y0258893D01*
X0033444Y0257695D02*
X0086614Y0257695D01*
X0085890Y0256496D02*
X0033444Y0256496D01*
X0033444Y0255298D02*
X0085740Y0255298D01*
X0086057Y0254099D02*
X0033444Y0254099D01*
X0033444Y0252901D02*
X0087019Y0252901D01*
X0085990Y0251702D02*
X0033444Y0251702D01*
X0033444Y0250504D02*
X0085543Y0250504D01*
X0085563Y0249305D02*
X0033444Y0249305D01*
X0033444Y0248107D02*
X0086104Y0248107D01*
X0087837Y0246908D02*
X0033444Y0246908D01*
X0033444Y0245710D02*
X0089615Y0245710D01*
X0090813Y0244511D02*
X0033444Y0244511D01*
X0033444Y0243313D02*
X0092012Y0243313D01*
X0093210Y0242114D02*
X0033444Y0242114D01*
X0033444Y0240916D02*
X0094409Y0240916D01*
X0095607Y0239717D02*
X0033444Y0239717D01*
X0033444Y0238519D02*
X0096806Y0238519D01*
X0098004Y0237320D02*
X0033444Y0237320D01*
X0033444Y0236122D02*
X0099203Y0236122D01*
X0100401Y0234923D02*
X0033444Y0234923D01*
X0033444Y0233725D02*
X0101600Y0233725D01*
X0102798Y0232526D02*
X0033444Y0232526D01*
X0033444Y0231328D02*
X0100538Y0231328D01*
X0099328Y0230129D02*
X0033444Y0230129D01*
X0033444Y0228931D02*
X0098929Y0228931D01*
X0098997Y0227732D02*
X0033444Y0227732D01*
X0033444Y0226534D02*
X0099116Y0226534D01*
X0099116Y0225335D02*
X0033444Y0225335D01*
X0033444Y0224137D02*
X0099116Y0224137D01*
X0099116Y0222938D02*
X0033444Y0222938D01*
X0033444Y0221740D02*
X0099116Y0221740D01*
X0099116Y0220541D02*
X0033444Y0220541D01*
X0033444Y0219343D02*
X0072352Y0219343D01*
X0071153Y0218144D02*
X0033444Y0218144D01*
X0033444Y0216945D02*
X0069955Y0216945D01*
X0068756Y0215747D02*
X0033444Y0215747D01*
X0033444Y0214548D02*
X0067558Y0214548D01*
X0066359Y0213350D02*
X0033444Y0213350D01*
X0033444Y0212151D02*
X0065161Y0212151D01*
X0063962Y0210953D02*
X0033444Y0210953D01*
X0033444Y0209754D02*
X0062764Y0209754D01*
X0061565Y0208556D02*
X0033444Y0208556D01*
X0033444Y0207357D02*
X0060367Y0207357D01*
X0059168Y0206159D02*
X0033444Y0206159D01*
X0033444Y0204960D02*
X0057970Y0204960D01*
X0056771Y0203762D02*
X0033444Y0203762D01*
X0033444Y0202563D02*
X0055573Y0202563D01*
X0054374Y0201365D02*
X0033444Y0201365D01*
X0033444Y0200166D02*
X0053176Y0200166D01*
X0051977Y0198968D02*
X0033444Y0198968D01*
X0033444Y0197769D02*
X0050779Y0197769D01*
X0049580Y0196571D02*
X0033444Y0196571D01*
X0033444Y0195372D02*
X0048382Y0195372D01*
X0047183Y0194174D02*
X0033444Y0194174D01*
X0033444Y0192975D02*
X0045984Y0192975D01*
X0045663Y0191777D02*
X0033444Y0191777D01*
X0033444Y0190578D02*
X0045663Y0190578D01*
X0045663Y0189380D02*
X0033444Y0189380D01*
X0033444Y0188181D02*
X0045663Y0188181D01*
X0045663Y0186983D02*
X0033444Y0186983D01*
X0033444Y0185784D02*
X0045663Y0185784D01*
X0045663Y0184586D02*
X0033444Y0184586D01*
X0033444Y0183387D02*
X0045663Y0183387D01*
X0045663Y0182189D02*
X0033444Y0182189D01*
X0033444Y0180990D02*
X0045663Y0180990D01*
X0045663Y0179792D02*
X0033444Y0179792D01*
X0033444Y0178593D02*
X0045663Y0178593D01*
X0045663Y0177395D02*
X0033444Y0177395D01*
X0033444Y0176196D02*
X0045663Y0176196D01*
X0045663Y0174998D02*
X0033444Y0174998D01*
X0033444Y0173799D02*
X0045663Y0173799D01*
X0045663Y0172601D02*
X0033444Y0172601D01*
X0033444Y0171402D02*
X0045663Y0171402D01*
X0045663Y0170204D02*
X0033444Y0170204D01*
X0033444Y0169005D02*
X0045663Y0169005D01*
X0045663Y0167807D02*
X0033444Y0167807D01*
X0033444Y0166608D02*
X0045663Y0166608D01*
X0045663Y0165410D02*
X0033444Y0165410D01*
X0033444Y0164211D02*
X0045663Y0164211D01*
X0045663Y0163012D02*
X0033444Y0163012D01*
X0033444Y0161814D02*
X0045663Y0161814D01*
X0045663Y0160615D02*
X0033444Y0160615D01*
X0033444Y0159417D02*
X0045663Y0159417D01*
X0045663Y0158218D02*
X0033444Y0158218D01*
X0033444Y0157020D02*
X0045663Y0157020D01*
X0045663Y0155821D02*
X0033444Y0155821D01*
X0033444Y0154623D02*
X0045663Y0154623D01*
X0045663Y0153424D02*
X0033444Y0153424D01*
X0033444Y0152226D02*
X0045663Y0152226D01*
X0045663Y0151027D02*
X0033444Y0151027D01*
X0033444Y0149829D02*
X0045663Y0149829D01*
X0045663Y0148630D02*
X0033444Y0148630D01*
X0033444Y0147432D02*
X0045663Y0147432D01*
X0045663Y0146233D02*
X0033444Y0146233D01*
X0033444Y0145035D02*
X0045663Y0145035D01*
X0045663Y0143836D02*
X0033444Y0143836D01*
X0033444Y0142638D02*
X0045663Y0142638D01*
X0045663Y0141439D02*
X0033444Y0141439D01*
X0033444Y0140241D02*
X0045663Y0140241D01*
X0045663Y0139042D02*
X0033444Y0139042D01*
X0033444Y0137844D02*
X0045663Y0137844D01*
X0045663Y0136645D02*
X0033444Y0136645D01*
X0033444Y0135447D02*
X0045663Y0135447D01*
X0045663Y0134248D02*
X0033444Y0134248D01*
X0033444Y0133050D02*
X0045663Y0133050D01*
X0045663Y0131851D02*
X0033444Y0131851D01*
X0033444Y0130653D02*
X0045663Y0130653D01*
X0045663Y0129454D02*
X0033444Y0129454D01*
X0033444Y0128256D02*
X0045158Y0128256D01*
X0044661Y0127057D02*
X0033444Y0127057D01*
X0033444Y0125859D02*
X0044572Y0125859D01*
X0044723Y0124660D02*
X0033444Y0124660D01*
X0033444Y0123462D02*
X0045219Y0123462D01*
X0046348Y0122263D02*
X0033444Y0122263D01*
X0033444Y0121065D02*
X0125649Y0121065D01*
X0126847Y0122263D02*
X0071530Y0122263D01*
X0071435Y0122194D02*
X0071992Y0122599D01*
X0072478Y0123085D01*
X0072883Y0123642D01*
X0073195Y0124255D01*
X0073408Y0124909D01*
X0073515Y0125589D01*
X0073515Y0125647D01*
X0069430Y0125647D01*
X0069430Y0126219D01*
X0073515Y0126219D01*
X0073515Y0126277D01*
X0073408Y0126957D01*
X0073195Y0127611D01*
X0072883Y0128224D01*
X0072478Y0128781D01*
X0071992Y0129268D01*
X0071435Y0129672D01*
X0070822Y0129984D01*
X0070167Y0130197D01*
X0069488Y0130305D01*
X0069430Y0130305D01*
X0069430Y0126219D01*
X0068858Y0126219D01*
X0068858Y0130305D01*
X0068800Y0130305D01*
X0068120Y0130197D01*
X0067466Y0129984D01*
X0066853Y0129672D01*
X0066296Y0129268D01*
X0065809Y0128781D01*
X0065405Y0128224D01*
X0065092Y0127611D01*
X0064880Y0126957D01*
X0064772Y0126277D01*
X0064772Y0126219D01*
X0068858Y0126219D01*
X0068858Y0125647D01*
X0069430Y0125647D01*
X0069430Y0121561D01*
X0069488Y0121561D01*
X0070167Y0121669D01*
X0070822Y0121882D01*
X0071435Y0122194D01*
X0072752Y0123462D02*
X0128046Y0123462D01*
X0129244Y0124660D02*
X0073327Y0124660D01*
X0073375Y0127057D02*
X0131641Y0127057D01*
X0130443Y0125859D02*
X0069430Y0125859D01*
X0068858Y0125859D02*
X0063715Y0125859D01*
X0063715Y0125024D02*
X0063019Y0123343D01*
X0061733Y0122057D01*
X0060053Y0121361D01*
X0058234Y0121361D01*
X0056554Y0122057D01*
X0055268Y0123343D01*
X0054572Y0125024D01*
X0054572Y0126842D01*
X0055268Y0128523D01*
X0056554Y0129809D01*
X0058234Y0130505D01*
X0060053Y0130505D01*
X0061733Y0129809D01*
X0063019Y0128523D01*
X0063715Y0126842D01*
X0063715Y0125024D01*
X0063565Y0124660D02*
X0064961Y0124660D01*
X0064880Y0124909D02*
X0065092Y0124255D01*
X0065405Y0123642D01*
X0065809Y0123085D01*
X0066296Y0122599D01*
X0066853Y0122194D01*
X0067466Y0121882D01*
X0068120Y0121669D01*
X0068800Y0121561D01*
X0068858Y0121561D01*
X0068858Y0125647D01*
X0064772Y0125647D01*
X0064772Y0125589D01*
X0064880Y0124909D01*
X0065536Y0123462D02*
X0063068Y0123462D01*
X0061939Y0122263D02*
X0066758Y0122263D01*
X0068858Y0122263D02*
X0069430Y0122263D01*
X0069430Y0123462D02*
X0068858Y0123462D01*
X0068858Y0124660D02*
X0069430Y0124660D01*
X0069430Y0127057D02*
X0068858Y0127057D01*
X0068858Y0128256D02*
X0069430Y0128256D01*
X0069430Y0129454D02*
X0068858Y0129454D01*
X0066553Y0129454D02*
X0062088Y0129454D01*
X0063130Y0128256D02*
X0065428Y0128256D01*
X0064912Y0127057D02*
X0063626Y0127057D01*
X0061693Y0119866D02*
X0057423Y0119866D01*
X0058531Y0118668D02*
X0060413Y0118668D01*
X0059832Y0117469D02*
X0059427Y0117469D01*
X0056348Y0122263D02*
X0051939Y0122263D01*
X0053068Y0123462D02*
X0055219Y0123462D01*
X0054723Y0124660D02*
X0053565Y0124660D01*
X0053715Y0125859D02*
X0054572Y0125859D01*
X0054661Y0127057D02*
X0053626Y0127057D01*
X0053130Y0128256D02*
X0055158Y0128256D01*
X0056200Y0129454D02*
X0052088Y0129454D01*
X0050263Y0130653D02*
X0135237Y0130653D01*
X0136435Y0131851D02*
X0050263Y0131851D01*
X0050263Y0133050D02*
X0137634Y0133050D01*
X0138832Y0134248D02*
X0050263Y0134248D01*
X0050263Y0135447D02*
X0140031Y0135447D01*
X0141229Y0136645D02*
X0050263Y0136645D01*
X0050263Y0137844D02*
X0142428Y0137844D01*
X0143626Y0139042D02*
X0132489Y0139042D01*
X0133151Y0140241D02*
X0144825Y0140241D01*
X0146023Y0141439D02*
X0133256Y0141439D01*
X0132894Y0142638D02*
X0147222Y0142638D01*
X0148420Y0143836D02*
X0131864Y0143836D01*
X0128274Y0143836D02*
X0122772Y0143836D01*
X0121573Y0145035D02*
X0149619Y0145035D01*
X0150817Y0146233D02*
X0120375Y0146233D01*
X0119176Y0147432D02*
X0152016Y0147432D01*
X0153214Y0148630D02*
X0127182Y0148630D01*
X0128030Y0149829D02*
X0154413Y0149829D01*
X0155328Y0151027D02*
X0128030Y0151027D01*
X0128030Y0152226D02*
X0144854Y0152226D01*
X0143656Y0153424D02*
X0128030Y0153424D01*
X0128030Y0154623D02*
X0142457Y0154623D01*
X0141259Y0155821D02*
X0127116Y0155821D01*
X0128030Y0157020D02*
X0140060Y0157020D01*
X0138862Y0158218D02*
X0128030Y0158218D01*
X0128030Y0159417D02*
X0137663Y0159417D01*
X0136465Y0160615D02*
X0128030Y0160615D01*
X0128030Y0161814D02*
X0135266Y0161814D01*
X0134068Y0163012D02*
X0128030Y0163012D01*
X0128030Y0164211D02*
X0133281Y0164211D01*
X0133281Y0165410D02*
X0128030Y0165410D01*
X0128030Y0166608D02*
X0133281Y0166608D01*
X0133281Y0167807D02*
X0127631Y0167807D01*
X0127576Y0169005D02*
X0133281Y0169005D01*
X0133281Y0170204D02*
X0128030Y0170204D01*
X0128030Y0171402D02*
X0133281Y0171402D01*
X0133281Y0172601D02*
X0128030Y0172601D01*
X0128030Y0173799D02*
X0133281Y0173799D01*
X0133281Y0174998D02*
X0127920Y0174998D01*
X0126204Y0176196D02*
X0133281Y0176196D01*
X0132284Y0177395D02*
X0127243Y0177395D01*
X0127243Y0178593D02*
X0129830Y0178593D01*
X0129082Y0183233D02*
X0127243Y0183233D01*
X0127243Y0184631D01*
X0126189Y0185686D01*
X0120889Y0185686D01*
X0121384Y0186180D01*
X0126189Y0186180D01*
X0127243Y0187235D01*
X0127243Y0188533D01*
X0131727Y0188533D01*
X0132610Y0188898D01*
X0133279Y0189568D01*
X0133279Y0188823D01*
X0133764Y0187651D01*
X0134661Y0186755D01*
X0134756Y0186715D01*
X0134756Y0185771D01*
X0135241Y0184600D01*
X0135438Y0184403D01*
X0135153Y0184285D01*
X0134257Y0183388D01*
X0134196Y0183243D01*
X0133449Y0183990D01*
X0132278Y0184475D01*
X0131010Y0184475D01*
X0129838Y0183990D01*
X0129082Y0183233D01*
X0129236Y0183387D02*
X0127243Y0183387D01*
X0127243Y0184586D02*
X0135255Y0184586D01*
X0134756Y0185784D02*
X0120988Y0185784D01*
X0126991Y0186983D02*
X0134433Y0186983D01*
X0133545Y0188181D02*
X0127243Y0188181D01*
X0133091Y0189380D02*
X0133279Y0189380D01*
X0131132Y0194174D02*
X0127243Y0194174D01*
X0120484Y0195686D02*
X0119579Y0195686D01*
X0119002Y0195109D01*
X0118945Y0195166D01*
X0118580Y0195377D01*
X0118173Y0195486D01*
X0116004Y0195486D01*
X0116004Y0191533D01*
X0114804Y0191533D01*
X0114804Y0195486D01*
X0112634Y0195486D01*
X0112227Y0195377D01*
X0111862Y0195166D01*
X0111564Y0194868D01*
X0111354Y0194503D01*
X0111245Y0194096D01*
X0111245Y0191533D01*
X0114804Y0191533D01*
X0114804Y0190333D01*
X0111245Y0190333D01*
X0111245Y0187918D01*
X0105888Y0187918D01*
X0103541Y0185572D01*
X0103541Y0191659D01*
X0109965Y0198083D01*
X0110418Y0198270D01*
X0110720Y0198572D01*
X0111045Y0198572D01*
X0111045Y0197235D01*
X0112099Y0196180D01*
X0118708Y0196180D01*
X0119144Y0196616D01*
X0119579Y0196180D01*
X0120484Y0196180D01*
X0120484Y0195686D01*
X0119266Y0195372D02*
X0118588Y0195372D01*
X0119099Y0196571D02*
X0119189Y0196571D01*
X0116004Y0195372D02*
X0114804Y0195372D01*
X0114804Y0194174D02*
X0116004Y0194174D01*
X0116004Y0192975D02*
X0114804Y0192975D01*
X0114804Y0191777D02*
X0116004Y0191777D01*
X0114804Y0190578D02*
X0103541Y0190578D01*
X0103541Y0189380D02*
X0111245Y0189380D01*
X0111245Y0188181D02*
X0103541Y0188181D01*
X0103541Y0186983D02*
X0104953Y0186983D01*
X0103754Y0185784D02*
X0103541Y0185784D01*
X0107793Y0183318D02*
X0111245Y0183318D01*
X0111245Y0181533D01*
X0114804Y0181533D01*
X0114804Y0180333D01*
X0111245Y0180333D01*
X0111245Y0177770D01*
X0111268Y0177682D01*
X0107793Y0177682D01*
X0105991Y0179484D01*
X0105991Y0181516D01*
X0107793Y0183318D01*
X0106664Y0182189D02*
X0111245Y0182189D01*
X0111245Y0179792D02*
X0105991Y0179792D01*
X0105991Y0180990D02*
X0114804Y0180990D01*
X0111245Y0178593D02*
X0106882Y0178593D01*
X0103541Y0175428D02*
X0105888Y0173082D01*
X0106726Y0173082D01*
X0106107Y0172463D01*
X0105883Y0171921D01*
X0103541Y0174262D01*
X0103541Y0175428D01*
X0103541Y0174998D02*
X0103972Y0174998D01*
X0104005Y0173799D02*
X0105171Y0173799D01*
X0105203Y0172601D02*
X0106245Y0172601D01*
X0111021Y0173082D02*
X0117305Y0173082D01*
X0118186Y0172202D01*
X0111901Y0172202D01*
X0111021Y0173082D01*
X0111502Y0172601D02*
X0117787Y0172601D01*
X0121112Y0172134D02*
X0121152Y0172173D01*
X0123474Y0172173D01*
X0119945Y0168433D02*
X0119369Y0167857D01*
X0119369Y0169009D01*
X0119945Y0168433D01*
X0119373Y0169005D02*
X0119369Y0169005D01*
X0118919Y0165269D02*
X0118397Y0164747D01*
X0118919Y0164225D01*
X0118919Y0165269D01*
X0119369Y0156509D02*
X0119945Y0155933D01*
X0119369Y0155357D01*
X0119369Y0156509D01*
X0119369Y0155821D02*
X0119833Y0155821D01*
X0118919Y0152226D02*
X0118376Y0152226D01*
X0118919Y0151027D02*
X0117315Y0151027D01*
X0117315Y0149829D02*
X0118919Y0149829D01*
X0119767Y0148630D02*
X0117978Y0148630D01*
X0114219Y0145035D02*
X0050263Y0145035D01*
X0050263Y0146233D02*
X0113021Y0146233D01*
X0112225Y0147432D02*
X0050263Y0147432D01*
X0050263Y0148630D02*
X0112115Y0148630D01*
X0112115Y0149829D02*
X0050263Y0149829D01*
X0050263Y0151027D02*
X0112115Y0151027D01*
X0111250Y0152226D02*
X0050263Y0152226D01*
X0050263Y0153424D02*
X0110257Y0153424D01*
X0110257Y0154623D02*
X0050263Y0154623D01*
X0054182Y0155821D02*
X0110257Y0155821D01*
X0110257Y0157020D02*
X0054965Y0157020D01*
X0055215Y0158218D02*
X0110257Y0158218D01*
X0109902Y0159417D02*
X0055061Y0159417D01*
X0054414Y0160615D02*
X0108703Y0160615D01*
X0107504Y0161814D02*
X0052577Y0161814D01*
X0050710Y0161814D02*
X0050263Y0161814D01*
X0050263Y0163012D02*
X0079822Y0163012D01*
X0078903Y0164211D02*
X0050263Y0164211D01*
X0050263Y0165410D02*
X0078644Y0165410D01*
X0078883Y0166608D02*
X0050263Y0166608D01*
X0050263Y0167807D02*
X0079775Y0167807D01*
X0086837Y0174998D02*
X0055215Y0174998D01*
X0055215Y0176196D02*
X0085638Y0176196D01*
X0084440Y0177395D02*
X0054790Y0177395D01*
X0053759Y0178593D02*
X0083241Y0178593D01*
X0082043Y0179792D02*
X0050263Y0179792D01*
X0050263Y0180990D02*
X0080844Y0180990D01*
X0079646Y0182189D02*
X0050263Y0182189D01*
X0050263Y0183387D02*
X0078838Y0183387D01*
X0078658Y0184586D02*
X0050263Y0184586D01*
X0050263Y0185784D02*
X0078658Y0185784D01*
X0078658Y0186983D02*
X0050263Y0186983D01*
X0050263Y0188181D02*
X0078658Y0188181D01*
X0078658Y0189380D02*
X0050263Y0189380D01*
X0050263Y0190578D02*
X0078658Y0190578D01*
X0078268Y0191777D02*
X0051291Y0191777D01*
X0052490Y0192975D02*
X0077473Y0192975D01*
X0077058Y0194174D02*
X0053688Y0194174D01*
X0054887Y0195372D02*
X0077058Y0195372D01*
X0077058Y0196571D02*
X0056085Y0196571D01*
X0057284Y0197769D02*
X0077058Y0197769D01*
X0077058Y0198968D02*
X0058482Y0198968D01*
X0059681Y0200166D02*
X0077058Y0200166D01*
X0077058Y0201365D02*
X0060879Y0201365D01*
X0062078Y0202563D02*
X0077536Y0202563D01*
X0078395Y0203762D02*
X0063276Y0203762D01*
X0064475Y0204960D02*
X0077610Y0204960D01*
X0077280Y0206159D02*
X0065673Y0206159D01*
X0066872Y0207357D02*
X0077244Y0207357D01*
X0077244Y0208556D02*
X0068070Y0208556D01*
X0069269Y0209754D02*
X0081344Y0209754D01*
X0081944Y0209754D02*
X0087044Y0209754D01*
X0087044Y0208556D02*
X0086044Y0208556D01*
X0086044Y0207357D02*
X0087044Y0207357D01*
X0087044Y0206159D02*
X0086007Y0206159D01*
X0085678Y0204960D02*
X0087400Y0204960D01*
X0088112Y0203762D02*
X0084894Y0203762D01*
X0085779Y0202563D02*
X0087536Y0202563D01*
X0087058Y0201365D02*
X0086258Y0201365D01*
X0086258Y0200166D02*
X0087058Y0200166D01*
X0087058Y0198968D02*
X0086258Y0198968D01*
X0086258Y0197769D02*
X0087058Y0197769D01*
X0087058Y0196571D02*
X0086258Y0196571D01*
X0086258Y0195372D02*
X0087058Y0195372D01*
X0087058Y0194174D02*
X0086258Y0194174D01*
X0085842Y0192975D02*
X0087473Y0192975D01*
X0088268Y0191777D02*
X0085047Y0191777D01*
X0084658Y0190578D02*
X0090054Y0190578D01*
X0093261Y0190578D02*
X0097541Y0190578D01*
X0097541Y0189380D02*
X0084658Y0189380D01*
X0084658Y0188181D02*
X0097541Y0188181D01*
X0097541Y0186983D02*
X0084658Y0186983D01*
X0084658Y0185784D02*
X0097541Y0185784D01*
X0097541Y0184586D02*
X0085734Y0184586D01*
X0086932Y0183387D02*
X0097541Y0183387D01*
X0097541Y0182189D02*
X0088131Y0182189D01*
X0089329Y0180990D02*
X0097541Y0180990D01*
X0097541Y0179792D02*
X0090528Y0179792D01*
X0091726Y0178593D02*
X0097541Y0178593D01*
X0097541Y0177395D02*
X0092925Y0177395D01*
X0094123Y0176196D02*
X0097541Y0176196D01*
X0097541Y0174998D02*
X0095322Y0174998D01*
X0096520Y0173799D02*
X0097541Y0173799D01*
X0092829Y0169005D02*
X0050263Y0169005D01*
X0050263Y0170204D02*
X0091631Y0170204D01*
X0090432Y0171402D02*
X0050263Y0171402D01*
X0053597Y0172601D02*
X0089234Y0172601D01*
X0088035Y0173799D02*
X0054740Y0173799D01*
X0050263Y0143836D02*
X0115418Y0143836D01*
X0116616Y0142638D02*
X0050263Y0142638D01*
X0050263Y0141439D02*
X0117815Y0141439D01*
X0119013Y0140241D02*
X0050263Y0140241D01*
X0050263Y0139042D02*
X0120212Y0139042D01*
X0132840Y0128256D02*
X0072860Y0128256D01*
X0071735Y0129454D02*
X0134038Y0129454D01*
X0128558Y0117469D02*
X0188644Y0117469D01*
X0179746Y0106682D02*
X0176275Y0106682D01*
X0176456Y0105484D02*
X0178583Y0105484D01*
X0177418Y0104285D02*
X0176456Y0104285D01*
X0169923Y0091102D02*
X0168273Y0091102D01*
X0168897Y0089903D02*
X0169923Y0089903D01*
X0159391Y0084389D02*
X0159391Y0083869D01*
X0159827Y0083433D01*
X0159391Y0082998D01*
X0159391Y0082477D01*
X0154365Y0082477D01*
X0156277Y0084389D01*
X0159391Y0084389D01*
X0159391Y0083911D02*
X0155798Y0083911D01*
X0154600Y0082712D02*
X0159391Y0082712D01*
X0151923Y0070727D02*
X0093480Y0070727D01*
X0094213Y0069529D02*
X0223545Y0069529D01*
X0223545Y0070727D02*
X0195115Y0070727D01*
X0196313Y0071926D02*
X0223545Y0071926D01*
X0223545Y0073124D02*
X0197512Y0073124D01*
X0223545Y0068330D02*
X0094057Y0068330D01*
X0059688Y0103087D02*
X0033444Y0103087D01*
X0033444Y0104285D02*
X0058185Y0104285D01*
X0056987Y0105484D02*
X0033444Y0105484D01*
X0033444Y0106682D02*
X0055788Y0106682D01*
X0054590Y0107881D02*
X0033444Y0107881D01*
X0033444Y0109079D02*
X0053391Y0109079D01*
X0052193Y0110278D02*
X0033444Y0110278D01*
X0033444Y0111477D02*
X0050994Y0111477D01*
X0049810Y0112675D02*
X0033444Y0112675D01*
X0033444Y0113874D02*
X0049314Y0113874D01*
X0049044Y0115072D02*
X0033444Y0115072D01*
X0033444Y0116271D02*
X0049044Y0116271D01*
X0049260Y0117469D02*
X0033444Y0117469D01*
X0033444Y0118668D02*
X0049756Y0118668D01*
X0050864Y0119866D02*
X0033444Y0119866D01*
X0033444Y0101888D02*
X0150320Y0101888D01*
X0150320Y0100690D02*
X0033444Y0100690D01*
X0068239Y0113874D02*
X0070049Y0113874D01*
X0069572Y0115072D02*
X0068715Y0115072D01*
X0068715Y0116271D02*
X0069572Y0116271D01*
X0069832Y0117469D02*
X0068456Y0117469D01*
X0067875Y0118668D02*
X0070413Y0118668D01*
X0071693Y0119866D02*
X0066595Y0119866D01*
X0076595Y0119866D02*
X0124450Y0119866D01*
X0123252Y0118668D02*
X0077875Y0118668D01*
X0102522Y0163012D02*
X0106306Y0163012D01*
X0105107Y0164211D02*
X0103441Y0164211D01*
X0103729Y0165410D02*
X0103909Y0165410D01*
X0103659Y0191777D02*
X0111245Y0191777D01*
X0111245Y0192975D02*
X0104858Y0192975D01*
X0106056Y0194174D02*
X0111265Y0194174D01*
X0112219Y0195372D02*
X0107255Y0195372D01*
X0108453Y0196571D02*
X0111708Y0196571D01*
X0111045Y0197769D02*
X0109652Y0197769D01*
X0108612Y0200972D02*
X0115364Y0200972D01*
X0115404Y0200933D01*
X0115404Y0203039D01*
X0117864Y0205500D01*
X0142077Y0205500D01*
X0147786Y0211209D01*
X0147328Y0207357D02*
X0148438Y0207357D01*
X0148438Y0206159D02*
X0146130Y0206159D01*
X0144931Y0204960D02*
X0148438Y0204960D01*
X0148438Y0203762D02*
X0143733Y0203762D01*
X0135937Y0207900D02*
X0127043Y0207900D01*
X0127043Y0210451D01*
X0123484Y0210451D01*
X0123484Y0211651D01*
X0127043Y0211651D01*
X0127043Y0213935D01*
X0129934Y0211043D01*
X0131282Y0209696D01*
X0134431Y0209696D01*
X0135937Y0208191D01*
X0135937Y0207900D01*
X0135571Y0208556D02*
X0127043Y0208556D01*
X0127043Y0209754D02*
X0131223Y0209754D01*
X0130025Y0210953D02*
X0123484Y0210953D01*
X0123484Y0211651D02*
X0122284Y0211651D01*
X0122284Y0215604D01*
X0120114Y0215604D01*
X0119707Y0215495D01*
X0119342Y0215284D01*
X0119285Y0215227D01*
X0118708Y0215804D01*
X0114894Y0215804D01*
X0114517Y0216180D01*
X0118708Y0216180D01*
X0119144Y0216616D01*
X0119579Y0216180D01*
X0124797Y0216180D01*
X0125374Y0215604D01*
X0123484Y0215604D01*
X0123484Y0211651D01*
X0123484Y0212151D02*
X0122284Y0212151D01*
X0122284Y0213350D02*
X0123484Y0213350D01*
X0123484Y0214548D02*
X0122284Y0214548D01*
X0125231Y0215747D02*
X0118765Y0215747D01*
X0115404Y0220933D02*
X0112963Y0220933D01*
X0107923Y0225972D01*
X0107923Y0230795D01*
X0088730Y0249988D01*
X0093919Y0254099D02*
X0100145Y0254099D01*
X0099336Y0252901D02*
X0095117Y0252901D01*
X0096316Y0251702D02*
X0099126Y0251702D01*
X0099383Y0250504D02*
X0097514Y0250504D01*
X0098713Y0249305D02*
X0100260Y0249305D01*
X0099911Y0248107D02*
X0111045Y0248107D01*
X0111926Y0245710D02*
X0109293Y0245710D01*
X0110920Y0244511D02*
X0111045Y0244511D01*
X0108219Y0242705D02*
X0109793Y0241130D01*
X0115404Y0241130D01*
X0111045Y0238730D02*
X0111045Y0237432D01*
X0112099Y0236377D01*
X0118708Y0236377D01*
X0119144Y0236813D01*
X0119579Y0236377D01*
X0125522Y0236377D01*
X0137486Y0224413D01*
X0137319Y0224344D01*
X0136916Y0223942D01*
X0133851Y0223942D01*
X0133449Y0224344D01*
X0132278Y0224829D01*
X0131010Y0224829D01*
X0130597Y0224658D01*
X0130597Y0226988D01*
X0130597Y0228894D01*
X0127243Y0232248D01*
X0127243Y0234631D01*
X0126189Y0235686D01*
X0119579Y0235686D01*
X0119144Y0235250D01*
X0118708Y0235686D01*
X0112332Y0235686D01*
X0109269Y0238750D01*
X0109316Y0238730D01*
X0111045Y0238730D01*
X0111045Y0238519D02*
X0109499Y0238519D01*
X0110698Y0237320D02*
X0111156Y0237320D01*
X0111897Y0236122D02*
X0125778Y0236122D01*
X0126951Y0234923D02*
X0126976Y0234923D01*
X0127243Y0233725D02*
X0128175Y0233725D01*
X0127243Y0232526D02*
X0129373Y0232526D01*
X0130572Y0231328D02*
X0128163Y0231328D01*
X0129362Y0230129D02*
X0131770Y0230129D01*
X0132969Y0228931D02*
X0130560Y0228931D01*
X0130597Y0227732D02*
X0134167Y0227732D01*
X0135366Y0226534D02*
X0130597Y0226534D01*
X0130597Y0225335D02*
X0136564Y0225335D01*
X0137111Y0224137D02*
X0133657Y0224137D01*
X0138558Y0230129D02*
X0141183Y0230129D01*
X0141942Y0229370D02*
X0141942Y0226745D01*
X0127243Y0241445D01*
X0127243Y0244069D01*
X0141942Y0229370D01*
X0141942Y0228931D02*
X0139757Y0228931D01*
X0140955Y0227732D02*
X0141942Y0227732D01*
X0139985Y0231328D02*
X0137360Y0231328D01*
X0136161Y0232526D02*
X0138786Y0232526D01*
X0137588Y0233725D02*
X0134963Y0233725D01*
X0133764Y0234923D02*
X0136389Y0234923D01*
X0135191Y0236122D02*
X0132566Y0236122D01*
X0131367Y0237320D02*
X0133992Y0237320D01*
X0132794Y0238519D02*
X0130169Y0238519D01*
X0128970Y0239717D02*
X0131595Y0239717D01*
X0130397Y0240916D02*
X0127772Y0240916D01*
X0127243Y0242114D02*
X0129198Y0242114D01*
X0128000Y0243313D02*
X0127243Y0243313D01*
X0130909Y0246908D02*
X0136352Y0246908D01*
X0136352Y0245710D02*
X0132108Y0245710D01*
X0133306Y0244511D02*
X0136352Y0244511D01*
X0136352Y0243313D02*
X0134505Y0243313D01*
X0135703Y0242114D02*
X0136499Y0242114D01*
X0136902Y0240916D02*
X0136996Y0240916D01*
X0139299Y0238519D02*
X0149304Y0238519D01*
X0148438Y0237320D02*
X0140498Y0237320D01*
X0141696Y0236122D02*
X0148438Y0236122D01*
X0148438Y0234923D02*
X0142895Y0234923D01*
X0144093Y0233725D02*
X0148438Y0233725D01*
X0148438Y0232526D02*
X0145292Y0232526D01*
X0146490Y0231328D02*
X0148438Y0231328D01*
X0148438Y0230129D02*
X0146542Y0230129D01*
X0146542Y0228931D02*
X0148438Y0228931D01*
X0148438Y0227732D02*
X0146542Y0227732D01*
X0141880Y0223413D02*
X0124163Y0241130D01*
X0122884Y0241130D01*
X0119406Y0245710D02*
X0118881Y0245710D01*
X0124404Y0246908D02*
X0101110Y0246908D01*
X0102308Y0245710D02*
X0107144Y0245710D01*
X0105517Y0244511D02*
X0103507Y0244511D01*
X0104705Y0243313D02*
X0105031Y0243313D01*
X0102392Y0251681D02*
X0102313Y0251760D01*
X0102392Y0251681D02*
X0115404Y0251681D01*
X0111045Y0254099D02*
X0104481Y0254099D01*
X0111045Y0255298D02*
X0092720Y0255298D01*
X0089124Y0255500D02*
X0113691Y0230933D01*
X0115404Y0230933D01*
X0111045Y0230185D02*
X0111045Y0227235D01*
X0112099Y0226180D01*
X0118708Y0226180D01*
X0119144Y0226616D01*
X0119579Y0226180D01*
X0125997Y0226180D01*
X0125997Y0225686D01*
X0119579Y0225686D01*
X0119144Y0225250D01*
X0118708Y0225686D01*
X0112099Y0225686D01*
X0111852Y0225438D01*
X0110323Y0226967D01*
X0110323Y0230907D01*
X0111045Y0230185D01*
X0111045Y0230129D02*
X0110323Y0230129D01*
X0110323Y0228931D02*
X0111045Y0228931D01*
X0111045Y0227732D02*
X0110323Y0227732D01*
X0110756Y0226534D02*
X0111746Y0226534D01*
X0107564Y0222938D02*
X0105116Y0222938D01*
X0105116Y0221740D02*
X0108762Y0221740D01*
X0109961Y0220541D02*
X0105688Y0220541D01*
X0106886Y0219343D02*
X0111045Y0219343D01*
X0111045Y0218144D02*
X0108085Y0218144D01*
X0104394Y0213350D02*
X0096203Y0213350D01*
X0096244Y0212151D02*
X0105327Y0212151D01*
X0106963Y0210953D02*
X0096244Y0210953D01*
X0096244Y0209754D02*
X0111045Y0209754D01*
X0111045Y0208556D02*
X0096244Y0208556D01*
X0096244Y0207357D02*
X0111045Y0207357D01*
X0111374Y0204960D02*
X0095888Y0204960D01*
X0096244Y0206159D02*
X0115129Y0206159D01*
X0111045Y0203762D02*
X0110207Y0203762D01*
X0107018Y0203762D02*
X0095176Y0203762D01*
X0095779Y0202563D02*
X0105821Y0202563D01*
X0104762Y0201365D02*
X0096258Y0201365D01*
X0096258Y0200166D02*
X0103564Y0200166D01*
X0102365Y0198968D02*
X0096258Y0198968D01*
X0096258Y0197769D02*
X0101167Y0197769D01*
X0099968Y0196571D02*
X0096258Y0196571D01*
X0096258Y0195372D02*
X0098770Y0195372D01*
X0097821Y0194174D02*
X0096258Y0194174D01*
X0095842Y0192975D02*
X0097541Y0192975D01*
X0097541Y0191777D02*
X0095047Y0191777D01*
X0087044Y0210953D02*
X0086044Y0210953D01*
X0086044Y0212151D02*
X0087044Y0212151D01*
X0086683Y0213350D02*
X0085938Y0213350D01*
X0085484Y0214548D02*
X0085454Y0214548D01*
X0088394Y0218144D02*
X0099600Y0218144D01*
X0099116Y0219343D02*
X0087196Y0219343D01*
X0089593Y0216945D02*
X0100798Y0216945D01*
X0101997Y0215747D02*
X0094738Y0215747D01*
X0095706Y0214548D02*
X0103195Y0214548D01*
X0109080Y0210953D02*
X0111045Y0210953D01*
X0106365Y0224137D02*
X0105116Y0224137D01*
X0105116Y0225335D02*
X0105590Y0225335D01*
X0105523Y0226534D02*
X0105116Y0226534D01*
X0105235Y0227732D02*
X0105523Y0227732D01*
X0105523Y0228931D02*
X0105304Y0228931D01*
X0105195Y0230129D02*
X0104904Y0230129D01*
X0103997Y0231328D02*
X0103695Y0231328D01*
X0119062Y0226534D02*
X0119226Y0226534D01*
X0119229Y0225335D02*
X0119059Y0225335D01*
X0127043Y0213350D02*
X0127628Y0213350D01*
X0127043Y0212151D02*
X0128826Y0212151D01*
X0132275Y0215208D02*
X0137113Y0215208D01*
X0137515Y0214806D01*
X0138687Y0214320D01*
X0138793Y0214320D01*
X0138793Y0211840D01*
X0137684Y0212949D01*
X0137684Y0212949D01*
X0136337Y0214296D01*
X0133187Y0214296D01*
X0132275Y0215208D01*
X0132935Y0214548D02*
X0138136Y0214548D01*
X0138793Y0213350D02*
X0137283Y0213350D01*
X0138481Y0212151D02*
X0138793Y0212151D01*
X0155007Y0232526D02*
X0156008Y0232526D01*
X0156035Y0233725D02*
X0157206Y0233725D01*
X0157233Y0234923D02*
X0158405Y0234923D01*
X0158353Y0236122D02*
X0159603Y0236122D01*
X0158353Y0237320D02*
X0170054Y0237320D01*
X0171252Y0238519D02*
X0158911Y0238519D01*
X0160752Y0239717D02*
X0161552Y0239717D01*
X0161552Y0238831D02*
X0162229Y0238938D01*
X0162917Y0239162D01*
X0163563Y0239491D01*
X0164148Y0239917D01*
X0164660Y0240428D01*
X0165086Y0241014D01*
X0165415Y0241659D01*
X0165638Y0242348D01*
X0165752Y0243063D01*
X0165752Y0246025D01*
X0161552Y0246025D01*
X0161552Y0238831D01*
X0161552Y0240916D02*
X0160752Y0240916D01*
X0160752Y0242114D02*
X0161552Y0242114D01*
X0161552Y0243313D02*
X0160752Y0243313D01*
X0160752Y0244511D02*
X0161552Y0244511D01*
X0161552Y0245710D02*
X0160752Y0245710D01*
X0160752Y0246908D02*
X0161552Y0246908D01*
X0161552Y0248107D02*
X0160752Y0248107D01*
X0160752Y0249305D02*
X0161552Y0249305D01*
X0161552Y0250504D02*
X0160752Y0250504D01*
X0160752Y0251702D02*
X0161552Y0251702D01*
X0161552Y0252901D02*
X0160752Y0252901D01*
X0158122Y0252901D02*
X0154464Y0252901D01*
X0155404Y0251702D02*
X0157149Y0251702D01*
X0156665Y0250504D02*
X0155900Y0250504D01*
X0155952Y0249305D02*
X0156552Y0249305D01*
X0156552Y0248107D02*
X0155952Y0248107D01*
X0155952Y0246908D02*
X0156552Y0246908D01*
X0156552Y0245710D02*
X0155952Y0245710D01*
X0155952Y0244511D02*
X0156552Y0244511D01*
X0156552Y0243313D02*
X0155952Y0243313D01*
X0148071Y0239717D02*
X0144232Y0239717D01*
X0145308Y0240916D02*
X0146996Y0240916D01*
X0146499Y0242114D02*
X0145804Y0242114D01*
X0145952Y0243313D02*
X0146352Y0243313D01*
X0146352Y0244511D02*
X0145952Y0244511D01*
X0145952Y0245710D02*
X0146352Y0245710D01*
X0146352Y0246908D02*
X0145952Y0246908D01*
X0145952Y0248107D02*
X0146352Y0248107D01*
X0146352Y0249305D02*
X0145952Y0249305D01*
X0145900Y0250504D02*
X0146403Y0250504D01*
X0146899Y0251702D02*
X0145404Y0251702D01*
X0144464Y0252901D02*
X0147839Y0252901D01*
X0149893Y0254099D02*
X0142410Y0254099D01*
X0139893Y0254099D02*
X0127243Y0254099D01*
X0127243Y0252901D02*
X0137839Y0252901D01*
X0136899Y0251702D02*
X0127243Y0251702D01*
X0127314Y0250504D02*
X0136403Y0250504D01*
X0136352Y0249305D02*
X0128512Y0249305D01*
X0129711Y0248107D02*
X0136352Y0248107D01*
X0127243Y0255298D02*
X0176417Y0255298D01*
X0175219Y0254099D02*
X0172410Y0254099D01*
X0169893Y0254099D02*
X0152410Y0254099D01*
X0164181Y0252901D02*
X0167839Y0252901D01*
X0166899Y0251702D02*
X0165154Y0251702D01*
X0165638Y0250504D02*
X0166403Y0250504D01*
X0166352Y0249305D02*
X0165752Y0249305D01*
X0165752Y0248107D02*
X0166352Y0248107D01*
X0166352Y0246908D02*
X0165752Y0246908D01*
X0165752Y0245710D02*
X0166352Y0245710D01*
X0166352Y0244511D02*
X0165752Y0244511D01*
X0165752Y0243313D02*
X0166352Y0243313D01*
X0166499Y0242114D02*
X0165562Y0242114D01*
X0165014Y0240916D02*
X0166996Y0240916D01*
X0168071Y0239717D02*
X0163874Y0239717D01*
X0163034Y0227732D02*
X0185779Y0227732D01*
X0186421Y0227091D02*
X0188544Y0227091D01*
X0188544Y0232641D01*
X0182994Y0232641D01*
X0182994Y0230518D01*
X0186421Y0227091D01*
X0188544Y0227732D02*
X0189144Y0227732D01*
X0189144Y0228931D02*
X0188544Y0228931D01*
X0188544Y0230129D02*
X0189144Y0230129D01*
X0189144Y0231328D02*
X0188544Y0231328D01*
X0188544Y0232526D02*
X0189144Y0232526D01*
X0189144Y0233725D02*
X0188544Y0233725D01*
X0188544Y0234923D02*
X0189144Y0234923D01*
X0189144Y0236122D02*
X0188544Y0236122D01*
X0188544Y0237320D02*
X0189144Y0237320D01*
X0189144Y0238519D02*
X0188544Y0238519D01*
X0185952Y0243494D02*
X0185952Y0250380D01*
X0185599Y0251231D01*
X0186704Y0251231D01*
X0186352Y0250380D01*
X0186352Y0243894D01*
X0185952Y0243494D01*
X0185952Y0244511D02*
X0186352Y0244511D01*
X0186352Y0245710D02*
X0185952Y0245710D01*
X0185952Y0246908D02*
X0186352Y0246908D01*
X0186352Y0248107D02*
X0185952Y0248107D01*
X0185952Y0249305D02*
X0186352Y0249305D01*
X0186403Y0250504D02*
X0185900Y0250504D01*
X0181083Y0238625D02*
X0175849Y0233391D01*
X0175385Y0233391D01*
X0180620Y0238625D01*
X0181083Y0238625D01*
X0180977Y0238519D02*
X0180514Y0238519D01*
X0179778Y0237320D02*
X0179315Y0237320D01*
X0178580Y0236122D02*
X0178117Y0236122D01*
X0177381Y0234923D02*
X0176918Y0234923D01*
X0176183Y0233725D02*
X0175720Y0233725D01*
X0179093Y0230129D02*
X0183382Y0230129D01*
X0182994Y0231328D02*
X0180291Y0231328D01*
X0181490Y0232526D02*
X0182994Y0232526D01*
X0182994Y0233725D02*
X0182688Y0233725D01*
X0184581Y0228931D02*
X0177894Y0228931D01*
X0180766Y0198968D02*
X0206674Y0198968D01*
X0206933Y0197769D02*
X0187115Y0197769D01*
X0188314Y0196571D02*
X0205190Y0196571D01*
X0204379Y0195372D02*
X0189512Y0195372D01*
X0190637Y0194174D02*
X0203923Y0194174D01*
X0203923Y0192975D02*
X0190637Y0192975D01*
X0190637Y0191777D02*
X0203447Y0191777D01*
X0202249Y0190578D02*
X0190637Y0190578D01*
X0190637Y0189380D02*
X0201050Y0189380D01*
X0199852Y0188181D02*
X0190637Y0188181D01*
X0190637Y0186983D02*
X0198653Y0186983D01*
X0197455Y0185784D02*
X0190637Y0185784D01*
X0190637Y0184586D02*
X0196256Y0184586D01*
X0195058Y0183387D02*
X0190637Y0183387D01*
X0190128Y0182189D02*
X0193859Y0182189D01*
X0192661Y0180990D02*
X0191764Y0180990D01*
X0196769Y0178593D02*
X0217620Y0178593D01*
X0217620Y0177395D02*
X0217416Y0177395D01*
X0217620Y0169005D02*
X0216860Y0169005D01*
X0216422Y0167807D02*
X0217620Y0167807D01*
X0217613Y0159417D02*
X0217620Y0159417D01*
X0217620Y0158218D02*
X0182768Y0158218D01*
X0180803Y0164211D02*
X0174586Y0164211D01*
X0174586Y0165410D02*
X0182001Y0165410D01*
X0183200Y0166608D02*
X0173573Y0166608D01*
X0172088Y0167807D02*
X0153281Y0167807D01*
X0152707Y0167311D02*
X0152707Y0159437D01*
X0152904Y0159240D01*
X0152510Y0158846D01*
X0152707Y0159313D02*
X0152102Y0159313D01*
X0152083Y0159319D01*
X0151878Y0159113D01*
X0149599Y0159113D01*
X0148545Y0160168D01*
X0148545Y0161906D01*
X0148338Y0162404D01*
X0148338Y0167372D01*
X0143371Y0167372D01*
X0142873Y0167578D01*
X0141134Y0167578D01*
X0140080Y0168632D01*
X0140080Y0179283D01*
X0139166Y0179283D01*
X0138764Y0178881D01*
X0137731Y0178453D01*
X0137881Y0178303D01*
X0137881Y0165705D01*
X0146770Y0156816D01*
X0156312Y0156816D01*
X0156312Y0159113D01*
X0153536Y0159113D01*
X0153331Y0159319D01*
X0153311Y0159313D01*
X0152707Y0159313D01*
X0152707Y0159943D01*
X0152707Y0159943D01*
X0152707Y0159943D01*
X0152707Y0159313D01*
X0152707Y0159417D02*
X0152707Y0159417D01*
X0156312Y0158218D02*
X0145367Y0158218D01*
X0146566Y0157020D02*
X0156312Y0157020D01*
X0160912Y0157020D02*
X0166155Y0157020D01*
X0166155Y0158218D02*
X0160912Y0158218D01*
X0160912Y0155821D02*
X0166155Y0155821D01*
X0166670Y0154623D02*
X0160912Y0154623D01*
X0159928Y0153424D02*
X0167868Y0153424D01*
X0169067Y0152226D02*
X0159928Y0152226D01*
X0159720Y0148630D02*
X0190316Y0148630D01*
X0189017Y0147432D02*
X0158521Y0147432D01*
X0149295Y0159417D02*
X0144168Y0159417D01*
X0142970Y0160615D02*
X0148545Y0160615D01*
X0148545Y0161814D02*
X0141771Y0161814D01*
X0140573Y0163012D02*
X0148338Y0163012D01*
X0148338Y0164211D02*
X0139374Y0164211D01*
X0138176Y0165410D02*
X0148338Y0165410D01*
X0148338Y0166608D02*
X0137881Y0166608D01*
X0137881Y0167807D02*
X0140906Y0167807D01*
X0140080Y0169005D02*
X0137881Y0169005D01*
X0137881Y0170204D02*
X0140080Y0170204D01*
X0140080Y0171402D02*
X0137881Y0171402D01*
X0137881Y0172601D02*
X0140080Y0172601D01*
X0140080Y0173799D02*
X0137881Y0173799D01*
X0137881Y0174998D02*
X0140080Y0174998D01*
X0140080Y0176196D02*
X0137881Y0176196D01*
X0137881Y0177395D02*
X0140080Y0177395D01*
X0140080Y0178593D02*
X0138070Y0178593D01*
X0139928Y0183883D02*
X0140253Y0184208D01*
X0140285Y0184175D01*
X0140280Y0184156D01*
X0140280Y0183883D01*
X0139928Y0183883D01*
X0134256Y0183387D02*
X0134052Y0183387D01*
X0143849Y0169772D02*
X0150738Y0169772D01*
X0150738Y0162882D01*
X0153138Y0166608D02*
X0153494Y0166608D01*
X0174692Y0163012D02*
X0178668Y0163012D01*
X0177474Y0161814D02*
X0174692Y0161814D01*
X0182224Y0167807D02*
X0184398Y0167807D01*
X0185597Y0169005D02*
X0183050Y0169005D01*
X0183050Y0170204D02*
X0186795Y0170204D01*
X0187994Y0171402D02*
X0182850Y0171402D01*
X0182254Y0193361D02*
X0181996Y0193619D01*
X0181554Y0193619D01*
X0181686Y0193751D01*
X0182415Y0193751D01*
X0182254Y0193361D01*
X0202762Y0184586D02*
X0204299Y0184586D01*
X0203960Y0185784D02*
X0204831Y0185784D01*
X0205159Y0186983D02*
X0205945Y0186983D01*
X0221697Y0202563D02*
X0223545Y0202563D01*
X0223545Y0201365D02*
X0222896Y0201365D01*
X0145104Y0116271D02*
X0127360Y0116271D01*
X0126161Y0115072D02*
X0142862Y0115072D01*
X0141663Y0113874D02*
X0124963Y0113874D01*
X0144997Y0103087D02*
X0150694Y0103087D01*
X0151280Y0104285D02*
X0146500Y0104285D01*
X0147698Y0105484D02*
X0152479Y0105484D01*
X0077244Y0210953D02*
X0070468Y0210953D01*
X0071666Y0212151D02*
X0077244Y0212151D01*
X0077350Y0213350D02*
X0072865Y0213350D01*
X0074063Y0214548D02*
X0077833Y0214548D01*
X0078854Y0215747D02*
X0075262Y0215747D01*
X0088927Y0255500D02*
X0089124Y0255500D01*
D31*
X0102116Y0228531D02*
X0102116Y0219870D01*
X0108022Y0213965D01*
X0112490Y0213965D01*
X0115404Y0211051D01*
X0108612Y0200972D02*
X0100541Y0192902D01*
X0100541Y0173020D01*
X0114419Y0159142D01*
X0114813Y0159142D01*
X0114813Y0155933D01*
X0114675Y0168295D02*
X0111565Y0168295D01*
X0109203Y0170657D01*
X0108809Y0170657D01*
X0114675Y0168295D02*
X0114813Y0168433D01*
X0100644Y0165433D02*
X0081658Y0184419D01*
X0081658Y0197693D01*
X0081644Y0165433D02*
X0100644Y0165433D01*
X0172589Y0202547D02*
X0173356Y0203315D01*
X0211723Y0203315D01*
X0216663Y0203315D01*
X0216683Y0203335D01*
X0220620Y0199398D01*
X0220620Y0149004D01*
X0213140Y0141524D01*
X0204478Y0141524D01*
D32*
X0155620Y0110972D02*
X0155463Y0111130D01*
X0155463Y0111209D01*
X0146211Y0111209D01*
X0142628Y0107626D01*
X0062057Y0107626D01*
X0054144Y0115539D01*
X0054144Y0115933D01*
D33*
X0155620Y0101130D02*
X0169045Y0101130D01*
X0169144Y0101031D01*
M02*
