G75*
%MOIN*%
%OFA0B0*%
%FSLAX25Y25*%
%IPPOS*%
%LPD*%
%AMOC8*
5,1,8,0,0,1.08239X$1,22.5*
%
%ADD10C,0.00000*%
%ADD11R,0.05518X0.06306*%
%ADD12R,0.11424X0.09849*%
%ADD13R,0.06306X0.05518*%
%ADD14R,0.08077X0.06306*%
%ADD15R,0.05912X0.04337*%
%ADD16R,0.02762X0.03550*%
%ADD17R,0.05124X0.06306*%
%ADD18R,0.04337X0.01187*%
%ADD19R,0.01187X0.04337*%
%ADD20R,0.02762X0.03943*%
%ADD21C,0.00039*%
%ADD22C,0.05943*%
%ADD23C,0.13200*%
%ADD24C,0.06000*%
%ADD25C,0.06400*%
%ADD26R,0.09061X0.06699*%
%ADD27OC8,0.08900*%
%ADD28C,0.03943*%
D10*
X0031644Y0065933D02*
X0031644Y0260894D01*
X0225345Y0260894D01*
X0225345Y0065933D01*
X0031644Y0065933D01*
X0035244Y0090933D02*
X0035246Y0091093D01*
X0035252Y0091252D01*
X0035262Y0091411D01*
X0035276Y0091570D01*
X0035294Y0091729D01*
X0035315Y0091887D01*
X0035341Y0092044D01*
X0035371Y0092201D01*
X0035404Y0092357D01*
X0035442Y0092512D01*
X0035483Y0092666D01*
X0035528Y0092819D01*
X0035577Y0092971D01*
X0035630Y0093122D01*
X0035686Y0093271D01*
X0035747Y0093419D01*
X0035810Y0093565D01*
X0035878Y0093710D01*
X0035949Y0093853D01*
X0036023Y0093994D01*
X0036101Y0094133D01*
X0036183Y0094270D01*
X0036268Y0094405D01*
X0036356Y0094538D01*
X0036448Y0094669D01*
X0036542Y0094797D01*
X0036640Y0094923D01*
X0036741Y0095047D01*
X0036845Y0095168D01*
X0036952Y0095286D01*
X0037062Y0095402D01*
X0037175Y0095515D01*
X0037291Y0095625D01*
X0037409Y0095732D01*
X0037530Y0095836D01*
X0037654Y0095937D01*
X0037780Y0096035D01*
X0037908Y0096129D01*
X0038039Y0096221D01*
X0038172Y0096309D01*
X0038307Y0096394D01*
X0038444Y0096476D01*
X0038583Y0096554D01*
X0038724Y0096628D01*
X0038867Y0096699D01*
X0039012Y0096767D01*
X0039158Y0096830D01*
X0039306Y0096891D01*
X0039455Y0096947D01*
X0039606Y0097000D01*
X0039758Y0097049D01*
X0039911Y0097094D01*
X0040065Y0097135D01*
X0040220Y0097173D01*
X0040376Y0097206D01*
X0040533Y0097236D01*
X0040690Y0097262D01*
X0040848Y0097283D01*
X0041007Y0097301D01*
X0041166Y0097315D01*
X0041325Y0097325D01*
X0041484Y0097331D01*
X0041644Y0097333D01*
X0041804Y0097331D01*
X0041963Y0097325D01*
X0042122Y0097315D01*
X0042281Y0097301D01*
X0042440Y0097283D01*
X0042598Y0097262D01*
X0042755Y0097236D01*
X0042912Y0097206D01*
X0043068Y0097173D01*
X0043223Y0097135D01*
X0043377Y0097094D01*
X0043530Y0097049D01*
X0043682Y0097000D01*
X0043833Y0096947D01*
X0043982Y0096891D01*
X0044130Y0096830D01*
X0044276Y0096767D01*
X0044421Y0096699D01*
X0044564Y0096628D01*
X0044705Y0096554D01*
X0044844Y0096476D01*
X0044981Y0096394D01*
X0045116Y0096309D01*
X0045249Y0096221D01*
X0045380Y0096129D01*
X0045508Y0096035D01*
X0045634Y0095937D01*
X0045758Y0095836D01*
X0045879Y0095732D01*
X0045997Y0095625D01*
X0046113Y0095515D01*
X0046226Y0095402D01*
X0046336Y0095286D01*
X0046443Y0095168D01*
X0046547Y0095047D01*
X0046648Y0094923D01*
X0046746Y0094797D01*
X0046840Y0094669D01*
X0046932Y0094538D01*
X0047020Y0094405D01*
X0047105Y0094270D01*
X0047187Y0094133D01*
X0047265Y0093994D01*
X0047339Y0093853D01*
X0047410Y0093710D01*
X0047478Y0093565D01*
X0047541Y0093419D01*
X0047602Y0093271D01*
X0047658Y0093122D01*
X0047711Y0092971D01*
X0047760Y0092819D01*
X0047805Y0092666D01*
X0047846Y0092512D01*
X0047884Y0092357D01*
X0047917Y0092201D01*
X0047947Y0092044D01*
X0047973Y0091887D01*
X0047994Y0091729D01*
X0048012Y0091570D01*
X0048026Y0091411D01*
X0048036Y0091252D01*
X0048042Y0091093D01*
X0048044Y0090933D01*
X0048042Y0090773D01*
X0048036Y0090614D01*
X0048026Y0090455D01*
X0048012Y0090296D01*
X0047994Y0090137D01*
X0047973Y0089979D01*
X0047947Y0089822D01*
X0047917Y0089665D01*
X0047884Y0089509D01*
X0047846Y0089354D01*
X0047805Y0089200D01*
X0047760Y0089047D01*
X0047711Y0088895D01*
X0047658Y0088744D01*
X0047602Y0088595D01*
X0047541Y0088447D01*
X0047478Y0088301D01*
X0047410Y0088156D01*
X0047339Y0088013D01*
X0047265Y0087872D01*
X0047187Y0087733D01*
X0047105Y0087596D01*
X0047020Y0087461D01*
X0046932Y0087328D01*
X0046840Y0087197D01*
X0046746Y0087069D01*
X0046648Y0086943D01*
X0046547Y0086819D01*
X0046443Y0086698D01*
X0046336Y0086580D01*
X0046226Y0086464D01*
X0046113Y0086351D01*
X0045997Y0086241D01*
X0045879Y0086134D01*
X0045758Y0086030D01*
X0045634Y0085929D01*
X0045508Y0085831D01*
X0045380Y0085737D01*
X0045249Y0085645D01*
X0045116Y0085557D01*
X0044981Y0085472D01*
X0044844Y0085390D01*
X0044705Y0085312D01*
X0044564Y0085238D01*
X0044421Y0085167D01*
X0044276Y0085099D01*
X0044130Y0085036D01*
X0043982Y0084975D01*
X0043833Y0084919D01*
X0043682Y0084866D01*
X0043530Y0084817D01*
X0043377Y0084772D01*
X0043223Y0084731D01*
X0043068Y0084693D01*
X0042912Y0084660D01*
X0042755Y0084630D01*
X0042598Y0084604D01*
X0042440Y0084583D01*
X0042281Y0084565D01*
X0042122Y0084551D01*
X0041963Y0084541D01*
X0041804Y0084535D01*
X0041644Y0084533D01*
X0041484Y0084535D01*
X0041325Y0084541D01*
X0041166Y0084551D01*
X0041007Y0084565D01*
X0040848Y0084583D01*
X0040690Y0084604D01*
X0040533Y0084630D01*
X0040376Y0084660D01*
X0040220Y0084693D01*
X0040065Y0084731D01*
X0039911Y0084772D01*
X0039758Y0084817D01*
X0039606Y0084866D01*
X0039455Y0084919D01*
X0039306Y0084975D01*
X0039158Y0085036D01*
X0039012Y0085099D01*
X0038867Y0085167D01*
X0038724Y0085238D01*
X0038583Y0085312D01*
X0038444Y0085390D01*
X0038307Y0085472D01*
X0038172Y0085557D01*
X0038039Y0085645D01*
X0037908Y0085737D01*
X0037780Y0085831D01*
X0037654Y0085929D01*
X0037530Y0086030D01*
X0037409Y0086134D01*
X0037291Y0086241D01*
X0037175Y0086351D01*
X0037062Y0086464D01*
X0036952Y0086580D01*
X0036845Y0086698D01*
X0036741Y0086819D01*
X0036640Y0086943D01*
X0036542Y0087069D01*
X0036448Y0087197D01*
X0036356Y0087328D01*
X0036268Y0087461D01*
X0036183Y0087596D01*
X0036101Y0087733D01*
X0036023Y0087872D01*
X0035949Y0088013D01*
X0035878Y0088156D01*
X0035810Y0088301D01*
X0035747Y0088447D01*
X0035686Y0088595D01*
X0035630Y0088744D01*
X0035577Y0088895D01*
X0035528Y0089047D01*
X0035483Y0089200D01*
X0035442Y0089354D01*
X0035404Y0089509D01*
X0035371Y0089665D01*
X0035341Y0089822D01*
X0035315Y0089979D01*
X0035294Y0090137D01*
X0035276Y0090296D01*
X0035262Y0090455D01*
X0035252Y0090614D01*
X0035246Y0090773D01*
X0035244Y0090933D01*
X0075244Y0090933D02*
X0075246Y0091093D01*
X0075252Y0091252D01*
X0075262Y0091411D01*
X0075276Y0091570D01*
X0075294Y0091729D01*
X0075315Y0091887D01*
X0075341Y0092044D01*
X0075371Y0092201D01*
X0075404Y0092357D01*
X0075442Y0092512D01*
X0075483Y0092666D01*
X0075528Y0092819D01*
X0075577Y0092971D01*
X0075630Y0093122D01*
X0075686Y0093271D01*
X0075747Y0093419D01*
X0075810Y0093565D01*
X0075878Y0093710D01*
X0075949Y0093853D01*
X0076023Y0093994D01*
X0076101Y0094133D01*
X0076183Y0094270D01*
X0076268Y0094405D01*
X0076356Y0094538D01*
X0076448Y0094669D01*
X0076542Y0094797D01*
X0076640Y0094923D01*
X0076741Y0095047D01*
X0076845Y0095168D01*
X0076952Y0095286D01*
X0077062Y0095402D01*
X0077175Y0095515D01*
X0077291Y0095625D01*
X0077409Y0095732D01*
X0077530Y0095836D01*
X0077654Y0095937D01*
X0077780Y0096035D01*
X0077908Y0096129D01*
X0078039Y0096221D01*
X0078172Y0096309D01*
X0078307Y0096394D01*
X0078444Y0096476D01*
X0078583Y0096554D01*
X0078724Y0096628D01*
X0078867Y0096699D01*
X0079012Y0096767D01*
X0079158Y0096830D01*
X0079306Y0096891D01*
X0079455Y0096947D01*
X0079606Y0097000D01*
X0079758Y0097049D01*
X0079911Y0097094D01*
X0080065Y0097135D01*
X0080220Y0097173D01*
X0080376Y0097206D01*
X0080533Y0097236D01*
X0080690Y0097262D01*
X0080848Y0097283D01*
X0081007Y0097301D01*
X0081166Y0097315D01*
X0081325Y0097325D01*
X0081484Y0097331D01*
X0081644Y0097333D01*
X0081804Y0097331D01*
X0081963Y0097325D01*
X0082122Y0097315D01*
X0082281Y0097301D01*
X0082440Y0097283D01*
X0082598Y0097262D01*
X0082755Y0097236D01*
X0082912Y0097206D01*
X0083068Y0097173D01*
X0083223Y0097135D01*
X0083377Y0097094D01*
X0083530Y0097049D01*
X0083682Y0097000D01*
X0083833Y0096947D01*
X0083982Y0096891D01*
X0084130Y0096830D01*
X0084276Y0096767D01*
X0084421Y0096699D01*
X0084564Y0096628D01*
X0084705Y0096554D01*
X0084844Y0096476D01*
X0084981Y0096394D01*
X0085116Y0096309D01*
X0085249Y0096221D01*
X0085380Y0096129D01*
X0085508Y0096035D01*
X0085634Y0095937D01*
X0085758Y0095836D01*
X0085879Y0095732D01*
X0085997Y0095625D01*
X0086113Y0095515D01*
X0086226Y0095402D01*
X0086336Y0095286D01*
X0086443Y0095168D01*
X0086547Y0095047D01*
X0086648Y0094923D01*
X0086746Y0094797D01*
X0086840Y0094669D01*
X0086932Y0094538D01*
X0087020Y0094405D01*
X0087105Y0094270D01*
X0087187Y0094133D01*
X0087265Y0093994D01*
X0087339Y0093853D01*
X0087410Y0093710D01*
X0087478Y0093565D01*
X0087541Y0093419D01*
X0087602Y0093271D01*
X0087658Y0093122D01*
X0087711Y0092971D01*
X0087760Y0092819D01*
X0087805Y0092666D01*
X0087846Y0092512D01*
X0087884Y0092357D01*
X0087917Y0092201D01*
X0087947Y0092044D01*
X0087973Y0091887D01*
X0087994Y0091729D01*
X0088012Y0091570D01*
X0088026Y0091411D01*
X0088036Y0091252D01*
X0088042Y0091093D01*
X0088044Y0090933D01*
X0088042Y0090773D01*
X0088036Y0090614D01*
X0088026Y0090455D01*
X0088012Y0090296D01*
X0087994Y0090137D01*
X0087973Y0089979D01*
X0087947Y0089822D01*
X0087917Y0089665D01*
X0087884Y0089509D01*
X0087846Y0089354D01*
X0087805Y0089200D01*
X0087760Y0089047D01*
X0087711Y0088895D01*
X0087658Y0088744D01*
X0087602Y0088595D01*
X0087541Y0088447D01*
X0087478Y0088301D01*
X0087410Y0088156D01*
X0087339Y0088013D01*
X0087265Y0087872D01*
X0087187Y0087733D01*
X0087105Y0087596D01*
X0087020Y0087461D01*
X0086932Y0087328D01*
X0086840Y0087197D01*
X0086746Y0087069D01*
X0086648Y0086943D01*
X0086547Y0086819D01*
X0086443Y0086698D01*
X0086336Y0086580D01*
X0086226Y0086464D01*
X0086113Y0086351D01*
X0085997Y0086241D01*
X0085879Y0086134D01*
X0085758Y0086030D01*
X0085634Y0085929D01*
X0085508Y0085831D01*
X0085380Y0085737D01*
X0085249Y0085645D01*
X0085116Y0085557D01*
X0084981Y0085472D01*
X0084844Y0085390D01*
X0084705Y0085312D01*
X0084564Y0085238D01*
X0084421Y0085167D01*
X0084276Y0085099D01*
X0084130Y0085036D01*
X0083982Y0084975D01*
X0083833Y0084919D01*
X0083682Y0084866D01*
X0083530Y0084817D01*
X0083377Y0084772D01*
X0083223Y0084731D01*
X0083068Y0084693D01*
X0082912Y0084660D01*
X0082755Y0084630D01*
X0082598Y0084604D01*
X0082440Y0084583D01*
X0082281Y0084565D01*
X0082122Y0084551D01*
X0081963Y0084541D01*
X0081804Y0084535D01*
X0081644Y0084533D01*
X0081484Y0084535D01*
X0081325Y0084541D01*
X0081166Y0084551D01*
X0081007Y0084565D01*
X0080848Y0084583D01*
X0080690Y0084604D01*
X0080533Y0084630D01*
X0080376Y0084660D01*
X0080220Y0084693D01*
X0080065Y0084731D01*
X0079911Y0084772D01*
X0079758Y0084817D01*
X0079606Y0084866D01*
X0079455Y0084919D01*
X0079306Y0084975D01*
X0079158Y0085036D01*
X0079012Y0085099D01*
X0078867Y0085167D01*
X0078724Y0085238D01*
X0078583Y0085312D01*
X0078444Y0085390D01*
X0078307Y0085472D01*
X0078172Y0085557D01*
X0078039Y0085645D01*
X0077908Y0085737D01*
X0077780Y0085831D01*
X0077654Y0085929D01*
X0077530Y0086030D01*
X0077409Y0086134D01*
X0077291Y0086241D01*
X0077175Y0086351D01*
X0077062Y0086464D01*
X0076952Y0086580D01*
X0076845Y0086698D01*
X0076741Y0086819D01*
X0076640Y0086943D01*
X0076542Y0087069D01*
X0076448Y0087197D01*
X0076356Y0087328D01*
X0076268Y0087461D01*
X0076183Y0087596D01*
X0076101Y0087733D01*
X0076023Y0087872D01*
X0075949Y0088013D01*
X0075878Y0088156D01*
X0075810Y0088301D01*
X0075747Y0088447D01*
X0075686Y0088595D01*
X0075630Y0088744D01*
X0075577Y0088895D01*
X0075528Y0089047D01*
X0075483Y0089200D01*
X0075442Y0089354D01*
X0075404Y0089509D01*
X0075371Y0089665D01*
X0075341Y0089822D01*
X0075315Y0089979D01*
X0075294Y0090137D01*
X0075276Y0090296D01*
X0075262Y0090455D01*
X0075252Y0090614D01*
X0075246Y0090773D01*
X0075244Y0090933D01*
X0049872Y0158335D02*
X0049874Y0158419D01*
X0049880Y0158502D01*
X0049890Y0158585D01*
X0049904Y0158668D01*
X0049921Y0158750D01*
X0049943Y0158831D01*
X0049968Y0158910D01*
X0049997Y0158989D01*
X0050030Y0159066D01*
X0050066Y0159141D01*
X0050106Y0159215D01*
X0050149Y0159287D01*
X0050196Y0159356D01*
X0050246Y0159423D01*
X0050299Y0159488D01*
X0050355Y0159550D01*
X0050413Y0159610D01*
X0050475Y0159667D01*
X0050539Y0159720D01*
X0050606Y0159771D01*
X0050675Y0159818D01*
X0050746Y0159863D01*
X0050819Y0159903D01*
X0050894Y0159940D01*
X0050971Y0159974D01*
X0051049Y0160004D01*
X0051128Y0160030D01*
X0051209Y0160053D01*
X0051291Y0160071D01*
X0051373Y0160086D01*
X0051456Y0160097D01*
X0051539Y0160104D01*
X0051623Y0160107D01*
X0051707Y0160106D01*
X0051790Y0160101D01*
X0051874Y0160092D01*
X0051956Y0160079D01*
X0052038Y0160063D01*
X0052119Y0160042D01*
X0052200Y0160018D01*
X0052278Y0159990D01*
X0052356Y0159958D01*
X0052432Y0159922D01*
X0052506Y0159883D01*
X0052578Y0159841D01*
X0052648Y0159795D01*
X0052716Y0159746D01*
X0052781Y0159694D01*
X0052844Y0159639D01*
X0052904Y0159581D01*
X0052962Y0159520D01*
X0053016Y0159456D01*
X0053068Y0159390D01*
X0053116Y0159322D01*
X0053161Y0159251D01*
X0053202Y0159178D01*
X0053241Y0159104D01*
X0053275Y0159028D01*
X0053306Y0158950D01*
X0053333Y0158871D01*
X0053357Y0158790D01*
X0053376Y0158709D01*
X0053392Y0158627D01*
X0053404Y0158544D01*
X0053412Y0158460D01*
X0053416Y0158377D01*
X0053416Y0158293D01*
X0053412Y0158210D01*
X0053404Y0158126D01*
X0053392Y0158043D01*
X0053376Y0157961D01*
X0053357Y0157880D01*
X0053333Y0157799D01*
X0053306Y0157720D01*
X0053275Y0157642D01*
X0053241Y0157566D01*
X0053202Y0157492D01*
X0053161Y0157419D01*
X0053116Y0157348D01*
X0053068Y0157280D01*
X0053016Y0157214D01*
X0052962Y0157150D01*
X0052904Y0157089D01*
X0052844Y0157031D01*
X0052781Y0156976D01*
X0052716Y0156924D01*
X0052648Y0156875D01*
X0052578Y0156829D01*
X0052506Y0156787D01*
X0052432Y0156748D01*
X0052356Y0156712D01*
X0052278Y0156680D01*
X0052200Y0156652D01*
X0052119Y0156628D01*
X0052038Y0156607D01*
X0051956Y0156591D01*
X0051874Y0156578D01*
X0051790Y0156569D01*
X0051707Y0156564D01*
X0051623Y0156563D01*
X0051539Y0156566D01*
X0051456Y0156573D01*
X0051373Y0156584D01*
X0051291Y0156599D01*
X0051209Y0156617D01*
X0051128Y0156640D01*
X0051049Y0156666D01*
X0050971Y0156696D01*
X0050894Y0156730D01*
X0050819Y0156767D01*
X0050746Y0156807D01*
X0050675Y0156852D01*
X0050606Y0156899D01*
X0050539Y0156950D01*
X0050475Y0157003D01*
X0050413Y0157060D01*
X0050355Y0157120D01*
X0050299Y0157182D01*
X0050246Y0157247D01*
X0050196Y0157314D01*
X0050149Y0157383D01*
X0050106Y0157455D01*
X0050066Y0157529D01*
X0050030Y0157604D01*
X0049997Y0157681D01*
X0049968Y0157760D01*
X0049943Y0157839D01*
X0049921Y0157920D01*
X0049904Y0158002D01*
X0049890Y0158085D01*
X0049880Y0158168D01*
X0049874Y0158251D01*
X0049872Y0158335D01*
X0049872Y0175657D02*
X0049874Y0175741D01*
X0049880Y0175824D01*
X0049890Y0175907D01*
X0049904Y0175990D01*
X0049921Y0176072D01*
X0049943Y0176153D01*
X0049968Y0176232D01*
X0049997Y0176311D01*
X0050030Y0176388D01*
X0050066Y0176463D01*
X0050106Y0176537D01*
X0050149Y0176609D01*
X0050196Y0176678D01*
X0050246Y0176745D01*
X0050299Y0176810D01*
X0050355Y0176872D01*
X0050413Y0176932D01*
X0050475Y0176989D01*
X0050539Y0177042D01*
X0050606Y0177093D01*
X0050675Y0177140D01*
X0050746Y0177185D01*
X0050819Y0177225D01*
X0050894Y0177262D01*
X0050971Y0177296D01*
X0051049Y0177326D01*
X0051128Y0177352D01*
X0051209Y0177375D01*
X0051291Y0177393D01*
X0051373Y0177408D01*
X0051456Y0177419D01*
X0051539Y0177426D01*
X0051623Y0177429D01*
X0051707Y0177428D01*
X0051790Y0177423D01*
X0051874Y0177414D01*
X0051956Y0177401D01*
X0052038Y0177385D01*
X0052119Y0177364D01*
X0052200Y0177340D01*
X0052278Y0177312D01*
X0052356Y0177280D01*
X0052432Y0177244D01*
X0052506Y0177205D01*
X0052578Y0177163D01*
X0052648Y0177117D01*
X0052716Y0177068D01*
X0052781Y0177016D01*
X0052844Y0176961D01*
X0052904Y0176903D01*
X0052962Y0176842D01*
X0053016Y0176778D01*
X0053068Y0176712D01*
X0053116Y0176644D01*
X0053161Y0176573D01*
X0053202Y0176500D01*
X0053241Y0176426D01*
X0053275Y0176350D01*
X0053306Y0176272D01*
X0053333Y0176193D01*
X0053357Y0176112D01*
X0053376Y0176031D01*
X0053392Y0175949D01*
X0053404Y0175866D01*
X0053412Y0175782D01*
X0053416Y0175699D01*
X0053416Y0175615D01*
X0053412Y0175532D01*
X0053404Y0175448D01*
X0053392Y0175365D01*
X0053376Y0175283D01*
X0053357Y0175202D01*
X0053333Y0175121D01*
X0053306Y0175042D01*
X0053275Y0174964D01*
X0053241Y0174888D01*
X0053202Y0174814D01*
X0053161Y0174741D01*
X0053116Y0174670D01*
X0053068Y0174602D01*
X0053016Y0174536D01*
X0052962Y0174472D01*
X0052904Y0174411D01*
X0052844Y0174353D01*
X0052781Y0174298D01*
X0052716Y0174246D01*
X0052648Y0174197D01*
X0052578Y0174151D01*
X0052506Y0174109D01*
X0052432Y0174070D01*
X0052356Y0174034D01*
X0052278Y0174002D01*
X0052200Y0173974D01*
X0052119Y0173950D01*
X0052038Y0173929D01*
X0051956Y0173913D01*
X0051874Y0173900D01*
X0051790Y0173891D01*
X0051707Y0173886D01*
X0051623Y0173885D01*
X0051539Y0173888D01*
X0051456Y0173895D01*
X0051373Y0173906D01*
X0051291Y0173921D01*
X0051209Y0173939D01*
X0051128Y0173962D01*
X0051049Y0173988D01*
X0050971Y0174018D01*
X0050894Y0174052D01*
X0050819Y0174089D01*
X0050746Y0174129D01*
X0050675Y0174174D01*
X0050606Y0174221D01*
X0050539Y0174272D01*
X0050475Y0174325D01*
X0050413Y0174382D01*
X0050355Y0174442D01*
X0050299Y0174504D01*
X0050246Y0174569D01*
X0050196Y0174636D01*
X0050149Y0174705D01*
X0050106Y0174777D01*
X0050066Y0174851D01*
X0050030Y0174926D01*
X0049997Y0175003D01*
X0049968Y0175082D01*
X0049943Y0175161D01*
X0049921Y0175242D01*
X0049904Y0175324D01*
X0049890Y0175407D01*
X0049880Y0175490D01*
X0049874Y0175573D01*
X0049872Y0175657D01*
D11*
X0115404Y0180933D03*
X0122884Y0180933D03*
X0122884Y0190933D03*
X0115404Y0190933D03*
X0115404Y0200933D03*
X0122884Y0200933D03*
X0122884Y0211051D03*
X0115404Y0211051D03*
X0115404Y0220933D03*
X0122884Y0220933D03*
X0122884Y0230933D03*
X0115404Y0230933D03*
X0115404Y0241130D03*
X0122884Y0241130D03*
X0122884Y0251681D03*
X0115404Y0251681D03*
D12*
X0169144Y0125835D03*
X0169144Y0101031D03*
D13*
X0164144Y0087173D03*
X0164144Y0079693D03*
X0191644Y0082193D03*
X0191644Y0089673D03*
X0203144Y0089673D03*
X0203144Y0082193D03*
D14*
X0194557Y0133433D03*
X0194557Y0140933D03*
X0183730Y0140933D03*
X0183730Y0133433D03*
D15*
X0123474Y0152193D03*
X0123474Y0159673D03*
X0123474Y0164693D03*
X0123474Y0172173D03*
X0114813Y0168433D03*
X0114813Y0155933D03*
D16*
X0155620Y0110972D03*
X0155620Y0101130D03*
X0185644Y0090854D03*
X0185644Y0081012D03*
D17*
X0156644Y0077724D03*
X0156644Y0089142D03*
D18*
X0143849Y0169772D03*
X0143849Y0171740D03*
X0143849Y0173709D03*
X0143849Y0175677D03*
X0143849Y0177646D03*
X0143849Y0179614D03*
X0143849Y0181583D03*
X0143849Y0183551D03*
X0143849Y0185520D03*
X0143849Y0187488D03*
X0143849Y0189457D03*
X0143849Y0191425D03*
X0179282Y0191425D03*
X0179282Y0189457D03*
X0179282Y0187488D03*
X0179282Y0185520D03*
X0179282Y0183551D03*
X0179282Y0181583D03*
X0179282Y0179614D03*
X0179282Y0177646D03*
X0179282Y0175677D03*
X0179282Y0173709D03*
X0179282Y0171740D03*
X0179282Y0169772D03*
D19*
X0172392Y0162882D03*
X0170423Y0162882D03*
X0168455Y0162882D03*
X0166486Y0162882D03*
X0164518Y0162882D03*
X0162549Y0162882D03*
X0160581Y0162882D03*
X0158612Y0162882D03*
X0156644Y0162882D03*
X0154675Y0162882D03*
X0152707Y0162882D03*
X0150738Y0162882D03*
X0150738Y0198315D03*
X0152707Y0198315D03*
X0154675Y0198315D03*
X0156644Y0198315D03*
X0158612Y0198315D03*
X0160581Y0198315D03*
X0162549Y0198315D03*
X0164518Y0198315D03*
X0166486Y0198315D03*
X0168455Y0198315D03*
X0170423Y0198315D03*
X0172392Y0198315D03*
D20*
X0172904Y0090461D03*
X0176644Y0090461D03*
X0180384Y0090461D03*
X0180384Y0081406D03*
X0176644Y0081406D03*
X0172904Y0081406D03*
D21*
X0092394Y0069240D02*
X0030894Y0069240D01*
D22*
X0054144Y0115933D03*
X0059144Y0125933D03*
X0069144Y0125933D03*
X0074144Y0115933D03*
X0064144Y0115933D03*
X0049144Y0125933D03*
D23*
X0041644Y0090933D03*
X0081644Y0090933D03*
D24*
X0081658Y0194893D02*
X0081658Y0200493D01*
X0081644Y0206735D02*
X0081644Y0212335D01*
X0091644Y0212335D02*
X0091644Y0206735D01*
X0091658Y0200493D02*
X0091658Y0194893D01*
D25*
X0141152Y0243425D02*
X0141152Y0249425D01*
X0151152Y0249425D02*
X0151152Y0243425D01*
X0161152Y0243425D02*
X0161152Y0249425D01*
X0171152Y0249425D02*
X0171152Y0243425D01*
X0181152Y0243425D02*
X0181152Y0249425D01*
X0191152Y0249425D02*
X0191152Y0243425D01*
X0201152Y0243425D02*
X0201152Y0249425D01*
X0211152Y0249425D02*
X0211152Y0243425D01*
X0208723Y0203315D02*
X0214723Y0203315D01*
X0214723Y0193315D02*
X0208723Y0193315D01*
X0208723Y0183315D02*
X0214723Y0183315D01*
X0214723Y0173315D02*
X0208723Y0173315D01*
X0208723Y0163315D02*
X0214723Y0163315D01*
X0214723Y0153315D02*
X0208723Y0153315D01*
D26*
X0199144Y0126031D03*
X0199144Y0100835D03*
D27*
X0188844Y0232941D03*
X0214444Y0232941D03*
D28*
X0051644Y0175657D03*
X0051644Y0158335D03*
M02*
