G75*
%MOIN*%
%OFA0B0*%
%FSLAX25Y25*%
%IPPOS*%
%LPD*%
%AMOC8*
5,1,8,0,0,1.08239X$1,22.5*
%
%ADD10C,0.00000*%
%ADD11C,0.01200*%
%ADD12C,0.00300*%
%ADD13C,0.00400*%
%ADD14C,0.01000*%
%ADD15R,0.02362X0.04331*%
%ADD16C,0.00600*%
%ADD17C,0.00200*%
%ADD18C,0.00500*%
%ADD19C,0.00800*%
%ADD20C,0.00039*%
%ADD21R,0.03642X0.04500*%
D10*
X0031644Y0065933D02*
X0031644Y0260894D01*
X0225345Y0260894D01*
X0225345Y0065933D01*
X0031644Y0065933D01*
X0035244Y0090933D02*
X0035246Y0091093D01*
X0035252Y0091252D01*
X0035262Y0091411D01*
X0035276Y0091570D01*
X0035294Y0091729D01*
X0035315Y0091887D01*
X0035341Y0092044D01*
X0035371Y0092201D01*
X0035404Y0092357D01*
X0035442Y0092512D01*
X0035483Y0092666D01*
X0035528Y0092819D01*
X0035577Y0092971D01*
X0035630Y0093122D01*
X0035686Y0093271D01*
X0035747Y0093419D01*
X0035810Y0093565D01*
X0035878Y0093710D01*
X0035949Y0093853D01*
X0036023Y0093994D01*
X0036101Y0094133D01*
X0036183Y0094270D01*
X0036268Y0094405D01*
X0036356Y0094538D01*
X0036448Y0094669D01*
X0036542Y0094797D01*
X0036640Y0094923D01*
X0036741Y0095047D01*
X0036845Y0095168D01*
X0036952Y0095286D01*
X0037062Y0095402D01*
X0037175Y0095515D01*
X0037291Y0095625D01*
X0037409Y0095732D01*
X0037530Y0095836D01*
X0037654Y0095937D01*
X0037780Y0096035D01*
X0037908Y0096129D01*
X0038039Y0096221D01*
X0038172Y0096309D01*
X0038307Y0096394D01*
X0038444Y0096476D01*
X0038583Y0096554D01*
X0038724Y0096628D01*
X0038867Y0096699D01*
X0039012Y0096767D01*
X0039158Y0096830D01*
X0039306Y0096891D01*
X0039455Y0096947D01*
X0039606Y0097000D01*
X0039758Y0097049D01*
X0039911Y0097094D01*
X0040065Y0097135D01*
X0040220Y0097173D01*
X0040376Y0097206D01*
X0040533Y0097236D01*
X0040690Y0097262D01*
X0040848Y0097283D01*
X0041007Y0097301D01*
X0041166Y0097315D01*
X0041325Y0097325D01*
X0041484Y0097331D01*
X0041644Y0097333D01*
X0041804Y0097331D01*
X0041963Y0097325D01*
X0042122Y0097315D01*
X0042281Y0097301D01*
X0042440Y0097283D01*
X0042598Y0097262D01*
X0042755Y0097236D01*
X0042912Y0097206D01*
X0043068Y0097173D01*
X0043223Y0097135D01*
X0043377Y0097094D01*
X0043530Y0097049D01*
X0043682Y0097000D01*
X0043833Y0096947D01*
X0043982Y0096891D01*
X0044130Y0096830D01*
X0044276Y0096767D01*
X0044421Y0096699D01*
X0044564Y0096628D01*
X0044705Y0096554D01*
X0044844Y0096476D01*
X0044981Y0096394D01*
X0045116Y0096309D01*
X0045249Y0096221D01*
X0045380Y0096129D01*
X0045508Y0096035D01*
X0045634Y0095937D01*
X0045758Y0095836D01*
X0045879Y0095732D01*
X0045997Y0095625D01*
X0046113Y0095515D01*
X0046226Y0095402D01*
X0046336Y0095286D01*
X0046443Y0095168D01*
X0046547Y0095047D01*
X0046648Y0094923D01*
X0046746Y0094797D01*
X0046840Y0094669D01*
X0046932Y0094538D01*
X0047020Y0094405D01*
X0047105Y0094270D01*
X0047187Y0094133D01*
X0047265Y0093994D01*
X0047339Y0093853D01*
X0047410Y0093710D01*
X0047478Y0093565D01*
X0047541Y0093419D01*
X0047602Y0093271D01*
X0047658Y0093122D01*
X0047711Y0092971D01*
X0047760Y0092819D01*
X0047805Y0092666D01*
X0047846Y0092512D01*
X0047884Y0092357D01*
X0047917Y0092201D01*
X0047947Y0092044D01*
X0047973Y0091887D01*
X0047994Y0091729D01*
X0048012Y0091570D01*
X0048026Y0091411D01*
X0048036Y0091252D01*
X0048042Y0091093D01*
X0048044Y0090933D01*
X0048042Y0090773D01*
X0048036Y0090614D01*
X0048026Y0090455D01*
X0048012Y0090296D01*
X0047994Y0090137D01*
X0047973Y0089979D01*
X0047947Y0089822D01*
X0047917Y0089665D01*
X0047884Y0089509D01*
X0047846Y0089354D01*
X0047805Y0089200D01*
X0047760Y0089047D01*
X0047711Y0088895D01*
X0047658Y0088744D01*
X0047602Y0088595D01*
X0047541Y0088447D01*
X0047478Y0088301D01*
X0047410Y0088156D01*
X0047339Y0088013D01*
X0047265Y0087872D01*
X0047187Y0087733D01*
X0047105Y0087596D01*
X0047020Y0087461D01*
X0046932Y0087328D01*
X0046840Y0087197D01*
X0046746Y0087069D01*
X0046648Y0086943D01*
X0046547Y0086819D01*
X0046443Y0086698D01*
X0046336Y0086580D01*
X0046226Y0086464D01*
X0046113Y0086351D01*
X0045997Y0086241D01*
X0045879Y0086134D01*
X0045758Y0086030D01*
X0045634Y0085929D01*
X0045508Y0085831D01*
X0045380Y0085737D01*
X0045249Y0085645D01*
X0045116Y0085557D01*
X0044981Y0085472D01*
X0044844Y0085390D01*
X0044705Y0085312D01*
X0044564Y0085238D01*
X0044421Y0085167D01*
X0044276Y0085099D01*
X0044130Y0085036D01*
X0043982Y0084975D01*
X0043833Y0084919D01*
X0043682Y0084866D01*
X0043530Y0084817D01*
X0043377Y0084772D01*
X0043223Y0084731D01*
X0043068Y0084693D01*
X0042912Y0084660D01*
X0042755Y0084630D01*
X0042598Y0084604D01*
X0042440Y0084583D01*
X0042281Y0084565D01*
X0042122Y0084551D01*
X0041963Y0084541D01*
X0041804Y0084535D01*
X0041644Y0084533D01*
X0041484Y0084535D01*
X0041325Y0084541D01*
X0041166Y0084551D01*
X0041007Y0084565D01*
X0040848Y0084583D01*
X0040690Y0084604D01*
X0040533Y0084630D01*
X0040376Y0084660D01*
X0040220Y0084693D01*
X0040065Y0084731D01*
X0039911Y0084772D01*
X0039758Y0084817D01*
X0039606Y0084866D01*
X0039455Y0084919D01*
X0039306Y0084975D01*
X0039158Y0085036D01*
X0039012Y0085099D01*
X0038867Y0085167D01*
X0038724Y0085238D01*
X0038583Y0085312D01*
X0038444Y0085390D01*
X0038307Y0085472D01*
X0038172Y0085557D01*
X0038039Y0085645D01*
X0037908Y0085737D01*
X0037780Y0085831D01*
X0037654Y0085929D01*
X0037530Y0086030D01*
X0037409Y0086134D01*
X0037291Y0086241D01*
X0037175Y0086351D01*
X0037062Y0086464D01*
X0036952Y0086580D01*
X0036845Y0086698D01*
X0036741Y0086819D01*
X0036640Y0086943D01*
X0036542Y0087069D01*
X0036448Y0087197D01*
X0036356Y0087328D01*
X0036268Y0087461D01*
X0036183Y0087596D01*
X0036101Y0087733D01*
X0036023Y0087872D01*
X0035949Y0088013D01*
X0035878Y0088156D01*
X0035810Y0088301D01*
X0035747Y0088447D01*
X0035686Y0088595D01*
X0035630Y0088744D01*
X0035577Y0088895D01*
X0035528Y0089047D01*
X0035483Y0089200D01*
X0035442Y0089354D01*
X0035404Y0089509D01*
X0035371Y0089665D01*
X0035341Y0089822D01*
X0035315Y0089979D01*
X0035294Y0090137D01*
X0035276Y0090296D01*
X0035262Y0090455D01*
X0035252Y0090614D01*
X0035246Y0090773D01*
X0035244Y0090933D01*
X0075244Y0090933D02*
X0075246Y0091093D01*
X0075252Y0091252D01*
X0075262Y0091411D01*
X0075276Y0091570D01*
X0075294Y0091729D01*
X0075315Y0091887D01*
X0075341Y0092044D01*
X0075371Y0092201D01*
X0075404Y0092357D01*
X0075442Y0092512D01*
X0075483Y0092666D01*
X0075528Y0092819D01*
X0075577Y0092971D01*
X0075630Y0093122D01*
X0075686Y0093271D01*
X0075747Y0093419D01*
X0075810Y0093565D01*
X0075878Y0093710D01*
X0075949Y0093853D01*
X0076023Y0093994D01*
X0076101Y0094133D01*
X0076183Y0094270D01*
X0076268Y0094405D01*
X0076356Y0094538D01*
X0076448Y0094669D01*
X0076542Y0094797D01*
X0076640Y0094923D01*
X0076741Y0095047D01*
X0076845Y0095168D01*
X0076952Y0095286D01*
X0077062Y0095402D01*
X0077175Y0095515D01*
X0077291Y0095625D01*
X0077409Y0095732D01*
X0077530Y0095836D01*
X0077654Y0095937D01*
X0077780Y0096035D01*
X0077908Y0096129D01*
X0078039Y0096221D01*
X0078172Y0096309D01*
X0078307Y0096394D01*
X0078444Y0096476D01*
X0078583Y0096554D01*
X0078724Y0096628D01*
X0078867Y0096699D01*
X0079012Y0096767D01*
X0079158Y0096830D01*
X0079306Y0096891D01*
X0079455Y0096947D01*
X0079606Y0097000D01*
X0079758Y0097049D01*
X0079911Y0097094D01*
X0080065Y0097135D01*
X0080220Y0097173D01*
X0080376Y0097206D01*
X0080533Y0097236D01*
X0080690Y0097262D01*
X0080848Y0097283D01*
X0081007Y0097301D01*
X0081166Y0097315D01*
X0081325Y0097325D01*
X0081484Y0097331D01*
X0081644Y0097333D01*
X0081804Y0097331D01*
X0081963Y0097325D01*
X0082122Y0097315D01*
X0082281Y0097301D01*
X0082440Y0097283D01*
X0082598Y0097262D01*
X0082755Y0097236D01*
X0082912Y0097206D01*
X0083068Y0097173D01*
X0083223Y0097135D01*
X0083377Y0097094D01*
X0083530Y0097049D01*
X0083682Y0097000D01*
X0083833Y0096947D01*
X0083982Y0096891D01*
X0084130Y0096830D01*
X0084276Y0096767D01*
X0084421Y0096699D01*
X0084564Y0096628D01*
X0084705Y0096554D01*
X0084844Y0096476D01*
X0084981Y0096394D01*
X0085116Y0096309D01*
X0085249Y0096221D01*
X0085380Y0096129D01*
X0085508Y0096035D01*
X0085634Y0095937D01*
X0085758Y0095836D01*
X0085879Y0095732D01*
X0085997Y0095625D01*
X0086113Y0095515D01*
X0086226Y0095402D01*
X0086336Y0095286D01*
X0086443Y0095168D01*
X0086547Y0095047D01*
X0086648Y0094923D01*
X0086746Y0094797D01*
X0086840Y0094669D01*
X0086932Y0094538D01*
X0087020Y0094405D01*
X0087105Y0094270D01*
X0087187Y0094133D01*
X0087265Y0093994D01*
X0087339Y0093853D01*
X0087410Y0093710D01*
X0087478Y0093565D01*
X0087541Y0093419D01*
X0087602Y0093271D01*
X0087658Y0093122D01*
X0087711Y0092971D01*
X0087760Y0092819D01*
X0087805Y0092666D01*
X0087846Y0092512D01*
X0087884Y0092357D01*
X0087917Y0092201D01*
X0087947Y0092044D01*
X0087973Y0091887D01*
X0087994Y0091729D01*
X0088012Y0091570D01*
X0088026Y0091411D01*
X0088036Y0091252D01*
X0088042Y0091093D01*
X0088044Y0090933D01*
X0088042Y0090773D01*
X0088036Y0090614D01*
X0088026Y0090455D01*
X0088012Y0090296D01*
X0087994Y0090137D01*
X0087973Y0089979D01*
X0087947Y0089822D01*
X0087917Y0089665D01*
X0087884Y0089509D01*
X0087846Y0089354D01*
X0087805Y0089200D01*
X0087760Y0089047D01*
X0087711Y0088895D01*
X0087658Y0088744D01*
X0087602Y0088595D01*
X0087541Y0088447D01*
X0087478Y0088301D01*
X0087410Y0088156D01*
X0087339Y0088013D01*
X0087265Y0087872D01*
X0087187Y0087733D01*
X0087105Y0087596D01*
X0087020Y0087461D01*
X0086932Y0087328D01*
X0086840Y0087197D01*
X0086746Y0087069D01*
X0086648Y0086943D01*
X0086547Y0086819D01*
X0086443Y0086698D01*
X0086336Y0086580D01*
X0086226Y0086464D01*
X0086113Y0086351D01*
X0085997Y0086241D01*
X0085879Y0086134D01*
X0085758Y0086030D01*
X0085634Y0085929D01*
X0085508Y0085831D01*
X0085380Y0085737D01*
X0085249Y0085645D01*
X0085116Y0085557D01*
X0084981Y0085472D01*
X0084844Y0085390D01*
X0084705Y0085312D01*
X0084564Y0085238D01*
X0084421Y0085167D01*
X0084276Y0085099D01*
X0084130Y0085036D01*
X0083982Y0084975D01*
X0083833Y0084919D01*
X0083682Y0084866D01*
X0083530Y0084817D01*
X0083377Y0084772D01*
X0083223Y0084731D01*
X0083068Y0084693D01*
X0082912Y0084660D01*
X0082755Y0084630D01*
X0082598Y0084604D01*
X0082440Y0084583D01*
X0082281Y0084565D01*
X0082122Y0084551D01*
X0081963Y0084541D01*
X0081804Y0084535D01*
X0081644Y0084533D01*
X0081484Y0084535D01*
X0081325Y0084541D01*
X0081166Y0084551D01*
X0081007Y0084565D01*
X0080848Y0084583D01*
X0080690Y0084604D01*
X0080533Y0084630D01*
X0080376Y0084660D01*
X0080220Y0084693D01*
X0080065Y0084731D01*
X0079911Y0084772D01*
X0079758Y0084817D01*
X0079606Y0084866D01*
X0079455Y0084919D01*
X0079306Y0084975D01*
X0079158Y0085036D01*
X0079012Y0085099D01*
X0078867Y0085167D01*
X0078724Y0085238D01*
X0078583Y0085312D01*
X0078444Y0085390D01*
X0078307Y0085472D01*
X0078172Y0085557D01*
X0078039Y0085645D01*
X0077908Y0085737D01*
X0077780Y0085831D01*
X0077654Y0085929D01*
X0077530Y0086030D01*
X0077409Y0086134D01*
X0077291Y0086241D01*
X0077175Y0086351D01*
X0077062Y0086464D01*
X0076952Y0086580D01*
X0076845Y0086698D01*
X0076741Y0086819D01*
X0076640Y0086943D01*
X0076542Y0087069D01*
X0076448Y0087197D01*
X0076356Y0087328D01*
X0076268Y0087461D01*
X0076183Y0087596D01*
X0076101Y0087733D01*
X0076023Y0087872D01*
X0075949Y0088013D01*
X0075878Y0088156D01*
X0075810Y0088301D01*
X0075747Y0088447D01*
X0075686Y0088595D01*
X0075630Y0088744D01*
X0075577Y0088895D01*
X0075528Y0089047D01*
X0075483Y0089200D01*
X0075442Y0089354D01*
X0075404Y0089509D01*
X0075371Y0089665D01*
X0075341Y0089822D01*
X0075315Y0089979D01*
X0075294Y0090137D01*
X0075276Y0090296D01*
X0075262Y0090455D01*
X0075252Y0090614D01*
X0075246Y0090773D01*
X0075244Y0090933D01*
X0049872Y0158335D02*
X0049874Y0158419D01*
X0049880Y0158502D01*
X0049890Y0158585D01*
X0049904Y0158668D01*
X0049921Y0158750D01*
X0049943Y0158831D01*
X0049968Y0158910D01*
X0049997Y0158989D01*
X0050030Y0159066D01*
X0050066Y0159141D01*
X0050106Y0159215D01*
X0050149Y0159287D01*
X0050196Y0159356D01*
X0050246Y0159423D01*
X0050299Y0159488D01*
X0050355Y0159550D01*
X0050413Y0159610D01*
X0050475Y0159667D01*
X0050539Y0159720D01*
X0050606Y0159771D01*
X0050675Y0159818D01*
X0050746Y0159863D01*
X0050819Y0159903D01*
X0050894Y0159940D01*
X0050971Y0159974D01*
X0051049Y0160004D01*
X0051128Y0160030D01*
X0051209Y0160053D01*
X0051291Y0160071D01*
X0051373Y0160086D01*
X0051456Y0160097D01*
X0051539Y0160104D01*
X0051623Y0160107D01*
X0051707Y0160106D01*
X0051790Y0160101D01*
X0051874Y0160092D01*
X0051956Y0160079D01*
X0052038Y0160063D01*
X0052119Y0160042D01*
X0052200Y0160018D01*
X0052278Y0159990D01*
X0052356Y0159958D01*
X0052432Y0159922D01*
X0052506Y0159883D01*
X0052578Y0159841D01*
X0052648Y0159795D01*
X0052716Y0159746D01*
X0052781Y0159694D01*
X0052844Y0159639D01*
X0052904Y0159581D01*
X0052962Y0159520D01*
X0053016Y0159456D01*
X0053068Y0159390D01*
X0053116Y0159322D01*
X0053161Y0159251D01*
X0053202Y0159178D01*
X0053241Y0159104D01*
X0053275Y0159028D01*
X0053306Y0158950D01*
X0053333Y0158871D01*
X0053357Y0158790D01*
X0053376Y0158709D01*
X0053392Y0158627D01*
X0053404Y0158544D01*
X0053412Y0158460D01*
X0053416Y0158377D01*
X0053416Y0158293D01*
X0053412Y0158210D01*
X0053404Y0158126D01*
X0053392Y0158043D01*
X0053376Y0157961D01*
X0053357Y0157880D01*
X0053333Y0157799D01*
X0053306Y0157720D01*
X0053275Y0157642D01*
X0053241Y0157566D01*
X0053202Y0157492D01*
X0053161Y0157419D01*
X0053116Y0157348D01*
X0053068Y0157280D01*
X0053016Y0157214D01*
X0052962Y0157150D01*
X0052904Y0157089D01*
X0052844Y0157031D01*
X0052781Y0156976D01*
X0052716Y0156924D01*
X0052648Y0156875D01*
X0052578Y0156829D01*
X0052506Y0156787D01*
X0052432Y0156748D01*
X0052356Y0156712D01*
X0052278Y0156680D01*
X0052200Y0156652D01*
X0052119Y0156628D01*
X0052038Y0156607D01*
X0051956Y0156591D01*
X0051874Y0156578D01*
X0051790Y0156569D01*
X0051707Y0156564D01*
X0051623Y0156563D01*
X0051539Y0156566D01*
X0051456Y0156573D01*
X0051373Y0156584D01*
X0051291Y0156599D01*
X0051209Y0156617D01*
X0051128Y0156640D01*
X0051049Y0156666D01*
X0050971Y0156696D01*
X0050894Y0156730D01*
X0050819Y0156767D01*
X0050746Y0156807D01*
X0050675Y0156852D01*
X0050606Y0156899D01*
X0050539Y0156950D01*
X0050475Y0157003D01*
X0050413Y0157060D01*
X0050355Y0157120D01*
X0050299Y0157182D01*
X0050246Y0157247D01*
X0050196Y0157314D01*
X0050149Y0157383D01*
X0050106Y0157455D01*
X0050066Y0157529D01*
X0050030Y0157604D01*
X0049997Y0157681D01*
X0049968Y0157760D01*
X0049943Y0157839D01*
X0049921Y0157920D01*
X0049904Y0158002D01*
X0049890Y0158085D01*
X0049880Y0158168D01*
X0049874Y0158251D01*
X0049872Y0158335D01*
X0049872Y0175657D02*
X0049874Y0175741D01*
X0049880Y0175824D01*
X0049890Y0175907D01*
X0049904Y0175990D01*
X0049921Y0176072D01*
X0049943Y0176153D01*
X0049968Y0176232D01*
X0049997Y0176311D01*
X0050030Y0176388D01*
X0050066Y0176463D01*
X0050106Y0176537D01*
X0050149Y0176609D01*
X0050196Y0176678D01*
X0050246Y0176745D01*
X0050299Y0176810D01*
X0050355Y0176872D01*
X0050413Y0176932D01*
X0050475Y0176989D01*
X0050539Y0177042D01*
X0050606Y0177093D01*
X0050675Y0177140D01*
X0050746Y0177185D01*
X0050819Y0177225D01*
X0050894Y0177262D01*
X0050971Y0177296D01*
X0051049Y0177326D01*
X0051128Y0177352D01*
X0051209Y0177375D01*
X0051291Y0177393D01*
X0051373Y0177408D01*
X0051456Y0177419D01*
X0051539Y0177426D01*
X0051623Y0177429D01*
X0051707Y0177428D01*
X0051790Y0177423D01*
X0051874Y0177414D01*
X0051956Y0177401D01*
X0052038Y0177385D01*
X0052119Y0177364D01*
X0052200Y0177340D01*
X0052278Y0177312D01*
X0052356Y0177280D01*
X0052432Y0177244D01*
X0052506Y0177205D01*
X0052578Y0177163D01*
X0052648Y0177117D01*
X0052716Y0177068D01*
X0052781Y0177016D01*
X0052844Y0176961D01*
X0052904Y0176903D01*
X0052962Y0176842D01*
X0053016Y0176778D01*
X0053068Y0176712D01*
X0053116Y0176644D01*
X0053161Y0176573D01*
X0053202Y0176500D01*
X0053241Y0176426D01*
X0053275Y0176350D01*
X0053306Y0176272D01*
X0053333Y0176193D01*
X0053357Y0176112D01*
X0053376Y0176031D01*
X0053392Y0175949D01*
X0053404Y0175866D01*
X0053412Y0175782D01*
X0053416Y0175699D01*
X0053416Y0175615D01*
X0053412Y0175532D01*
X0053404Y0175448D01*
X0053392Y0175365D01*
X0053376Y0175283D01*
X0053357Y0175202D01*
X0053333Y0175121D01*
X0053306Y0175042D01*
X0053275Y0174964D01*
X0053241Y0174888D01*
X0053202Y0174814D01*
X0053161Y0174741D01*
X0053116Y0174670D01*
X0053068Y0174602D01*
X0053016Y0174536D01*
X0052962Y0174472D01*
X0052904Y0174411D01*
X0052844Y0174353D01*
X0052781Y0174298D01*
X0052716Y0174246D01*
X0052648Y0174197D01*
X0052578Y0174151D01*
X0052506Y0174109D01*
X0052432Y0174070D01*
X0052356Y0174034D01*
X0052278Y0174002D01*
X0052200Y0173974D01*
X0052119Y0173950D01*
X0052038Y0173929D01*
X0051956Y0173913D01*
X0051874Y0173900D01*
X0051790Y0173891D01*
X0051707Y0173886D01*
X0051623Y0173885D01*
X0051539Y0173888D01*
X0051456Y0173895D01*
X0051373Y0173906D01*
X0051291Y0173921D01*
X0051209Y0173939D01*
X0051128Y0173962D01*
X0051049Y0173988D01*
X0050971Y0174018D01*
X0050894Y0174052D01*
X0050819Y0174089D01*
X0050746Y0174129D01*
X0050675Y0174174D01*
X0050606Y0174221D01*
X0050539Y0174272D01*
X0050475Y0174325D01*
X0050413Y0174382D01*
X0050355Y0174442D01*
X0050299Y0174504D01*
X0050246Y0174569D01*
X0050196Y0174636D01*
X0050149Y0174705D01*
X0050106Y0174777D01*
X0050066Y0174851D01*
X0050030Y0174926D01*
X0049997Y0175003D01*
X0049968Y0175082D01*
X0049943Y0175161D01*
X0049921Y0175242D01*
X0049904Y0175324D01*
X0049890Y0175407D01*
X0049880Y0175490D01*
X0049874Y0175573D01*
X0049872Y0175657D01*
D11*
X0128644Y0239433D02*
X0128644Y0253433D01*
X0219144Y0253433D01*
X0219144Y0239433D01*
X0128644Y0239433D01*
D12*
X0061678Y0238169D02*
X0061061Y0238786D01*
X0059827Y0238786D01*
X0059210Y0238169D01*
X0059210Y0237552D01*
X0059827Y0236935D01*
X0061061Y0236935D01*
X0061678Y0236317D01*
X0061678Y0235700D01*
X0061061Y0235083D01*
X0059827Y0235083D01*
X0059210Y0235700D01*
X0057995Y0235700D02*
X0057995Y0238786D01*
X0055526Y0238786D02*
X0055526Y0235700D01*
X0056144Y0235083D01*
X0057378Y0235083D01*
X0057995Y0235700D01*
X0054312Y0238786D02*
X0051843Y0238786D01*
X0053078Y0238786D02*
X0053078Y0235083D01*
X0050629Y0235083D02*
X0050629Y0237552D01*
X0049394Y0238786D01*
X0048160Y0237552D01*
X0048160Y0235083D01*
X0048160Y0236935D02*
X0050629Y0236935D01*
X0046946Y0238786D02*
X0044477Y0238786D01*
X0045711Y0238786D02*
X0045711Y0235083D01*
X0043263Y0235700D02*
X0042645Y0235083D01*
X0041411Y0235083D01*
X0040794Y0235700D01*
X0041411Y0236935D02*
X0042645Y0236935D01*
X0043263Y0236317D01*
X0043263Y0235700D01*
X0041411Y0236935D02*
X0040794Y0237552D01*
X0040794Y0238169D01*
X0041411Y0238786D01*
X0042645Y0238786D01*
X0043263Y0238169D01*
X0043594Y0225286D02*
X0042977Y0224669D01*
X0042977Y0222200D01*
X0043594Y0221583D01*
X0044829Y0221583D01*
X0045446Y0222200D01*
X0045446Y0224669D01*
X0044829Y0225286D01*
X0043594Y0225286D01*
X0041763Y0225286D02*
X0041763Y0222817D01*
X0040528Y0221583D01*
X0039294Y0222817D01*
X0039294Y0225286D01*
X0046660Y0225286D02*
X0046660Y0221583D01*
X0049129Y0221583D01*
X0050343Y0222200D02*
X0050343Y0225286D01*
X0052812Y0225286D02*
X0052812Y0222200D01*
X0052195Y0221583D01*
X0050960Y0221583D01*
X0050343Y0222200D01*
X0054026Y0221583D02*
X0054026Y0225286D01*
X0055261Y0224052D01*
X0056495Y0225286D01*
X0056495Y0221583D01*
X0057710Y0221583D02*
X0060178Y0221583D01*
X0058944Y0223435D02*
X0057710Y0223435D01*
X0057710Y0225286D02*
X0057710Y0221583D01*
X0057710Y0225286D02*
X0060178Y0225286D01*
D13*
X0068844Y0234633D02*
X0071913Y0234633D01*
X0073448Y0235400D02*
X0074215Y0234633D01*
X0075750Y0234633D01*
X0076517Y0235400D01*
X0076517Y0238470D01*
X0075750Y0239237D01*
X0074215Y0239237D01*
X0073448Y0238470D01*
X0073448Y0235400D01*
X0078052Y0235400D02*
X0078819Y0234633D01*
X0080354Y0234633D01*
X0081121Y0235400D01*
X0082656Y0234633D02*
X0082656Y0239237D01*
X0081121Y0238470D02*
X0080354Y0239237D01*
X0078819Y0239237D01*
X0078052Y0238470D01*
X0078052Y0235400D01*
X0082656Y0236168D02*
X0085725Y0239237D01*
X0085851Y0241444D02*
X0082782Y0241444D01*
X0085851Y0244513D01*
X0085851Y0245281D01*
X0085084Y0246048D01*
X0083549Y0246048D01*
X0082782Y0245281D01*
X0081247Y0245281D02*
X0080480Y0246048D01*
X0078178Y0246048D01*
X0078178Y0241444D01*
X0080480Y0241444D01*
X0081247Y0242211D01*
X0081247Y0245281D01*
X0076643Y0246048D02*
X0073574Y0246048D01*
X0073574Y0241444D01*
X0076643Y0241444D01*
X0075108Y0243746D02*
X0073574Y0243746D01*
X0072039Y0241444D02*
X0068970Y0241444D01*
X0068970Y0246048D01*
X0068844Y0239237D02*
X0068844Y0234633D01*
X0060183Y0241444D02*
X0057114Y0241444D01*
X0058648Y0241444D02*
X0058648Y0246048D01*
X0057114Y0244513D01*
X0055579Y0245281D02*
X0054812Y0246048D01*
X0052510Y0246048D01*
X0052510Y0241444D01*
X0054812Y0241444D01*
X0055579Y0242211D01*
X0055579Y0245281D01*
X0050975Y0246048D02*
X0047906Y0246048D01*
X0047906Y0241444D01*
X0050975Y0241444D01*
X0049441Y0243746D02*
X0047906Y0243746D01*
X0046371Y0241444D02*
X0043302Y0241444D01*
X0043302Y0246048D01*
X0063789Y0211481D02*
X0066091Y0211481D01*
X0066858Y0210714D01*
X0066858Y0209179D01*
X0066091Y0208412D01*
X0063789Y0208412D01*
X0065323Y0208412D02*
X0066858Y0206877D01*
X0068393Y0206877D02*
X0071462Y0206877D01*
X0069927Y0206877D02*
X0069927Y0211481D01*
X0068393Y0209946D01*
X0063789Y0211481D02*
X0063789Y0206877D01*
X0056171Y0208335D02*
X0050660Y0202823D01*
X0049282Y0204201D02*
X0054793Y0209713D01*
X0048297Y0206366D02*
X0048299Y0206497D01*
X0048305Y0206629D01*
X0048315Y0206760D01*
X0048329Y0206891D01*
X0048347Y0207021D01*
X0048369Y0207150D01*
X0048394Y0207279D01*
X0048424Y0207407D01*
X0048458Y0207534D01*
X0048495Y0207661D01*
X0048536Y0207785D01*
X0048581Y0207909D01*
X0048630Y0208031D01*
X0048682Y0208152D01*
X0048738Y0208270D01*
X0048798Y0208388D01*
X0048861Y0208503D01*
X0048928Y0208616D01*
X0048998Y0208728D01*
X0049071Y0208837D01*
X0049147Y0208943D01*
X0049227Y0209048D01*
X0049310Y0209150D01*
X0049396Y0209249D01*
X0049485Y0209346D01*
X0049577Y0209440D01*
X0049672Y0209531D01*
X0049769Y0209620D01*
X0049869Y0209705D01*
X0049972Y0209787D01*
X0050077Y0209866D01*
X0050184Y0209942D01*
X0050294Y0210014D01*
X0050406Y0210083D01*
X0050520Y0210149D01*
X0050635Y0210211D01*
X0050753Y0210270D01*
X0050872Y0210325D01*
X0050993Y0210377D01*
X0051116Y0210424D01*
X0051240Y0210468D01*
X0051365Y0210509D01*
X0051491Y0210545D01*
X0051619Y0210578D01*
X0051747Y0210606D01*
X0051876Y0210631D01*
X0052006Y0210652D01*
X0052136Y0210669D01*
X0052267Y0210682D01*
X0052398Y0210691D01*
X0052529Y0210696D01*
X0052661Y0210697D01*
X0052792Y0210694D01*
X0052924Y0210687D01*
X0053055Y0210676D01*
X0053185Y0210661D01*
X0053315Y0210642D01*
X0053445Y0210619D01*
X0053573Y0210593D01*
X0053701Y0210562D01*
X0053828Y0210527D01*
X0053954Y0210489D01*
X0054078Y0210447D01*
X0054202Y0210401D01*
X0054323Y0210351D01*
X0054443Y0210298D01*
X0054562Y0210241D01*
X0054679Y0210181D01*
X0054793Y0210117D01*
X0054906Y0210049D01*
X0055017Y0209978D01*
X0055126Y0209904D01*
X0055232Y0209827D01*
X0055336Y0209746D01*
X0055437Y0209663D01*
X0055536Y0209576D01*
X0055632Y0209486D01*
X0055725Y0209393D01*
X0055816Y0209298D01*
X0055903Y0209200D01*
X0055988Y0209099D01*
X0056069Y0208996D01*
X0056147Y0208890D01*
X0056222Y0208782D01*
X0056294Y0208672D01*
X0056362Y0208560D01*
X0056427Y0208446D01*
X0056488Y0208329D01*
X0056546Y0208211D01*
X0056600Y0208091D01*
X0056651Y0207970D01*
X0056698Y0207847D01*
X0056741Y0207723D01*
X0056780Y0207598D01*
X0056816Y0207471D01*
X0056847Y0207343D01*
X0056875Y0207215D01*
X0056899Y0207086D01*
X0056919Y0206956D01*
X0056935Y0206825D01*
X0056947Y0206694D01*
X0056955Y0206563D01*
X0056959Y0206432D01*
X0056959Y0206300D01*
X0056955Y0206169D01*
X0056947Y0206038D01*
X0056935Y0205907D01*
X0056919Y0205776D01*
X0056899Y0205646D01*
X0056875Y0205517D01*
X0056847Y0205389D01*
X0056816Y0205261D01*
X0056780Y0205134D01*
X0056741Y0205009D01*
X0056698Y0204885D01*
X0056651Y0204762D01*
X0056600Y0204641D01*
X0056546Y0204521D01*
X0056488Y0204403D01*
X0056427Y0204286D01*
X0056362Y0204172D01*
X0056294Y0204060D01*
X0056222Y0203950D01*
X0056147Y0203842D01*
X0056069Y0203736D01*
X0055988Y0203633D01*
X0055903Y0203532D01*
X0055816Y0203434D01*
X0055725Y0203339D01*
X0055632Y0203246D01*
X0055536Y0203156D01*
X0055437Y0203069D01*
X0055336Y0202986D01*
X0055232Y0202905D01*
X0055126Y0202828D01*
X0055017Y0202754D01*
X0054906Y0202683D01*
X0054794Y0202615D01*
X0054679Y0202551D01*
X0054562Y0202491D01*
X0054443Y0202434D01*
X0054323Y0202381D01*
X0054202Y0202331D01*
X0054078Y0202285D01*
X0053954Y0202243D01*
X0053828Y0202205D01*
X0053701Y0202170D01*
X0053573Y0202139D01*
X0053445Y0202113D01*
X0053315Y0202090D01*
X0053185Y0202071D01*
X0053055Y0202056D01*
X0052924Y0202045D01*
X0052792Y0202038D01*
X0052661Y0202035D01*
X0052529Y0202036D01*
X0052398Y0202041D01*
X0052267Y0202050D01*
X0052136Y0202063D01*
X0052006Y0202080D01*
X0051876Y0202101D01*
X0051747Y0202126D01*
X0051619Y0202154D01*
X0051491Y0202187D01*
X0051365Y0202223D01*
X0051240Y0202264D01*
X0051116Y0202308D01*
X0050993Y0202355D01*
X0050872Y0202407D01*
X0050753Y0202462D01*
X0050635Y0202521D01*
X0050520Y0202583D01*
X0050406Y0202649D01*
X0050294Y0202718D01*
X0050184Y0202790D01*
X0050077Y0202866D01*
X0049972Y0202945D01*
X0049869Y0203027D01*
X0049769Y0203112D01*
X0049672Y0203201D01*
X0049577Y0203292D01*
X0049485Y0203386D01*
X0049396Y0203483D01*
X0049310Y0203582D01*
X0049227Y0203684D01*
X0049147Y0203789D01*
X0049071Y0203895D01*
X0048998Y0204004D01*
X0048928Y0204116D01*
X0048861Y0204229D01*
X0048798Y0204344D01*
X0048738Y0204462D01*
X0048682Y0204580D01*
X0048630Y0204701D01*
X0048581Y0204823D01*
X0048536Y0204947D01*
X0048495Y0205071D01*
X0048458Y0205198D01*
X0048424Y0205325D01*
X0048394Y0205453D01*
X0048369Y0205582D01*
X0048347Y0205711D01*
X0048329Y0205841D01*
X0048315Y0205972D01*
X0048305Y0206103D01*
X0048299Y0206235D01*
X0048297Y0206366D01*
X0042034Y0206898D02*
X0038965Y0209968D01*
X0038198Y0209968D01*
X0037430Y0209200D01*
X0037430Y0207666D01*
X0038198Y0206898D01*
X0038198Y0205364D02*
X0039732Y0205364D01*
X0040500Y0204596D01*
X0040500Y0202294D01*
X0042034Y0202294D02*
X0037430Y0202294D01*
X0037430Y0204596D01*
X0038198Y0205364D01*
X0040500Y0203829D02*
X0042034Y0205364D01*
X0042034Y0206898D02*
X0042034Y0209968D01*
X0045532Y0182143D02*
X0055514Y0182143D01*
X0058769Y0180084D02*
X0058769Y0177227D01*
X0063220Y0177227D01*
X0063220Y0180084D01*
X0050417Y0170267D02*
X0050417Y0163727D01*
X0050412Y0163670D01*
X0050403Y0163613D01*
X0050390Y0163557D01*
X0050374Y0163501D01*
X0050354Y0163447D01*
X0050331Y0163395D01*
X0050304Y0163344D01*
X0050274Y0163295D01*
X0050240Y0163248D01*
X0050204Y0163204D01*
X0050165Y0163162D01*
X0050123Y0163122D01*
X0050078Y0163086D01*
X0050031Y0163053D01*
X0049982Y0163022D01*
X0049931Y0162996D01*
X0049879Y0162972D01*
X0049825Y0162952D01*
X0049770Y0162936D01*
X0049714Y0162923D01*
X0049657Y0162914D01*
X0049600Y0162909D01*
X0033658Y0162092D01*
X0033602Y0162094D01*
X0033547Y0162100D01*
X0033492Y0162109D01*
X0033438Y0162122D01*
X0033384Y0162139D01*
X0033333Y0162160D01*
X0033282Y0162184D01*
X0033233Y0162211D01*
X0033187Y0162242D01*
X0033142Y0162275D01*
X0033100Y0162312D01*
X0033061Y0162351D01*
X0033024Y0162393D01*
X0032991Y0162438D01*
X0032960Y0162484D01*
X0032933Y0162533D01*
X0032909Y0162584D01*
X0032888Y0162635D01*
X0032871Y0162689D01*
X0032858Y0162743D01*
X0032849Y0162798D01*
X0032843Y0162853D01*
X0032841Y0162909D01*
X0032843Y0162965D01*
X0032849Y0163020D01*
X0032858Y0163075D01*
X0032871Y0163129D01*
X0032888Y0163183D01*
X0032909Y0163234D01*
X0032933Y0163285D01*
X0032960Y0163334D01*
X0032991Y0163380D01*
X0033024Y0163425D01*
X0033061Y0163467D01*
X0033100Y0163506D01*
X0033142Y0163543D01*
X0033187Y0163576D01*
X0033233Y0163607D01*
X0033282Y0163634D01*
X0033333Y0163658D01*
X0033384Y0163679D01*
X0033438Y0163696D01*
X0033492Y0163709D01*
X0033547Y0163718D01*
X0033602Y0163724D01*
X0033658Y0163726D01*
X0033658Y0163727D02*
X0047147Y0164544D01*
X0047147Y0169450D01*
X0047147Y0169449D02*
X0033658Y0170266D01*
X0033602Y0170268D01*
X0033547Y0170274D01*
X0033492Y0170283D01*
X0033438Y0170296D01*
X0033384Y0170313D01*
X0033333Y0170334D01*
X0033282Y0170358D01*
X0033233Y0170385D01*
X0033187Y0170416D01*
X0033142Y0170449D01*
X0033100Y0170486D01*
X0033061Y0170525D01*
X0033024Y0170567D01*
X0032991Y0170612D01*
X0032960Y0170658D01*
X0032933Y0170707D01*
X0032909Y0170758D01*
X0032888Y0170809D01*
X0032871Y0170863D01*
X0032858Y0170917D01*
X0032849Y0170972D01*
X0032843Y0171027D01*
X0032841Y0171083D01*
X0032840Y0171084D02*
X0032840Y0171083D01*
X0032841Y0171084D02*
X0032843Y0171140D01*
X0032849Y0171195D01*
X0032858Y0171250D01*
X0032871Y0171304D01*
X0032888Y0171358D01*
X0032909Y0171409D01*
X0032933Y0171460D01*
X0032960Y0171509D01*
X0032991Y0171555D01*
X0033024Y0171600D01*
X0033061Y0171642D01*
X0033100Y0171681D01*
X0033142Y0171718D01*
X0033187Y0171751D01*
X0033233Y0171782D01*
X0033282Y0171809D01*
X0033333Y0171833D01*
X0033384Y0171854D01*
X0033438Y0171871D01*
X0033492Y0171884D01*
X0033547Y0171893D01*
X0033602Y0171899D01*
X0033658Y0171901D01*
X0049600Y0171084D01*
X0049599Y0171084D02*
X0049657Y0171079D01*
X0049713Y0171070D01*
X0049770Y0171057D01*
X0049825Y0171041D01*
X0049879Y0171021D01*
X0049931Y0170998D01*
X0049982Y0170971D01*
X0050031Y0170940D01*
X0050078Y0170907D01*
X0050122Y0170871D01*
X0050165Y0170831D01*
X0050204Y0170789D01*
X0050240Y0170745D01*
X0050274Y0170698D01*
X0050304Y0170649D01*
X0050331Y0170598D01*
X0050354Y0170545D01*
X0050374Y0170491D01*
X0050390Y0170436D01*
X0050403Y0170380D01*
X0050412Y0170323D01*
X0050417Y0170266D01*
X0044490Y0172923D02*
X0044490Y0173741D01*
X0035088Y0174763D01*
X0035088Y0176807D01*
X0044490Y0177828D01*
X0044490Y0178646D01*
X0033658Y0177828D01*
X0033657Y0177828D02*
X0033591Y0177821D01*
X0033526Y0177810D01*
X0033461Y0177796D01*
X0033398Y0177778D01*
X0033335Y0177756D01*
X0033274Y0177731D01*
X0033214Y0177703D01*
X0033156Y0177671D01*
X0033100Y0177635D01*
X0033046Y0177597D01*
X0032995Y0177556D01*
X0032946Y0177512D01*
X0032899Y0177465D01*
X0032855Y0177415D01*
X0032814Y0177363D01*
X0032776Y0177309D01*
X0032741Y0177253D01*
X0032710Y0177195D01*
X0032682Y0177135D01*
X0032657Y0177073D01*
X0032636Y0177011D01*
X0032636Y0174762D02*
X0032657Y0174700D01*
X0032682Y0174638D01*
X0032710Y0174578D01*
X0032741Y0174520D01*
X0032776Y0174464D01*
X0032814Y0174410D01*
X0032855Y0174358D01*
X0032899Y0174308D01*
X0032946Y0174261D01*
X0032995Y0174217D01*
X0033046Y0174176D01*
X0033100Y0174138D01*
X0033156Y0174102D01*
X0033214Y0174070D01*
X0033274Y0174042D01*
X0033335Y0174017D01*
X0033398Y0173995D01*
X0033461Y0173977D01*
X0033526Y0173963D01*
X0033591Y0173952D01*
X0033657Y0173945D01*
X0033658Y0173945D02*
X0044490Y0172923D01*
X0032637Y0174763D02*
X0032603Y0174878D01*
X0032573Y0174995D01*
X0032547Y0175112D01*
X0032525Y0175230D01*
X0032506Y0175348D01*
X0032491Y0175468D01*
X0032480Y0175587D01*
X0032472Y0175707D01*
X0032468Y0175827D01*
X0032468Y0175947D01*
X0032472Y0176067D01*
X0032480Y0176187D01*
X0032491Y0176306D01*
X0032506Y0176426D01*
X0032525Y0176544D01*
X0032547Y0176662D01*
X0032573Y0176779D01*
X0032603Y0176896D01*
X0032637Y0177011D01*
X0034263Y0182120D02*
X0028344Y0182120D01*
X0028344Y0151872D01*
X0028344Y0151872D01*
X0034263Y0151872D01*
X0033658Y0156165D02*
X0044490Y0155347D01*
X0044490Y0156165D01*
X0035088Y0157186D01*
X0035088Y0159230D01*
X0044490Y0160252D01*
X0044490Y0161070D01*
X0033658Y0160048D01*
X0033657Y0160048D02*
X0033591Y0160041D01*
X0033526Y0160030D01*
X0033461Y0160016D01*
X0033398Y0159998D01*
X0033335Y0159976D01*
X0033274Y0159951D01*
X0033214Y0159923D01*
X0033156Y0159891D01*
X0033100Y0159855D01*
X0033046Y0159817D01*
X0032995Y0159776D01*
X0032946Y0159732D01*
X0032899Y0159685D01*
X0032855Y0159635D01*
X0032814Y0159583D01*
X0032776Y0159529D01*
X0032741Y0159473D01*
X0032710Y0159415D01*
X0032682Y0159355D01*
X0032657Y0159293D01*
X0032636Y0159231D01*
X0032636Y0156982D02*
X0032657Y0156920D01*
X0032682Y0156858D01*
X0032710Y0156798D01*
X0032741Y0156740D01*
X0032776Y0156684D01*
X0032814Y0156630D01*
X0032855Y0156578D01*
X0032899Y0156528D01*
X0032946Y0156481D01*
X0032995Y0156437D01*
X0033046Y0156396D01*
X0033100Y0156358D01*
X0033156Y0156322D01*
X0033214Y0156290D01*
X0033274Y0156262D01*
X0033335Y0156237D01*
X0033398Y0156215D01*
X0033461Y0156197D01*
X0033526Y0156183D01*
X0033591Y0156172D01*
X0033657Y0156165D01*
X0032637Y0156982D02*
X0032603Y0157097D01*
X0032573Y0157214D01*
X0032547Y0157331D01*
X0032525Y0157449D01*
X0032506Y0157567D01*
X0032491Y0157687D01*
X0032480Y0157806D01*
X0032472Y0157926D01*
X0032468Y0158046D01*
X0032468Y0158166D01*
X0032472Y0158286D01*
X0032480Y0158406D01*
X0032491Y0158525D01*
X0032506Y0158645D01*
X0032525Y0158763D01*
X0032547Y0158881D01*
X0032573Y0158998D01*
X0032603Y0159115D01*
X0032637Y0159230D01*
X0028326Y0151849D02*
X0028326Y0182143D01*
X0045332Y0151850D02*
X0055912Y0151850D01*
X0053482Y0150800D02*
X0053482Y0146196D01*
X0051948Y0146196D02*
X0055017Y0146196D01*
X0051948Y0149265D02*
X0053482Y0150800D01*
X0050413Y0150800D02*
X0047344Y0146196D01*
X0050413Y0146196D02*
X0047344Y0150800D01*
X0058769Y0153909D02*
X0058769Y0156367D01*
X0063287Y0156367D01*
X0063287Y0153876D01*
X0083534Y0178689D02*
X0090226Y0178689D01*
X0090226Y0183020D02*
X0083534Y0183020D01*
X0084215Y0186633D02*
X0085750Y0186633D01*
X0086517Y0187400D01*
X0086517Y0190470D01*
X0085750Y0191237D01*
X0084215Y0191237D01*
X0083448Y0190470D01*
X0083448Y0187400D01*
X0084215Y0186633D01*
X0081913Y0187400D02*
X0081146Y0186633D01*
X0078844Y0186633D01*
X0078844Y0191237D01*
X0081146Y0191237D01*
X0081913Y0190470D01*
X0081913Y0189702D01*
X0081146Y0188935D01*
X0078844Y0188935D01*
X0081146Y0188935D02*
X0081913Y0188168D01*
X0081913Y0187400D01*
X0088052Y0187400D02*
X0088819Y0186633D01*
X0090354Y0186633D01*
X0091121Y0187400D01*
X0091121Y0190470D01*
X0090354Y0191237D01*
X0088819Y0191237D01*
X0088052Y0190470D01*
X0088052Y0187400D01*
X0092656Y0191237D02*
X0095725Y0191237D01*
X0094190Y0191237D02*
X0094190Y0186633D01*
X0095868Y0183205D02*
X0098170Y0183205D01*
X0098937Y0182438D01*
X0098937Y0179369D01*
X0098170Y0178602D01*
X0095868Y0178602D01*
X0095868Y0183205D01*
X0100472Y0183205D02*
X0103541Y0183205D01*
X0103541Y0182438D01*
X0100472Y0179369D01*
X0100472Y0178602D01*
X0102171Y0176229D02*
X0102171Y0171625D01*
X0103705Y0171625D02*
X0100636Y0171625D01*
X0099101Y0171625D02*
X0097567Y0173160D01*
X0098334Y0173160D02*
X0096032Y0173160D01*
X0096032Y0171625D02*
X0096032Y0176229D01*
X0098334Y0176229D01*
X0099101Y0175462D01*
X0099101Y0173927D01*
X0098334Y0173160D01*
X0100636Y0174694D02*
X0102171Y0176229D01*
X0105240Y0175462D02*
X0106007Y0176229D01*
X0107542Y0176229D01*
X0108309Y0175462D01*
X0108309Y0174694D01*
X0107542Y0173927D01*
X0108309Y0173160D01*
X0108309Y0172393D01*
X0107542Y0171625D01*
X0106007Y0171625D01*
X0105240Y0172393D01*
X0106774Y0173927D02*
X0107542Y0173927D01*
X0108309Y0167922D02*
X0105240Y0167922D01*
X0105240Y0165620D01*
X0106774Y0166387D01*
X0107542Y0166387D01*
X0108309Y0165620D01*
X0108309Y0164085D01*
X0107542Y0163318D01*
X0106007Y0163318D01*
X0105240Y0164085D01*
X0103705Y0163318D02*
X0100636Y0163318D01*
X0102171Y0163318D02*
X0102171Y0167922D01*
X0100636Y0166387D01*
X0099101Y0165620D02*
X0098334Y0164853D01*
X0096032Y0164853D01*
X0097567Y0164853D02*
X0099101Y0163318D01*
X0099101Y0165620D02*
X0099101Y0167155D01*
X0098334Y0167922D01*
X0096032Y0167922D01*
X0096032Y0163318D01*
X0096032Y0159477D02*
X0098334Y0159477D01*
X0099101Y0158710D01*
X0099101Y0157175D01*
X0098334Y0156408D01*
X0096032Y0156408D01*
X0097567Y0156408D02*
X0099101Y0154873D01*
X0100636Y0154873D02*
X0103705Y0154873D01*
X0102171Y0154873D02*
X0102171Y0159477D01*
X0100636Y0157943D01*
X0105240Y0157175D02*
X0108309Y0157175D01*
X0107542Y0154873D02*
X0107542Y0159477D01*
X0105240Y0157175D01*
X0096032Y0154873D02*
X0096032Y0159477D01*
X0143419Y0122529D02*
X0143419Y0119459D01*
X0144186Y0118692D01*
X0145721Y0118692D01*
X0146488Y0119459D01*
X0148023Y0118692D02*
X0151092Y0118692D01*
X0149557Y0118692D02*
X0149557Y0123296D01*
X0148023Y0121761D01*
X0146488Y0122529D02*
X0145721Y0123296D01*
X0144186Y0123296D01*
X0143419Y0122529D01*
X0152626Y0120994D02*
X0155696Y0120994D01*
X0154928Y0118692D02*
X0154928Y0123296D01*
X0152626Y0120994D01*
X0154161Y0112883D02*
X0154161Y0108279D01*
X0152626Y0108279D02*
X0155696Y0108279D01*
X0152626Y0111348D02*
X0154161Y0112883D01*
X0149557Y0112883D02*
X0149557Y0108279D01*
X0148023Y0108279D02*
X0151092Y0108279D01*
X0148023Y0111348D02*
X0149557Y0112883D01*
X0146488Y0112115D02*
X0145721Y0112883D01*
X0144186Y0112883D01*
X0143419Y0112115D01*
X0143419Y0109046D01*
X0144186Y0108279D01*
X0145721Y0108279D01*
X0146488Y0109046D01*
X0128865Y0090324D02*
X0129632Y0089556D01*
X0129632Y0088789D01*
X0128865Y0088022D01*
X0129632Y0087254D01*
X0129632Y0086487D01*
X0128865Y0085720D01*
X0127330Y0085720D01*
X0126563Y0086487D01*
X0125028Y0085720D02*
X0121959Y0085720D01*
X0123493Y0085720D02*
X0123493Y0090324D01*
X0121959Y0088789D01*
X0120424Y0089556D02*
X0119657Y0090324D01*
X0118122Y0090324D01*
X0117355Y0089556D01*
X0117355Y0086487D01*
X0118122Y0085720D01*
X0119657Y0085720D01*
X0120424Y0086487D01*
X0119539Y0081465D02*
X0118004Y0081465D01*
X0117237Y0080698D01*
X0117237Y0077629D01*
X0118004Y0076861D01*
X0119539Y0076861D01*
X0120306Y0077629D01*
X0121841Y0076861D02*
X0124910Y0076861D01*
X0123375Y0076861D02*
X0123375Y0081465D01*
X0121841Y0079931D01*
X0120306Y0080698D02*
X0119539Y0081465D01*
X0126445Y0080698D02*
X0126445Y0077629D01*
X0129514Y0080698D01*
X0129514Y0077629D01*
X0128747Y0076861D01*
X0127212Y0076861D01*
X0126445Y0077629D01*
X0126445Y0080698D02*
X0127212Y0081465D01*
X0128747Y0081465D01*
X0129514Y0080698D01*
X0128865Y0088022D02*
X0128097Y0088022D01*
X0126563Y0089556D02*
X0127330Y0090324D01*
X0128865Y0090324D01*
X0170111Y0170149D02*
X0171646Y0170149D01*
X0172413Y0170916D01*
X0173948Y0170149D02*
X0177017Y0170149D01*
X0175482Y0170149D02*
X0175482Y0174753D01*
X0173948Y0173218D01*
X0172413Y0173985D02*
X0171646Y0174753D01*
X0170111Y0174753D01*
X0169344Y0173985D01*
X0169344Y0170916D01*
X0170111Y0170149D01*
X0169903Y0178141D02*
X0171438Y0178141D01*
X0172205Y0178908D01*
X0173740Y0178908D02*
X0174507Y0178141D01*
X0176042Y0178141D01*
X0176809Y0178908D01*
X0176809Y0179676D01*
X0176042Y0180443D01*
X0175274Y0180443D01*
X0176042Y0180443D02*
X0176809Y0181210D01*
X0176809Y0181978D01*
X0176042Y0182745D01*
X0174507Y0182745D01*
X0173740Y0181978D01*
X0172205Y0181978D02*
X0171438Y0182745D01*
X0169903Y0182745D01*
X0169136Y0181978D01*
X0169136Y0178908D01*
X0169903Y0178141D01*
X0170111Y0186133D02*
X0171646Y0186133D01*
X0172413Y0186900D01*
X0173948Y0186133D02*
X0177017Y0189202D01*
X0177017Y0189970D01*
X0176250Y0190737D01*
X0174715Y0190737D01*
X0173948Y0189970D01*
X0172413Y0189970D02*
X0171646Y0190737D01*
X0170111Y0190737D01*
X0169344Y0189970D01*
X0169344Y0186900D01*
X0170111Y0186133D01*
X0173948Y0186133D02*
X0177017Y0186133D01*
X0187489Y0204562D02*
X0187489Y0209166D01*
X0189791Y0209166D01*
X0190559Y0208399D01*
X0190559Y0206864D01*
X0189791Y0206097D01*
X0187489Y0206097D01*
X0189024Y0206097D02*
X0190559Y0204562D01*
X0192093Y0205330D02*
X0192861Y0204562D01*
X0194395Y0204562D01*
X0195163Y0205330D01*
X0195163Y0206864D01*
X0194395Y0207631D01*
X0193628Y0207631D01*
X0192093Y0206864D01*
X0192093Y0209166D01*
X0195163Y0209166D01*
X0205344Y0212900D02*
X0206111Y0212133D01*
X0207646Y0212133D01*
X0208413Y0212900D01*
X0209948Y0212900D02*
X0210715Y0212133D01*
X0212250Y0212133D01*
X0213017Y0212900D01*
X0213017Y0214435D01*
X0212250Y0215202D01*
X0211482Y0215202D01*
X0209948Y0214435D01*
X0209948Y0216737D01*
X0213017Y0216737D01*
X0208413Y0215970D02*
X0207646Y0216737D01*
X0206111Y0216737D01*
X0205344Y0215970D01*
X0205344Y0212900D01*
X0198444Y0224672D02*
X0198444Y0229276D01*
X0196142Y0226974D01*
X0199212Y0226974D01*
X0194608Y0225440D02*
X0193840Y0224672D01*
X0192306Y0224672D01*
X0191538Y0225440D01*
X0191538Y0228509D01*
X0192306Y0229276D01*
X0193840Y0229276D01*
X0194608Y0228509D01*
X0175382Y0208546D02*
X0172312Y0208546D01*
X0173847Y0208546D02*
X0173847Y0213150D01*
X0172312Y0211616D01*
X0170778Y0212383D02*
X0170010Y0213150D01*
X0168476Y0213150D01*
X0167708Y0212383D01*
X0167708Y0209314D01*
X0168476Y0208546D01*
X0170010Y0208546D01*
X0170778Y0209314D01*
X0166174Y0208546D02*
X0164639Y0208546D01*
X0165406Y0208546D02*
X0165406Y0213150D01*
X0164639Y0213150D02*
X0166174Y0213150D01*
X0097329Y0220737D02*
X0094259Y0220737D01*
X0092725Y0220737D02*
X0089656Y0220737D01*
X0089656Y0216133D01*
X0092725Y0216133D01*
X0091190Y0218435D02*
X0089656Y0218435D01*
X0088121Y0217668D02*
X0088121Y0216900D01*
X0087354Y0216133D01*
X0085819Y0216133D01*
X0085052Y0216900D01*
X0083517Y0216133D02*
X0080448Y0216133D01*
X0080448Y0220737D01*
X0083517Y0220737D01*
X0085052Y0219970D02*
X0085052Y0219202D01*
X0085819Y0218435D01*
X0087354Y0218435D01*
X0088121Y0217668D01*
X0088121Y0219970D02*
X0087354Y0220737D01*
X0085819Y0220737D01*
X0085052Y0219970D01*
X0081982Y0218435D02*
X0080448Y0218435D01*
X0078913Y0218435D02*
X0078146Y0217668D01*
X0075844Y0217668D01*
X0077378Y0217668D02*
X0078913Y0216133D01*
X0078913Y0218435D02*
X0078913Y0219970D01*
X0078146Y0220737D01*
X0075844Y0220737D01*
X0075844Y0216133D01*
X0095794Y0216133D02*
X0095794Y0220737D01*
X0085725Y0234633D02*
X0083423Y0236935D01*
D14*
X0088644Y0233433D02*
X0088644Y0259433D01*
X0065144Y0259433D01*
X0065144Y0233433D01*
X0088644Y0233433D01*
X0098769Y0221933D02*
X0098769Y0203933D01*
X0074644Y0203933D01*
X0074644Y0221933D01*
X0098769Y0221933D01*
X0098769Y0203433D02*
X0098769Y0185433D01*
X0074644Y0185433D01*
X0074644Y0203433D01*
X0098769Y0203433D01*
X0063644Y0233433D02*
X0039144Y0233433D01*
X0039144Y0259433D01*
X0063644Y0259433D01*
X0063644Y0233433D01*
X0062644Y0227433D02*
X0036144Y0227433D01*
X0036144Y0190933D01*
X0062644Y0190933D01*
X0062644Y0227433D01*
X0061093Y0214831D02*
X0057746Y0214831D01*
X0061093Y0214831D02*
X0061093Y0197902D01*
X0053022Y0197902D02*
X0052234Y0197902D01*
X0044163Y0197902D02*
X0044163Y0214831D01*
X0047510Y0214831D01*
D15*
X0088258Y0180854D03*
D16*
X0087658Y0192693D02*
X0095658Y0192693D01*
X0096658Y0193693D01*
X0096658Y0201693D01*
X0095658Y0202693D01*
X0087658Y0202693D01*
X0086658Y0201693D01*
X0085658Y0202693D01*
X0077658Y0202693D01*
X0076658Y0201693D01*
X0076658Y0193693D01*
X0077658Y0192693D01*
X0085658Y0192693D01*
X0086658Y0193693D01*
X0087658Y0192693D01*
X0087644Y0204535D02*
X0095644Y0204535D01*
X0096644Y0205535D01*
X0096644Y0213535D01*
X0095644Y0214535D01*
X0087644Y0214535D01*
X0086644Y0213535D01*
X0085644Y0214535D01*
X0077644Y0214535D01*
X0076644Y0213535D01*
X0076644Y0205535D01*
X0077644Y0204535D01*
X0085644Y0204535D01*
X0086644Y0205535D01*
X0087644Y0204535D01*
X0136152Y0243925D02*
X0138652Y0241425D01*
X0143652Y0241425D01*
X0146152Y0243925D01*
X0148652Y0241425D01*
X0153652Y0241425D01*
X0156152Y0243925D01*
X0156152Y0248925D01*
X0153652Y0251425D01*
X0148652Y0251425D01*
X0146152Y0248925D01*
X0146152Y0243925D01*
X0146152Y0248925D02*
X0143652Y0251425D01*
X0138652Y0251425D01*
X0136152Y0248925D01*
X0136152Y0243925D01*
X0156152Y0243925D02*
X0158652Y0241425D01*
X0163652Y0241425D01*
X0166152Y0243925D01*
X0168652Y0241425D01*
X0173652Y0241425D01*
X0176152Y0243925D01*
X0176152Y0248925D01*
X0173652Y0251425D01*
X0168652Y0251425D01*
X0166152Y0248925D01*
X0166152Y0243925D01*
X0166152Y0248925D02*
X0163652Y0251425D01*
X0158652Y0251425D01*
X0156152Y0248925D01*
X0176152Y0248925D02*
X0178652Y0251425D01*
X0183652Y0251425D01*
X0186152Y0248925D01*
X0188652Y0251425D01*
X0193652Y0251425D01*
X0196152Y0248925D01*
X0198652Y0251425D01*
X0203652Y0251425D01*
X0206152Y0248925D01*
X0208652Y0251425D01*
X0213652Y0251425D01*
X0216152Y0248925D01*
X0216152Y0243925D01*
X0213652Y0241425D01*
X0208652Y0241425D01*
X0206152Y0243925D01*
X0203652Y0241425D01*
X0198652Y0241425D01*
X0196152Y0243925D01*
X0193652Y0241425D01*
X0188652Y0241425D01*
X0186152Y0243925D01*
X0183652Y0241425D01*
X0178652Y0241425D01*
X0176152Y0243925D01*
X0186152Y0243925D02*
X0186152Y0248925D01*
X0196152Y0248925D02*
X0196152Y0243925D01*
X0206152Y0243925D02*
X0206152Y0248925D01*
X0212644Y0242941D02*
X0216644Y0242941D01*
X0211644Y0242941D02*
X0211646Y0243050D01*
X0211652Y0243159D01*
X0211662Y0243267D01*
X0211676Y0243375D01*
X0211693Y0243483D01*
X0211715Y0243590D01*
X0211740Y0243696D01*
X0211770Y0243800D01*
X0211803Y0243904D01*
X0211840Y0244007D01*
X0211880Y0244108D01*
X0211924Y0244207D01*
X0211972Y0244305D01*
X0212024Y0244402D01*
X0212078Y0244496D01*
X0212136Y0244588D01*
X0212198Y0244678D01*
X0212263Y0244765D01*
X0212330Y0244851D01*
X0212401Y0244934D01*
X0212475Y0245014D01*
X0212552Y0245091D01*
X0212631Y0245166D01*
X0212713Y0245237D01*
X0212798Y0245306D01*
X0212885Y0245371D01*
X0212974Y0245434D01*
X0213066Y0245492D01*
X0213160Y0245548D01*
X0213255Y0245600D01*
X0213353Y0245649D01*
X0213452Y0245694D01*
X0213553Y0245736D01*
X0213655Y0245773D01*
X0213758Y0245807D01*
X0213863Y0245838D01*
X0213969Y0245864D01*
X0214075Y0245887D01*
X0214183Y0245905D01*
X0214291Y0245920D01*
X0214399Y0245931D01*
X0214508Y0245938D01*
X0214617Y0245941D01*
X0214726Y0245940D01*
X0214835Y0245935D01*
X0214943Y0245926D01*
X0215051Y0245913D01*
X0215159Y0245896D01*
X0215266Y0245876D01*
X0215372Y0245851D01*
X0215477Y0245823D01*
X0215581Y0245791D01*
X0215684Y0245755D01*
X0215786Y0245715D01*
X0215886Y0245672D01*
X0215984Y0245625D01*
X0216081Y0245575D01*
X0216175Y0245521D01*
X0216268Y0245463D01*
X0216359Y0245403D01*
X0216447Y0245339D01*
X0216533Y0245272D01*
X0216616Y0245202D01*
X0216697Y0245129D01*
X0216775Y0245053D01*
X0216850Y0244974D01*
X0216923Y0244892D01*
X0216992Y0244808D01*
X0217058Y0244722D01*
X0217121Y0244633D01*
X0217181Y0244542D01*
X0217238Y0244449D01*
X0217291Y0244354D01*
X0217340Y0244257D01*
X0217386Y0244158D01*
X0217428Y0244058D01*
X0217467Y0243956D01*
X0217502Y0243852D01*
X0217533Y0243748D01*
X0217561Y0243643D01*
X0217584Y0243536D01*
X0217604Y0243429D01*
X0217620Y0243321D01*
X0217632Y0243213D01*
X0217640Y0243104D01*
X0217644Y0242995D01*
X0217644Y0242887D01*
X0217640Y0242778D01*
X0217632Y0242669D01*
X0217620Y0242561D01*
X0217604Y0242453D01*
X0217584Y0242346D01*
X0217561Y0242239D01*
X0217533Y0242134D01*
X0217502Y0242030D01*
X0217467Y0241926D01*
X0217428Y0241824D01*
X0217386Y0241724D01*
X0217340Y0241625D01*
X0217291Y0241528D01*
X0217238Y0241433D01*
X0217181Y0241340D01*
X0217121Y0241249D01*
X0217058Y0241160D01*
X0216992Y0241074D01*
X0216923Y0240990D01*
X0216850Y0240908D01*
X0216775Y0240829D01*
X0216697Y0240753D01*
X0216616Y0240680D01*
X0216533Y0240610D01*
X0216447Y0240543D01*
X0216359Y0240479D01*
X0216268Y0240419D01*
X0216175Y0240361D01*
X0216081Y0240307D01*
X0215984Y0240257D01*
X0215886Y0240210D01*
X0215786Y0240167D01*
X0215684Y0240127D01*
X0215581Y0240091D01*
X0215477Y0240059D01*
X0215372Y0240031D01*
X0215266Y0240006D01*
X0215159Y0239986D01*
X0215051Y0239969D01*
X0214943Y0239956D01*
X0214835Y0239947D01*
X0214726Y0239942D01*
X0214617Y0239941D01*
X0214508Y0239944D01*
X0214399Y0239951D01*
X0214291Y0239962D01*
X0214183Y0239977D01*
X0214075Y0239995D01*
X0213969Y0240018D01*
X0213863Y0240044D01*
X0213758Y0240075D01*
X0213655Y0240109D01*
X0213553Y0240146D01*
X0213452Y0240188D01*
X0213353Y0240233D01*
X0213255Y0240282D01*
X0213160Y0240334D01*
X0213066Y0240390D01*
X0212974Y0240448D01*
X0212885Y0240511D01*
X0212798Y0240576D01*
X0212713Y0240645D01*
X0212631Y0240716D01*
X0212552Y0240791D01*
X0212475Y0240868D01*
X0212401Y0240948D01*
X0212330Y0241031D01*
X0212263Y0241117D01*
X0212198Y0241204D01*
X0212136Y0241294D01*
X0212078Y0241386D01*
X0212024Y0241480D01*
X0211972Y0241577D01*
X0211924Y0241675D01*
X0211880Y0241774D01*
X0211840Y0241875D01*
X0211803Y0241978D01*
X0211770Y0242082D01*
X0211740Y0242186D01*
X0211715Y0242292D01*
X0211693Y0242399D01*
X0211676Y0242507D01*
X0211662Y0242615D01*
X0211652Y0242723D01*
X0211646Y0242832D01*
X0211644Y0242941D01*
X0214644Y0244941D02*
X0214644Y0240941D01*
X0177644Y0232941D02*
X0177651Y0233530D01*
X0177673Y0234119D01*
X0177709Y0234707D01*
X0177760Y0235293D01*
X0177824Y0235879D01*
X0177904Y0236463D01*
X0177997Y0237044D01*
X0178105Y0237623D01*
X0178227Y0238199D01*
X0178363Y0238773D01*
X0178513Y0239342D01*
X0178677Y0239908D01*
X0178855Y0240469D01*
X0179047Y0241026D01*
X0179252Y0241578D01*
X0179471Y0242125D01*
X0179703Y0242667D01*
X0179948Y0243202D01*
X0180207Y0243732D01*
X0180478Y0244255D01*
X0180762Y0244771D01*
X0181059Y0245279D01*
X0181368Y0245781D01*
X0181689Y0246275D01*
X0182022Y0246760D01*
X0182367Y0247238D01*
X0182724Y0247707D01*
X0183092Y0248166D01*
X0183471Y0248617D01*
X0183861Y0249058D01*
X0184262Y0249490D01*
X0184673Y0249912D01*
X0185095Y0250323D01*
X0185527Y0250724D01*
X0185968Y0251114D01*
X0186419Y0251493D01*
X0186878Y0251861D01*
X0187347Y0252218D01*
X0187825Y0252563D01*
X0188310Y0252896D01*
X0188804Y0253217D01*
X0189306Y0253526D01*
X0189814Y0253823D01*
X0190330Y0254107D01*
X0190853Y0254378D01*
X0191383Y0254637D01*
X0191918Y0254882D01*
X0192460Y0255114D01*
X0193007Y0255333D01*
X0193559Y0255538D01*
X0194116Y0255730D01*
X0194677Y0255908D01*
X0195243Y0256072D01*
X0195812Y0256222D01*
X0196386Y0256358D01*
X0196962Y0256480D01*
X0197541Y0256588D01*
X0198122Y0256681D01*
X0198706Y0256761D01*
X0199292Y0256825D01*
X0199878Y0256876D01*
X0200466Y0256912D01*
X0201055Y0256934D01*
X0201644Y0256941D01*
X0202233Y0256934D01*
X0202822Y0256912D01*
X0203410Y0256876D01*
X0203996Y0256825D01*
X0204582Y0256761D01*
X0205166Y0256681D01*
X0205747Y0256588D01*
X0206326Y0256480D01*
X0206902Y0256358D01*
X0207476Y0256222D01*
X0208045Y0256072D01*
X0208611Y0255908D01*
X0209172Y0255730D01*
X0209729Y0255538D01*
X0210281Y0255333D01*
X0210828Y0255114D01*
X0211370Y0254882D01*
X0211905Y0254637D01*
X0212435Y0254378D01*
X0212958Y0254107D01*
X0213474Y0253823D01*
X0213982Y0253526D01*
X0214484Y0253217D01*
X0214978Y0252896D01*
X0215463Y0252563D01*
X0215941Y0252218D01*
X0216410Y0251861D01*
X0216869Y0251493D01*
X0217320Y0251114D01*
X0217761Y0250724D01*
X0218193Y0250323D01*
X0218615Y0249912D01*
X0219026Y0249490D01*
X0219427Y0249058D01*
X0219817Y0248617D01*
X0220196Y0248166D01*
X0220564Y0247707D01*
X0220921Y0247238D01*
X0221266Y0246760D01*
X0221599Y0246275D01*
X0221920Y0245781D01*
X0222229Y0245279D01*
X0222526Y0244771D01*
X0222810Y0244255D01*
X0223081Y0243732D01*
X0223340Y0243202D01*
X0223585Y0242667D01*
X0223817Y0242125D01*
X0224036Y0241578D01*
X0224241Y0241026D01*
X0224433Y0240469D01*
X0224611Y0239908D01*
X0224775Y0239342D01*
X0224925Y0238773D01*
X0225061Y0238199D01*
X0225183Y0237623D01*
X0225291Y0237044D01*
X0225384Y0236463D01*
X0225464Y0235879D01*
X0225528Y0235293D01*
X0225579Y0234707D01*
X0225615Y0234119D01*
X0225637Y0233530D01*
X0225644Y0232941D01*
X0225637Y0232352D01*
X0225615Y0231763D01*
X0225579Y0231175D01*
X0225528Y0230589D01*
X0225464Y0230003D01*
X0225384Y0229419D01*
X0225291Y0228838D01*
X0225183Y0228259D01*
X0225061Y0227683D01*
X0224925Y0227109D01*
X0224775Y0226540D01*
X0224611Y0225974D01*
X0224433Y0225413D01*
X0224241Y0224856D01*
X0224036Y0224304D01*
X0223817Y0223757D01*
X0223585Y0223215D01*
X0223340Y0222680D01*
X0223081Y0222150D01*
X0222810Y0221627D01*
X0222526Y0221111D01*
X0222229Y0220603D01*
X0221920Y0220101D01*
X0221599Y0219607D01*
X0221266Y0219122D01*
X0220921Y0218644D01*
X0220564Y0218175D01*
X0220196Y0217716D01*
X0219817Y0217265D01*
X0219427Y0216824D01*
X0219026Y0216392D01*
X0218615Y0215970D01*
X0218193Y0215559D01*
X0217761Y0215158D01*
X0217320Y0214768D01*
X0216869Y0214389D01*
X0216410Y0214021D01*
X0215941Y0213664D01*
X0215463Y0213319D01*
X0214978Y0212986D01*
X0214484Y0212665D01*
X0213982Y0212356D01*
X0213474Y0212059D01*
X0212958Y0211775D01*
X0212435Y0211504D01*
X0211905Y0211245D01*
X0211370Y0211000D01*
X0210828Y0210768D01*
X0210281Y0210549D01*
X0209729Y0210344D01*
X0209172Y0210152D01*
X0208611Y0209974D01*
X0208045Y0209810D01*
X0207476Y0209660D01*
X0206902Y0209524D01*
X0206326Y0209402D01*
X0205747Y0209294D01*
X0205166Y0209201D01*
X0204582Y0209121D01*
X0203996Y0209057D01*
X0203410Y0209006D01*
X0202822Y0208970D01*
X0202233Y0208948D01*
X0201644Y0208941D01*
X0201055Y0208948D01*
X0200466Y0208970D01*
X0199878Y0209006D01*
X0199292Y0209057D01*
X0198706Y0209121D01*
X0198122Y0209201D01*
X0197541Y0209294D01*
X0196962Y0209402D01*
X0196386Y0209524D01*
X0195812Y0209660D01*
X0195243Y0209810D01*
X0194677Y0209974D01*
X0194116Y0210152D01*
X0193559Y0210344D01*
X0193007Y0210549D01*
X0192460Y0210768D01*
X0191918Y0211000D01*
X0191383Y0211245D01*
X0190853Y0211504D01*
X0190330Y0211775D01*
X0189814Y0212059D01*
X0189306Y0212356D01*
X0188804Y0212665D01*
X0188310Y0212986D01*
X0187825Y0213319D01*
X0187347Y0213664D01*
X0186878Y0214021D01*
X0186419Y0214389D01*
X0185968Y0214768D01*
X0185527Y0215158D01*
X0185095Y0215559D01*
X0184673Y0215970D01*
X0184262Y0216392D01*
X0183861Y0216824D01*
X0183471Y0217265D01*
X0183092Y0217716D01*
X0182724Y0218175D01*
X0182367Y0218644D01*
X0182022Y0219122D01*
X0181689Y0219607D01*
X0181368Y0220101D01*
X0181059Y0220603D01*
X0180762Y0221111D01*
X0180478Y0221627D01*
X0180207Y0222150D01*
X0179948Y0222680D01*
X0179703Y0223215D01*
X0179471Y0223757D01*
X0179252Y0224304D01*
X0179047Y0224856D01*
X0178855Y0225413D01*
X0178677Y0225974D01*
X0178513Y0226540D01*
X0178363Y0227109D01*
X0178227Y0227683D01*
X0178105Y0228259D01*
X0177997Y0228838D01*
X0177904Y0229419D01*
X0177824Y0230003D01*
X0177760Y0230589D01*
X0177709Y0231175D01*
X0177673Y0231763D01*
X0177651Y0232352D01*
X0177644Y0232941D01*
X0196644Y0232941D02*
X0196646Y0233082D01*
X0196652Y0233223D01*
X0196662Y0233363D01*
X0196676Y0233503D01*
X0196694Y0233643D01*
X0196715Y0233782D01*
X0196741Y0233921D01*
X0196770Y0234059D01*
X0196804Y0234195D01*
X0196841Y0234331D01*
X0196882Y0234466D01*
X0196927Y0234600D01*
X0196976Y0234732D01*
X0197028Y0234863D01*
X0197084Y0234992D01*
X0197144Y0235119D01*
X0197207Y0235245D01*
X0197273Y0235369D01*
X0197344Y0235492D01*
X0197417Y0235612D01*
X0197494Y0235730D01*
X0197574Y0235846D01*
X0197658Y0235959D01*
X0197744Y0236070D01*
X0197834Y0236179D01*
X0197927Y0236285D01*
X0198022Y0236388D01*
X0198121Y0236489D01*
X0198222Y0236587D01*
X0198326Y0236682D01*
X0198433Y0236774D01*
X0198542Y0236863D01*
X0198654Y0236948D01*
X0198768Y0237031D01*
X0198884Y0237111D01*
X0199003Y0237187D01*
X0199124Y0237259D01*
X0199246Y0237329D01*
X0199371Y0237394D01*
X0199497Y0237457D01*
X0199625Y0237515D01*
X0199755Y0237570D01*
X0199886Y0237622D01*
X0200019Y0237669D01*
X0200153Y0237713D01*
X0200288Y0237754D01*
X0200424Y0237790D01*
X0200561Y0237822D01*
X0200699Y0237851D01*
X0200837Y0237876D01*
X0200977Y0237896D01*
X0201117Y0237913D01*
X0201257Y0237926D01*
X0201398Y0237935D01*
X0201538Y0237940D01*
X0201679Y0237941D01*
X0201820Y0237938D01*
X0201961Y0237931D01*
X0202101Y0237920D01*
X0202241Y0237905D01*
X0202381Y0237886D01*
X0202520Y0237864D01*
X0202658Y0237837D01*
X0202796Y0237807D01*
X0202932Y0237772D01*
X0203068Y0237734D01*
X0203202Y0237692D01*
X0203336Y0237646D01*
X0203468Y0237597D01*
X0203598Y0237543D01*
X0203727Y0237486D01*
X0203854Y0237426D01*
X0203980Y0237362D01*
X0204103Y0237294D01*
X0204225Y0237223D01*
X0204345Y0237149D01*
X0204462Y0237071D01*
X0204577Y0236990D01*
X0204690Y0236906D01*
X0204801Y0236819D01*
X0204909Y0236728D01*
X0205014Y0236635D01*
X0205117Y0236538D01*
X0205217Y0236439D01*
X0205314Y0236337D01*
X0205408Y0236232D01*
X0205499Y0236125D01*
X0205587Y0236015D01*
X0205672Y0235903D01*
X0205754Y0235788D01*
X0205833Y0235671D01*
X0205908Y0235552D01*
X0205980Y0235431D01*
X0206048Y0235308D01*
X0206113Y0235183D01*
X0206175Y0235056D01*
X0206232Y0234927D01*
X0206287Y0234797D01*
X0206337Y0234666D01*
X0206384Y0234533D01*
X0206427Y0234399D01*
X0206466Y0234263D01*
X0206501Y0234127D01*
X0206533Y0233990D01*
X0206560Y0233852D01*
X0206584Y0233713D01*
X0206604Y0233573D01*
X0206620Y0233433D01*
X0206632Y0233293D01*
X0206640Y0233152D01*
X0206644Y0233011D01*
X0206644Y0232871D01*
X0206640Y0232730D01*
X0206632Y0232589D01*
X0206620Y0232449D01*
X0206604Y0232309D01*
X0206584Y0232169D01*
X0206560Y0232030D01*
X0206533Y0231892D01*
X0206501Y0231755D01*
X0206466Y0231619D01*
X0206427Y0231483D01*
X0206384Y0231349D01*
X0206337Y0231216D01*
X0206287Y0231085D01*
X0206232Y0230955D01*
X0206175Y0230826D01*
X0206113Y0230699D01*
X0206048Y0230574D01*
X0205980Y0230451D01*
X0205908Y0230330D01*
X0205833Y0230211D01*
X0205754Y0230094D01*
X0205672Y0229979D01*
X0205587Y0229867D01*
X0205499Y0229757D01*
X0205408Y0229650D01*
X0205314Y0229545D01*
X0205217Y0229443D01*
X0205117Y0229344D01*
X0205014Y0229247D01*
X0204909Y0229154D01*
X0204801Y0229063D01*
X0204690Y0228976D01*
X0204577Y0228892D01*
X0204462Y0228811D01*
X0204345Y0228733D01*
X0204225Y0228659D01*
X0204103Y0228588D01*
X0203980Y0228520D01*
X0203854Y0228456D01*
X0203727Y0228396D01*
X0203598Y0228339D01*
X0203468Y0228285D01*
X0203336Y0228236D01*
X0203202Y0228190D01*
X0203068Y0228148D01*
X0202932Y0228110D01*
X0202796Y0228075D01*
X0202658Y0228045D01*
X0202520Y0228018D01*
X0202381Y0227996D01*
X0202241Y0227977D01*
X0202101Y0227962D01*
X0201961Y0227951D01*
X0201820Y0227944D01*
X0201679Y0227941D01*
X0201538Y0227942D01*
X0201398Y0227947D01*
X0201257Y0227956D01*
X0201117Y0227969D01*
X0200977Y0227986D01*
X0200837Y0228006D01*
X0200699Y0228031D01*
X0200561Y0228060D01*
X0200424Y0228092D01*
X0200288Y0228128D01*
X0200153Y0228169D01*
X0200019Y0228213D01*
X0199886Y0228260D01*
X0199755Y0228312D01*
X0199625Y0228367D01*
X0199497Y0228425D01*
X0199371Y0228488D01*
X0199246Y0228553D01*
X0199124Y0228623D01*
X0199003Y0228695D01*
X0198884Y0228771D01*
X0198768Y0228851D01*
X0198654Y0228934D01*
X0198542Y0229019D01*
X0198433Y0229108D01*
X0198326Y0229200D01*
X0198222Y0229295D01*
X0198121Y0229393D01*
X0198022Y0229494D01*
X0197927Y0229597D01*
X0197834Y0229703D01*
X0197744Y0229812D01*
X0197658Y0229923D01*
X0197574Y0230036D01*
X0197494Y0230152D01*
X0197417Y0230270D01*
X0197344Y0230390D01*
X0197273Y0230513D01*
X0197207Y0230637D01*
X0197144Y0230763D01*
X0197084Y0230890D01*
X0197028Y0231019D01*
X0196976Y0231150D01*
X0196927Y0231282D01*
X0196882Y0231416D01*
X0196841Y0231551D01*
X0196804Y0231687D01*
X0196770Y0231823D01*
X0196741Y0231961D01*
X0196715Y0232100D01*
X0196694Y0232239D01*
X0196676Y0232379D01*
X0196662Y0232519D01*
X0196652Y0232659D01*
X0196646Y0232800D01*
X0196644Y0232941D01*
X0115344Y0133433D02*
X0102944Y0133433D01*
X0102868Y0133431D01*
X0102792Y0133425D01*
X0102717Y0133416D01*
X0102642Y0133402D01*
X0102568Y0133385D01*
X0102495Y0133364D01*
X0102423Y0133340D01*
X0102352Y0133311D01*
X0102283Y0133280D01*
X0102216Y0133245D01*
X0102151Y0133206D01*
X0102087Y0133164D01*
X0102026Y0133119D01*
X0101967Y0133071D01*
X0101911Y0133020D01*
X0101857Y0132966D01*
X0101806Y0132910D01*
X0101758Y0132851D01*
X0101713Y0132790D01*
X0101671Y0132726D01*
X0101632Y0132661D01*
X0101597Y0132594D01*
X0101566Y0132525D01*
X0101537Y0132454D01*
X0101513Y0132382D01*
X0101492Y0132309D01*
X0101475Y0132235D01*
X0101461Y0132160D01*
X0101452Y0132085D01*
X0101446Y0132009D01*
X0101444Y0131933D01*
X0101444Y0094933D01*
X0101446Y0094857D01*
X0101452Y0094781D01*
X0101461Y0094706D01*
X0101475Y0094631D01*
X0101492Y0094557D01*
X0101513Y0094484D01*
X0101537Y0094412D01*
X0101566Y0094341D01*
X0101597Y0094272D01*
X0101632Y0094205D01*
X0101671Y0094140D01*
X0101713Y0094076D01*
X0101758Y0094015D01*
X0101806Y0093956D01*
X0101857Y0093900D01*
X0101911Y0093846D01*
X0101967Y0093795D01*
X0102026Y0093747D01*
X0102087Y0093702D01*
X0102151Y0093660D01*
X0102216Y0093621D01*
X0102283Y0093586D01*
X0102352Y0093555D01*
X0102423Y0093526D01*
X0102495Y0093502D01*
X0102568Y0093481D01*
X0102642Y0093464D01*
X0102717Y0093450D01*
X0102792Y0093441D01*
X0102868Y0093435D01*
X0102944Y0093433D01*
X0107144Y0093433D01*
X0111144Y0093433D01*
X0115344Y0093433D01*
X0115420Y0093435D01*
X0115496Y0093441D01*
X0115571Y0093450D01*
X0115646Y0093464D01*
X0115720Y0093481D01*
X0115793Y0093502D01*
X0115865Y0093526D01*
X0115936Y0093555D01*
X0116005Y0093586D01*
X0116072Y0093621D01*
X0116137Y0093660D01*
X0116201Y0093702D01*
X0116262Y0093747D01*
X0116321Y0093795D01*
X0116377Y0093846D01*
X0116431Y0093900D01*
X0116482Y0093956D01*
X0116530Y0094015D01*
X0116575Y0094076D01*
X0116617Y0094140D01*
X0116656Y0094205D01*
X0116691Y0094272D01*
X0116722Y0094341D01*
X0116751Y0094412D01*
X0116775Y0094484D01*
X0116796Y0094557D01*
X0116813Y0094631D01*
X0116827Y0094706D01*
X0116836Y0094781D01*
X0116842Y0094857D01*
X0116844Y0094933D01*
X0116844Y0131933D01*
X0116842Y0132009D01*
X0116836Y0132085D01*
X0116827Y0132160D01*
X0116813Y0132235D01*
X0116796Y0132309D01*
X0116775Y0132382D01*
X0116751Y0132454D01*
X0116722Y0132525D01*
X0116691Y0132594D01*
X0116656Y0132661D01*
X0116617Y0132726D01*
X0116575Y0132790D01*
X0116530Y0132851D01*
X0116482Y0132910D01*
X0116431Y0132966D01*
X0116377Y0133020D01*
X0116321Y0133071D01*
X0116262Y0133119D01*
X0116201Y0133164D01*
X0116137Y0133206D01*
X0116072Y0133245D01*
X0116005Y0133280D01*
X0115936Y0133311D01*
X0115865Y0133340D01*
X0115793Y0133364D01*
X0115720Y0133385D01*
X0115646Y0133402D01*
X0115571Y0133416D01*
X0115496Y0133425D01*
X0115420Y0133431D01*
X0115344Y0133433D01*
X0089269Y0135233D02*
X0084998Y0135233D01*
X0087133Y0135233D02*
X0087133Y0141639D01*
X0084998Y0139503D01*
X0082823Y0141639D02*
X0080688Y0141639D01*
X0081756Y0141639D02*
X0081756Y0136301D01*
X0080688Y0135233D01*
X0079620Y0135233D01*
X0078553Y0136301D01*
X0107144Y0093433D02*
X0107146Y0093521D01*
X0107152Y0093610D01*
X0107162Y0093698D01*
X0107175Y0093785D01*
X0107193Y0093872D01*
X0107214Y0093958D01*
X0107239Y0094043D01*
X0107268Y0094126D01*
X0107301Y0094209D01*
X0107337Y0094289D01*
X0107376Y0094368D01*
X0107419Y0094446D01*
X0107466Y0094521D01*
X0107516Y0094594D01*
X0107569Y0094665D01*
X0107625Y0094734D01*
X0107684Y0094800D01*
X0107746Y0094863D01*
X0107810Y0094923D01*
X0107877Y0094981D01*
X0107947Y0095035D01*
X0108019Y0095087D01*
X0108093Y0095135D01*
X0108170Y0095180D01*
X0108248Y0095221D01*
X0108328Y0095259D01*
X0108409Y0095293D01*
X0108492Y0095324D01*
X0108577Y0095351D01*
X0108662Y0095374D01*
X0108748Y0095393D01*
X0108836Y0095409D01*
X0108923Y0095421D01*
X0109011Y0095429D01*
X0109100Y0095433D01*
X0109188Y0095433D01*
X0109277Y0095429D01*
X0109365Y0095421D01*
X0109452Y0095409D01*
X0109540Y0095393D01*
X0109626Y0095374D01*
X0109711Y0095351D01*
X0109796Y0095324D01*
X0109879Y0095293D01*
X0109960Y0095259D01*
X0110040Y0095221D01*
X0110118Y0095180D01*
X0110195Y0095135D01*
X0110269Y0095087D01*
X0110341Y0095035D01*
X0110411Y0094981D01*
X0110478Y0094923D01*
X0110542Y0094863D01*
X0110604Y0094800D01*
X0110663Y0094734D01*
X0110719Y0094665D01*
X0110772Y0094594D01*
X0110822Y0094521D01*
X0110869Y0094446D01*
X0110912Y0094368D01*
X0110951Y0094289D01*
X0110987Y0094209D01*
X0111020Y0094126D01*
X0111049Y0094043D01*
X0111074Y0093958D01*
X0111095Y0093872D01*
X0111113Y0093785D01*
X0111126Y0093698D01*
X0111136Y0093610D01*
X0111142Y0093521D01*
X0111144Y0093433D01*
D17*
X0115444Y0093433D02*
X0115444Y0133433D01*
D18*
X0114042Y0134683D02*
X0114042Y0139187D01*
X0111790Y0136935D01*
X0114792Y0136935D01*
X0110188Y0138436D02*
X0109438Y0139187D01*
X0107937Y0139187D01*
X0107186Y0138436D01*
X0107186Y0135434D01*
X0107937Y0134683D01*
X0109438Y0134683D01*
X0110188Y0135434D01*
X0105618Y0134683D02*
X0104117Y0134683D01*
X0104867Y0134683D02*
X0104867Y0139187D01*
X0104117Y0139187D02*
X0105618Y0139187D01*
X0129824Y0243363D02*
X0131325Y0244865D01*
X0129824Y0246366D01*
X0134328Y0246366D01*
X0134328Y0247967D02*
X0134328Y0250970D01*
X0134328Y0249469D02*
X0129824Y0249469D01*
X0131325Y0247967D01*
X0129824Y0243363D02*
X0134328Y0243363D01*
X0217394Y0253942D02*
X0218144Y0253191D01*
X0219646Y0253191D01*
X0220396Y0253942D01*
X0220396Y0254692D01*
X0219646Y0255443D01*
X0218144Y0255443D01*
X0217394Y0256194D01*
X0217394Y0256944D01*
X0218144Y0257695D01*
X0219646Y0257695D01*
X0220396Y0256944D01*
X0221998Y0257695D02*
X0221998Y0253191D01*
X0221998Y0254692D02*
X0224250Y0254692D01*
X0225000Y0255443D01*
X0225000Y0256944D01*
X0224250Y0257695D01*
X0221998Y0257695D01*
X0226602Y0256194D02*
X0228103Y0257695D01*
X0228103Y0253191D01*
X0226602Y0253191D02*
X0229604Y0253191D01*
D19*
X0034569Y0133528D02*
X0034569Y0060295D01*
X0088719Y0060295D01*
X0088719Y0133528D01*
X0034569Y0133528D01*
D20*
X0030894Y0069240D02*
X0092394Y0069240D01*
D21*
X0090827Y0071589D03*
X0032461Y0071589D03*
M02*
