G75*
%MOIN*%
%OFA0B0*%
%FSLAX25Y25*%
%IPPOS*%
%LPD*%
%AMOC8*
5,1,8,0,0,1.08239X$1,22.5*
%
%ADD10C,0.00000*%
%ADD11R,0.05118X0.05906*%
%ADD12R,0.03150X0.02362*%
%ADD13R,0.08661X0.02362*%
%ADD14R,0.08000X0.02600*%
%ADD15C,0.00039*%
%ADD16C,0.05543*%
%ADD17C,0.05600*%
%ADD18C,0.06000*%
%ADD19R,0.03150X0.02953*%
%ADD20R,0.06299X0.05118*%
%ADD21R,0.05118X0.05118*%
%ADD22R,0.07874X0.05118*%
%ADD23OC8,0.08500*%
%ADD24R,0.09843X0.07874*%
%ADD25R,0.12992X0.07874*%
%ADD26R,0.12205X0.01969*%
%ADD27R,0.06299X0.07087*%
%ADD28C,0.02775*%
%ADD29C,0.01200*%
%ADD30C,0.02400*%
%ADD31C,0.01000*%
%ADD32C,0.01600*%
D10*
X0031644Y0065933D02*
X0031644Y0260894D01*
X0225345Y0260894D01*
X0225345Y0065933D01*
X0031644Y0065933D01*
X0035244Y0090933D02*
X0035246Y0091093D01*
X0035252Y0091252D01*
X0035262Y0091411D01*
X0035276Y0091570D01*
X0035294Y0091729D01*
X0035315Y0091887D01*
X0035341Y0092044D01*
X0035371Y0092201D01*
X0035404Y0092357D01*
X0035442Y0092512D01*
X0035483Y0092666D01*
X0035528Y0092819D01*
X0035577Y0092971D01*
X0035630Y0093122D01*
X0035686Y0093271D01*
X0035747Y0093419D01*
X0035810Y0093565D01*
X0035878Y0093710D01*
X0035949Y0093853D01*
X0036023Y0093994D01*
X0036101Y0094133D01*
X0036183Y0094270D01*
X0036268Y0094405D01*
X0036356Y0094538D01*
X0036448Y0094669D01*
X0036542Y0094797D01*
X0036640Y0094923D01*
X0036741Y0095047D01*
X0036845Y0095168D01*
X0036952Y0095286D01*
X0037062Y0095402D01*
X0037175Y0095515D01*
X0037291Y0095625D01*
X0037409Y0095732D01*
X0037530Y0095836D01*
X0037654Y0095937D01*
X0037780Y0096035D01*
X0037908Y0096129D01*
X0038039Y0096221D01*
X0038172Y0096309D01*
X0038307Y0096394D01*
X0038444Y0096476D01*
X0038583Y0096554D01*
X0038724Y0096628D01*
X0038867Y0096699D01*
X0039012Y0096767D01*
X0039158Y0096830D01*
X0039306Y0096891D01*
X0039455Y0096947D01*
X0039606Y0097000D01*
X0039758Y0097049D01*
X0039911Y0097094D01*
X0040065Y0097135D01*
X0040220Y0097173D01*
X0040376Y0097206D01*
X0040533Y0097236D01*
X0040690Y0097262D01*
X0040848Y0097283D01*
X0041007Y0097301D01*
X0041166Y0097315D01*
X0041325Y0097325D01*
X0041484Y0097331D01*
X0041644Y0097333D01*
X0041804Y0097331D01*
X0041963Y0097325D01*
X0042122Y0097315D01*
X0042281Y0097301D01*
X0042440Y0097283D01*
X0042598Y0097262D01*
X0042755Y0097236D01*
X0042912Y0097206D01*
X0043068Y0097173D01*
X0043223Y0097135D01*
X0043377Y0097094D01*
X0043530Y0097049D01*
X0043682Y0097000D01*
X0043833Y0096947D01*
X0043982Y0096891D01*
X0044130Y0096830D01*
X0044276Y0096767D01*
X0044421Y0096699D01*
X0044564Y0096628D01*
X0044705Y0096554D01*
X0044844Y0096476D01*
X0044981Y0096394D01*
X0045116Y0096309D01*
X0045249Y0096221D01*
X0045380Y0096129D01*
X0045508Y0096035D01*
X0045634Y0095937D01*
X0045758Y0095836D01*
X0045879Y0095732D01*
X0045997Y0095625D01*
X0046113Y0095515D01*
X0046226Y0095402D01*
X0046336Y0095286D01*
X0046443Y0095168D01*
X0046547Y0095047D01*
X0046648Y0094923D01*
X0046746Y0094797D01*
X0046840Y0094669D01*
X0046932Y0094538D01*
X0047020Y0094405D01*
X0047105Y0094270D01*
X0047187Y0094133D01*
X0047265Y0093994D01*
X0047339Y0093853D01*
X0047410Y0093710D01*
X0047478Y0093565D01*
X0047541Y0093419D01*
X0047602Y0093271D01*
X0047658Y0093122D01*
X0047711Y0092971D01*
X0047760Y0092819D01*
X0047805Y0092666D01*
X0047846Y0092512D01*
X0047884Y0092357D01*
X0047917Y0092201D01*
X0047947Y0092044D01*
X0047973Y0091887D01*
X0047994Y0091729D01*
X0048012Y0091570D01*
X0048026Y0091411D01*
X0048036Y0091252D01*
X0048042Y0091093D01*
X0048044Y0090933D01*
X0048042Y0090773D01*
X0048036Y0090614D01*
X0048026Y0090455D01*
X0048012Y0090296D01*
X0047994Y0090137D01*
X0047973Y0089979D01*
X0047947Y0089822D01*
X0047917Y0089665D01*
X0047884Y0089509D01*
X0047846Y0089354D01*
X0047805Y0089200D01*
X0047760Y0089047D01*
X0047711Y0088895D01*
X0047658Y0088744D01*
X0047602Y0088595D01*
X0047541Y0088447D01*
X0047478Y0088301D01*
X0047410Y0088156D01*
X0047339Y0088013D01*
X0047265Y0087872D01*
X0047187Y0087733D01*
X0047105Y0087596D01*
X0047020Y0087461D01*
X0046932Y0087328D01*
X0046840Y0087197D01*
X0046746Y0087069D01*
X0046648Y0086943D01*
X0046547Y0086819D01*
X0046443Y0086698D01*
X0046336Y0086580D01*
X0046226Y0086464D01*
X0046113Y0086351D01*
X0045997Y0086241D01*
X0045879Y0086134D01*
X0045758Y0086030D01*
X0045634Y0085929D01*
X0045508Y0085831D01*
X0045380Y0085737D01*
X0045249Y0085645D01*
X0045116Y0085557D01*
X0044981Y0085472D01*
X0044844Y0085390D01*
X0044705Y0085312D01*
X0044564Y0085238D01*
X0044421Y0085167D01*
X0044276Y0085099D01*
X0044130Y0085036D01*
X0043982Y0084975D01*
X0043833Y0084919D01*
X0043682Y0084866D01*
X0043530Y0084817D01*
X0043377Y0084772D01*
X0043223Y0084731D01*
X0043068Y0084693D01*
X0042912Y0084660D01*
X0042755Y0084630D01*
X0042598Y0084604D01*
X0042440Y0084583D01*
X0042281Y0084565D01*
X0042122Y0084551D01*
X0041963Y0084541D01*
X0041804Y0084535D01*
X0041644Y0084533D01*
X0041484Y0084535D01*
X0041325Y0084541D01*
X0041166Y0084551D01*
X0041007Y0084565D01*
X0040848Y0084583D01*
X0040690Y0084604D01*
X0040533Y0084630D01*
X0040376Y0084660D01*
X0040220Y0084693D01*
X0040065Y0084731D01*
X0039911Y0084772D01*
X0039758Y0084817D01*
X0039606Y0084866D01*
X0039455Y0084919D01*
X0039306Y0084975D01*
X0039158Y0085036D01*
X0039012Y0085099D01*
X0038867Y0085167D01*
X0038724Y0085238D01*
X0038583Y0085312D01*
X0038444Y0085390D01*
X0038307Y0085472D01*
X0038172Y0085557D01*
X0038039Y0085645D01*
X0037908Y0085737D01*
X0037780Y0085831D01*
X0037654Y0085929D01*
X0037530Y0086030D01*
X0037409Y0086134D01*
X0037291Y0086241D01*
X0037175Y0086351D01*
X0037062Y0086464D01*
X0036952Y0086580D01*
X0036845Y0086698D01*
X0036741Y0086819D01*
X0036640Y0086943D01*
X0036542Y0087069D01*
X0036448Y0087197D01*
X0036356Y0087328D01*
X0036268Y0087461D01*
X0036183Y0087596D01*
X0036101Y0087733D01*
X0036023Y0087872D01*
X0035949Y0088013D01*
X0035878Y0088156D01*
X0035810Y0088301D01*
X0035747Y0088447D01*
X0035686Y0088595D01*
X0035630Y0088744D01*
X0035577Y0088895D01*
X0035528Y0089047D01*
X0035483Y0089200D01*
X0035442Y0089354D01*
X0035404Y0089509D01*
X0035371Y0089665D01*
X0035341Y0089822D01*
X0035315Y0089979D01*
X0035294Y0090137D01*
X0035276Y0090296D01*
X0035262Y0090455D01*
X0035252Y0090614D01*
X0035246Y0090773D01*
X0035244Y0090933D01*
X0075244Y0090933D02*
X0075246Y0091093D01*
X0075252Y0091252D01*
X0075262Y0091411D01*
X0075276Y0091570D01*
X0075294Y0091729D01*
X0075315Y0091887D01*
X0075341Y0092044D01*
X0075371Y0092201D01*
X0075404Y0092357D01*
X0075442Y0092512D01*
X0075483Y0092666D01*
X0075528Y0092819D01*
X0075577Y0092971D01*
X0075630Y0093122D01*
X0075686Y0093271D01*
X0075747Y0093419D01*
X0075810Y0093565D01*
X0075878Y0093710D01*
X0075949Y0093853D01*
X0076023Y0093994D01*
X0076101Y0094133D01*
X0076183Y0094270D01*
X0076268Y0094405D01*
X0076356Y0094538D01*
X0076448Y0094669D01*
X0076542Y0094797D01*
X0076640Y0094923D01*
X0076741Y0095047D01*
X0076845Y0095168D01*
X0076952Y0095286D01*
X0077062Y0095402D01*
X0077175Y0095515D01*
X0077291Y0095625D01*
X0077409Y0095732D01*
X0077530Y0095836D01*
X0077654Y0095937D01*
X0077780Y0096035D01*
X0077908Y0096129D01*
X0078039Y0096221D01*
X0078172Y0096309D01*
X0078307Y0096394D01*
X0078444Y0096476D01*
X0078583Y0096554D01*
X0078724Y0096628D01*
X0078867Y0096699D01*
X0079012Y0096767D01*
X0079158Y0096830D01*
X0079306Y0096891D01*
X0079455Y0096947D01*
X0079606Y0097000D01*
X0079758Y0097049D01*
X0079911Y0097094D01*
X0080065Y0097135D01*
X0080220Y0097173D01*
X0080376Y0097206D01*
X0080533Y0097236D01*
X0080690Y0097262D01*
X0080848Y0097283D01*
X0081007Y0097301D01*
X0081166Y0097315D01*
X0081325Y0097325D01*
X0081484Y0097331D01*
X0081644Y0097333D01*
X0081804Y0097331D01*
X0081963Y0097325D01*
X0082122Y0097315D01*
X0082281Y0097301D01*
X0082440Y0097283D01*
X0082598Y0097262D01*
X0082755Y0097236D01*
X0082912Y0097206D01*
X0083068Y0097173D01*
X0083223Y0097135D01*
X0083377Y0097094D01*
X0083530Y0097049D01*
X0083682Y0097000D01*
X0083833Y0096947D01*
X0083982Y0096891D01*
X0084130Y0096830D01*
X0084276Y0096767D01*
X0084421Y0096699D01*
X0084564Y0096628D01*
X0084705Y0096554D01*
X0084844Y0096476D01*
X0084981Y0096394D01*
X0085116Y0096309D01*
X0085249Y0096221D01*
X0085380Y0096129D01*
X0085508Y0096035D01*
X0085634Y0095937D01*
X0085758Y0095836D01*
X0085879Y0095732D01*
X0085997Y0095625D01*
X0086113Y0095515D01*
X0086226Y0095402D01*
X0086336Y0095286D01*
X0086443Y0095168D01*
X0086547Y0095047D01*
X0086648Y0094923D01*
X0086746Y0094797D01*
X0086840Y0094669D01*
X0086932Y0094538D01*
X0087020Y0094405D01*
X0087105Y0094270D01*
X0087187Y0094133D01*
X0087265Y0093994D01*
X0087339Y0093853D01*
X0087410Y0093710D01*
X0087478Y0093565D01*
X0087541Y0093419D01*
X0087602Y0093271D01*
X0087658Y0093122D01*
X0087711Y0092971D01*
X0087760Y0092819D01*
X0087805Y0092666D01*
X0087846Y0092512D01*
X0087884Y0092357D01*
X0087917Y0092201D01*
X0087947Y0092044D01*
X0087973Y0091887D01*
X0087994Y0091729D01*
X0088012Y0091570D01*
X0088026Y0091411D01*
X0088036Y0091252D01*
X0088042Y0091093D01*
X0088044Y0090933D01*
X0088042Y0090773D01*
X0088036Y0090614D01*
X0088026Y0090455D01*
X0088012Y0090296D01*
X0087994Y0090137D01*
X0087973Y0089979D01*
X0087947Y0089822D01*
X0087917Y0089665D01*
X0087884Y0089509D01*
X0087846Y0089354D01*
X0087805Y0089200D01*
X0087760Y0089047D01*
X0087711Y0088895D01*
X0087658Y0088744D01*
X0087602Y0088595D01*
X0087541Y0088447D01*
X0087478Y0088301D01*
X0087410Y0088156D01*
X0087339Y0088013D01*
X0087265Y0087872D01*
X0087187Y0087733D01*
X0087105Y0087596D01*
X0087020Y0087461D01*
X0086932Y0087328D01*
X0086840Y0087197D01*
X0086746Y0087069D01*
X0086648Y0086943D01*
X0086547Y0086819D01*
X0086443Y0086698D01*
X0086336Y0086580D01*
X0086226Y0086464D01*
X0086113Y0086351D01*
X0085997Y0086241D01*
X0085879Y0086134D01*
X0085758Y0086030D01*
X0085634Y0085929D01*
X0085508Y0085831D01*
X0085380Y0085737D01*
X0085249Y0085645D01*
X0085116Y0085557D01*
X0084981Y0085472D01*
X0084844Y0085390D01*
X0084705Y0085312D01*
X0084564Y0085238D01*
X0084421Y0085167D01*
X0084276Y0085099D01*
X0084130Y0085036D01*
X0083982Y0084975D01*
X0083833Y0084919D01*
X0083682Y0084866D01*
X0083530Y0084817D01*
X0083377Y0084772D01*
X0083223Y0084731D01*
X0083068Y0084693D01*
X0082912Y0084660D01*
X0082755Y0084630D01*
X0082598Y0084604D01*
X0082440Y0084583D01*
X0082281Y0084565D01*
X0082122Y0084551D01*
X0081963Y0084541D01*
X0081804Y0084535D01*
X0081644Y0084533D01*
X0081484Y0084535D01*
X0081325Y0084541D01*
X0081166Y0084551D01*
X0081007Y0084565D01*
X0080848Y0084583D01*
X0080690Y0084604D01*
X0080533Y0084630D01*
X0080376Y0084660D01*
X0080220Y0084693D01*
X0080065Y0084731D01*
X0079911Y0084772D01*
X0079758Y0084817D01*
X0079606Y0084866D01*
X0079455Y0084919D01*
X0079306Y0084975D01*
X0079158Y0085036D01*
X0079012Y0085099D01*
X0078867Y0085167D01*
X0078724Y0085238D01*
X0078583Y0085312D01*
X0078444Y0085390D01*
X0078307Y0085472D01*
X0078172Y0085557D01*
X0078039Y0085645D01*
X0077908Y0085737D01*
X0077780Y0085831D01*
X0077654Y0085929D01*
X0077530Y0086030D01*
X0077409Y0086134D01*
X0077291Y0086241D01*
X0077175Y0086351D01*
X0077062Y0086464D01*
X0076952Y0086580D01*
X0076845Y0086698D01*
X0076741Y0086819D01*
X0076640Y0086943D01*
X0076542Y0087069D01*
X0076448Y0087197D01*
X0076356Y0087328D01*
X0076268Y0087461D01*
X0076183Y0087596D01*
X0076101Y0087733D01*
X0076023Y0087872D01*
X0075949Y0088013D01*
X0075878Y0088156D01*
X0075810Y0088301D01*
X0075747Y0088447D01*
X0075686Y0088595D01*
X0075630Y0088744D01*
X0075577Y0088895D01*
X0075528Y0089047D01*
X0075483Y0089200D01*
X0075442Y0089354D01*
X0075404Y0089509D01*
X0075371Y0089665D01*
X0075341Y0089822D01*
X0075315Y0089979D01*
X0075294Y0090137D01*
X0075276Y0090296D01*
X0075262Y0090455D01*
X0075252Y0090614D01*
X0075246Y0090773D01*
X0075244Y0090933D01*
X0049872Y0158335D02*
X0049874Y0158419D01*
X0049880Y0158502D01*
X0049890Y0158585D01*
X0049904Y0158668D01*
X0049921Y0158750D01*
X0049943Y0158831D01*
X0049968Y0158910D01*
X0049997Y0158989D01*
X0050030Y0159066D01*
X0050066Y0159141D01*
X0050106Y0159215D01*
X0050149Y0159287D01*
X0050196Y0159356D01*
X0050246Y0159423D01*
X0050299Y0159488D01*
X0050355Y0159550D01*
X0050413Y0159610D01*
X0050475Y0159667D01*
X0050539Y0159720D01*
X0050606Y0159771D01*
X0050675Y0159818D01*
X0050746Y0159863D01*
X0050819Y0159903D01*
X0050894Y0159940D01*
X0050971Y0159974D01*
X0051049Y0160004D01*
X0051128Y0160030D01*
X0051209Y0160053D01*
X0051291Y0160071D01*
X0051373Y0160086D01*
X0051456Y0160097D01*
X0051539Y0160104D01*
X0051623Y0160107D01*
X0051707Y0160106D01*
X0051790Y0160101D01*
X0051874Y0160092D01*
X0051956Y0160079D01*
X0052038Y0160063D01*
X0052119Y0160042D01*
X0052200Y0160018D01*
X0052278Y0159990D01*
X0052356Y0159958D01*
X0052432Y0159922D01*
X0052506Y0159883D01*
X0052578Y0159841D01*
X0052648Y0159795D01*
X0052716Y0159746D01*
X0052781Y0159694D01*
X0052844Y0159639D01*
X0052904Y0159581D01*
X0052962Y0159520D01*
X0053016Y0159456D01*
X0053068Y0159390D01*
X0053116Y0159322D01*
X0053161Y0159251D01*
X0053202Y0159178D01*
X0053241Y0159104D01*
X0053275Y0159028D01*
X0053306Y0158950D01*
X0053333Y0158871D01*
X0053357Y0158790D01*
X0053376Y0158709D01*
X0053392Y0158627D01*
X0053404Y0158544D01*
X0053412Y0158460D01*
X0053416Y0158377D01*
X0053416Y0158293D01*
X0053412Y0158210D01*
X0053404Y0158126D01*
X0053392Y0158043D01*
X0053376Y0157961D01*
X0053357Y0157880D01*
X0053333Y0157799D01*
X0053306Y0157720D01*
X0053275Y0157642D01*
X0053241Y0157566D01*
X0053202Y0157492D01*
X0053161Y0157419D01*
X0053116Y0157348D01*
X0053068Y0157280D01*
X0053016Y0157214D01*
X0052962Y0157150D01*
X0052904Y0157089D01*
X0052844Y0157031D01*
X0052781Y0156976D01*
X0052716Y0156924D01*
X0052648Y0156875D01*
X0052578Y0156829D01*
X0052506Y0156787D01*
X0052432Y0156748D01*
X0052356Y0156712D01*
X0052278Y0156680D01*
X0052200Y0156652D01*
X0052119Y0156628D01*
X0052038Y0156607D01*
X0051956Y0156591D01*
X0051874Y0156578D01*
X0051790Y0156569D01*
X0051707Y0156564D01*
X0051623Y0156563D01*
X0051539Y0156566D01*
X0051456Y0156573D01*
X0051373Y0156584D01*
X0051291Y0156599D01*
X0051209Y0156617D01*
X0051128Y0156640D01*
X0051049Y0156666D01*
X0050971Y0156696D01*
X0050894Y0156730D01*
X0050819Y0156767D01*
X0050746Y0156807D01*
X0050675Y0156852D01*
X0050606Y0156899D01*
X0050539Y0156950D01*
X0050475Y0157003D01*
X0050413Y0157060D01*
X0050355Y0157120D01*
X0050299Y0157182D01*
X0050246Y0157247D01*
X0050196Y0157314D01*
X0050149Y0157383D01*
X0050106Y0157455D01*
X0050066Y0157529D01*
X0050030Y0157604D01*
X0049997Y0157681D01*
X0049968Y0157760D01*
X0049943Y0157839D01*
X0049921Y0157920D01*
X0049904Y0158002D01*
X0049890Y0158085D01*
X0049880Y0158168D01*
X0049874Y0158251D01*
X0049872Y0158335D01*
X0049872Y0175657D02*
X0049874Y0175741D01*
X0049880Y0175824D01*
X0049890Y0175907D01*
X0049904Y0175990D01*
X0049921Y0176072D01*
X0049943Y0176153D01*
X0049968Y0176232D01*
X0049997Y0176311D01*
X0050030Y0176388D01*
X0050066Y0176463D01*
X0050106Y0176537D01*
X0050149Y0176609D01*
X0050196Y0176678D01*
X0050246Y0176745D01*
X0050299Y0176810D01*
X0050355Y0176872D01*
X0050413Y0176932D01*
X0050475Y0176989D01*
X0050539Y0177042D01*
X0050606Y0177093D01*
X0050675Y0177140D01*
X0050746Y0177185D01*
X0050819Y0177225D01*
X0050894Y0177262D01*
X0050971Y0177296D01*
X0051049Y0177326D01*
X0051128Y0177352D01*
X0051209Y0177375D01*
X0051291Y0177393D01*
X0051373Y0177408D01*
X0051456Y0177419D01*
X0051539Y0177426D01*
X0051623Y0177429D01*
X0051707Y0177428D01*
X0051790Y0177423D01*
X0051874Y0177414D01*
X0051956Y0177401D01*
X0052038Y0177385D01*
X0052119Y0177364D01*
X0052200Y0177340D01*
X0052278Y0177312D01*
X0052356Y0177280D01*
X0052432Y0177244D01*
X0052506Y0177205D01*
X0052578Y0177163D01*
X0052648Y0177117D01*
X0052716Y0177068D01*
X0052781Y0177016D01*
X0052844Y0176961D01*
X0052904Y0176903D01*
X0052962Y0176842D01*
X0053016Y0176778D01*
X0053068Y0176712D01*
X0053116Y0176644D01*
X0053161Y0176573D01*
X0053202Y0176500D01*
X0053241Y0176426D01*
X0053275Y0176350D01*
X0053306Y0176272D01*
X0053333Y0176193D01*
X0053357Y0176112D01*
X0053376Y0176031D01*
X0053392Y0175949D01*
X0053404Y0175866D01*
X0053412Y0175782D01*
X0053416Y0175699D01*
X0053416Y0175615D01*
X0053412Y0175532D01*
X0053404Y0175448D01*
X0053392Y0175365D01*
X0053376Y0175283D01*
X0053357Y0175202D01*
X0053333Y0175121D01*
X0053306Y0175042D01*
X0053275Y0174964D01*
X0053241Y0174888D01*
X0053202Y0174814D01*
X0053161Y0174741D01*
X0053116Y0174670D01*
X0053068Y0174602D01*
X0053016Y0174536D01*
X0052962Y0174472D01*
X0052904Y0174411D01*
X0052844Y0174353D01*
X0052781Y0174298D01*
X0052716Y0174246D01*
X0052648Y0174197D01*
X0052578Y0174151D01*
X0052506Y0174109D01*
X0052432Y0174070D01*
X0052356Y0174034D01*
X0052278Y0174002D01*
X0052200Y0173974D01*
X0052119Y0173950D01*
X0052038Y0173929D01*
X0051956Y0173913D01*
X0051874Y0173900D01*
X0051790Y0173891D01*
X0051707Y0173886D01*
X0051623Y0173885D01*
X0051539Y0173888D01*
X0051456Y0173895D01*
X0051373Y0173906D01*
X0051291Y0173921D01*
X0051209Y0173939D01*
X0051128Y0173962D01*
X0051049Y0173988D01*
X0050971Y0174018D01*
X0050894Y0174052D01*
X0050819Y0174089D01*
X0050746Y0174129D01*
X0050675Y0174174D01*
X0050606Y0174221D01*
X0050539Y0174272D01*
X0050475Y0174325D01*
X0050413Y0174382D01*
X0050355Y0174442D01*
X0050299Y0174504D01*
X0050246Y0174569D01*
X0050196Y0174636D01*
X0050149Y0174705D01*
X0050106Y0174777D01*
X0050066Y0174851D01*
X0050030Y0174926D01*
X0049997Y0175003D01*
X0049968Y0175082D01*
X0049943Y0175161D01*
X0049921Y0175242D01*
X0049904Y0175324D01*
X0049890Y0175407D01*
X0049880Y0175490D01*
X0049874Y0175573D01*
X0049872Y0175657D01*
D11*
X0082904Y0173925D03*
X0090384Y0173925D03*
X0090384Y0165618D03*
X0082904Y0165618D03*
X0082904Y0157173D03*
X0090384Y0157173D03*
X0131978Y0120992D03*
X0139459Y0120992D03*
X0139459Y0110579D03*
X0131978Y0110579D03*
X0112707Y0088020D03*
X0105226Y0088020D03*
X0105108Y0079161D03*
X0112589Y0079161D03*
X0157904Y0172449D03*
X0165384Y0172449D03*
X0165384Y0180441D03*
X0157904Y0180441D03*
X0157904Y0188433D03*
X0165384Y0188433D03*
X0187549Y0212862D03*
X0195030Y0212862D03*
X0194912Y0220972D03*
X0187431Y0220972D03*
D12*
X0091801Y0180854D03*
X0081959Y0180854D03*
D13*
X0156703Y0216346D03*
X0156703Y0221346D03*
X0156703Y0226346D03*
X0156703Y0231346D03*
X0177175Y0231346D03*
X0177175Y0226346D03*
X0177175Y0221346D03*
X0177175Y0216346D03*
D14*
X0121244Y0130933D03*
X0121244Y0125933D03*
X0121244Y0120933D03*
X0121244Y0115933D03*
X0121244Y0110933D03*
X0121244Y0105933D03*
X0121244Y0100933D03*
X0121244Y0095933D03*
X0097044Y0095933D03*
X0097044Y0100933D03*
X0097044Y0105933D03*
X0097044Y0110933D03*
X0097044Y0115933D03*
X0097044Y0120933D03*
X0097044Y0125933D03*
X0097044Y0130933D03*
D15*
X0092394Y0069240D02*
X0030894Y0069240D01*
D16*
X0054144Y0115933D03*
X0059144Y0125933D03*
X0069144Y0125933D03*
X0074144Y0115933D03*
X0064144Y0115933D03*
X0049144Y0125933D03*
D17*
X0081658Y0194893D02*
X0081658Y0200493D01*
X0081644Y0206735D02*
X0081644Y0212335D01*
X0091644Y0212335D02*
X0091644Y0206735D01*
X0091658Y0200493D02*
X0091658Y0194893D01*
D18*
X0141152Y0243425D02*
X0141152Y0249425D01*
X0151152Y0249425D02*
X0151152Y0243425D01*
X0161152Y0243425D02*
X0161152Y0249425D01*
X0171152Y0249425D02*
X0171152Y0243425D01*
X0181152Y0243425D02*
X0181152Y0249425D01*
X0191152Y0249425D02*
X0191152Y0243425D01*
X0201152Y0243425D02*
X0201152Y0249425D01*
X0211152Y0249425D02*
X0211152Y0243425D01*
X0208723Y0203315D02*
X0214723Y0203315D01*
X0214723Y0193315D02*
X0208723Y0193315D01*
X0208723Y0183315D02*
X0214723Y0183315D01*
X0214723Y0173315D02*
X0208723Y0173315D01*
X0208723Y0163315D02*
X0214723Y0163315D01*
X0214723Y0153315D02*
X0208723Y0153315D01*
D19*
X0082549Y0249988D03*
X0082549Y0255500D03*
X0070738Y0255500D03*
X0070738Y0249988D03*
X0057549Y0249988D03*
X0057549Y0255500D03*
X0045738Y0255500D03*
X0045738Y0249988D03*
D20*
X0066900Y0203118D03*
X0066900Y0195638D03*
D21*
X0057156Y0195539D03*
X0048100Y0195539D03*
D22*
X0052628Y0217193D03*
D23*
X0188844Y0232941D03*
X0214444Y0232941D03*
D24*
X0039833Y0184516D03*
X0039833Y0149476D03*
D25*
X0063061Y0149476D03*
X0063061Y0184516D03*
D26*
X0063455Y0173295D03*
X0063455Y0170146D03*
X0063455Y0166996D03*
X0063455Y0163846D03*
X0063455Y0160697D03*
D27*
X0203632Y0220933D03*
X0214656Y0220933D03*
D28*
X0185187Y0192114D03*
X0179478Y0196051D03*
X0170423Y0193098D03*
X0171801Y0180106D03*
X0174163Y0173217D03*
X0180266Y0160224D03*
X0186368Y0159240D03*
X0189912Y0159240D03*
X0193455Y0159240D03*
X0186959Y0176366D03*
X0189321Y0178925D03*
X0172392Y0156484D03*
X0177894Y0140933D03*
X0177894Y0133433D03*
X0204478Y0141524D03*
X0205266Y0112783D03*
X0187894Y0078433D03*
X0160384Y0100972D03*
X0121408Y0087587D03*
X0130069Y0141130D03*
X0131250Y0166327D03*
X0140305Y0166327D03*
X0150738Y0169772D03*
X0153691Y0168098D03*
X0151526Y0183551D03*
X0151723Y0187980D03*
X0142667Y0198610D03*
X0139124Y0208256D03*
X0142077Y0210028D03*
X0144242Y0212783D03*
X0139321Y0217508D03*
X0139124Y0221642D03*
X0131644Y0221642D03*
X0130463Y0209240D03*
X0147786Y0224004D03*
X0147392Y0228138D03*
X0156053Y0239949D03*
X0165896Y0227744D03*
X0165896Y0217114D03*
X0161565Y0208059D03*
X0163534Y0204516D03*
X0178888Y0210421D03*
X0136467Y0189457D03*
X0137943Y0186406D03*
X0136959Y0181583D03*
X0131644Y0181287D03*
X0109203Y0181287D03*
X0109203Y0189949D03*
X0108612Y0200972D03*
X0102116Y0205697D03*
X0108022Y0213965D03*
X0109597Y0217902D03*
X0102116Y0228531D03*
X0108219Y0242705D03*
X0102313Y0251760D03*
X0088730Y0249988D03*
X0088927Y0255500D03*
X0064321Y0252941D03*
X0065108Y0215539D03*
X0108809Y0170657D03*
X0100541Y0165539D03*
D29*
X0093612Y0180854D02*
X0091801Y0180854D01*
X0066900Y0195638D02*
X0057254Y0195638D01*
X0057156Y0195539D01*
X0052628Y0217193D02*
X0052628Y0218315D01*
X0055758Y0221445D01*
X0048179Y0242705D02*
X0108219Y0242705D01*
X0102313Y0251760D02*
X0094833Y0251760D01*
X0087943Y0244870D01*
X0050856Y0244870D01*
X0045738Y0249988D01*
X0042471Y0248413D02*
X0048179Y0242705D01*
X0042471Y0248413D02*
X0042471Y0252232D01*
X0045738Y0255500D01*
X0055266Y0257862D02*
X0055766Y0255902D01*
X0055766Y0249012D01*
X0055266Y0248020D01*
X0072982Y0248020D01*
X0072982Y0257862D01*
X0055266Y0257862D01*
X0055309Y0257695D02*
X0072982Y0257695D01*
X0072982Y0256496D02*
X0055614Y0256496D01*
X0055766Y0255298D02*
X0072982Y0255298D01*
X0072982Y0254099D02*
X0055766Y0254099D01*
X0055766Y0252901D02*
X0072982Y0252901D01*
X0072982Y0251702D02*
X0055766Y0251702D01*
X0055766Y0250504D02*
X0072982Y0250504D01*
X0072982Y0249305D02*
X0055766Y0249305D01*
X0055310Y0248107D02*
X0072982Y0248107D01*
X0082549Y0249988D02*
X0088730Y0249988D01*
X0088927Y0255500D02*
X0082549Y0255500D01*
X0148278Y0192409D02*
X0149754Y0193886D01*
X0173376Y0193886D01*
X0174852Y0192409D01*
X0174852Y0168295D01*
X0173868Y0167311D01*
X0152502Y0167311D01*
X0153271Y0168079D01*
X0153726Y0169177D01*
X0153726Y0169648D01*
X0153745Y0169667D01*
X0153745Y0168833D01*
X0154682Y0167896D01*
X0161125Y0167896D01*
X0161644Y0168414D01*
X0161842Y0168216D01*
X0162207Y0168005D01*
X0162614Y0167896D01*
X0164784Y0167896D01*
X0164784Y0171849D01*
X0165984Y0171849D01*
X0165984Y0173049D01*
X0169543Y0173049D01*
X0169543Y0175612D01*
X0169434Y0176019D01*
X0169223Y0176384D01*
X0169162Y0176445D01*
X0169543Y0176825D01*
X0169543Y0178006D01*
X0169676Y0178006D01*
X0170109Y0177574D01*
X0171207Y0177119D01*
X0172395Y0177119D01*
X0173493Y0177574D01*
X0174334Y0178414D01*
X0174789Y0179512D01*
X0174789Y0180701D01*
X0174334Y0181799D01*
X0173493Y0182639D01*
X0172395Y0183094D01*
X0171207Y0183094D01*
X0170109Y0182639D01*
X0169676Y0182206D01*
X0169543Y0182206D01*
X0169543Y0184056D01*
X0169162Y0184437D01*
X0169223Y0184498D01*
X0169434Y0184863D01*
X0169543Y0185270D01*
X0169543Y0187833D01*
X0165984Y0187833D01*
X0165984Y0189033D01*
X0169543Y0189033D01*
X0169543Y0191596D01*
X0169434Y0192003D01*
X0169223Y0192368D01*
X0168925Y0192666D01*
X0168561Y0192877D01*
X0168154Y0192986D01*
X0165984Y0192986D01*
X0165984Y0189033D01*
X0164784Y0189033D01*
X0164784Y0192986D01*
X0162614Y0192986D01*
X0162207Y0192877D01*
X0161842Y0192666D01*
X0161644Y0192467D01*
X0161125Y0192986D01*
X0154682Y0192986D01*
X0153745Y0192049D01*
X0153745Y0190633D01*
X0153125Y0190633D01*
X0152317Y0190968D01*
X0151128Y0190968D01*
X0150030Y0190513D01*
X0149190Y0189673D01*
X0148735Y0188575D01*
X0148735Y0187386D01*
X0149190Y0186288D01*
X0150030Y0185448D01*
X0151128Y0184993D01*
X0152317Y0184993D01*
X0153415Y0185448D01*
X0153745Y0185778D01*
X0153745Y0184818D01*
X0154125Y0184437D01*
X0154064Y0184376D01*
X0153854Y0184011D01*
X0153745Y0183604D01*
X0153745Y0181041D01*
X0157304Y0181041D01*
X0157304Y0179841D01*
X0153745Y0179841D01*
X0153745Y0177278D01*
X0153854Y0176871D01*
X0154064Y0176506D01*
X0154125Y0176445D01*
X0153745Y0176064D01*
X0153745Y0174649D01*
X0152504Y0174649D01*
X0151215Y0173360D01*
X0150614Y0172759D01*
X0150144Y0172759D01*
X0149046Y0172304D01*
X0148278Y0171536D01*
X0148278Y0192409D01*
X0148278Y0191777D02*
X0153745Y0191777D01*
X0154671Y0192975D02*
X0148843Y0192975D01*
X0148278Y0190578D02*
X0150188Y0190578D01*
X0149069Y0189380D02*
X0148278Y0189380D01*
X0148278Y0188181D02*
X0148735Y0188181D01*
X0148902Y0186983D02*
X0148278Y0186983D01*
X0148278Y0185784D02*
X0149694Y0185784D01*
X0148278Y0184586D02*
X0153976Y0184586D01*
X0153745Y0183387D02*
X0148278Y0183387D01*
X0148278Y0182189D02*
X0153745Y0182189D01*
X0153745Y0179792D02*
X0148278Y0179792D01*
X0148278Y0180990D02*
X0157304Y0180990D01*
X0157904Y0180441D02*
X0157904Y0179929D01*
X0153745Y0178593D02*
X0148278Y0178593D01*
X0148278Y0177395D02*
X0153745Y0177395D01*
X0153876Y0176196D02*
X0148278Y0176196D01*
X0148278Y0174998D02*
X0153745Y0174998D01*
X0151654Y0173799D02*
X0148278Y0173799D01*
X0148278Y0172601D02*
X0149761Y0172601D01*
X0151215Y0173360D02*
X0151215Y0173360D01*
X0153415Y0172449D02*
X0150738Y0169772D01*
X0152998Y0167807D02*
X0174364Y0167807D01*
X0174852Y0169005D02*
X0169468Y0169005D01*
X0169434Y0168878D02*
X0169543Y0169285D01*
X0169543Y0171849D01*
X0165984Y0171849D01*
X0165984Y0167896D01*
X0168154Y0167896D01*
X0168561Y0168005D01*
X0168925Y0168216D01*
X0169223Y0168514D01*
X0169434Y0168878D01*
X0169543Y0170204D02*
X0174852Y0170204D01*
X0174852Y0171402D02*
X0169543Y0171402D01*
X0169543Y0173799D02*
X0174852Y0173799D01*
X0174852Y0172601D02*
X0165984Y0172601D01*
X0165984Y0171402D02*
X0164784Y0171402D01*
X0164784Y0170204D02*
X0165984Y0170204D01*
X0165984Y0169005D02*
X0164784Y0169005D01*
X0169543Y0174998D02*
X0174852Y0174998D01*
X0174852Y0176196D02*
X0169332Y0176196D01*
X0169543Y0177395D02*
X0170541Y0177395D01*
X0173061Y0177395D02*
X0174852Y0177395D01*
X0174852Y0178593D02*
X0174408Y0178593D01*
X0174789Y0179792D02*
X0174852Y0179792D01*
X0174852Y0180990D02*
X0174669Y0180990D01*
X0174852Y0182189D02*
X0173944Y0182189D01*
X0174852Y0183387D02*
X0169543Y0183387D01*
X0169274Y0184586D02*
X0174852Y0184586D01*
X0174852Y0185784D02*
X0169543Y0185784D01*
X0169543Y0186983D02*
X0174852Y0186983D01*
X0174852Y0188181D02*
X0165984Y0188181D01*
X0165384Y0188433D02*
X0165384Y0187921D01*
X0164784Y0189380D02*
X0165984Y0189380D01*
X0165984Y0190578D02*
X0164784Y0190578D01*
X0164784Y0191777D02*
X0165984Y0191777D01*
X0165984Y0192975D02*
X0164784Y0192975D01*
X0162575Y0192975D02*
X0161136Y0192975D01*
X0157904Y0188433D02*
X0157904Y0187921D01*
X0165384Y0180441D01*
X0165384Y0179929D01*
X0157904Y0172449D01*
X0153415Y0172449D01*
X0153654Y0169005D02*
X0153745Y0169005D01*
X0151723Y0187980D02*
X0152175Y0188433D01*
X0157904Y0188433D01*
X0168193Y0192975D02*
X0174287Y0192975D01*
X0174852Y0191777D02*
X0169495Y0191777D01*
X0169543Y0190578D02*
X0174852Y0190578D01*
X0174852Y0189380D02*
X0169543Y0189380D01*
X0195030Y0212862D02*
X0187431Y0220461D01*
X0187431Y0220972D01*
X0194912Y0220972D02*
X0194951Y0220933D01*
X0203632Y0220933D01*
X0214444Y0221145D02*
X0214444Y0232941D01*
X0131978Y0120992D02*
X0131919Y0120933D01*
X0121244Y0120933D01*
X0124439Y0110933D02*
X0131624Y0110933D01*
X0131978Y0110579D01*
X0100423Y0120933D02*
X0097044Y0120933D01*
D30*
X0103444Y0114734D02*
X0108877Y0120167D01*
X0109693Y0120983D01*
X0110134Y0122049D01*
X0110134Y0123787D01*
X0115037Y0128690D01*
X0115143Y0128433D01*
X0114844Y0127710D01*
X0114844Y0124156D01*
X0115143Y0123433D01*
X0114844Y0122710D01*
X0114844Y0119156D01*
X0115143Y0118433D01*
X0114844Y0117710D01*
X0114844Y0114156D01*
X0115143Y0113433D01*
X0114844Y0112710D01*
X0114844Y0109156D01*
X0114977Y0108833D01*
X0113390Y0108833D01*
X0112324Y0108392D01*
X0111508Y0107576D01*
X0106547Y0102615D01*
X0106106Y0101549D01*
X0106106Y0097866D01*
X0105307Y0098666D01*
X0104131Y0099153D01*
X0103193Y0099153D01*
X0103244Y0099343D01*
X0103244Y0100933D01*
X0097044Y0100933D01*
X0097044Y0100933D01*
X0103244Y0100933D01*
X0103244Y0102523D01*
X0103094Y0103082D01*
X0103018Y0103213D01*
X0103078Y0103274D01*
X0103444Y0104156D01*
X0103444Y0107710D01*
X0103144Y0108433D01*
X0103444Y0109156D01*
X0103444Y0112710D01*
X0103144Y0113433D01*
X0103444Y0114156D01*
X0103444Y0114734D01*
X0103339Y0113903D02*
X0114948Y0113903D01*
X0114844Y0111505D02*
X0103444Y0111505D01*
X0103423Y0109106D02*
X0114864Y0109106D01*
X0110640Y0106708D02*
X0103444Y0106708D01*
X0103444Y0104309D02*
X0108242Y0104309D01*
X0106256Y0101911D02*
X0103244Y0101911D01*
X0103244Y0099512D02*
X0106106Y0099512D01*
X0100592Y0092233D02*
X0100273Y0091462D01*
X0099329Y0091072D01*
X0095746Y0087489D01*
X0094734Y0086476D01*
X0094186Y0085153D01*
X0094186Y0075453D01*
X0094734Y0074130D01*
X0099064Y0069799D01*
X0100077Y0068787D01*
X0101172Y0068333D01*
X0094637Y0068333D01*
X0094813Y0068759D01*
X0094813Y0069721D01*
X0094445Y0070611D01*
X0093764Y0071291D01*
X0092875Y0071660D01*
X0034044Y0071660D01*
X0034044Y0086286D01*
X0034184Y0085948D01*
X0036659Y0083473D01*
X0039893Y0082133D01*
X0043394Y0082133D01*
X0046629Y0083473D01*
X0049104Y0085948D01*
X0050444Y0089183D01*
X0050444Y0092684D01*
X0049104Y0095918D01*
X0046629Y0098393D01*
X0043394Y0099733D01*
X0039893Y0099733D01*
X0036659Y0098393D01*
X0034184Y0095918D01*
X0034044Y0095580D01*
X0034044Y0143500D01*
X0034062Y0143489D01*
X0034622Y0143339D01*
X0039064Y0143339D01*
X0039064Y0148708D01*
X0040601Y0148708D01*
X0040601Y0143339D01*
X0045044Y0143339D01*
X0045603Y0143489D01*
X0046105Y0143779D01*
X0046514Y0144189D01*
X0046804Y0144690D01*
X0046954Y0145250D01*
X0046954Y0148708D01*
X0040601Y0148708D01*
X0040601Y0150245D01*
X0039064Y0150245D01*
X0039064Y0155613D01*
X0034622Y0155613D01*
X0034062Y0155463D01*
X0034044Y0155453D01*
X0034044Y0178539D01*
X0034062Y0178529D01*
X0034622Y0178379D01*
X0039064Y0178379D01*
X0039064Y0183747D01*
X0040601Y0183747D01*
X0040601Y0178379D01*
X0045044Y0178379D01*
X0045603Y0178529D01*
X0046105Y0178818D01*
X0046514Y0179228D01*
X0046804Y0179730D01*
X0046954Y0180289D01*
X0046954Y0183747D01*
X0040601Y0183747D01*
X0040601Y0185284D01*
X0039064Y0185284D01*
X0039064Y0190653D01*
X0034622Y0190653D01*
X0034062Y0190503D01*
X0034044Y0190492D01*
X0034044Y0258494D01*
X0042287Y0258494D01*
X0042129Y0258336D01*
X0041763Y0257454D01*
X0041763Y0255768D01*
X0040771Y0254776D01*
X0039927Y0253932D01*
X0039471Y0252829D01*
X0039471Y0247817D01*
X0039927Y0246714D01*
X0045636Y0241005D01*
X0046480Y0240161D01*
X0047582Y0239705D01*
X0105862Y0239705D01*
X0106073Y0239494D01*
X0107465Y0238917D01*
X0108972Y0238917D01*
X0110364Y0239494D01*
X0111429Y0240559D01*
X0112006Y0241951D01*
X0112006Y0243458D01*
X0111429Y0244850D01*
X0110364Y0245916D01*
X0108972Y0246492D01*
X0107465Y0246492D01*
X0106073Y0245916D01*
X0105862Y0245705D01*
X0093020Y0245705D01*
X0096075Y0248760D01*
X0099957Y0248760D01*
X0100168Y0248549D01*
X0101560Y0247972D01*
X0103066Y0247972D01*
X0104458Y0248549D01*
X0105524Y0249614D01*
X0106100Y0251006D01*
X0106100Y0252513D01*
X0105524Y0253905D01*
X0104458Y0254971D01*
X0103066Y0255547D01*
X0101560Y0255547D01*
X0100168Y0254971D01*
X0099957Y0254760D01*
X0094236Y0254760D01*
X0093133Y0254303D01*
X0092289Y0253459D01*
X0091453Y0252622D01*
X0091429Y0252646D01*
X0092138Y0253355D01*
X0092715Y0254747D01*
X0092715Y0256253D01*
X0092138Y0257645D01*
X0091290Y0258494D01*
X0222945Y0258494D01*
X0222945Y0254527D01*
X0219903Y0257568D01*
X0218580Y0258116D01*
X0145888Y0258116D01*
X0144565Y0257568D01*
X0143552Y0256555D01*
X0141823Y0254825D01*
X0140078Y0254825D01*
X0138093Y0254003D01*
X0136574Y0252484D01*
X0135752Y0250499D01*
X0135752Y0246116D01*
X0121767Y0232131D01*
X0103322Y0232131D01*
X0102870Y0232319D01*
X0101363Y0232319D01*
X0099971Y0231742D01*
X0098905Y0230677D01*
X0098329Y0229285D01*
X0098329Y0227778D01*
X0098691Y0226904D01*
X0048980Y0226904D01*
X0047914Y0226462D01*
X0043949Y0222497D01*
X0043508Y0221431D01*
X0043508Y0212600D01*
X0043949Y0211534D01*
X0054824Y0200660D01*
X0055213Y0200498D01*
X0054119Y0200498D01*
X0053237Y0200133D01*
X0052562Y0199458D01*
X0052501Y0199310D01*
X0052420Y0199449D01*
X0052010Y0199859D01*
X0051509Y0200148D01*
X0050949Y0200298D01*
X0048180Y0200298D01*
X0048180Y0195619D01*
X0048021Y0195619D01*
X0048021Y0200298D01*
X0045252Y0200298D01*
X0044692Y0200148D01*
X0044191Y0199859D01*
X0043781Y0199449D01*
X0043491Y0198948D01*
X0043341Y0198388D01*
X0043341Y0195619D01*
X0048021Y0195619D01*
X0048021Y0195460D01*
X0043341Y0195460D01*
X0043341Y0192691D01*
X0043491Y0192131D01*
X0043781Y0191629D01*
X0044191Y0191220D01*
X0044692Y0190930D01*
X0045252Y0190780D01*
X0048021Y0190780D01*
X0048021Y0195460D01*
X0048180Y0195460D01*
X0048180Y0190780D01*
X0050949Y0190780D01*
X0051509Y0190930D01*
X0052010Y0191220D01*
X0052420Y0191629D01*
X0052501Y0191769D01*
X0052562Y0191621D01*
X0053237Y0190946D01*
X0054119Y0190580D01*
X0056005Y0190580D01*
X0055716Y0190503D01*
X0055214Y0190213D01*
X0054805Y0189804D01*
X0054515Y0189302D01*
X0054365Y0188742D01*
X0054365Y0185284D01*
X0062293Y0185284D01*
X0062293Y0190653D01*
X0060367Y0190653D01*
X0061074Y0190946D01*
X0061749Y0191621D01*
X0061768Y0191667D01*
X0062391Y0191044D01*
X0063273Y0190679D01*
X0070527Y0190679D01*
X0071409Y0191044D01*
X0072084Y0191719D01*
X0072449Y0192601D01*
X0072449Y0197202D01*
X0073997Y0195654D01*
X0075010Y0194641D01*
X0076333Y0194093D01*
X0076458Y0194093D01*
X0076458Y0193859D01*
X0077249Y0191947D01*
X0078712Y0190485D01*
X0080623Y0189693D01*
X0082692Y0189693D01*
X0084603Y0190485D01*
X0086066Y0191947D01*
X0086658Y0193376D01*
X0087249Y0191947D01*
X0088712Y0190485D01*
X0090623Y0189693D01*
X0092692Y0189693D01*
X0094603Y0190485D01*
X0096066Y0191947D01*
X0096858Y0193859D01*
X0096858Y0194135D01*
X0099543Y0194135D01*
X0100609Y0194577D01*
X0104225Y0198192D01*
X0104225Y0196558D01*
X0092102Y0184435D01*
X0089749Y0184435D01*
X0088867Y0184070D01*
X0088192Y0183395D01*
X0087826Y0182513D01*
X0087826Y0179278D01*
X0087347Y0179278D01*
X0086644Y0178986D01*
X0085940Y0179278D01*
X0085934Y0179278D01*
X0085934Y0182513D01*
X0085568Y0183395D01*
X0084893Y0184070D01*
X0084011Y0184435D01*
X0079907Y0184435D01*
X0079024Y0184070D01*
X0078349Y0183395D01*
X0078126Y0182855D01*
X0077768Y0182497D01*
X0071387Y0176117D01*
X0071114Y0176117D01*
X0070917Y0176314D01*
X0070035Y0176680D01*
X0056875Y0176680D01*
X0055993Y0176314D01*
X0055815Y0176137D01*
X0055815Y0176487D01*
X0055180Y0178021D01*
X0054007Y0179194D01*
X0052474Y0179829D01*
X0050814Y0179829D01*
X0049281Y0179194D01*
X0048107Y0178021D01*
X0047472Y0176487D01*
X0047472Y0174828D01*
X0048107Y0173294D01*
X0049281Y0172121D01*
X0050814Y0171486D01*
X0052474Y0171486D01*
X0054007Y0172121D01*
X0054952Y0173067D01*
X0054952Y0171834D01*
X0054999Y0171720D01*
X0054952Y0171607D01*
X0054952Y0168684D01*
X0054999Y0168571D01*
X0054952Y0168458D01*
X0054952Y0165534D01*
X0055152Y0165052D01*
X0055152Y0163847D01*
X0056308Y0163847D01*
X0056309Y0163846D01*
X0055152Y0163846D01*
X0055152Y0162573D01*
X0055233Y0162272D01*
X0055152Y0161971D01*
X0055152Y0160726D01*
X0054007Y0161871D01*
X0052474Y0162506D01*
X0050814Y0162506D01*
X0049281Y0161871D01*
X0048107Y0160698D01*
X0047472Y0159164D01*
X0047472Y0157505D01*
X0048107Y0155972D01*
X0049281Y0154798D01*
X0050814Y0154163D01*
X0052474Y0154163D01*
X0054007Y0154798D01*
X0055180Y0155972D01*
X0055815Y0157505D01*
X0055815Y0158138D01*
X0056002Y0157952D01*
X0056503Y0157663D01*
X0057063Y0157513D01*
X0063455Y0157513D01*
X0069847Y0157513D01*
X0070406Y0157663D01*
X0070908Y0157952D01*
X0071318Y0158362D01*
X0071607Y0158863D01*
X0071757Y0159423D01*
X0071757Y0160697D01*
X0071757Y0161971D01*
X0071677Y0162272D01*
X0071757Y0162573D01*
X0071757Y0163846D01*
X0070601Y0163846D01*
X0070601Y0163847D01*
X0071757Y0163847D01*
X0071757Y0164214D01*
X0075102Y0164214D01*
X0075102Y0161498D01*
X0075544Y0160432D01*
X0076359Y0159616D01*
X0077945Y0158031D01*
X0077945Y0153743D01*
X0078310Y0152861D01*
X0078985Y0152186D01*
X0079867Y0151820D01*
X0085940Y0151820D01*
X0086644Y0152112D01*
X0087347Y0151820D01*
X0093420Y0151820D01*
X0094302Y0152186D01*
X0094978Y0152861D01*
X0095343Y0153743D01*
X0095343Y0154273D01*
X0104563Y0154273D01*
X0105629Y0154715D01*
X0110896Y0159982D01*
X0135273Y0159982D01*
X0126528Y0151237D01*
X0126458Y0151069D01*
X0103343Y0127954D01*
X0103144Y0128433D01*
X0103444Y0129156D01*
X0103444Y0132710D01*
X0103078Y0133593D01*
X0102403Y0134268D01*
X0101521Y0134633D01*
X0092566Y0134633D01*
X0091684Y0134268D01*
X0091009Y0133593D01*
X0090644Y0132710D01*
X0090644Y0129156D01*
X0090943Y0128433D01*
X0090644Y0127710D01*
X0090644Y0124156D01*
X0090943Y0123433D01*
X0090644Y0122710D01*
X0090644Y0119156D01*
X0090943Y0118433D01*
X0090644Y0117710D01*
X0090644Y0114156D01*
X0090653Y0114133D01*
X0078996Y0114133D01*
X0079315Y0114904D01*
X0079315Y0116962D01*
X0078528Y0118863D01*
X0077073Y0120317D01*
X0075172Y0121105D01*
X0073115Y0121105D01*
X0071214Y0120317D01*
X0071086Y0120189D01*
X0070208Y0121068D01*
X0070308Y0121084D01*
X0071052Y0121326D01*
X0071749Y0121681D01*
X0072383Y0122141D01*
X0072936Y0122694D01*
X0073396Y0123327D01*
X0073751Y0124025D01*
X0073993Y0124769D01*
X0074115Y0125542D01*
X0074115Y0125933D01*
X0069144Y0125933D01*
X0069144Y0125933D01*
X0074115Y0125933D01*
X0074115Y0126324D01*
X0073993Y0127097D01*
X0073751Y0127842D01*
X0073396Y0128539D01*
X0072936Y0129172D01*
X0072383Y0129725D01*
X0071749Y0130185D01*
X0071052Y0130540D01*
X0070308Y0130782D01*
X0069535Y0130905D01*
X0069144Y0130905D01*
X0069144Y0125933D01*
X0069144Y0125933D01*
X0069144Y0130905D01*
X0068752Y0130905D01*
X0067980Y0130782D01*
X0067235Y0130540D01*
X0066538Y0130185D01*
X0065905Y0129725D01*
X0065352Y0129172D01*
X0064892Y0128539D01*
X0064536Y0127842D01*
X0064295Y0127097D01*
X0064285Y0127036D01*
X0063528Y0128863D01*
X0062073Y0130317D01*
X0060172Y0131105D01*
X0058115Y0131105D01*
X0056214Y0130317D01*
X0054759Y0128863D01*
X0054144Y0127376D01*
X0053528Y0128863D01*
X0052073Y0130317D01*
X0050172Y0131105D01*
X0048115Y0131105D01*
X0046214Y0130317D01*
X0044759Y0128863D01*
X0043972Y0126962D01*
X0043972Y0124904D01*
X0044759Y0123004D01*
X0046214Y0121549D01*
X0048115Y0120761D01*
X0050172Y0120761D01*
X0052073Y0121549D01*
X0053528Y0123004D01*
X0054144Y0124490D01*
X0054759Y0123004D01*
X0056214Y0121549D01*
X0058115Y0120761D01*
X0060172Y0120761D01*
X0061085Y0121139D01*
X0061704Y0120520D01*
X0061214Y0120317D01*
X0059759Y0118863D01*
X0059144Y0117376D01*
X0058528Y0118863D01*
X0057073Y0120317D01*
X0055172Y0121105D01*
X0053115Y0121105D01*
X0051214Y0120317D01*
X0049759Y0118863D01*
X0048972Y0116962D01*
X0048972Y0114904D01*
X0049759Y0113004D01*
X0051214Y0111549D01*
X0053115Y0110761D01*
X0055172Y0110761D01*
X0057073Y0111549D01*
X0058528Y0113004D01*
X0059144Y0114490D01*
X0059759Y0113004D01*
X0061214Y0111549D01*
X0063115Y0110761D01*
X0064790Y0110761D01*
X0072331Y0103220D01*
X0073507Y0102733D01*
X0090900Y0102733D01*
X0090844Y0102523D01*
X0090844Y0100933D01*
X0090844Y0099343D01*
X0090994Y0098784D01*
X0091069Y0098653D01*
X0091009Y0098593D01*
X0090644Y0097710D01*
X0090644Y0094156D01*
X0091009Y0093274D01*
X0091684Y0092598D01*
X0092566Y0092233D01*
X0100592Y0092233D01*
X0098176Y0089918D02*
X0090444Y0089918D01*
X0090444Y0089183D02*
X0089104Y0085948D01*
X0086629Y0083473D01*
X0083394Y0082133D01*
X0079893Y0082133D01*
X0076659Y0083473D01*
X0074184Y0085948D01*
X0072844Y0089183D01*
X0072844Y0092684D01*
X0074184Y0095918D01*
X0076659Y0098393D01*
X0079893Y0099733D01*
X0083394Y0099733D01*
X0086629Y0098393D01*
X0089104Y0095918D01*
X0090444Y0092684D01*
X0090444Y0089183D01*
X0089755Y0087520D02*
X0095777Y0087520D01*
X0094186Y0085121D02*
X0088277Y0085121D01*
X0084818Y0082723D02*
X0094186Y0082723D01*
X0094186Y0080324D02*
X0034044Y0080324D01*
X0034044Y0077926D02*
X0094186Y0077926D01*
X0094186Y0075527D02*
X0034044Y0075527D01*
X0034044Y0073129D02*
X0095735Y0073129D01*
X0094326Y0070730D02*
X0098134Y0070730D01*
X0102116Y0071839D02*
X0189912Y0071839D01*
X0211959Y0093886D01*
X0211959Y0106091D01*
X0205266Y0112783D01*
X0203573Y0109385D02*
X0208359Y0104599D01*
X0208359Y0095377D01*
X0188420Y0075439D01*
X0117426Y0075439D01*
X0117548Y0075731D01*
X0117548Y0076020D01*
X0125784Y0076020D01*
X0126960Y0076508D01*
X0130405Y0079953D01*
X0131305Y0080853D01*
X0131793Y0082029D01*
X0131793Y0094621D01*
X0131305Y0095797D01*
X0129357Y0097746D01*
X0128456Y0098646D01*
X0127583Y0099008D01*
X0127644Y0099156D01*
X0127644Y0102710D01*
X0127344Y0103433D01*
X0127644Y0104156D01*
X0127644Y0106007D01*
X0128060Y0105591D01*
X0128942Y0105226D01*
X0135015Y0105226D01*
X0135719Y0105517D01*
X0136422Y0105226D01*
X0142495Y0105226D01*
X0143377Y0105591D01*
X0144052Y0106266D01*
X0144418Y0107149D01*
X0144418Y0114009D01*
X0144052Y0114891D01*
X0143377Y0115566D01*
X0142556Y0115906D01*
X0142867Y0115989D01*
X0143369Y0116279D01*
X0143778Y0116689D01*
X0144068Y0117190D01*
X0144218Y0117750D01*
X0144218Y0120913D01*
X0139538Y0120913D01*
X0139538Y0121072D01*
X0139379Y0121072D01*
X0139379Y0126145D01*
X0136610Y0126145D01*
X0136051Y0125995D01*
X0135943Y0125933D01*
X0135897Y0125979D01*
X0135015Y0126345D01*
X0128942Y0126345D01*
X0128060Y0125979D01*
X0127644Y0125563D01*
X0127644Y0127710D01*
X0127344Y0128433D01*
X0127644Y0129156D01*
X0127644Y0132710D01*
X0127278Y0133593D01*
X0126603Y0134268D01*
X0125721Y0134633D01*
X0120980Y0134633D01*
X0126411Y0140064D01*
X0126858Y0138985D01*
X0127924Y0137919D01*
X0129316Y0137343D01*
X0130822Y0137343D01*
X0132214Y0137919D01*
X0132225Y0137930D01*
X0135043Y0137930D01*
X0157184Y0115789D01*
X0157184Y0103129D01*
X0157173Y0103118D01*
X0156597Y0101726D01*
X0156597Y0100219D01*
X0157173Y0098827D01*
X0158239Y0097762D01*
X0159631Y0097185D01*
X0161137Y0097185D01*
X0162529Y0097762D01*
X0163595Y0098827D01*
X0164171Y0100219D01*
X0164171Y0101726D01*
X0163595Y0103118D01*
X0163584Y0103129D01*
X0163584Y0117751D01*
X0163097Y0118927D01*
X0139081Y0142943D01*
X0138181Y0143843D01*
X0137005Y0144330D01*
X0132225Y0144330D01*
X0132214Y0144341D01*
X0131135Y0144788D01*
X0139932Y0153584D01*
X0169936Y0153584D01*
X0170246Y0153273D01*
X0171638Y0152697D01*
X0173145Y0152697D01*
X0174537Y0153273D01*
X0175603Y0154339D01*
X0176179Y0155731D01*
X0176179Y0157226D01*
X0177908Y0157226D01*
X0178120Y0157014D01*
X0179512Y0156437D01*
X0181019Y0156437D01*
X0182411Y0157014D01*
X0183477Y0158079D01*
X0184053Y0159471D01*
X0184053Y0160978D01*
X0183477Y0162370D01*
X0182411Y0163435D01*
X0182306Y0163479D01*
X0189669Y0170841D01*
X0189669Y0167226D01*
X0190110Y0166160D01*
X0190926Y0165345D01*
X0195355Y0160916D01*
X0196421Y0160474D01*
X0204054Y0160474D01*
X0204145Y0160256D01*
X0205664Y0158737D01*
X0206683Y0158315D01*
X0205664Y0157893D01*
X0204145Y0156374D01*
X0203323Y0154389D01*
X0203323Y0152241D01*
X0204145Y0150256D01*
X0205664Y0148737D01*
X0207648Y0147915D01*
X0215797Y0147915D01*
X0217781Y0148737D01*
X0219300Y0150256D01*
X0220123Y0152241D01*
X0220123Y0154389D01*
X0219300Y0156374D01*
X0217781Y0157893D01*
X0216762Y0158315D01*
X0217781Y0158737D01*
X0219300Y0160256D01*
X0220123Y0162241D01*
X0220123Y0164389D01*
X0219300Y0166374D01*
X0217781Y0167893D01*
X0216762Y0168315D01*
X0217781Y0168737D01*
X0219300Y0170256D01*
X0220123Y0172241D01*
X0220123Y0174389D01*
X0219300Y0176374D01*
X0217781Y0177893D01*
X0216498Y0178424D01*
X0216719Y0178496D01*
X0217448Y0178868D01*
X0218110Y0179349D01*
X0218689Y0179927D01*
X0219170Y0180590D01*
X0219542Y0181319D01*
X0219794Y0182097D01*
X0219923Y0182906D01*
X0219923Y0183315D01*
X0219923Y0183724D01*
X0219794Y0184533D01*
X0219542Y0185311D01*
X0219170Y0186040D01*
X0218689Y0186703D01*
X0218110Y0187281D01*
X0217448Y0187762D01*
X0216719Y0188134D01*
X0216498Y0188206D01*
X0217781Y0188737D01*
X0219300Y0190256D01*
X0220123Y0192241D01*
X0220123Y0194389D01*
X0219300Y0196374D01*
X0217781Y0197893D01*
X0216762Y0198315D01*
X0217781Y0198737D01*
X0219300Y0200256D01*
X0220123Y0202241D01*
X0220123Y0204389D01*
X0219468Y0205969D01*
X0222945Y0209446D01*
X0222945Y0068333D01*
X0190856Y0068333D01*
X0191951Y0068787D01*
X0213998Y0090834D01*
X0215011Y0091847D01*
X0215559Y0093170D01*
X0215559Y0106807D01*
X0215011Y0108130D01*
X0208664Y0114476D01*
X0208477Y0114929D01*
X0207411Y0115994D01*
X0206019Y0116571D01*
X0204512Y0116571D01*
X0203120Y0115994D01*
X0202055Y0114929D01*
X0201478Y0113537D01*
X0201478Y0112030D01*
X0202055Y0110638D01*
X0203120Y0109573D01*
X0203573Y0109385D01*
X0203852Y0109106D02*
X0163584Y0109106D01*
X0163584Y0106708D02*
X0206250Y0106708D01*
X0208359Y0104309D02*
X0163584Y0104309D01*
X0164095Y0101911D02*
X0208359Y0101911D01*
X0208359Y0099512D02*
X0163879Y0099512D01*
X0156889Y0099512D02*
X0127644Y0099512D01*
X0127644Y0101911D02*
X0156673Y0101911D01*
X0157184Y0104309D02*
X0127644Y0104309D01*
X0129989Y0097114D02*
X0208359Y0097114D01*
X0207697Y0094715D02*
X0131753Y0094715D01*
X0131793Y0092317D02*
X0205298Y0092317D01*
X0202900Y0089918D02*
X0131793Y0089918D01*
X0131793Y0087520D02*
X0200501Y0087520D01*
X0198103Y0085121D02*
X0131793Y0085121D01*
X0131793Y0082723D02*
X0195704Y0082723D01*
X0193306Y0080324D02*
X0130777Y0080324D01*
X0128378Y0077926D02*
X0190907Y0077926D01*
X0188509Y0075527D02*
X0117463Y0075527D01*
X0117548Y0082420D02*
X0117548Y0082592D01*
X0117182Y0083474D01*
X0117124Y0083531D01*
X0117300Y0083707D01*
X0117666Y0084590D01*
X0117666Y0091450D01*
X0117341Y0092233D01*
X0125393Y0092233D01*
X0125393Y0083991D01*
X0123822Y0082420D01*
X0117548Y0082420D01*
X0117493Y0082723D02*
X0124124Y0082723D01*
X0125393Y0085121D02*
X0117666Y0085121D01*
X0117666Y0087520D02*
X0125393Y0087520D01*
X0125393Y0089918D02*
X0117666Y0089918D01*
X0105226Y0088020D02*
X0101368Y0088020D01*
X0097786Y0084437D01*
X0097786Y0076169D01*
X0102116Y0071839D01*
X0092364Y0092317D02*
X0090444Y0092317D01*
X0090644Y0094715D02*
X0089602Y0094715D01*
X0090644Y0097114D02*
X0087908Y0097114D01*
X0090844Y0099512D02*
X0083927Y0099512D01*
X0079360Y0099512D02*
X0043927Y0099512D01*
X0039360Y0099512D02*
X0034044Y0099512D01*
X0034044Y0097114D02*
X0035379Y0097114D01*
X0034044Y0101911D02*
X0090844Y0101911D01*
X0090844Y0100933D02*
X0097044Y0100933D01*
X0090844Y0100933D01*
X0097044Y0100933D02*
X0097044Y0100933D01*
X0090644Y0116302D02*
X0079315Y0116302D01*
X0078595Y0118700D02*
X0090832Y0118700D01*
X0090644Y0121099D02*
X0075187Y0121099D01*
X0073101Y0121099D02*
X0070354Y0121099D01*
X0073483Y0123497D02*
X0090916Y0123497D01*
X0090644Y0125896D02*
X0074115Y0125896D01*
X0073520Y0128294D02*
X0090886Y0128294D01*
X0090644Y0130693D02*
X0070583Y0130693D01*
X0069144Y0130693D02*
X0069144Y0130693D01*
X0067704Y0130693D02*
X0061167Y0130693D01*
X0063763Y0128294D02*
X0064767Y0128294D01*
X0069144Y0128294D02*
X0069144Y0128294D01*
X0061126Y0121099D02*
X0060987Y0121099D01*
X0059692Y0118700D02*
X0058595Y0118700D01*
X0057300Y0121099D02*
X0055187Y0121099D01*
X0053101Y0121099D02*
X0050987Y0121099D01*
X0049692Y0118700D02*
X0034044Y0118700D01*
X0034044Y0116302D02*
X0048972Y0116302D01*
X0049387Y0113903D02*
X0034044Y0113903D01*
X0034044Y0111505D02*
X0051320Y0111505D01*
X0056967Y0111505D02*
X0061320Y0111505D01*
X0059387Y0113903D02*
X0058901Y0113903D01*
X0066445Y0109106D02*
X0034044Y0109106D01*
X0034044Y0106708D02*
X0068844Y0106708D01*
X0071242Y0104309D02*
X0034044Y0104309D01*
X0047908Y0097114D02*
X0075379Y0097114D01*
X0073685Y0094715D02*
X0049602Y0094715D01*
X0050444Y0092317D02*
X0072844Y0092317D01*
X0072844Y0089918D02*
X0050444Y0089918D01*
X0049755Y0087520D02*
X0073533Y0087520D01*
X0075011Y0085121D02*
X0048277Y0085121D01*
X0044818Y0082723D02*
X0078470Y0082723D01*
X0105011Y0116302D02*
X0114844Y0116302D01*
X0115032Y0118700D02*
X0107410Y0118700D01*
X0109741Y0121099D02*
X0114844Y0121099D01*
X0115116Y0123497D02*
X0110134Y0123497D01*
X0112243Y0125896D02*
X0114844Y0125896D01*
X0114642Y0128294D02*
X0115086Y0128294D01*
X0108480Y0133091D02*
X0103286Y0133091D01*
X0103444Y0130693D02*
X0106082Y0130693D01*
X0103683Y0128294D02*
X0103202Y0128294D01*
X0110879Y0135490D02*
X0034044Y0135490D01*
X0034044Y0137888D02*
X0113277Y0137888D01*
X0115676Y0140287D02*
X0034044Y0140287D01*
X0034044Y0142685D02*
X0118074Y0142685D01*
X0120473Y0145084D02*
X0071713Y0145084D01*
X0071757Y0145250D02*
X0071757Y0148708D01*
X0063830Y0148708D01*
X0063830Y0150245D01*
X0071757Y0150245D01*
X0071757Y0153703D01*
X0071607Y0154263D01*
X0071318Y0154764D01*
X0070908Y0155174D01*
X0070406Y0155463D01*
X0069847Y0155613D01*
X0063830Y0155613D01*
X0063830Y0150245D01*
X0062293Y0150245D01*
X0062293Y0155613D01*
X0056275Y0155613D01*
X0055716Y0155463D01*
X0055214Y0155174D01*
X0054805Y0154764D01*
X0054515Y0154263D01*
X0054365Y0153703D01*
X0054365Y0150245D01*
X0062293Y0150245D01*
X0062293Y0148708D01*
X0063830Y0148708D01*
X0063830Y0143339D01*
X0069847Y0143339D01*
X0070406Y0143489D01*
X0070908Y0143779D01*
X0071318Y0144189D01*
X0071607Y0144690D01*
X0071757Y0145250D01*
X0071757Y0147482D02*
X0122871Y0147482D01*
X0125270Y0149881D02*
X0063830Y0149881D01*
X0062293Y0149881D02*
X0040601Y0149881D01*
X0040601Y0150245D02*
X0046954Y0150245D01*
X0046954Y0153703D01*
X0046804Y0154263D01*
X0046514Y0154764D01*
X0046105Y0155174D01*
X0045603Y0155463D01*
X0045044Y0155613D01*
X0040601Y0155613D01*
X0040601Y0150245D01*
X0040601Y0152279D02*
X0039064Y0152279D01*
X0039064Y0154678D02*
X0040601Y0154678D01*
X0046564Y0154678D02*
X0049571Y0154678D01*
X0047650Y0157077D02*
X0034044Y0157077D01*
X0034044Y0159475D02*
X0047601Y0159475D01*
X0049286Y0161874D02*
X0034044Y0161874D01*
X0034044Y0164272D02*
X0055152Y0164272D01*
X0055152Y0161874D02*
X0054001Y0161874D01*
X0055181Y0160697D02*
X0056933Y0160697D01*
X0056934Y0160697D01*
X0055181Y0160697D01*
X0055181Y0160697D01*
X0055638Y0157077D02*
X0077945Y0157077D01*
X0077945Y0154678D02*
X0071367Y0154678D01*
X0071757Y0152279D02*
X0078891Y0152279D01*
X0076501Y0159475D02*
X0071757Y0159475D01*
X0071757Y0160697D02*
X0069976Y0160697D01*
X0071757Y0160697D01*
X0071757Y0161874D02*
X0075102Y0161874D01*
X0069976Y0160697D02*
X0069976Y0160697D01*
X0063830Y0154678D02*
X0062293Y0154678D01*
X0062293Y0152279D02*
X0063830Y0152279D01*
X0062293Y0148708D02*
X0054365Y0148708D01*
X0054365Y0145250D01*
X0054515Y0144690D01*
X0054805Y0144189D01*
X0055214Y0143779D01*
X0055716Y0143489D01*
X0056275Y0143339D01*
X0062293Y0143339D01*
X0062293Y0148708D01*
X0062293Y0147482D02*
X0063830Y0147482D01*
X0063830Y0145084D02*
X0062293Y0145084D01*
X0054409Y0145084D02*
X0046910Y0145084D01*
X0046954Y0147482D02*
X0054365Y0147482D01*
X0054365Y0152279D02*
X0046954Y0152279D01*
X0040601Y0147482D02*
X0039064Y0147482D01*
X0039064Y0145084D02*
X0040601Y0145084D01*
X0034044Y0133091D02*
X0090802Y0133091D01*
X0094396Y0152279D02*
X0127570Y0152279D01*
X0129969Y0154678D02*
X0105540Y0154678D01*
X0107991Y0157077D02*
X0132367Y0157077D01*
X0134766Y0159475D02*
X0110389Y0159475D01*
X0104903Y0162191D02*
X0102785Y0160073D01*
X0095343Y0160073D01*
X0095343Y0160603D01*
X0095015Y0161396D01*
X0095240Y0161939D01*
X0099336Y0161939D01*
X0099788Y0161752D01*
X0101295Y0161752D01*
X0101937Y0162018D01*
X0104486Y0162018D01*
X0104903Y0162191D01*
X0104585Y0161874D02*
X0101588Y0161874D01*
X0099495Y0161874D02*
X0095213Y0161874D01*
X0090463Y0165539D02*
X0090384Y0165618D01*
X0103770Y0165618D01*
X0108809Y0170657D01*
X0112251Y0169069D02*
X0138777Y0169069D01*
X0136821Y0171025D02*
X0142064Y0165782D01*
X0109118Y0165782D01*
X0108959Y0165716D01*
X0110502Y0167259D01*
X0110955Y0167447D01*
X0112020Y0168512D01*
X0112597Y0169904D01*
X0112597Y0171025D01*
X0136821Y0171025D01*
X0139784Y0176265D02*
X0153104Y0176265D01*
X0152945Y0175879D02*
X0152945Y0175449D01*
X0152819Y0175449D01*
X0151716Y0174992D01*
X0150872Y0174148D01*
X0150283Y0173559D01*
X0149985Y0173559D01*
X0148593Y0172982D01*
X0147527Y0171917D01*
X0146951Y0170525D01*
X0146951Y0169097D01*
X0139664Y0176384D01*
X0138599Y0176825D01*
X0095343Y0176825D01*
X0095343Y0177355D01*
X0095230Y0177628D01*
X0095652Y0177802D01*
X0109864Y0192015D01*
X0110877Y0193028D01*
X0111425Y0194351D01*
X0111425Y0198429D01*
X0111823Y0198827D01*
X0111867Y0198932D01*
X0128120Y0182678D01*
X0127856Y0182041D01*
X0127856Y0180534D01*
X0128433Y0179142D01*
X0129498Y0178077D01*
X0130890Y0177500D01*
X0132397Y0177500D01*
X0133789Y0178077D01*
X0134449Y0178736D01*
X0134813Y0178372D01*
X0136205Y0177795D01*
X0137712Y0177795D01*
X0139104Y0178372D01*
X0140170Y0179437D01*
X0140746Y0180829D01*
X0140746Y0181269D01*
X0145323Y0185845D01*
X0145764Y0186911D01*
X0145764Y0190224D01*
X0148987Y0193446D01*
X0154048Y0193446D01*
X0153985Y0193420D01*
X0153310Y0192745D01*
X0152945Y0191863D01*
X0152945Y0191574D01*
X0152476Y0191768D01*
X0150969Y0191768D01*
X0149577Y0191191D01*
X0148512Y0190126D01*
X0147935Y0188734D01*
X0147935Y0187227D01*
X0148512Y0185835D01*
X0149577Y0184770D01*
X0150969Y0184193D01*
X0152476Y0184193D01*
X0153162Y0184477D01*
X0153281Y0184191D01*
X0153145Y0183683D01*
X0153145Y0180520D01*
X0157824Y0180520D01*
X0157824Y0180361D01*
X0157983Y0180361D01*
X0157983Y0177802D01*
X0157824Y0177802D01*
X0157824Y0180361D01*
X0153145Y0180361D01*
X0153145Y0177199D01*
X0153281Y0176690D01*
X0152945Y0175879D01*
X0150872Y0174148D02*
X0150872Y0174148D01*
X0150590Y0173866D02*
X0142182Y0173866D01*
X0144581Y0171468D02*
X0147341Y0171468D01*
X0141175Y0166671D02*
X0109913Y0166671D01*
X0104086Y0171025D02*
X0102279Y0169218D01*
X0101557Y0169218D01*
X0101295Y0169327D01*
X0099788Y0169327D01*
X0099526Y0169218D01*
X0095273Y0169218D01*
X0095043Y0169772D01*
X0095343Y0170495D01*
X0095343Y0171025D01*
X0104086Y0171025D01*
X0100541Y0165539D02*
X0090463Y0165539D01*
X0078244Y0169772D02*
X0078106Y0169438D01*
X0077972Y0169573D01*
X0077273Y0169862D01*
X0077945Y0170534D01*
X0077945Y0170495D01*
X0078244Y0169772D01*
X0071536Y0176265D02*
X0070966Y0176265D01*
X0070406Y0178529D02*
X0070908Y0178818D01*
X0071318Y0179228D01*
X0071607Y0179730D01*
X0071757Y0180289D01*
X0071757Y0183747D01*
X0063830Y0183747D01*
X0063830Y0185284D01*
X0071757Y0185284D01*
X0071757Y0188742D01*
X0071607Y0189302D01*
X0071318Y0189804D01*
X0070908Y0190213D01*
X0070406Y0190503D01*
X0069847Y0190653D01*
X0063830Y0190653D01*
X0063830Y0185284D01*
X0062293Y0185284D01*
X0062293Y0183747D01*
X0063830Y0183747D01*
X0063830Y0178379D01*
X0069847Y0178379D01*
X0070406Y0178529D01*
X0070639Y0178663D02*
X0073934Y0178663D01*
X0071757Y0181062D02*
X0076333Y0181062D01*
X0077768Y0182497D02*
X0077768Y0182497D01*
X0078415Y0183460D02*
X0071757Y0183460D01*
X0071757Y0185859D02*
X0093525Y0185859D01*
X0095924Y0188257D02*
X0071757Y0188257D01*
X0072449Y0193054D02*
X0076791Y0193054D01*
X0078541Y0190656D02*
X0060374Y0190656D01*
X0062293Y0188257D02*
X0063830Y0188257D01*
X0063830Y0185859D02*
X0062293Y0185859D01*
X0062293Y0183747D02*
X0054365Y0183747D01*
X0054365Y0180289D01*
X0054515Y0179730D01*
X0054805Y0179228D01*
X0055214Y0178818D01*
X0055716Y0178529D01*
X0056275Y0178379D01*
X0062293Y0178379D01*
X0062293Y0183747D01*
X0062293Y0183460D02*
X0063830Y0183460D01*
X0063830Y0181062D02*
X0062293Y0181062D01*
X0062293Y0178663D02*
X0063830Y0178663D01*
X0055943Y0176265D02*
X0055815Y0176265D01*
X0055483Y0178663D02*
X0054538Y0178663D01*
X0054365Y0181062D02*
X0046954Y0181062D01*
X0046954Y0183460D02*
X0054365Y0183460D01*
X0054365Y0185859D02*
X0046954Y0185859D01*
X0046954Y0185284D02*
X0046954Y0188742D01*
X0046804Y0189302D01*
X0046514Y0189804D01*
X0046105Y0190213D01*
X0045603Y0190503D01*
X0045044Y0190653D01*
X0040601Y0190653D01*
X0040601Y0185284D01*
X0046954Y0185284D01*
X0046954Y0188257D02*
X0054365Y0188257D01*
X0053937Y0190656D02*
X0034044Y0190656D01*
X0034044Y0193054D02*
X0043341Y0193054D01*
X0043341Y0195453D02*
X0034044Y0195453D01*
X0034044Y0197851D02*
X0043341Y0197851D01*
X0045070Y0200250D02*
X0034044Y0200250D01*
X0034044Y0202648D02*
X0052835Y0202648D01*
X0053519Y0200250D02*
X0051131Y0200250D01*
X0048180Y0200250D02*
X0048021Y0200250D01*
X0048021Y0197851D02*
X0048180Y0197851D01*
X0048180Y0195453D02*
X0048021Y0195453D01*
X0048021Y0193054D02*
X0048180Y0193054D01*
X0040601Y0188257D02*
X0039064Y0188257D01*
X0039064Y0185859D02*
X0040601Y0185859D01*
X0040601Y0183460D02*
X0039064Y0183460D01*
X0039064Y0181062D02*
X0040601Y0181062D01*
X0040601Y0178663D02*
X0039064Y0178663D01*
X0034044Y0176265D02*
X0047472Y0176265D01*
X0047870Y0173866D02*
X0034044Y0173866D01*
X0034044Y0171468D02*
X0054952Y0171468D01*
X0054952Y0169069D02*
X0034044Y0169069D01*
X0034044Y0166671D02*
X0054952Y0166671D01*
X0063455Y0163612D02*
X0063455Y0160697D01*
X0063455Y0160697D01*
X0063455Y0163612D01*
X0063455Y0163612D01*
X0063455Y0161874D02*
X0063455Y0161874D01*
X0063455Y0160697D02*
X0063455Y0157513D01*
X0063455Y0160697D01*
X0063455Y0160697D01*
X0063455Y0159475D02*
X0063455Y0159475D01*
X0054755Y0154678D02*
X0053717Y0154678D01*
X0051167Y0130693D02*
X0057121Y0130693D01*
X0054524Y0128294D02*
X0053763Y0128294D01*
X0053733Y0123497D02*
X0054555Y0123497D01*
X0047300Y0121099D02*
X0034044Y0121099D01*
X0034044Y0123497D02*
X0044555Y0123497D01*
X0043972Y0125896D02*
X0034044Y0125896D01*
X0034044Y0128294D02*
X0044524Y0128294D01*
X0047121Y0130693D02*
X0034044Y0130693D01*
X0034044Y0085121D02*
X0035011Y0085121D01*
X0034044Y0082723D02*
X0038470Y0082723D01*
X0121837Y0135490D02*
X0137483Y0135490D01*
X0139881Y0133091D02*
X0127486Y0133091D01*
X0127644Y0130693D02*
X0142280Y0130693D01*
X0144678Y0128294D02*
X0127402Y0128294D01*
X0127644Y0125896D02*
X0127976Y0125896D01*
X0139379Y0125896D02*
X0139538Y0125896D01*
X0139538Y0126145D02*
X0139538Y0121072D01*
X0144218Y0121072D01*
X0144218Y0124235D01*
X0144068Y0124794D01*
X0143778Y0125296D01*
X0143369Y0125705D01*
X0142867Y0125995D01*
X0142307Y0126145D01*
X0139538Y0126145D01*
X0139538Y0123497D02*
X0139379Y0123497D01*
X0139379Y0121099D02*
X0139538Y0121099D01*
X0143392Y0116302D02*
X0156671Y0116302D01*
X0157184Y0113903D02*
X0144418Y0113903D01*
X0144418Y0111505D02*
X0157184Y0111505D01*
X0157184Y0109106D02*
X0144418Y0109106D01*
X0144235Y0106708D02*
X0157184Y0106708D01*
X0163584Y0111505D02*
X0201696Y0111505D01*
X0201630Y0113903D02*
X0163584Y0113903D01*
X0163584Y0116302D02*
X0203863Y0116302D01*
X0206669Y0116302D02*
X0222945Y0116302D01*
X0222945Y0118700D02*
X0163191Y0118700D01*
X0160925Y0121099D02*
X0222945Y0121099D01*
X0222945Y0123497D02*
X0158526Y0123497D01*
X0156128Y0125896D02*
X0222945Y0125896D01*
X0222945Y0128294D02*
X0153729Y0128294D01*
X0151331Y0130693D02*
X0222945Y0130693D01*
X0222945Y0133091D02*
X0148932Y0133091D01*
X0146534Y0135490D02*
X0222945Y0135490D01*
X0222945Y0137888D02*
X0205599Y0137888D01*
X0205232Y0137736D02*
X0206624Y0138313D01*
X0207689Y0139378D01*
X0208266Y0140770D01*
X0208266Y0142277D01*
X0207689Y0143669D01*
X0206624Y0144734D01*
X0205232Y0145311D01*
X0203725Y0145311D01*
X0202333Y0144734D01*
X0201268Y0143669D01*
X0200691Y0142277D01*
X0200691Y0140770D01*
X0201268Y0139378D01*
X0202333Y0138313D01*
X0203725Y0137736D01*
X0205232Y0137736D01*
X0203358Y0137888D02*
X0144135Y0137888D01*
X0141737Y0140287D02*
X0200891Y0140287D01*
X0200860Y0142685D02*
X0139338Y0142685D01*
X0135084Y0137888D02*
X0132140Y0137888D01*
X0127998Y0137888D02*
X0124236Y0137888D01*
X0131431Y0145084D02*
X0203177Y0145084D01*
X0205780Y0145084D02*
X0222945Y0145084D01*
X0222945Y0147482D02*
X0133830Y0147482D01*
X0136228Y0149881D02*
X0204520Y0149881D01*
X0203323Y0152279D02*
X0138627Y0152279D01*
X0139395Y0178663D02*
X0153145Y0178663D01*
X0153145Y0181062D02*
X0140746Y0181062D01*
X0142937Y0183460D02*
X0153145Y0183460D01*
X0148502Y0185859D02*
X0145328Y0185859D01*
X0145764Y0188257D02*
X0147935Y0188257D01*
X0149042Y0190656D02*
X0146196Y0190656D01*
X0148594Y0193054D02*
X0153619Y0193054D01*
X0147209Y0199246D02*
X0146143Y0198805D01*
X0141222Y0193884D01*
X0140406Y0193068D01*
X0139964Y0192002D01*
X0139964Y0190910D01*
X0139677Y0191602D01*
X0139367Y0191913D01*
X0139367Y0203912D01*
X0141222Y0202057D01*
X0142287Y0201616D01*
X0158592Y0201616D01*
X0159894Y0200314D01*
X0160710Y0199498D01*
X0161318Y0199246D01*
X0147209Y0199246D01*
X0145189Y0197851D02*
X0139367Y0197851D01*
X0139367Y0195453D02*
X0142791Y0195453D01*
X0140400Y0193054D02*
X0139367Y0193054D01*
X0139367Y0200250D02*
X0159958Y0200250D01*
X0161759Y0193446D02*
X0162015Y0193446D01*
X0161976Y0193436D01*
X0161869Y0193374D01*
X0161822Y0193420D01*
X0161759Y0193446D01*
X0165464Y0188513D02*
X0170143Y0188513D01*
X0170143Y0191675D01*
X0169993Y0192235D01*
X0169703Y0192737D01*
X0169294Y0193146D01*
X0168792Y0193436D01*
X0168753Y0193446D01*
X0174045Y0193446D01*
X0178517Y0188975D01*
X0179583Y0188533D01*
X0180443Y0188533D01*
X0187008Y0181968D01*
X0186110Y0181071D01*
X0185632Y0179916D01*
X0184813Y0179577D01*
X0183748Y0178512D01*
X0183171Y0177120D01*
X0183171Y0176483D01*
X0174734Y0168046D01*
X0169604Y0168046D01*
X0169703Y0168145D01*
X0169993Y0168647D01*
X0170143Y0169206D01*
X0170143Y0172369D01*
X0165464Y0172369D01*
X0165464Y0172528D01*
X0170143Y0172528D01*
X0170143Y0175691D01*
X0170007Y0176199D01*
X0170202Y0176669D01*
X0171048Y0176319D01*
X0172555Y0176319D01*
X0173947Y0176895D01*
X0175012Y0177961D01*
X0175589Y0179353D01*
X0175589Y0180860D01*
X0175012Y0182252D01*
X0173947Y0183317D01*
X0172555Y0183894D01*
X0171048Y0183894D01*
X0170343Y0183602D01*
X0170343Y0183871D01*
X0170007Y0184683D01*
X0170143Y0185191D01*
X0170143Y0188354D01*
X0165464Y0188354D01*
X0165464Y0188513D01*
X0165463Y0188353D02*
X0165463Y0185794D01*
X0165304Y0185794D01*
X0165304Y0188353D01*
X0165463Y0188353D01*
X0165463Y0188257D02*
X0165304Y0188257D01*
X0165304Y0185859D02*
X0165463Y0185859D01*
X0170143Y0185859D02*
X0183117Y0185859D01*
X0180718Y0188257D02*
X0170143Y0188257D01*
X0170143Y0190656D02*
X0176836Y0190656D01*
X0174437Y0193054D02*
X0169386Y0193054D01*
X0173601Y0183460D02*
X0185516Y0183460D01*
X0186106Y0181062D02*
X0175505Y0181062D01*
X0175303Y0178663D02*
X0183900Y0178663D01*
X0182953Y0176265D02*
X0170034Y0176265D01*
X0170143Y0173866D02*
X0180554Y0173866D01*
X0178156Y0171468D02*
X0170143Y0171468D01*
X0170106Y0169069D02*
X0175757Y0169069D01*
X0183100Y0164272D02*
X0191999Y0164272D01*
X0189899Y0166671D02*
X0185498Y0166671D01*
X0187897Y0169069D02*
X0189669Y0169069D01*
X0195469Y0169069D02*
X0205332Y0169069D01*
X0205664Y0168737D02*
X0206683Y0168315D01*
X0205664Y0167893D01*
X0204145Y0166374D01*
X0204103Y0166274D01*
X0198199Y0166274D01*
X0195469Y0169004D01*
X0195469Y0181175D01*
X0195027Y0182241D01*
X0194212Y0183057D01*
X0194057Y0183121D01*
X0187804Y0189374D01*
X0188398Y0189969D01*
X0188974Y0191361D01*
X0188974Y0192868D01*
X0188398Y0194260D01*
X0188087Y0194570D01*
X0188087Y0195939D01*
X0187646Y0197005D01*
X0171544Y0213106D01*
X0172367Y0212765D01*
X0181983Y0212765D01*
X0182790Y0213100D01*
X0182790Y0212942D01*
X0187470Y0212942D01*
X0187470Y0212783D01*
X0182790Y0212783D01*
X0182790Y0209620D01*
X0182940Y0209060D01*
X0183230Y0208559D01*
X0183639Y0208149D01*
X0184141Y0207859D01*
X0184701Y0207709D01*
X0187470Y0207709D01*
X0187470Y0212783D01*
X0187629Y0212783D01*
X0187629Y0207709D01*
X0190398Y0207709D01*
X0190958Y0207859D01*
X0191065Y0207921D01*
X0191111Y0207875D01*
X0191993Y0207509D01*
X0198066Y0207509D01*
X0198948Y0207875D01*
X0199623Y0208550D01*
X0199989Y0209432D01*
X0199989Y0214997D01*
X0200005Y0214990D01*
X0207259Y0214990D01*
X0208141Y0215355D01*
X0208816Y0216030D01*
X0209144Y0216821D01*
X0209471Y0216030D01*
X0210146Y0215355D01*
X0211029Y0214990D01*
X0218283Y0214990D01*
X0218323Y0215006D01*
X0212031Y0208715D01*
X0207648Y0208715D01*
X0205664Y0207893D01*
X0204145Y0206374D01*
X0203323Y0204389D01*
X0203323Y0202241D01*
X0204145Y0200256D01*
X0205664Y0198737D01*
X0206683Y0198315D01*
X0205664Y0197893D01*
X0204145Y0196374D01*
X0203323Y0194389D01*
X0203323Y0192241D01*
X0204145Y0190256D01*
X0205664Y0188737D01*
X0206947Y0188206D01*
X0206726Y0188134D01*
X0205997Y0187762D01*
X0205335Y0187281D01*
X0204756Y0186703D01*
X0204275Y0186040D01*
X0203903Y0185311D01*
X0203651Y0184533D01*
X0203523Y0183724D01*
X0203523Y0183315D01*
X0203523Y0182906D01*
X0203651Y0182097D01*
X0203903Y0181319D01*
X0204275Y0180590D01*
X0204756Y0179927D01*
X0205335Y0179349D01*
X0205997Y0178868D01*
X0206726Y0178496D01*
X0206947Y0178424D01*
X0205664Y0177893D01*
X0204145Y0176374D01*
X0203323Y0174389D01*
X0203323Y0172241D01*
X0204145Y0170256D01*
X0205664Y0168737D01*
X0204441Y0166671D02*
X0197803Y0166671D01*
X0195469Y0171468D02*
X0203643Y0171468D01*
X0203323Y0173866D02*
X0195469Y0173866D01*
X0195469Y0176265D02*
X0204099Y0176265D01*
X0206398Y0178663D02*
X0195469Y0178663D01*
X0195469Y0181062D02*
X0204035Y0181062D01*
X0203523Y0183315D02*
X0211722Y0183315D01*
X0211722Y0183315D01*
X0203523Y0183315D01*
X0203523Y0183460D02*
X0193718Y0183460D01*
X0191319Y0185859D02*
X0204183Y0185859D01*
X0206822Y0188257D02*
X0188921Y0188257D01*
X0188682Y0190656D02*
X0203979Y0190656D01*
X0203323Y0193054D02*
X0188897Y0193054D01*
X0188087Y0195453D02*
X0203763Y0195453D01*
X0205622Y0197851D02*
X0186799Y0197851D01*
X0184401Y0200250D02*
X0204151Y0200250D01*
X0203323Y0202648D02*
X0182002Y0202648D01*
X0179604Y0205047D02*
X0203595Y0205047D01*
X0205216Y0207445D02*
X0177205Y0207445D01*
X0174807Y0209844D02*
X0182790Y0209844D01*
X0182790Y0212242D02*
X0172408Y0212242D01*
X0170785Y0213865D02*
X0170224Y0214426D01*
X0169409Y0215242D01*
X0168343Y0215683D01*
X0163751Y0215683D01*
X0163234Y0216200D01*
X0163234Y0216346D01*
X0162918Y0216346D01*
X0162917Y0216347D01*
X0163234Y0216347D01*
X0163234Y0217817D01*
X0163084Y0218377D01*
X0162921Y0218659D01*
X0163068Y0218806D01*
X0163434Y0219688D01*
X0163434Y0221104D01*
X0164695Y0221104D01*
X0166911Y0218888D01*
X0167976Y0218446D01*
X0170627Y0218446D01*
X0170445Y0218005D01*
X0170445Y0214688D01*
X0170785Y0213865D01*
X0170464Y0214641D02*
X0170010Y0214641D01*
X0170445Y0217039D02*
X0163234Y0217039D01*
X0163330Y0219438D02*
X0166361Y0219438D01*
X0169754Y0224246D02*
X0167538Y0226462D01*
X0166473Y0226904D01*
X0163234Y0226904D01*
X0163234Y0227817D01*
X0163084Y0228377D01*
X0162921Y0228659D01*
X0163068Y0228806D01*
X0163434Y0229688D01*
X0163434Y0232324D01*
X0170445Y0232324D01*
X0170445Y0229688D01*
X0170793Y0228846D01*
X0170445Y0228005D01*
X0170445Y0224688D01*
X0170627Y0224246D01*
X0169754Y0224246D01*
X0170445Y0226633D02*
X0167126Y0226633D01*
X0170716Y0229032D02*
X0163162Y0229032D01*
X0163434Y0231430D02*
X0170445Y0231430D01*
X0172465Y0238124D02*
X0174211Y0238847D01*
X0175730Y0240366D01*
X0176152Y0241385D01*
X0176574Y0240366D01*
X0178093Y0238847D01*
X0179838Y0238124D01*
X0172465Y0238124D01*
X0173676Y0238626D02*
X0178627Y0238626D01*
X0176301Y0241024D02*
X0176002Y0241024D01*
X0166421Y0240736D02*
X0165777Y0240093D01*
X0165158Y0240093D01*
X0165599Y0240700D01*
X0165971Y0241429D01*
X0166042Y0241649D01*
X0166421Y0240736D01*
X0166301Y0241024D02*
X0165764Y0241024D01*
X0149972Y0232324D02*
X0149972Y0229688D01*
X0150338Y0228806D01*
X0150485Y0228659D01*
X0150322Y0228377D01*
X0150172Y0227817D01*
X0150172Y0226973D01*
X0149931Y0227215D01*
X0148539Y0227791D01*
X0147032Y0227791D01*
X0145640Y0227215D01*
X0144575Y0226149D01*
X0143998Y0224757D01*
X0143998Y0224246D01*
X0141876Y0224246D01*
X0141269Y0224853D01*
X0139877Y0225429D01*
X0139367Y0225429D01*
X0139367Y0228610D01*
X0143081Y0232324D01*
X0149972Y0232324D01*
X0149972Y0231430D02*
X0142187Y0231430D01*
X0139789Y0229032D02*
X0150244Y0229032D01*
X0145059Y0226633D02*
X0139367Y0226633D01*
X0131697Y0226452D02*
X0130521Y0225276D01*
X0130890Y0225429D01*
X0131697Y0225429D01*
X0131697Y0226452D01*
X0129188Y0218742D02*
X0129498Y0218431D01*
X0130890Y0217854D01*
X0131697Y0217854D01*
X0131697Y0192816D01*
X0112519Y0211994D01*
X0111483Y0212423D01*
X0111809Y0213211D01*
X0111809Y0214718D01*
X0111233Y0216110D01*
X0110167Y0217175D01*
X0109715Y0217363D01*
X0108336Y0218742D01*
X0129188Y0218742D01*
X0131697Y0217039D02*
X0110303Y0217039D01*
X0111809Y0214641D02*
X0131697Y0214641D01*
X0131697Y0212242D02*
X0111919Y0212242D01*
X0114669Y0209844D02*
X0131697Y0209844D01*
X0131697Y0207445D02*
X0117067Y0207445D01*
X0119466Y0205047D02*
X0131697Y0205047D01*
X0131697Y0202648D02*
X0121864Y0202648D01*
X0124263Y0200250D02*
X0131697Y0200250D01*
X0131697Y0197851D02*
X0126662Y0197851D01*
X0129060Y0195453D02*
X0131697Y0195453D01*
X0131697Y0193054D02*
X0131459Y0193054D01*
X0124940Y0185859D02*
X0103708Y0185859D01*
X0106106Y0188257D02*
X0122541Y0188257D01*
X0120143Y0190656D02*
X0108505Y0190656D01*
X0110888Y0193054D02*
X0117744Y0193054D01*
X0115346Y0195453D02*
X0111425Y0195453D01*
X0111425Y0197851D02*
X0112947Y0197851D01*
X0108612Y0200972D02*
X0107825Y0200185D01*
X0107825Y0195067D01*
X0093612Y0180854D01*
X0096512Y0178663D02*
X0128912Y0178663D01*
X0127856Y0181062D02*
X0098911Y0181062D01*
X0101309Y0183460D02*
X0127338Y0183460D01*
X0134376Y0178663D02*
X0134522Y0178663D01*
X0139367Y0202648D02*
X0140631Y0202648D01*
X0139367Y0212673D02*
X0139367Y0213361D01*
X0139450Y0213278D01*
X0139818Y0213125D01*
X0139367Y0212673D01*
X0147246Y0218446D02*
X0150362Y0218446D01*
X0150322Y0218377D01*
X0150172Y0217817D01*
X0150172Y0216668D01*
X0149380Y0216668D01*
X0147853Y0218195D01*
X0147246Y0218446D01*
X0149009Y0217039D02*
X0150172Y0217039D01*
X0167221Y0209227D02*
X0167221Y0206301D01*
X0167057Y0205906D01*
X0167321Y0205269D01*
X0167321Y0204857D01*
X0171591Y0204857D01*
X0167221Y0209227D01*
X0167221Y0207445D02*
X0169003Y0207445D01*
X0167321Y0205047D02*
X0171401Y0205047D01*
X0187470Y0209844D02*
X0187629Y0209844D01*
X0187629Y0212242D02*
X0187470Y0212242D01*
X0199989Y0212242D02*
X0215559Y0212242D01*
X0217957Y0214641D02*
X0199989Y0214641D01*
X0199989Y0209844D02*
X0213160Y0209844D01*
X0211723Y0203315D02*
X0222195Y0213787D01*
X0222195Y0250185D01*
X0217864Y0254516D01*
X0146604Y0254516D01*
X0141093Y0249004D01*
X0141093Y0246484D01*
X0141152Y0246425D01*
X0123258Y0228531D01*
X0102116Y0228531D01*
X0099659Y0231430D02*
X0034044Y0231430D01*
X0034044Y0229032D02*
X0098329Y0229032D01*
X0104872Y0217114D02*
X0108022Y0213965D01*
X0104460Y0212435D02*
X0096844Y0212435D01*
X0096844Y0213370D01*
X0096784Y0213514D01*
X0103381Y0213514D01*
X0104460Y0212435D01*
X0104872Y0217114D02*
X0076526Y0217114D01*
X0074163Y0214752D01*
X0074163Y0200579D01*
X0077049Y0197693D01*
X0081658Y0197693D01*
X0086658Y0202010D02*
X0086066Y0203438D01*
X0085697Y0203808D01*
X0085920Y0204115D01*
X0086277Y0204816D01*
X0086512Y0205537D01*
X0087235Y0203790D01*
X0087418Y0203607D01*
X0087249Y0203438D01*
X0086658Y0202010D01*
X0086393Y0202648D02*
X0086922Y0202648D01*
X0086715Y0205047D02*
X0086352Y0205047D01*
X0095883Y0203621D02*
X0096052Y0203790D01*
X0096844Y0205701D01*
X0096844Y0206635D01*
X0104543Y0206635D01*
X0104411Y0206581D01*
X0097765Y0199935D01*
X0096858Y0199935D01*
X0096858Y0201527D01*
X0096066Y0203438D01*
X0095883Y0203621D01*
X0096393Y0202648D02*
X0100478Y0202648D01*
X0098080Y0200250D02*
X0096858Y0200250D01*
X0096573Y0205047D02*
X0102877Y0205047D01*
X0103884Y0197851D02*
X0104225Y0197851D01*
X0103119Y0195453D02*
X0101485Y0195453D01*
X0100721Y0193054D02*
X0096524Y0193054D01*
X0094774Y0190656D02*
X0098322Y0190656D01*
X0088541Y0190656D02*
X0084774Y0190656D01*
X0086524Y0193054D02*
X0086791Y0193054D01*
X0085503Y0183460D02*
X0088257Y0183460D01*
X0087826Y0181062D02*
X0085934Y0181062D01*
X0074198Y0195453D02*
X0072449Y0195453D01*
X0061509Y0199698D02*
X0061074Y0200133D01*
X0060869Y0200218D01*
X0061350Y0200218D01*
X0061350Y0200082D01*
X0061509Y0199698D01*
X0061350Y0206018D02*
X0057668Y0206018D01*
X0051452Y0212234D01*
X0057042Y0212234D01*
X0057925Y0212599D01*
X0058600Y0213274D01*
X0058965Y0214156D01*
X0058965Y0218742D01*
X0073062Y0218742D01*
X0071112Y0216791D01*
X0070563Y0215468D01*
X0070563Y0208062D01*
X0070527Y0208077D01*
X0063273Y0208077D01*
X0062391Y0207712D01*
X0061715Y0207037D01*
X0061350Y0206155D01*
X0061350Y0206018D01*
X0062124Y0207445D02*
X0056241Y0207445D01*
X0053842Y0209844D02*
X0070563Y0209844D01*
X0070563Y0212242D02*
X0057063Y0212242D01*
X0058965Y0214641D02*
X0070563Y0214641D01*
X0071360Y0217039D02*
X0058965Y0217039D01*
X0048327Y0226633D02*
X0034044Y0226633D01*
X0034044Y0224235D02*
X0045687Y0224235D01*
X0043675Y0221836D02*
X0034044Y0221836D01*
X0034044Y0219438D02*
X0043508Y0219438D01*
X0043508Y0217039D02*
X0034044Y0217039D01*
X0034044Y0214641D02*
X0043508Y0214641D01*
X0043656Y0212242D02*
X0034044Y0212242D01*
X0034044Y0209844D02*
X0045640Y0209844D01*
X0048038Y0207445D02*
X0034044Y0207445D01*
X0034044Y0205047D02*
X0050437Y0205047D01*
X0048750Y0178663D02*
X0045836Y0178663D01*
X0034044Y0233829D02*
X0123464Y0233829D01*
X0125863Y0236227D02*
X0034044Y0236227D01*
X0034044Y0238626D02*
X0128261Y0238626D01*
X0130660Y0241024D02*
X0111622Y0241024D01*
X0112006Y0243423D02*
X0133058Y0243423D01*
X0135457Y0245821D02*
X0110458Y0245821D01*
X0105979Y0245821D02*
X0093137Y0245821D01*
X0095535Y0248220D02*
X0100962Y0248220D01*
X0103664Y0248220D02*
X0135752Y0248220D01*
X0135801Y0250618D02*
X0105940Y0250618D01*
X0105892Y0253017D02*
X0137107Y0253017D01*
X0142413Y0255415D02*
X0103385Y0255415D01*
X0101242Y0255415D02*
X0092715Y0255415D01*
X0091969Y0257814D02*
X0145160Y0257814D01*
X0143552Y0256555D02*
X0143552Y0256555D01*
X0183633Y0229030D02*
X0183614Y0228983D01*
X0183661Y0229002D01*
X0183633Y0229030D01*
X0188844Y0232941D02*
X0188844Y0232941D01*
X0195294Y0232941D01*
X0195294Y0235613D01*
X0195137Y0235769D01*
X0207868Y0235769D01*
X0207794Y0235695D01*
X0207794Y0230186D01*
X0211104Y0226876D01*
X0211029Y0226876D01*
X0210146Y0226511D01*
X0209471Y0225836D01*
X0209144Y0225045D01*
X0208816Y0225836D01*
X0208141Y0226511D01*
X0207259Y0226876D01*
X0200005Y0226876D01*
X0199123Y0226511D01*
X0198647Y0226035D01*
X0197948Y0226325D01*
X0196810Y0226325D01*
X0196554Y0226581D01*
X0194507Y0228628D01*
X0193903Y0228878D01*
X0195294Y0230269D01*
X0195294Y0232941D01*
X0188844Y0232941D01*
X0195294Y0233829D02*
X0207794Y0233829D01*
X0207794Y0231430D02*
X0195294Y0231430D01*
X0194056Y0229032D02*
X0208948Y0229032D01*
X0207846Y0226633D02*
X0210442Y0226633D01*
X0217784Y0226876D02*
X0218595Y0227688D01*
X0218595Y0226747D01*
X0218283Y0226876D01*
X0217784Y0226876D01*
X0218595Y0238194D02*
X0217198Y0239591D01*
X0214954Y0239591D01*
X0215730Y0240366D01*
X0216552Y0242351D01*
X0216552Y0250499D01*
X0216383Y0250905D01*
X0218595Y0248694D01*
X0218595Y0238194D01*
X0218595Y0238626D02*
X0218163Y0238626D01*
X0218595Y0241024D02*
X0216002Y0241024D01*
X0216552Y0243423D02*
X0218595Y0243423D01*
X0218595Y0245821D02*
X0216552Y0245821D01*
X0216552Y0248220D02*
X0218595Y0248220D01*
X0216670Y0250618D02*
X0216502Y0250618D01*
X0222056Y0255415D02*
X0222945Y0255415D01*
X0222945Y0257814D02*
X0219309Y0257814D01*
X0199418Y0226633D02*
X0196501Y0226633D01*
X0220944Y0207445D02*
X0222945Y0207445D01*
X0222945Y0205047D02*
X0219850Y0205047D01*
X0220123Y0202648D02*
X0222945Y0202648D01*
X0222945Y0200250D02*
X0219294Y0200250D01*
X0217823Y0197851D02*
X0222945Y0197851D01*
X0222945Y0195453D02*
X0219682Y0195453D01*
X0220123Y0193054D02*
X0222945Y0193054D01*
X0222945Y0190656D02*
X0219466Y0190656D01*
X0216623Y0188257D02*
X0222945Y0188257D01*
X0222945Y0185859D02*
X0219263Y0185859D01*
X0219923Y0183460D02*
X0222945Y0183460D01*
X0222945Y0181062D02*
X0219410Y0181062D01*
X0219923Y0183315D02*
X0211723Y0183315D01*
X0219923Y0183315D01*
X0217047Y0178663D02*
X0222945Y0178663D01*
X0222945Y0176265D02*
X0219346Y0176265D01*
X0220123Y0173866D02*
X0222945Y0173866D01*
X0222945Y0171468D02*
X0219802Y0171468D01*
X0218113Y0169069D02*
X0222945Y0169069D01*
X0222945Y0166671D02*
X0219004Y0166671D01*
X0220123Y0164272D02*
X0222945Y0164272D01*
X0222945Y0161874D02*
X0219970Y0161874D01*
X0218519Y0159475D02*
X0222945Y0159475D01*
X0222945Y0157077D02*
X0218598Y0157077D01*
X0220003Y0154678D02*
X0222945Y0154678D01*
X0222945Y0152279D02*
X0220123Y0152279D01*
X0218925Y0149881D02*
X0222945Y0149881D01*
X0222945Y0142685D02*
X0208097Y0142685D01*
X0208066Y0140287D02*
X0222945Y0140287D01*
X0204847Y0157077D02*
X0182474Y0157077D01*
X0184053Y0159475D02*
X0204926Y0159475D01*
X0203442Y0154678D02*
X0175743Y0154678D01*
X0176179Y0157077D02*
X0178058Y0157077D01*
X0183682Y0161874D02*
X0194397Y0161874D01*
X0211723Y0183315D02*
X0211723Y0183315D01*
X0157983Y0178663D02*
X0157824Y0178663D01*
X0147077Y0125896D02*
X0143039Y0125896D01*
X0144218Y0123497D02*
X0149475Y0123497D01*
X0151874Y0121099D02*
X0144218Y0121099D01*
X0144218Y0118700D02*
X0154272Y0118700D01*
X0196293Y0073129D02*
X0222945Y0073129D01*
X0222945Y0075527D02*
X0198691Y0075527D01*
X0201090Y0077926D02*
X0222945Y0077926D01*
X0222945Y0080324D02*
X0203488Y0080324D01*
X0205887Y0082723D02*
X0222945Y0082723D01*
X0222945Y0085121D02*
X0208285Y0085121D01*
X0210684Y0087520D02*
X0222945Y0087520D01*
X0222945Y0089918D02*
X0213082Y0089918D01*
X0215205Y0092317D02*
X0222945Y0092317D01*
X0222945Y0094715D02*
X0215559Y0094715D01*
X0215559Y0097114D02*
X0222945Y0097114D01*
X0222945Y0099512D02*
X0215559Y0099512D01*
X0215559Y0101911D02*
X0222945Y0101911D01*
X0222945Y0104309D02*
X0215559Y0104309D01*
X0215559Y0106708D02*
X0222945Y0106708D01*
X0222945Y0109106D02*
X0214034Y0109106D01*
X0211636Y0111505D02*
X0222945Y0111505D01*
X0222945Y0113903D02*
X0209237Y0113903D01*
X0222945Y0070730D02*
X0193894Y0070730D01*
X0045617Y0241024D02*
X0034044Y0241024D01*
X0034044Y0243423D02*
X0043218Y0243423D01*
X0040820Y0245821D02*
X0034044Y0245821D01*
X0034044Y0248220D02*
X0039471Y0248220D01*
X0039471Y0250618D02*
X0034044Y0250618D01*
X0034044Y0253017D02*
X0039548Y0253017D01*
X0041411Y0255415D02*
X0034044Y0255415D01*
X0034044Y0257814D02*
X0041913Y0257814D01*
X0049190Y0258494D02*
X0054381Y0258494D01*
X0054214Y0258327D01*
X0053924Y0257826D01*
X0053774Y0257266D01*
X0053774Y0255500D01*
X0057549Y0255500D01*
X0057549Y0255500D01*
X0053774Y0255500D01*
X0053774Y0253734D01*
X0053924Y0253174D01*
X0054173Y0252744D01*
X0053924Y0252314D01*
X0053774Y0251754D01*
X0053774Y0249988D01*
X0053774Y0248222D01*
X0053869Y0247870D01*
X0052099Y0247870D01*
X0049713Y0250256D01*
X0049713Y0251942D01*
X0049381Y0252744D01*
X0049713Y0253546D01*
X0049713Y0257454D01*
X0049348Y0258336D01*
X0049190Y0258494D01*
X0049564Y0257814D02*
X0053921Y0257814D01*
X0053774Y0255415D02*
X0049713Y0255415D01*
X0049494Y0253017D02*
X0054015Y0253017D01*
X0053774Y0250618D02*
X0049713Y0250618D01*
X0051749Y0248220D02*
X0053775Y0248220D01*
X0053774Y0249988D02*
X0057549Y0249988D01*
X0057549Y0249988D01*
X0053774Y0249988D01*
X0057549Y0249988D02*
X0057549Y0255500D01*
X0057549Y0255500D01*
X0057549Y0253665D01*
X0057549Y0249988D01*
X0057549Y0249988D01*
X0057549Y0249988D01*
X0061324Y0249988D01*
X0061324Y0248222D01*
X0061230Y0247870D01*
X0067058Y0247870D01*
X0066963Y0248222D01*
X0066963Y0249988D01*
X0070738Y0249988D01*
X0070738Y0249988D01*
X0066963Y0249988D01*
X0066963Y0251754D01*
X0067113Y0252314D01*
X0067362Y0252744D01*
X0067113Y0253174D01*
X0066963Y0253734D01*
X0066963Y0255500D01*
X0070738Y0255500D01*
X0070738Y0255500D01*
X0066963Y0255500D01*
X0066963Y0257266D01*
X0067113Y0257826D01*
X0067403Y0258327D01*
X0067570Y0258494D01*
X0060718Y0258494D01*
X0060885Y0258327D01*
X0061174Y0257826D01*
X0061324Y0257266D01*
X0061324Y0255500D01*
X0057549Y0255500D01*
X0057549Y0255500D01*
X0061324Y0255500D01*
X0061324Y0253734D01*
X0061174Y0253174D01*
X0060926Y0252744D01*
X0061174Y0252314D01*
X0061324Y0251754D01*
X0061324Y0249988D01*
X0057549Y0249988D01*
X0057549Y0250618D02*
X0057549Y0250618D01*
X0057549Y0253017D02*
X0057549Y0253017D01*
X0057549Y0255415D02*
X0057549Y0255415D01*
X0061324Y0255415D02*
X0066963Y0255415D01*
X0067110Y0257814D02*
X0061177Y0257814D01*
X0061083Y0253017D02*
X0067204Y0253017D01*
X0066963Y0250618D02*
X0061324Y0250618D01*
X0061323Y0248220D02*
X0066964Y0248220D01*
X0070738Y0249988D02*
X0070738Y0253665D01*
X0070738Y0255500D01*
X0070738Y0255500D01*
X0070738Y0249988D01*
X0070738Y0249988D01*
X0070738Y0249988D01*
X0074513Y0249988D01*
X0074513Y0248222D01*
X0074419Y0247870D01*
X0078643Y0247870D01*
X0078574Y0248034D01*
X0078574Y0251942D01*
X0078907Y0252744D01*
X0078574Y0253546D01*
X0078574Y0257454D01*
X0078940Y0258336D01*
X0079098Y0258494D01*
X0073907Y0258494D01*
X0074074Y0258327D01*
X0074363Y0257826D01*
X0074513Y0257266D01*
X0074513Y0255500D01*
X0070738Y0255500D01*
X0070738Y0255500D01*
X0074513Y0255500D01*
X0074513Y0253734D01*
X0074363Y0253174D01*
X0074115Y0252744D01*
X0074363Y0252314D01*
X0074513Y0251754D01*
X0074513Y0249988D01*
X0070738Y0249988D01*
X0070738Y0250618D02*
X0070738Y0250618D01*
X0070738Y0253017D02*
X0070738Y0253017D01*
X0070738Y0255415D02*
X0070738Y0255415D01*
X0074513Y0255415D02*
X0078574Y0255415D01*
X0078724Y0257814D02*
X0074366Y0257814D01*
X0074272Y0253017D02*
X0078794Y0253017D01*
X0078574Y0250618D02*
X0074513Y0250618D01*
X0074512Y0248220D02*
X0078574Y0248220D01*
X0091800Y0253017D02*
X0091847Y0253017D01*
D31*
X0125148Y0224004D02*
X0049557Y0224004D01*
X0046408Y0220854D01*
X0046408Y0213177D01*
X0056467Y0203118D01*
X0066900Y0203118D01*
X0055758Y0221445D02*
X0055955Y0221642D01*
X0131644Y0221642D01*
X0125148Y0224004D02*
X0140305Y0239161D01*
X0155266Y0239161D01*
X0156053Y0239949D01*
X0166978Y0237193D02*
X0171152Y0241366D01*
X0171152Y0246425D01*
X0166978Y0237193D02*
X0140896Y0237193D01*
X0134695Y0230992D01*
X0134695Y0230795D01*
X0134597Y0230697D01*
X0134597Y0191524D01*
X0133809Y0190736D01*
X0133809Y0188177D01*
X0135581Y0186406D01*
X0137943Y0186406D01*
X0136467Y0189457D02*
X0136467Y0229811D01*
X0141880Y0235224D01*
X0181250Y0235224D01*
X0184695Y0238669D01*
X0210778Y0238669D01*
X0211152Y0239043D01*
X0211152Y0246425D01*
X0192864Y0226169D02*
X0194912Y0224122D01*
X0194912Y0220972D01*
X0192864Y0226169D02*
X0184400Y0226169D01*
X0183415Y0225185D01*
X0183415Y0217311D01*
X0182431Y0216327D01*
X0177195Y0216327D01*
X0177175Y0216346D01*
X0177175Y0221346D02*
X0168553Y0221346D01*
X0165896Y0224004D01*
X0147786Y0224004D01*
X0150758Y0226346D02*
X0148967Y0228138D01*
X0147392Y0228138D01*
X0150758Y0226346D02*
X0156703Y0226346D01*
X0162923Y0226346D01*
X0163140Y0226563D01*
X0156703Y0221346D02*
X0139419Y0221346D01*
X0139124Y0221642D01*
X0139321Y0217508D02*
X0141093Y0215736D01*
X0146211Y0215736D01*
X0148179Y0213768D01*
X0161565Y0213768D01*
X0162549Y0212783D01*
X0167766Y0212783D01*
X0185187Y0195362D01*
X0185187Y0192114D01*
X0181644Y0191433D02*
X0180160Y0191433D01*
X0175246Y0196346D01*
X0147786Y0196346D01*
X0142864Y0191425D01*
X0142864Y0187488D01*
X0136959Y0181583D01*
X0130660Y0187882D01*
X0130660Y0189752D01*
X0110876Y0209535D01*
X0091644Y0209535D01*
X0091658Y0197693D02*
X0092315Y0197035D01*
X0098967Y0197035D01*
X0106053Y0204122D01*
X0110778Y0204122D01*
X0131644Y0183256D01*
X0131644Y0181287D01*
X0138022Y0173925D02*
X0146801Y0165146D01*
X0175935Y0165146D01*
X0186959Y0176169D01*
X0186959Y0176366D01*
X0189616Y0174890D02*
X0189616Y0178630D01*
X0189321Y0178925D01*
X0192478Y0180598D02*
X0181644Y0191433D01*
X0179478Y0196051D02*
X0173573Y0201957D01*
X0162352Y0201957D01*
X0159793Y0204516D01*
X0142864Y0204516D01*
X0139124Y0208256D01*
X0142077Y0210028D02*
X0159597Y0210028D01*
X0161565Y0208059D01*
X0161762Y0210815D02*
X0162746Y0210815D01*
X0164321Y0209240D01*
X0164321Y0206878D01*
X0163534Y0206091D01*
X0163534Y0204516D01*
X0161762Y0210815D02*
X0160581Y0211996D01*
X0145030Y0211996D01*
X0144242Y0212783D01*
X0156703Y0216346D02*
X0164695Y0216346D01*
X0165108Y0215933D01*
X0163927Y0215933D01*
X0163534Y0216327D01*
X0163140Y0216327D01*
X0165384Y0180441D02*
X0165719Y0180106D01*
X0171801Y0180106D01*
X0177608Y0162882D02*
X0189616Y0174890D01*
X0192478Y0180598D02*
X0192569Y0180598D01*
X0192569Y0167803D01*
X0196998Y0163374D01*
X0211663Y0163374D01*
X0211723Y0163315D01*
X0180266Y0160224D02*
X0180167Y0160126D01*
X0139518Y0160126D01*
X0128986Y0149594D01*
X0129085Y0149594D01*
X0100423Y0120933D01*
X0100541Y0115933D02*
X0097044Y0115933D01*
X0100541Y0115933D02*
X0107234Y0122626D01*
X0107234Y0124988D01*
X0138730Y0156484D01*
X0172392Y0156484D01*
X0177608Y0162882D02*
X0109695Y0162882D01*
X0103986Y0157173D01*
X0090384Y0157173D01*
X0082904Y0157173D02*
X0078002Y0162075D01*
X0078002Y0165441D01*
X0082726Y0165441D01*
X0082904Y0165618D01*
X0078002Y0165441D02*
X0076329Y0167114D01*
X0063573Y0167114D01*
X0063455Y0166996D01*
X0063534Y0170067D02*
X0073376Y0170067D01*
X0077234Y0173925D01*
X0082904Y0173925D01*
X0081959Y0180854D02*
X0080226Y0180854D01*
X0072589Y0173217D01*
X0063534Y0173217D01*
X0063455Y0173295D01*
X0063455Y0170146D02*
X0063534Y0170067D01*
X0090384Y0173925D02*
X0138022Y0173925D01*
X0140541Y0110972D02*
X0140148Y0110579D01*
X0139459Y0110579D01*
X0121244Y0105933D02*
X0113967Y0105933D01*
X0109006Y0100972D01*
X0109006Y0084240D01*
X0105108Y0080343D01*
X0105108Y0079161D01*
X0214656Y0220933D02*
X0214444Y0221145D01*
D32*
X0136368Y0141130D02*
X0130069Y0141130D01*
X0136368Y0141130D02*
X0160384Y0117114D01*
X0160384Y0100972D01*
X0140541Y0110972D02*
X0135581Y0115933D01*
X0121244Y0115933D01*
X0121244Y0110933D02*
X0124439Y0110933D01*
X0121244Y0105933D02*
X0121204Y0105894D01*
X0121244Y0100933D02*
X0116841Y0100933D01*
X0113337Y0097429D01*
X0113337Y0088650D01*
X0112707Y0088020D01*
X0105226Y0088020D02*
X0105226Y0094220D01*
X0103494Y0095953D01*
X0097063Y0095953D01*
X0097044Y0095933D01*
X0097044Y0105933D02*
X0074144Y0105933D01*
X0064144Y0115933D01*
X0069636Y0117114D02*
X0069636Y0114161D01*
X0072864Y0110933D01*
X0097044Y0110933D01*
X0121244Y0095933D02*
X0126644Y0095933D01*
X0128593Y0093984D01*
X0128593Y0082665D01*
X0125148Y0079220D01*
X0112648Y0079220D01*
X0112589Y0079161D01*
X0069636Y0117114D02*
X0060817Y0125933D01*
X0059144Y0125933D01*
M02*
