%
M48
M72
T01C0.0157
T02C0.0354
T03C0.0360
T04C0.0400
T05C0.1280
%
T01
X18789Y7843
X17789Y14093
X17789Y13343
X17042Y19310
X17416Y17322
X15369Y16810
X15153Y18355
X13046Y20924
X14267Y19861
X10212Y20570
X12141Y8759
X13125Y16633
X14031Y16633
X6511Y21554
X6432Y25294
X10960Y21790
X10920Y18995
X10920Y18129
X18991Y15924
X14739Y22814
X19345Y15924
X18637Y15924
X17889Y21042
X16590Y22774
X16590Y21711
X13164Y18129
X13696Y18158
X18027Y16022
X17239Y15648
X15172Y18798
X15074Y16977
X20527Y11278
X10802Y21396
X10054Y16554
X10881Y17066
X10212Y22853
X17180Y18011
X20448Y14152
X18696Y17637
X18932Y17893
X15605Y23995
X10822Y24270
X10231Y25176
X8873Y24999
X8893Y25550
X14208Y21003
X16157Y20806
X14424Y21278
X16353Y20452
X13912Y20826
X17948Y19605
X13794Y18641
X13932Y21751
X18519Y19211
X13647Y18946
X10861Y20097
X14779Y22400
X16038Y10097
X13007Y14113
X13164Y22164
X13912Y22164
T02
X6414Y11593
X5914Y12593
X5414Y11593
X6914Y12593
X4914Y12593
X7414Y11593
X5164Y17566
X5164Y15833
T03
X9166Y19769
X8166Y19769
X9164Y20954
X8164Y20954
X21444Y23294
X18884Y23294
T04
X21172Y20331
X21172Y19331
X21172Y18331
X21172Y17331
X21172Y16331
X21172Y15331
X14115Y24643
X15115Y24643
X16115Y24643
X17115Y24643
X18115Y24643
X19115Y24643
X20115Y24643
X21115Y24643
T05
X4164Y9093
X8164Y9093
M30
