G75*
%MOIN*%
%OFA0B0*%
%FSLAX25Y25*%
%IPPOS*%
%LPD*%
%AMOC8*
5,1,8,0,0,1.08239X$1,22.5*
%
%ADD10C,0.00000*%
%ADD11C,0.00600*%
%ADD12C,0.00400*%
%ADD13C,0.00197*%
%ADD14C,0.00300*%
%ADD15R,0.04331X0.02362*%
%ADD16C,0.01000*%
%ADD17C,0.00787*%
%ADD18C,0.00039*%
%ADD19C,0.00500*%
%ADD20C,0.00800*%
%ADD21C,0.01969*%
D10*
X0031644Y0065933D02*
X0031644Y0260894D01*
X0225345Y0260894D01*
X0225345Y0065933D01*
X0031644Y0065933D01*
X0035244Y0090933D02*
X0035246Y0091093D01*
X0035252Y0091252D01*
X0035262Y0091411D01*
X0035276Y0091570D01*
X0035294Y0091729D01*
X0035315Y0091887D01*
X0035341Y0092044D01*
X0035371Y0092201D01*
X0035404Y0092357D01*
X0035442Y0092512D01*
X0035483Y0092666D01*
X0035528Y0092819D01*
X0035577Y0092971D01*
X0035630Y0093122D01*
X0035686Y0093271D01*
X0035747Y0093419D01*
X0035810Y0093565D01*
X0035878Y0093710D01*
X0035949Y0093853D01*
X0036023Y0093994D01*
X0036101Y0094133D01*
X0036183Y0094270D01*
X0036268Y0094405D01*
X0036356Y0094538D01*
X0036448Y0094669D01*
X0036542Y0094797D01*
X0036640Y0094923D01*
X0036741Y0095047D01*
X0036845Y0095168D01*
X0036952Y0095286D01*
X0037062Y0095402D01*
X0037175Y0095515D01*
X0037291Y0095625D01*
X0037409Y0095732D01*
X0037530Y0095836D01*
X0037654Y0095937D01*
X0037780Y0096035D01*
X0037908Y0096129D01*
X0038039Y0096221D01*
X0038172Y0096309D01*
X0038307Y0096394D01*
X0038444Y0096476D01*
X0038583Y0096554D01*
X0038724Y0096628D01*
X0038867Y0096699D01*
X0039012Y0096767D01*
X0039158Y0096830D01*
X0039306Y0096891D01*
X0039455Y0096947D01*
X0039606Y0097000D01*
X0039758Y0097049D01*
X0039911Y0097094D01*
X0040065Y0097135D01*
X0040220Y0097173D01*
X0040376Y0097206D01*
X0040533Y0097236D01*
X0040690Y0097262D01*
X0040848Y0097283D01*
X0041007Y0097301D01*
X0041166Y0097315D01*
X0041325Y0097325D01*
X0041484Y0097331D01*
X0041644Y0097333D01*
X0041804Y0097331D01*
X0041963Y0097325D01*
X0042122Y0097315D01*
X0042281Y0097301D01*
X0042440Y0097283D01*
X0042598Y0097262D01*
X0042755Y0097236D01*
X0042912Y0097206D01*
X0043068Y0097173D01*
X0043223Y0097135D01*
X0043377Y0097094D01*
X0043530Y0097049D01*
X0043682Y0097000D01*
X0043833Y0096947D01*
X0043982Y0096891D01*
X0044130Y0096830D01*
X0044276Y0096767D01*
X0044421Y0096699D01*
X0044564Y0096628D01*
X0044705Y0096554D01*
X0044844Y0096476D01*
X0044981Y0096394D01*
X0045116Y0096309D01*
X0045249Y0096221D01*
X0045380Y0096129D01*
X0045508Y0096035D01*
X0045634Y0095937D01*
X0045758Y0095836D01*
X0045879Y0095732D01*
X0045997Y0095625D01*
X0046113Y0095515D01*
X0046226Y0095402D01*
X0046336Y0095286D01*
X0046443Y0095168D01*
X0046547Y0095047D01*
X0046648Y0094923D01*
X0046746Y0094797D01*
X0046840Y0094669D01*
X0046932Y0094538D01*
X0047020Y0094405D01*
X0047105Y0094270D01*
X0047187Y0094133D01*
X0047265Y0093994D01*
X0047339Y0093853D01*
X0047410Y0093710D01*
X0047478Y0093565D01*
X0047541Y0093419D01*
X0047602Y0093271D01*
X0047658Y0093122D01*
X0047711Y0092971D01*
X0047760Y0092819D01*
X0047805Y0092666D01*
X0047846Y0092512D01*
X0047884Y0092357D01*
X0047917Y0092201D01*
X0047947Y0092044D01*
X0047973Y0091887D01*
X0047994Y0091729D01*
X0048012Y0091570D01*
X0048026Y0091411D01*
X0048036Y0091252D01*
X0048042Y0091093D01*
X0048044Y0090933D01*
X0048042Y0090773D01*
X0048036Y0090614D01*
X0048026Y0090455D01*
X0048012Y0090296D01*
X0047994Y0090137D01*
X0047973Y0089979D01*
X0047947Y0089822D01*
X0047917Y0089665D01*
X0047884Y0089509D01*
X0047846Y0089354D01*
X0047805Y0089200D01*
X0047760Y0089047D01*
X0047711Y0088895D01*
X0047658Y0088744D01*
X0047602Y0088595D01*
X0047541Y0088447D01*
X0047478Y0088301D01*
X0047410Y0088156D01*
X0047339Y0088013D01*
X0047265Y0087872D01*
X0047187Y0087733D01*
X0047105Y0087596D01*
X0047020Y0087461D01*
X0046932Y0087328D01*
X0046840Y0087197D01*
X0046746Y0087069D01*
X0046648Y0086943D01*
X0046547Y0086819D01*
X0046443Y0086698D01*
X0046336Y0086580D01*
X0046226Y0086464D01*
X0046113Y0086351D01*
X0045997Y0086241D01*
X0045879Y0086134D01*
X0045758Y0086030D01*
X0045634Y0085929D01*
X0045508Y0085831D01*
X0045380Y0085737D01*
X0045249Y0085645D01*
X0045116Y0085557D01*
X0044981Y0085472D01*
X0044844Y0085390D01*
X0044705Y0085312D01*
X0044564Y0085238D01*
X0044421Y0085167D01*
X0044276Y0085099D01*
X0044130Y0085036D01*
X0043982Y0084975D01*
X0043833Y0084919D01*
X0043682Y0084866D01*
X0043530Y0084817D01*
X0043377Y0084772D01*
X0043223Y0084731D01*
X0043068Y0084693D01*
X0042912Y0084660D01*
X0042755Y0084630D01*
X0042598Y0084604D01*
X0042440Y0084583D01*
X0042281Y0084565D01*
X0042122Y0084551D01*
X0041963Y0084541D01*
X0041804Y0084535D01*
X0041644Y0084533D01*
X0041484Y0084535D01*
X0041325Y0084541D01*
X0041166Y0084551D01*
X0041007Y0084565D01*
X0040848Y0084583D01*
X0040690Y0084604D01*
X0040533Y0084630D01*
X0040376Y0084660D01*
X0040220Y0084693D01*
X0040065Y0084731D01*
X0039911Y0084772D01*
X0039758Y0084817D01*
X0039606Y0084866D01*
X0039455Y0084919D01*
X0039306Y0084975D01*
X0039158Y0085036D01*
X0039012Y0085099D01*
X0038867Y0085167D01*
X0038724Y0085238D01*
X0038583Y0085312D01*
X0038444Y0085390D01*
X0038307Y0085472D01*
X0038172Y0085557D01*
X0038039Y0085645D01*
X0037908Y0085737D01*
X0037780Y0085831D01*
X0037654Y0085929D01*
X0037530Y0086030D01*
X0037409Y0086134D01*
X0037291Y0086241D01*
X0037175Y0086351D01*
X0037062Y0086464D01*
X0036952Y0086580D01*
X0036845Y0086698D01*
X0036741Y0086819D01*
X0036640Y0086943D01*
X0036542Y0087069D01*
X0036448Y0087197D01*
X0036356Y0087328D01*
X0036268Y0087461D01*
X0036183Y0087596D01*
X0036101Y0087733D01*
X0036023Y0087872D01*
X0035949Y0088013D01*
X0035878Y0088156D01*
X0035810Y0088301D01*
X0035747Y0088447D01*
X0035686Y0088595D01*
X0035630Y0088744D01*
X0035577Y0088895D01*
X0035528Y0089047D01*
X0035483Y0089200D01*
X0035442Y0089354D01*
X0035404Y0089509D01*
X0035371Y0089665D01*
X0035341Y0089822D01*
X0035315Y0089979D01*
X0035294Y0090137D01*
X0035276Y0090296D01*
X0035262Y0090455D01*
X0035252Y0090614D01*
X0035246Y0090773D01*
X0035244Y0090933D01*
X0075244Y0090933D02*
X0075246Y0091093D01*
X0075252Y0091252D01*
X0075262Y0091411D01*
X0075276Y0091570D01*
X0075294Y0091729D01*
X0075315Y0091887D01*
X0075341Y0092044D01*
X0075371Y0092201D01*
X0075404Y0092357D01*
X0075442Y0092512D01*
X0075483Y0092666D01*
X0075528Y0092819D01*
X0075577Y0092971D01*
X0075630Y0093122D01*
X0075686Y0093271D01*
X0075747Y0093419D01*
X0075810Y0093565D01*
X0075878Y0093710D01*
X0075949Y0093853D01*
X0076023Y0093994D01*
X0076101Y0094133D01*
X0076183Y0094270D01*
X0076268Y0094405D01*
X0076356Y0094538D01*
X0076448Y0094669D01*
X0076542Y0094797D01*
X0076640Y0094923D01*
X0076741Y0095047D01*
X0076845Y0095168D01*
X0076952Y0095286D01*
X0077062Y0095402D01*
X0077175Y0095515D01*
X0077291Y0095625D01*
X0077409Y0095732D01*
X0077530Y0095836D01*
X0077654Y0095937D01*
X0077780Y0096035D01*
X0077908Y0096129D01*
X0078039Y0096221D01*
X0078172Y0096309D01*
X0078307Y0096394D01*
X0078444Y0096476D01*
X0078583Y0096554D01*
X0078724Y0096628D01*
X0078867Y0096699D01*
X0079012Y0096767D01*
X0079158Y0096830D01*
X0079306Y0096891D01*
X0079455Y0096947D01*
X0079606Y0097000D01*
X0079758Y0097049D01*
X0079911Y0097094D01*
X0080065Y0097135D01*
X0080220Y0097173D01*
X0080376Y0097206D01*
X0080533Y0097236D01*
X0080690Y0097262D01*
X0080848Y0097283D01*
X0081007Y0097301D01*
X0081166Y0097315D01*
X0081325Y0097325D01*
X0081484Y0097331D01*
X0081644Y0097333D01*
X0081804Y0097331D01*
X0081963Y0097325D01*
X0082122Y0097315D01*
X0082281Y0097301D01*
X0082440Y0097283D01*
X0082598Y0097262D01*
X0082755Y0097236D01*
X0082912Y0097206D01*
X0083068Y0097173D01*
X0083223Y0097135D01*
X0083377Y0097094D01*
X0083530Y0097049D01*
X0083682Y0097000D01*
X0083833Y0096947D01*
X0083982Y0096891D01*
X0084130Y0096830D01*
X0084276Y0096767D01*
X0084421Y0096699D01*
X0084564Y0096628D01*
X0084705Y0096554D01*
X0084844Y0096476D01*
X0084981Y0096394D01*
X0085116Y0096309D01*
X0085249Y0096221D01*
X0085380Y0096129D01*
X0085508Y0096035D01*
X0085634Y0095937D01*
X0085758Y0095836D01*
X0085879Y0095732D01*
X0085997Y0095625D01*
X0086113Y0095515D01*
X0086226Y0095402D01*
X0086336Y0095286D01*
X0086443Y0095168D01*
X0086547Y0095047D01*
X0086648Y0094923D01*
X0086746Y0094797D01*
X0086840Y0094669D01*
X0086932Y0094538D01*
X0087020Y0094405D01*
X0087105Y0094270D01*
X0087187Y0094133D01*
X0087265Y0093994D01*
X0087339Y0093853D01*
X0087410Y0093710D01*
X0087478Y0093565D01*
X0087541Y0093419D01*
X0087602Y0093271D01*
X0087658Y0093122D01*
X0087711Y0092971D01*
X0087760Y0092819D01*
X0087805Y0092666D01*
X0087846Y0092512D01*
X0087884Y0092357D01*
X0087917Y0092201D01*
X0087947Y0092044D01*
X0087973Y0091887D01*
X0087994Y0091729D01*
X0088012Y0091570D01*
X0088026Y0091411D01*
X0088036Y0091252D01*
X0088042Y0091093D01*
X0088044Y0090933D01*
X0088042Y0090773D01*
X0088036Y0090614D01*
X0088026Y0090455D01*
X0088012Y0090296D01*
X0087994Y0090137D01*
X0087973Y0089979D01*
X0087947Y0089822D01*
X0087917Y0089665D01*
X0087884Y0089509D01*
X0087846Y0089354D01*
X0087805Y0089200D01*
X0087760Y0089047D01*
X0087711Y0088895D01*
X0087658Y0088744D01*
X0087602Y0088595D01*
X0087541Y0088447D01*
X0087478Y0088301D01*
X0087410Y0088156D01*
X0087339Y0088013D01*
X0087265Y0087872D01*
X0087187Y0087733D01*
X0087105Y0087596D01*
X0087020Y0087461D01*
X0086932Y0087328D01*
X0086840Y0087197D01*
X0086746Y0087069D01*
X0086648Y0086943D01*
X0086547Y0086819D01*
X0086443Y0086698D01*
X0086336Y0086580D01*
X0086226Y0086464D01*
X0086113Y0086351D01*
X0085997Y0086241D01*
X0085879Y0086134D01*
X0085758Y0086030D01*
X0085634Y0085929D01*
X0085508Y0085831D01*
X0085380Y0085737D01*
X0085249Y0085645D01*
X0085116Y0085557D01*
X0084981Y0085472D01*
X0084844Y0085390D01*
X0084705Y0085312D01*
X0084564Y0085238D01*
X0084421Y0085167D01*
X0084276Y0085099D01*
X0084130Y0085036D01*
X0083982Y0084975D01*
X0083833Y0084919D01*
X0083682Y0084866D01*
X0083530Y0084817D01*
X0083377Y0084772D01*
X0083223Y0084731D01*
X0083068Y0084693D01*
X0082912Y0084660D01*
X0082755Y0084630D01*
X0082598Y0084604D01*
X0082440Y0084583D01*
X0082281Y0084565D01*
X0082122Y0084551D01*
X0081963Y0084541D01*
X0081804Y0084535D01*
X0081644Y0084533D01*
X0081484Y0084535D01*
X0081325Y0084541D01*
X0081166Y0084551D01*
X0081007Y0084565D01*
X0080848Y0084583D01*
X0080690Y0084604D01*
X0080533Y0084630D01*
X0080376Y0084660D01*
X0080220Y0084693D01*
X0080065Y0084731D01*
X0079911Y0084772D01*
X0079758Y0084817D01*
X0079606Y0084866D01*
X0079455Y0084919D01*
X0079306Y0084975D01*
X0079158Y0085036D01*
X0079012Y0085099D01*
X0078867Y0085167D01*
X0078724Y0085238D01*
X0078583Y0085312D01*
X0078444Y0085390D01*
X0078307Y0085472D01*
X0078172Y0085557D01*
X0078039Y0085645D01*
X0077908Y0085737D01*
X0077780Y0085831D01*
X0077654Y0085929D01*
X0077530Y0086030D01*
X0077409Y0086134D01*
X0077291Y0086241D01*
X0077175Y0086351D01*
X0077062Y0086464D01*
X0076952Y0086580D01*
X0076845Y0086698D01*
X0076741Y0086819D01*
X0076640Y0086943D01*
X0076542Y0087069D01*
X0076448Y0087197D01*
X0076356Y0087328D01*
X0076268Y0087461D01*
X0076183Y0087596D01*
X0076101Y0087733D01*
X0076023Y0087872D01*
X0075949Y0088013D01*
X0075878Y0088156D01*
X0075810Y0088301D01*
X0075747Y0088447D01*
X0075686Y0088595D01*
X0075630Y0088744D01*
X0075577Y0088895D01*
X0075528Y0089047D01*
X0075483Y0089200D01*
X0075442Y0089354D01*
X0075404Y0089509D01*
X0075371Y0089665D01*
X0075341Y0089822D01*
X0075315Y0089979D01*
X0075294Y0090137D01*
X0075276Y0090296D01*
X0075262Y0090455D01*
X0075252Y0090614D01*
X0075246Y0090773D01*
X0075244Y0090933D01*
X0049872Y0158335D02*
X0049874Y0158419D01*
X0049880Y0158502D01*
X0049890Y0158585D01*
X0049904Y0158668D01*
X0049921Y0158750D01*
X0049943Y0158831D01*
X0049968Y0158910D01*
X0049997Y0158989D01*
X0050030Y0159066D01*
X0050066Y0159141D01*
X0050106Y0159215D01*
X0050149Y0159287D01*
X0050196Y0159356D01*
X0050246Y0159423D01*
X0050299Y0159488D01*
X0050355Y0159550D01*
X0050413Y0159610D01*
X0050475Y0159667D01*
X0050539Y0159720D01*
X0050606Y0159771D01*
X0050675Y0159818D01*
X0050746Y0159863D01*
X0050819Y0159903D01*
X0050894Y0159940D01*
X0050971Y0159974D01*
X0051049Y0160004D01*
X0051128Y0160030D01*
X0051209Y0160053D01*
X0051291Y0160071D01*
X0051373Y0160086D01*
X0051456Y0160097D01*
X0051539Y0160104D01*
X0051623Y0160107D01*
X0051707Y0160106D01*
X0051790Y0160101D01*
X0051874Y0160092D01*
X0051956Y0160079D01*
X0052038Y0160063D01*
X0052119Y0160042D01*
X0052200Y0160018D01*
X0052278Y0159990D01*
X0052356Y0159958D01*
X0052432Y0159922D01*
X0052506Y0159883D01*
X0052578Y0159841D01*
X0052648Y0159795D01*
X0052716Y0159746D01*
X0052781Y0159694D01*
X0052844Y0159639D01*
X0052904Y0159581D01*
X0052962Y0159520D01*
X0053016Y0159456D01*
X0053068Y0159390D01*
X0053116Y0159322D01*
X0053161Y0159251D01*
X0053202Y0159178D01*
X0053241Y0159104D01*
X0053275Y0159028D01*
X0053306Y0158950D01*
X0053333Y0158871D01*
X0053357Y0158790D01*
X0053376Y0158709D01*
X0053392Y0158627D01*
X0053404Y0158544D01*
X0053412Y0158460D01*
X0053416Y0158377D01*
X0053416Y0158293D01*
X0053412Y0158210D01*
X0053404Y0158126D01*
X0053392Y0158043D01*
X0053376Y0157961D01*
X0053357Y0157880D01*
X0053333Y0157799D01*
X0053306Y0157720D01*
X0053275Y0157642D01*
X0053241Y0157566D01*
X0053202Y0157492D01*
X0053161Y0157419D01*
X0053116Y0157348D01*
X0053068Y0157280D01*
X0053016Y0157214D01*
X0052962Y0157150D01*
X0052904Y0157089D01*
X0052844Y0157031D01*
X0052781Y0156976D01*
X0052716Y0156924D01*
X0052648Y0156875D01*
X0052578Y0156829D01*
X0052506Y0156787D01*
X0052432Y0156748D01*
X0052356Y0156712D01*
X0052278Y0156680D01*
X0052200Y0156652D01*
X0052119Y0156628D01*
X0052038Y0156607D01*
X0051956Y0156591D01*
X0051874Y0156578D01*
X0051790Y0156569D01*
X0051707Y0156564D01*
X0051623Y0156563D01*
X0051539Y0156566D01*
X0051456Y0156573D01*
X0051373Y0156584D01*
X0051291Y0156599D01*
X0051209Y0156617D01*
X0051128Y0156640D01*
X0051049Y0156666D01*
X0050971Y0156696D01*
X0050894Y0156730D01*
X0050819Y0156767D01*
X0050746Y0156807D01*
X0050675Y0156852D01*
X0050606Y0156899D01*
X0050539Y0156950D01*
X0050475Y0157003D01*
X0050413Y0157060D01*
X0050355Y0157120D01*
X0050299Y0157182D01*
X0050246Y0157247D01*
X0050196Y0157314D01*
X0050149Y0157383D01*
X0050106Y0157455D01*
X0050066Y0157529D01*
X0050030Y0157604D01*
X0049997Y0157681D01*
X0049968Y0157760D01*
X0049943Y0157839D01*
X0049921Y0157920D01*
X0049904Y0158002D01*
X0049890Y0158085D01*
X0049880Y0158168D01*
X0049874Y0158251D01*
X0049872Y0158335D01*
X0049872Y0175657D02*
X0049874Y0175741D01*
X0049880Y0175824D01*
X0049890Y0175907D01*
X0049904Y0175990D01*
X0049921Y0176072D01*
X0049943Y0176153D01*
X0049968Y0176232D01*
X0049997Y0176311D01*
X0050030Y0176388D01*
X0050066Y0176463D01*
X0050106Y0176537D01*
X0050149Y0176609D01*
X0050196Y0176678D01*
X0050246Y0176745D01*
X0050299Y0176810D01*
X0050355Y0176872D01*
X0050413Y0176932D01*
X0050475Y0176989D01*
X0050539Y0177042D01*
X0050606Y0177093D01*
X0050675Y0177140D01*
X0050746Y0177185D01*
X0050819Y0177225D01*
X0050894Y0177262D01*
X0050971Y0177296D01*
X0051049Y0177326D01*
X0051128Y0177352D01*
X0051209Y0177375D01*
X0051291Y0177393D01*
X0051373Y0177408D01*
X0051456Y0177419D01*
X0051539Y0177426D01*
X0051623Y0177429D01*
X0051707Y0177428D01*
X0051790Y0177423D01*
X0051874Y0177414D01*
X0051956Y0177401D01*
X0052038Y0177385D01*
X0052119Y0177364D01*
X0052200Y0177340D01*
X0052278Y0177312D01*
X0052356Y0177280D01*
X0052432Y0177244D01*
X0052506Y0177205D01*
X0052578Y0177163D01*
X0052648Y0177117D01*
X0052716Y0177068D01*
X0052781Y0177016D01*
X0052844Y0176961D01*
X0052904Y0176903D01*
X0052962Y0176842D01*
X0053016Y0176778D01*
X0053068Y0176712D01*
X0053116Y0176644D01*
X0053161Y0176573D01*
X0053202Y0176500D01*
X0053241Y0176426D01*
X0053275Y0176350D01*
X0053306Y0176272D01*
X0053333Y0176193D01*
X0053357Y0176112D01*
X0053376Y0176031D01*
X0053392Y0175949D01*
X0053404Y0175866D01*
X0053412Y0175782D01*
X0053416Y0175699D01*
X0053416Y0175615D01*
X0053412Y0175532D01*
X0053404Y0175448D01*
X0053392Y0175365D01*
X0053376Y0175283D01*
X0053357Y0175202D01*
X0053333Y0175121D01*
X0053306Y0175042D01*
X0053275Y0174964D01*
X0053241Y0174888D01*
X0053202Y0174814D01*
X0053161Y0174741D01*
X0053116Y0174670D01*
X0053068Y0174602D01*
X0053016Y0174536D01*
X0052962Y0174472D01*
X0052904Y0174411D01*
X0052844Y0174353D01*
X0052781Y0174298D01*
X0052716Y0174246D01*
X0052648Y0174197D01*
X0052578Y0174151D01*
X0052506Y0174109D01*
X0052432Y0174070D01*
X0052356Y0174034D01*
X0052278Y0174002D01*
X0052200Y0173974D01*
X0052119Y0173950D01*
X0052038Y0173929D01*
X0051956Y0173913D01*
X0051874Y0173900D01*
X0051790Y0173891D01*
X0051707Y0173886D01*
X0051623Y0173885D01*
X0051539Y0173888D01*
X0051456Y0173895D01*
X0051373Y0173906D01*
X0051291Y0173921D01*
X0051209Y0173939D01*
X0051128Y0173962D01*
X0051049Y0173988D01*
X0050971Y0174018D01*
X0050894Y0174052D01*
X0050819Y0174089D01*
X0050746Y0174129D01*
X0050675Y0174174D01*
X0050606Y0174221D01*
X0050539Y0174272D01*
X0050475Y0174325D01*
X0050413Y0174382D01*
X0050355Y0174442D01*
X0050299Y0174504D01*
X0050246Y0174569D01*
X0050196Y0174636D01*
X0050149Y0174705D01*
X0050106Y0174777D01*
X0050066Y0174851D01*
X0050030Y0174926D01*
X0049997Y0175003D01*
X0049968Y0175082D01*
X0049943Y0175161D01*
X0049921Y0175242D01*
X0049904Y0175324D01*
X0049890Y0175407D01*
X0049880Y0175490D01*
X0049874Y0175573D01*
X0049872Y0175657D01*
D11*
X0050737Y0191233D02*
X0050737Y0195503D01*
X0052872Y0197639D01*
X0055007Y0195503D01*
X0055007Y0191233D01*
X0055007Y0194436D02*
X0050737Y0194436D01*
X0057182Y0195503D02*
X0059318Y0191233D01*
X0061453Y0195503D01*
X0063628Y0194436D02*
X0063628Y0193368D01*
X0067898Y0193368D01*
X0067898Y0192301D02*
X0067898Y0194436D01*
X0066831Y0195503D01*
X0064696Y0195503D01*
X0063628Y0194436D01*
X0064696Y0191233D02*
X0066831Y0191233D01*
X0067898Y0192301D01*
X0070073Y0191233D02*
X0072209Y0193368D01*
X0071141Y0193368D02*
X0074344Y0193368D01*
X0074344Y0191233D02*
X0074344Y0197639D01*
X0071141Y0197639D01*
X0070073Y0196571D01*
X0070073Y0194436D01*
X0071141Y0193368D01*
X0070073Y0201733D02*
X0072209Y0203868D01*
X0071141Y0203868D02*
X0074344Y0203868D01*
X0074344Y0201733D02*
X0074344Y0208139D01*
X0071141Y0208139D01*
X0070073Y0207071D01*
X0070073Y0204936D01*
X0071141Y0203868D01*
X0067898Y0204936D02*
X0065763Y0204936D01*
X0063628Y0208139D02*
X0067898Y0208139D01*
X0067898Y0201733D01*
X0063628Y0201733D01*
X0061453Y0201733D02*
X0061453Y0206003D01*
X0059318Y0208139D01*
X0057182Y0206003D01*
X0057182Y0201733D01*
X0055007Y0201733D02*
X0051805Y0201733D01*
X0050737Y0202801D01*
X0050737Y0207071D01*
X0051805Y0208139D01*
X0055007Y0208139D01*
X0055007Y0201733D01*
X0057182Y0204936D02*
X0061453Y0204936D01*
X0048562Y0204936D02*
X0046427Y0204936D01*
X0044291Y0208139D02*
X0048562Y0208139D01*
X0048562Y0201733D01*
X0044291Y0201733D01*
X0042116Y0201733D02*
X0042116Y0208139D01*
X0038914Y0208139D01*
X0037846Y0207071D01*
X0037846Y0204936D01*
X0038914Y0203868D01*
X0042116Y0203868D01*
X0039981Y0203868D02*
X0037846Y0201733D01*
X0116544Y0174033D02*
X0116544Y0171833D01*
X0116544Y0174033D02*
X0119744Y0174033D01*
X0116544Y0165033D02*
X0116544Y0162833D01*
X0119744Y0162833D01*
X0119744Y0161533D02*
X0116544Y0161533D01*
X0116544Y0159333D01*
X0116544Y0152533D02*
X0116544Y0150333D01*
X0119744Y0150333D01*
X0171045Y0089008D02*
X0171045Y0082858D01*
X0182246Y0082858D02*
X0182246Y0089008D01*
X0158219Y0083827D02*
X0155069Y0083827D01*
X0156644Y0081465D01*
X0158219Y0083827D01*
X0215160Y0099461D02*
X0215160Y0103732D01*
X0215160Y0105907D02*
X0215160Y0110177D01*
X0215160Y0108042D02*
X0221566Y0108042D01*
X0219431Y0105907D01*
X0221566Y0099461D02*
X0215160Y0099461D01*
X0214223Y0148315D02*
X0209223Y0148315D01*
X0206723Y0150815D01*
X0206723Y0155815D01*
X0209223Y0158315D01*
X0214223Y0158315D01*
X0216723Y0155815D01*
X0216723Y0150815D01*
X0214223Y0148315D01*
X0214223Y0158315D02*
X0216723Y0160815D01*
X0216723Y0165815D01*
X0214223Y0168315D01*
X0216723Y0170815D01*
X0216723Y0175815D01*
X0214223Y0178315D01*
X0216723Y0180815D01*
X0216723Y0185815D01*
X0214223Y0188315D01*
X0216723Y0190815D01*
X0216723Y0195815D01*
X0214223Y0198315D01*
X0216723Y0200815D01*
X0216723Y0205815D01*
X0214223Y0208315D01*
X0209223Y0208315D01*
X0206723Y0205815D01*
X0206723Y0200815D01*
X0209223Y0198315D01*
X0206723Y0195815D01*
X0206723Y0190815D01*
X0209223Y0188315D01*
X0214223Y0188315D01*
X0209223Y0188315D02*
X0206723Y0185815D01*
X0206723Y0180815D01*
X0209223Y0178315D01*
X0206723Y0175815D01*
X0206723Y0170815D01*
X0209223Y0168315D01*
X0206723Y0165815D01*
X0206723Y0160815D01*
X0209223Y0158315D01*
X0209223Y0168315D02*
X0214223Y0168315D01*
X0214223Y0178315D02*
X0209223Y0178315D01*
X0209223Y0198315D02*
X0214223Y0198315D01*
D12*
X0180278Y0202054D02*
X0178744Y0202054D01*
X0179511Y0202054D02*
X0179511Y0206658D01*
X0180278Y0206658D02*
X0178744Y0206658D01*
X0177209Y0205891D02*
X0177209Y0202822D01*
X0176442Y0202054D01*
X0174907Y0202054D01*
X0174140Y0202822D01*
X0172605Y0202054D02*
X0169536Y0202054D01*
X0172605Y0202054D02*
X0169536Y0205124D01*
X0169536Y0205891D01*
X0170303Y0206658D01*
X0171838Y0206658D01*
X0172605Y0205891D01*
X0174140Y0205891D02*
X0174907Y0206658D01*
X0176442Y0206658D01*
X0177209Y0205891D01*
X0200069Y0143300D02*
X0201603Y0143300D01*
X0202371Y0142533D01*
X0202371Y0141765D01*
X0201603Y0140998D01*
X0199301Y0140998D01*
X0199301Y0139463D02*
X0199301Y0142533D01*
X0200069Y0143300D01*
X0203905Y0142533D02*
X0204673Y0143300D01*
X0206207Y0143300D01*
X0206974Y0142533D01*
X0206974Y0139463D01*
X0206207Y0138696D01*
X0204673Y0138696D01*
X0203905Y0139463D01*
X0202371Y0139463D02*
X0201603Y0138696D01*
X0200069Y0138696D01*
X0199301Y0139463D01*
X0200069Y0135800D02*
X0199301Y0135033D01*
X0199301Y0134265D01*
X0200069Y0133498D01*
X0201603Y0133498D01*
X0202371Y0134265D01*
X0202371Y0135033D01*
X0201603Y0135800D01*
X0200069Y0135800D01*
X0200069Y0133498D02*
X0199301Y0132731D01*
X0199301Y0131963D01*
X0200069Y0131196D01*
X0201603Y0131196D01*
X0202371Y0131963D01*
X0202371Y0132731D01*
X0201603Y0133498D01*
X0203905Y0131963D02*
X0204673Y0131196D01*
X0206207Y0131196D01*
X0206974Y0131963D01*
X0206974Y0135033D01*
X0206207Y0135800D01*
X0204673Y0135800D01*
X0203905Y0135033D01*
X0188317Y0117862D02*
X0210463Y0110972D01*
X0209971Y0109004D02*
X0187825Y0115894D01*
X0204164Y0102902D02*
X0204422Y0103028D01*
X0204676Y0103161D01*
X0204928Y0103300D01*
X0205176Y0103444D01*
X0205420Y0103595D01*
X0205661Y0103752D01*
X0205898Y0103915D01*
X0206130Y0104083D01*
X0206359Y0104257D01*
X0206583Y0104437D01*
X0206803Y0104622D01*
X0207018Y0104812D01*
X0207228Y0105007D01*
X0207434Y0105208D01*
X0207634Y0105414D01*
X0207830Y0105624D01*
X0208020Y0105839D01*
X0208205Y0106059D01*
X0208384Y0106283D01*
X0208558Y0106512D01*
X0208726Y0106745D01*
X0208889Y0106982D01*
X0209045Y0107222D01*
X0209196Y0107467D01*
X0209341Y0107715D01*
X0209479Y0107966D01*
X0209611Y0108221D01*
X0209738Y0108479D01*
X0209857Y0108741D01*
X0209970Y0109004D01*
X0194124Y0123965D02*
X0193866Y0123839D01*
X0193612Y0123706D01*
X0193360Y0123567D01*
X0193112Y0123423D01*
X0192868Y0123272D01*
X0192627Y0123115D01*
X0192390Y0122952D01*
X0192158Y0122784D01*
X0191929Y0122610D01*
X0191705Y0122430D01*
X0191485Y0122245D01*
X0191270Y0122055D01*
X0191060Y0121860D01*
X0190854Y0121659D01*
X0190654Y0121453D01*
X0190458Y0121243D01*
X0190268Y0121028D01*
X0190083Y0120808D01*
X0189904Y0120584D01*
X0189730Y0120355D01*
X0189562Y0120122D01*
X0189399Y0119885D01*
X0189243Y0119645D01*
X0189092Y0119400D01*
X0188947Y0119152D01*
X0188809Y0118901D01*
X0188677Y0118646D01*
X0188550Y0118388D01*
X0188431Y0118126D01*
X0188318Y0117863D01*
X0187825Y0115894D02*
X0187768Y0115616D01*
X0187718Y0115337D01*
X0187675Y0115057D01*
X0187639Y0114775D01*
X0187609Y0114493D01*
X0187587Y0114210D01*
X0187571Y0113927D01*
X0187563Y0113643D01*
X0187561Y0113360D01*
X0187567Y0113076D01*
X0187579Y0112792D01*
X0187598Y0112509D01*
X0187624Y0112227D01*
X0187657Y0111945D01*
X0187697Y0111664D01*
X0187744Y0111384D01*
X0187798Y0111106D01*
X0187859Y0110829D01*
X0187926Y0110553D01*
X0188000Y0110279D01*
X0188080Y0110007D01*
X0188168Y0109737D01*
X0188262Y0109469D01*
X0188362Y0109204D01*
X0188469Y0108941D01*
X0188582Y0108681D01*
X0188702Y0108424D01*
X0188828Y0108170D01*
X0188960Y0107918D01*
X0189098Y0107671D01*
X0189243Y0107426D01*
X0189393Y0107186D01*
X0189549Y0106949D01*
X0189711Y0106716D01*
X0189878Y0106487D01*
X0190051Y0106262D01*
X0190230Y0106041D01*
X0190413Y0105825D01*
X0190602Y0105614D01*
X0190797Y0105407D01*
X0190996Y0105205D01*
X0191200Y0105008D01*
X0191409Y0104815D01*
X0191622Y0104629D01*
X0191840Y0104447D01*
X0192063Y0104271D01*
X0192289Y0104100D01*
X0192520Y0103935D01*
X0192755Y0103776D01*
X0192993Y0103622D01*
X0193235Y0103474D01*
X0193481Y0103333D01*
X0193730Y0103197D01*
X0210463Y0110973D02*
X0210520Y0111251D01*
X0210570Y0111530D01*
X0210613Y0111810D01*
X0210649Y0112092D01*
X0210679Y0112374D01*
X0210701Y0112657D01*
X0210717Y0112940D01*
X0210725Y0113224D01*
X0210727Y0113507D01*
X0210721Y0113791D01*
X0210709Y0114075D01*
X0210690Y0114358D01*
X0210664Y0114640D01*
X0210631Y0114922D01*
X0210591Y0115203D01*
X0210544Y0115483D01*
X0210490Y0115761D01*
X0210429Y0116038D01*
X0210362Y0116314D01*
X0210288Y0116588D01*
X0210208Y0116860D01*
X0210120Y0117130D01*
X0210026Y0117398D01*
X0209926Y0117663D01*
X0209819Y0117926D01*
X0209706Y0118186D01*
X0209586Y0118443D01*
X0209460Y0118697D01*
X0209328Y0118949D01*
X0209190Y0119196D01*
X0209045Y0119441D01*
X0208895Y0119681D01*
X0208739Y0119918D01*
X0208577Y0120151D01*
X0208410Y0120380D01*
X0208237Y0120605D01*
X0208058Y0120826D01*
X0207875Y0121042D01*
X0207686Y0121253D01*
X0207491Y0121460D01*
X0207292Y0121662D01*
X0207088Y0121859D01*
X0206879Y0122052D01*
X0206666Y0122238D01*
X0206448Y0122420D01*
X0206225Y0122596D01*
X0205999Y0122767D01*
X0205768Y0122932D01*
X0205533Y0123091D01*
X0205295Y0123245D01*
X0205053Y0123393D01*
X0204807Y0123534D01*
X0204558Y0123670D01*
X0187809Y0089280D02*
X0187809Y0082587D01*
X0189844Y0078910D02*
X0189844Y0075841D01*
X0192913Y0078910D01*
X0193680Y0078910D01*
X0194448Y0078143D01*
X0194448Y0076608D01*
X0193680Y0075841D01*
X0194448Y0072772D02*
X0189844Y0072772D01*
X0189844Y0074306D02*
X0189844Y0071237D01*
X0189844Y0069702D02*
X0191378Y0068168D01*
X0191378Y0068935D02*
X0191378Y0066633D01*
X0189844Y0066633D02*
X0194448Y0066633D01*
X0194448Y0068935D01*
X0193680Y0069702D01*
X0192146Y0069702D01*
X0191378Y0068935D01*
X0192913Y0071237D02*
X0194448Y0072772D01*
X0200844Y0072960D02*
X0205448Y0072960D01*
X0203913Y0071425D01*
X0203146Y0069891D02*
X0202378Y0069123D01*
X0202378Y0066821D01*
X0200844Y0066821D02*
X0205448Y0066821D01*
X0205448Y0069123D01*
X0204680Y0069891D01*
X0203146Y0069891D01*
X0202378Y0068356D02*
X0200844Y0069891D01*
X0200844Y0071425D02*
X0200844Y0074494D01*
X0200844Y0076029D02*
X0200844Y0079098D01*
X0200844Y0077564D02*
X0205448Y0077564D01*
X0203913Y0076029D01*
X0187995Y0075793D02*
X0187228Y0075025D01*
X0187995Y0075793D02*
X0187995Y0077327D01*
X0187228Y0078094D01*
X0186460Y0078094D01*
X0185693Y0077327D01*
X0184926Y0078094D01*
X0184158Y0078094D01*
X0183391Y0077327D01*
X0183391Y0075793D01*
X0184158Y0075025D01*
X0184158Y0073491D02*
X0187228Y0073491D01*
X0187995Y0072723D01*
X0187995Y0070421D01*
X0183391Y0070421D01*
X0183391Y0072723D01*
X0184158Y0073491D01*
X0181266Y0074932D02*
X0180064Y0074932D01*
X0180665Y0074932D02*
X0180665Y0078535D01*
X0181266Y0078535D02*
X0180064Y0078535D01*
X0178810Y0077935D02*
X0178810Y0075533D01*
X0178210Y0074932D01*
X0177009Y0074932D01*
X0176408Y0075533D01*
X0175127Y0075533D02*
X0174526Y0074932D01*
X0173325Y0074932D01*
X0172725Y0075533D01*
X0172725Y0076133D01*
X0173325Y0076734D01*
X0173926Y0076734D01*
X0173325Y0076734D02*
X0172725Y0077334D01*
X0172725Y0077935D01*
X0173325Y0078535D01*
X0174526Y0078535D01*
X0175127Y0077935D01*
X0176408Y0077935D02*
X0177009Y0078535D01*
X0178210Y0078535D01*
X0178810Y0077935D01*
X0183478Y0082587D02*
X0183478Y0089280D01*
X0185693Y0077327D02*
X0185693Y0076560D01*
X0168444Y0074970D02*
X0168444Y0071900D01*
X0167676Y0071133D01*
X0166142Y0071133D01*
X0165375Y0071900D01*
X0163840Y0071900D02*
X0163840Y0071133D01*
X0163840Y0071900D02*
X0160771Y0074970D01*
X0160771Y0075737D01*
X0163840Y0075737D01*
X0165375Y0074970D02*
X0166142Y0075737D01*
X0167676Y0075737D01*
X0168444Y0074970D01*
X0152385Y0079802D02*
X0152385Y0082104D01*
X0151617Y0082872D01*
X0148548Y0082872D01*
X0147781Y0082104D01*
X0147781Y0079802D01*
X0152385Y0079802D01*
X0150083Y0084406D02*
X0150083Y0087476D01*
X0147781Y0086708D02*
X0152385Y0086708D01*
X0150083Y0084406D01*
X0136944Y0094633D02*
X0136944Y0098103D01*
X0136944Y0096368D02*
X0135209Y0098103D01*
X0134342Y0098103D01*
X0132647Y0097235D02*
X0132647Y0095500D01*
X0131779Y0094633D01*
X0130045Y0094633D01*
X0129177Y0096368D02*
X0132647Y0096368D01*
X0132647Y0097235D02*
X0131779Y0098103D01*
X0130045Y0098103D01*
X0129177Y0097235D01*
X0129177Y0096368D01*
X0127490Y0095500D02*
X0126623Y0094633D01*
X0124021Y0094633D01*
X0124021Y0097235D01*
X0124888Y0098103D01*
X0126623Y0098103D01*
X0126623Y0096368D02*
X0124021Y0096368D01*
X0122334Y0097235D02*
X0121467Y0098103D01*
X0118864Y0098103D01*
X0118864Y0099838D02*
X0118864Y0094633D01*
X0121467Y0094633D01*
X0122334Y0095500D01*
X0122334Y0097235D01*
X0126623Y0096368D02*
X0127490Y0095500D01*
X0127482Y0103033D02*
X0127482Y0107370D01*
X0126615Y0108238D01*
X0124912Y0106503D02*
X0124045Y0106503D01*
X0124045Y0103033D01*
X0124912Y0103033D02*
X0123177Y0103033D01*
X0121475Y0105635D02*
X0118005Y0105635D01*
X0116318Y0105635D02*
X0115451Y0106503D01*
X0112849Y0106503D01*
X0111162Y0106503D02*
X0109427Y0103033D01*
X0107692Y0106503D01*
X0106005Y0106503D02*
X0104271Y0106503D01*
X0105138Y0107370D02*
X0105138Y0103900D01*
X0104271Y0103033D01*
X0102568Y0105635D02*
X0099098Y0105635D01*
X0097411Y0105635D02*
X0096544Y0106503D01*
X0093942Y0106503D01*
X0093942Y0108238D02*
X0093942Y0103033D01*
X0096544Y0103033D01*
X0097411Y0103900D01*
X0097411Y0105635D01*
X0092255Y0105635D02*
X0092255Y0103900D01*
X0091388Y0103033D01*
X0089653Y0103033D01*
X0088785Y0104768D02*
X0092255Y0104768D01*
X0092255Y0105635D02*
X0091388Y0106503D01*
X0089653Y0106503D01*
X0088785Y0105635D01*
X0088785Y0104768D01*
X0087099Y0103900D02*
X0086231Y0104768D01*
X0083629Y0104768D01*
X0083629Y0105635D02*
X0083629Y0103033D01*
X0086231Y0103033D01*
X0087099Y0103900D01*
X0086231Y0106503D02*
X0084496Y0106503D01*
X0083629Y0105635D01*
X0081942Y0105635D02*
X0081942Y0103900D01*
X0081075Y0103033D01*
X0078473Y0103033D01*
X0078473Y0108238D01*
X0076786Y0108238D02*
X0075918Y0108238D01*
X0075918Y0103033D01*
X0075051Y0103033D02*
X0076786Y0103033D01*
X0073348Y0103900D02*
X0073348Y0105635D01*
X0072481Y0106503D01*
X0070746Y0106503D01*
X0069879Y0105635D01*
X0069879Y0103900D01*
X0070746Y0103033D01*
X0072481Y0103033D01*
X0073348Y0103900D01*
X0068192Y0103900D02*
X0067324Y0103033D01*
X0064722Y0103033D01*
X0063035Y0103033D02*
X0063035Y0108238D01*
X0064722Y0106503D02*
X0067324Y0106503D01*
X0068192Y0105635D01*
X0068192Y0103900D01*
X0063035Y0104768D02*
X0060433Y0106503D01*
X0063035Y0104768D02*
X0060433Y0103033D01*
X0058738Y0103033D02*
X0055269Y0108238D01*
X0078473Y0106503D02*
X0081075Y0106503D01*
X0081942Y0105635D01*
X0091396Y0111433D02*
X0087926Y0116638D01*
X0093082Y0114035D02*
X0093082Y0111433D01*
X0094817Y0111433D02*
X0094817Y0114035D01*
X0093950Y0114903D01*
X0093082Y0114035D01*
X0094817Y0114035D02*
X0095685Y0114903D01*
X0096552Y0114903D01*
X0096552Y0111433D01*
X0098239Y0112300D02*
X0098239Y0114035D01*
X0099106Y0114903D01*
X0100841Y0114903D01*
X0101708Y0114035D01*
X0101708Y0112300D01*
X0100841Y0111433D01*
X0099106Y0111433D01*
X0098239Y0112300D01*
X0103395Y0111433D02*
X0105997Y0111433D01*
X0106865Y0112300D01*
X0106865Y0114035D01*
X0105997Y0114903D01*
X0103395Y0114903D01*
X0108576Y0112300D02*
X0108576Y0111433D01*
X0109443Y0111433D01*
X0109443Y0112300D01*
X0108576Y0112300D01*
X0111130Y0112300D02*
X0111130Y0114035D01*
X0111997Y0114903D01*
X0114599Y0114903D01*
X0116286Y0114903D02*
X0116286Y0111433D01*
X0118888Y0111433D01*
X0119756Y0112300D01*
X0119756Y0114903D01*
X0121443Y0114035D02*
X0121443Y0111433D01*
X0121443Y0114035D02*
X0122310Y0114903D01*
X0124045Y0114903D01*
X0124912Y0114035D01*
X0126615Y0114903D02*
X0128350Y0114903D01*
X0127482Y0115770D02*
X0127482Y0112300D01*
X0126615Y0111433D01*
X0124912Y0111433D02*
X0124912Y0116638D01*
X0130920Y0116638D02*
X0130920Y0117505D01*
X0130920Y0114903D02*
X0130920Y0111433D01*
X0131787Y0111433D02*
X0130053Y0111433D01*
X0133474Y0111433D02*
X0136076Y0111433D01*
X0136944Y0112300D01*
X0136944Y0114035D01*
X0136076Y0114903D01*
X0133474Y0114903D01*
X0133474Y0110566D01*
X0134342Y0109698D01*
X0135209Y0109698D01*
X0135209Y0108238D02*
X0136076Y0107370D01*
X0136076Y0103033D01*
X0133506Y0103033D02*
X0133506Y0106503D01*
X0132639Y0106503D01*
X0131771Y0105635D01*
X0130904Y0106503D01*
X0130037Y0105635D01*
X0130037Y0103033D01*
X0131771Y0103033D02*
X0131771Y0105635D01*
X0128350Y0105635D02*
X0126615Y0105635D01*
X0124045Y0108238D02*
X0124045Y0109105D01*
X0116318Y0105635D02*
X0115451Y0104768D01*
X0113716Y0104768D01*
X0112849Y0103900D01*
X0113716Y0103033D01*
X0116318Y0103033D01*
X0116310Y0098103D02*
X0114575Y0098103D01*
X0113708Y0097235D01*
X0113708Y0096368D01*
X0117178Y0096368D01*
X0117178Y0097235D02*
X0116310Y0098103D01*
X0117178Y0097235D02*
X0117178Y0095500D01*
X0116310Y0094633D01*
X0114575Y0094633D01*
X0112021Y0094633D02*
X0112021Y0098103D01*
X0112021Y0096368D02*
X0110286Y0098103D01*
X0109419Y0098103D01*
X0107724Y0097235D02*
X0104255Y0097235D01*
X0102568Y0097235D02*
X0101700Y0098103D01*
X0099966Y0098103D01*
X0099098Y0097235D01*
X0099098Y0094633D01*
X0097411Y0095500D02*
X0096544Y0094633D01*
X0095677Y0095500D01*
X0094809Y0094633D01*
X0093942Y0095500D01*
X0093942Y0098103D01*
X0097411Y0098103D02*
X0097411Y0095500D01*
X0102568Y0094633D02*
X0102568Y0099838D01*
X0111997Y0111433D02*
X0111130Y0112300D01*
X0111997Y0111433D02*
X0114599Y0111433D01*
X0114599Y0116638D01*
X0130920Y0114903D02*
X0131787Y0114903D01*
X0135209Y0105635D02*
X0136944Y0105635D01*
X0147273Y0105057D02*
X0147273Y0102755D01*
X0151877Y0102755D01*
X0151877Y0105057D01*
X0151110Y0105824D01*
X0148040Y0105824D01*
X0147273Y0105057D01*
X0148040Y0107359D02*
X0147273Y0108126D01*
X0147273Y0109661D01*
X0148040Y0110428D01*
X0149575Y0110428D01*
X0150342Y0109661D01*
X0150342Y0108894D01*
X0149575Y0107359D01*
X0151877Y0107359D01*
X0151877Y0110428D01*
X0153455Y0109398D02*
X0153455Y0102705D01*
X0157786Y0102705D02*
X0157786Y0109398D01*
X0110652Y0153633D02*
X0110652Y0158237D01*
X0108350Y0158237D01*
X0107582Y0157470D01*
X0107582Y0154400D01*
X0108350Y0153633D01*
X0110652Y0153633D01*
X0106048Y0153633D02*
X0102978Y0156702D01*
X0102978Y0157470D01*
X0103746Y0158237D01*
X0105280Y0158237D01*
X0106048Y0157470D01*
X0106048Y0153633D02*
X0102978Y0153633D01*
X0102978Y0166133D02*
X0106048Y0166133D01*
X0104513Y0166133D02*
X0104513Y0170737D01*
X0106048Y0169202D01*
X0107582Y0169970D02*
X0108350Y0170737D01*
X0110652Y0170737D01*
X0110652Y0166133D01*
X0108350Y0166133D01*
X0107582Y0166900D01*
X0107582Y0169970D01*
X0108582Y0178633D02*
X0110117Y0180168D01*
X0109350Y0180168D02*
X0111652Y0180168D01*
X0111652Y0178633D02*
X0111652Y0183237D01*
X0109350Y0183237D01*
X0108582Y0182470D01*
X0108582Y0180935D01*
X0109350Y0180168D01*
X0107048Y0180935D02*
X0107048Y0179400D01*
X0106280Y0178633D01*
X0104746Y0178633D01*
X0103978Y0179400D01*
X0103978Y0180168D01*
X0104746Y0180935D01*
X0107048Y0180935D01*
X0105513Y0182470D01*
X0103978Y0183237D01*
X0104746Y0188633D02*
X0104746Y0193237D01*
X0107048Y0190935D01*
X0103978Y0190935D01*
X0108582Y0190935D02*
X0109350Y0190168D01*
X0111652Y0190168D01*
X0111652Y0188633D02*
X0111652Y0193237D01*
X0109350Y0193237D01*
X0108582Y0192470D01*
X0108582Y0190935D01*
X0110117Y0190168D02*
X0108582Y0188633D01*
X0108875Y0198633D02*
X0110409Y0200168D01*
X0109642Y0200168D02*
X0111944Y0200168D01*
X0111944Y0198633D02*
X0111944Y0203237D01*
X0109642Y0203237D01*
X0108875Y0202470D01*
X0108875Y0200935D01*
X0109642Y0200168D01*
X0107340Y0199400D02*
X0106573Y0198633D01*
X0105038Y0198633D01*
X0104271Y0199400D01*
X0104271Y0200168D01*
X0105038Y0200935D01*
X0105805Y0200935D01*
X0105038Y0200935D02*
X0104271Y0201702D01*
X0104271Y0202470D01*
X0105038Y0203237D01*
X0106573Y0203237D01*
X0107340Y0202470D01*
X0107152Y0208751D02*
X0104082Y0208751D01*
X0102548Y0208751D02*
X0099478Y0211820D01*
X0099478Y0212588D01*
X0100246Y0213355D01*
X0101780Y0213355D01*
X0102548Y0212588D01*
X0105617Y0213355D02*
X0105617Y0208751D01*
X0102548Y0208751D02*
X0099478Y0208751D01*
X0105617Y0213355D02*
X0107152Y0211820D01*
X0108686Y0212588D02*
X0109454Y0213355D01*
X0110988Y0213355D01*
X0111756Y0212588D01*
X0111756Y0209518D01*
X0110988Y0208751D01*
X0109454Y0208751D01*
X0108686Y0209518D01*
X0108582Y0218633D02*
X0110117Y0220168D01*
X0109350Y0220168D02*
X0111652Y0220168D01*
X0111652Y0218633D02*
X0111652Y0223237D01*
X0109350Y0223237D01*
X0108582Y0222470D01*
X0108582Y0220935D01*
X0109350Y0220168D01*
X0107048Y0219400D02*
X0106280Y0218633D01*
X0104746Y0218633D01*
X0103978Y0219400D01*
X0103978Y0222470D01*
X0104746Y0223237D01*
X0106280Y0223237D01*
X0107048Y0222470D01*
X0107048Y0221702D01*
X0106280Y0220935D01*
X0103978Y0220935D01*
X0104082Y0228633D02*
X0107152Y0228633D01*
X0108686Y0228633D02*
X0110221Y0230168D01*
X0109454Y0230168D02*
X0111756Y0230168D01*
X0111756Y0228633D02*
X0111756Y0233237D01*
X0109454Y0233237D01*
X0108686Y0232470D01*
X0108686Y0230935D01*
X0109454Y0230168D01*
X0107152Y0231702D02*
X0105617Y0233237D01*
X0105617Y0228633D01*
X0102548Y0229400D02*
X0099478Y0232470D01*
X0099478Y0229400D01*
X0100246Y0228633D01*
X0101780Y0228633D01*
X0102548Y0229400D01*
X0102548Y0232470D01*
X0101780Y0233237D01*
X0100246Y0233237D01*
X0099478Y0232470D01*
X0107548Y0238830D02*
X0107548Y0239597D01*
X0104478Y0242667D01*
X0104478Y0243434D01*
X0107548Y0243434D01*
X0109082Y0242667D02*
X0109082Y0241132D01*
X0109850Y0240365D01*
X0112152Y0240365D01*
X0110617Y0240365D02*
X0109082Y0238830D01*
X0112152Y0238830D02*
X0112152Y0243434D01*
X0109850Y0243434D01*
X0109082Y0242667D01*
X0109082Y0249381D02*
X0110617Y0250916D01*
X0109850Y0250916D02*
X0112152Y0250916D01*
X0112152Y0249381D02*
X0112152Y0253985D01*
X0109850Y0253985D01*
X0109082Y0253218D01*
X0109082Y0251683D01*
X0109850Y0250916D01*
X0107548Y0250916D02*
X0106780Y0251683D01*
X0105246Y0251683D01*
X0104478Y0250916D01*
X0104478Y0250148D01*
X0105246Y0249381D01*
X0106780Y0249381D01*
X0107548Y0250148D01*
X0107548Y0250916D01*
X0106780Y0251683D02*
X0107548Y0252450D01*
X0107548Y0253218D01*
X0106780Y0253985D01*
X0105246Y0253985D01*
X0104478Y0253218D01*
X0104478Y0252450D01*
X0105246Y0251683D01*
D13*
X0080714Y0224866D02*
X0080972Y0224465D01*
X0081035Y0224179D01*
X0081035Y0224177D01*
X0081037Y0224175D01*
X0080279Y0224175D01*
X0080367Y0223947D01*
X0080387Y0223512D01*
X0080367Y0223073D01*
X0080212Y0222667D01*
X0079956Y0222474D01*
X0079639Y0222409D01*
X0079322Y0222474D01*
X0079066Y0222667D01*
X0078911Y0223069D01*
X0078891Y0223504D01*
X0078911Y0223943D01*
X0078999Y0224175D01*
X0078241Y0224175D01*
X0078200Y0223992D01*
X0078178Y0223512D01*
X0078200Y0223028D01*
X0078304Y0222557D01*
X0078564Y0222152D01*
X0078871Y0221898D01*
X0079241Y0221746D01*
X0079639Y0221699D01*
X0080037Y0221746D01*
X0080407Y0221898D01*
X0080714Y0222154D01*
X0080974Y0222559D01*
X0081076Y0223030D01*
X0081098Y0223512D01*
X0081076Y0223994D01*
X0081035Y0224177D01*
X0080277Y0224177D01*
X0080210Y0224350D01*
X0079954Y0224543D01*
X0079637Y0224608D01*
X0079320Y0224543D01*
X0079064Y0224350D01*
X0078999Y0224177D01*
X0078241Y0224177D01*
X0078304Y0224463D01*
X0078564Y0224866D01*
X0078871Y0225122D01*
X0079241Y0225274D01*
X0079639Y0225319D01*
X0080037Y0225274D01*
X0080407Y0225122D01*
X0080714Y0224866D01*
X0080780Y0224762D02*
X0078497Y0224762D01*
X0078371Y0224567D02*
X0079434Y0224567D01*
X0079092Y0224371D02*
X0078284Y0224371D01*
X0078199Y0223981D02*
X0078925Y0223981D01*
X0078903Y0223785D02*
X0078191Y0223785D01*
X0078182Y0223590D02*
X0078895Y0223590D01*
X0078896Y0223395D02*
X0078183Y0223395D01*
X0078192Y0223199D02*
X0078905Y0223199D01*
X0078936Y0223004D02*
X0078205Y0223004D01*
X0078248Y0222809D02*
X0079011Y0222809D01*
X0079138Y0222613D02*
X0078292Y0222613D01*
X0078393Y0222418D02*
X0079598Y0222418D01*
X0079680Y0222418D02*
X0080883Y0222418D01*
X0080985Y0222613D02*
X0080140Y0222613D01*
X0080266Y0222809D02*
X0081028Y0222809D01*
X0081070Y0223004D02*
X0080341Y0223004D01*
X0080373Y0223199D02*
X0081084Y0223199D01*
X0081092Y0223395D02*
X0080382Y0223395D01*
X0080383Y0223590D02*
X0081094Y0223590D01*
X0081085Y0223785D02*
X0080375Y0223785D01*
X0080354Y0223981D02*
X0081076Y0223981D01*
X0081035Y0224176D02*
X0081036Y0224176D01*
X0080992Y0224371D02*
X0080182Y0224371D01*
X0079839Y0224567D02*
X0080906Y0224567D01*
X0080604Y0224958D02*
X0078674Y0224958D01*
X0078946Y0225153D02*
X0080331Y0225153D01*
X0077578Y0225153D02*
X0076865Y0225153D01*
X0076865Y0225278D02*
X0077578Y0225278D01*
X0077578Y0223705D01*
X0077578Y0223703D01*
X0077582Y0223713D01*
X0076855Y0223713D01*
X0076867Y0223516D01*
X0076836Y0223020D01*
X0076629Y0222577D01*
X0076168Y0222421D01*
X0075702Y0222571D01*
X0075493Y0223016D01*
X0075464Y0223516D01*
X0075475Y0223713D01*
X0074757Y0223713D01*
X0074753Y0223516D01*
X0074761Y0223051D01*
X0074810Y0222589D01*
X0075003Y0222171D01*
X0075420Y0221827D01*
X0075950Y0221711D01*
X0076448Y0221827D01*
X0076865Y0222128D01*
X0076865Y0219323D01*
X0076446Y0219638D01*
X0075930Y0219740D01*
X0075470Y0219644D01*
X0075082Y0219376D01*
X0074832Y0218976D01*
X0074751Y0218512D01*
X0074751Y0216165D01*
X0075464Y0216165D01*
X0075464Y0218270D01*
X0075643Y0218809D01*
X0076161Y0219030D01*
X0076682Y0218811D01*
X0076865Y0218270D01*
X0076865Y0216165D01*
X0077578Y0216165D01*
X0077578Y0223703D01*
X0076851Y0223703D01*
X0076834Y0224004D01*
X0076629Y0224451D01*
X0076168Y0224608D01*
X0075700Y0224457D01*
X0075493Y0224008D01*
X0075475Y0223703D01*
X0074757Y0223703D01*
X0074761Y0223972D01*
X0074810Y0224437D01*
X0075005Y0224858D01*
X0075422Y0225203D01*
X0075952Y0225319D01*
X0076452Y0225209D01*
X0076865Y0224907D01*
X0076865Y0225278D01*
X0076865Y0224958D02*
X0077578Y0224958D01*
X0077578Y0224762D02*
X0074961Y0224762D01*
X0074870Y0224567D02*
X0076040Y0224567D01*
X0076290Y0224567D02*
X0077578Y0224567D01*
X0077578Y0224371D02*
X0076665Y0224371D01*
X0076755Y0224176D02*
X0077578Y0224176D01*
X0077578Y0223981D02*
X0076835Y0223981D01*
X0076847Y0223785D02*
X0077578Y0223785D01*
X0077578Y0223590D02*
X0076863Y0223590D01*
X0076860Y0223395D02*
X0077578Y0223395D01*
X0077578Y0223199D02*
X0076847Y0223199D01*
X0076828Y0223004D02*
X0077578Y0223004D01*
X0077578Y0222809D02*
X0076737Y0222809D01*
X0076646Y0222613D02*
X0077578Y0222613D01*
X0077578Y0222418D02*
X0074889Y0222418D01*
X0074808Y0222613D02*
X0075682Y0222613D01*
X0075590Y0222809D02*
X0074787Y0222809D01*
X0074766Y0223004D02*
X0075499Y0223004D01*
X0075482Y0223199D02*
X0074758Y0223199D01*
X0074755Y0223395D02*
X0075471Y0223395D01*
X0075468Y0223590D02*
X0074755Y0223590D01*
X0074758Y0223785D02*
X0075480Y0223785D01*
X0075492Y0223981D02*
X0074762Y0223981D01*
X0074782Y0224176D02*
X0075571Y0224176D01*
X0075661Y0224371D02*
X0074803Y0224371D01*
X0074180Y0224176D02*
X0073487Y0224176D01*
X0073475Y0224230D02*
X0073210Y0224541D01*
X0072812Y0224648D01*
X0072416Y0224541D01*
X0072153Y0224228D01*
X0072129Y0224116D01*
X0071407Y0224116D01*
X0071456Y0224396D01*
X0071765Y0224886D01*
X0072245Y0225209D01*
X0072814Y0225317D01*
X0073330Y0225226D01*
X0073773Y0224949D01*
X0074074Y0224522D01*
X0074198Y0224116D01*
X0074198Y0224118D01*
X0073499Y0224118D01*
X0073560Y0223827D01*
X0072066Y0223827D01*
X0072129Y0224118D01*
X0071407Y0224118D01*
X0071355Y0223827D01*
X0071355Y0223240D01*
X0073560Y0223240D01*
X0073470Y0222795D01*
X0073159Y0222470D01*
X0072716Y0222370D01*
X0072296Y0222465D01*
X0071944Y0222713D01*
X0071686Y0222492D01*
X0071428Y0222272D01*
X0071788Y0221957D01*
X0072227Y0221762D01*
X0072704Y0221701D01*
X0073241Y0221774D01*
X0073720Y0222022D01*
X0074056Y0222443D01*
X0074225Y0222957D01*
X0074271Y0223498D01*
X0074227Y0224022D01*
X0074198Y0224118D01*
X0073499Y0224118D01*
X0073475Y0224230D01*
X0073355Y0224371D02*
X0074120Y0224371D01*
X0074042Y0224567D02*
X0073115Y0224567D01*
X0072511Y0224567D02*
X0071564Y0224567D01*
X0071452Y0224371D02*
X0072273Y0224371D01*
X0072142Y0224176D02*
X0071417Y0224176D01*
X0071382Y0223981D02*
X0072099Y0223981D01*
X0071355Y0223785D02*
X0074247Y0223785D01*
X0074263Y0223590D02*
X0071355Y0223590D01*
X0071355Y0223395D02*
X0074262Y0223395D01*
X0074246Y0223199D02*
X0073552Y0223199D01*
X0073512Y0223004D02*
X0074229Y0223004D01*
X0074177Y0222809D02*
X0073472Y0222809D01*
X0073295Y0222613D02*
X0074112Y0222613D01*
X0074036Y0222418D02*
X0072926Y0222418D01*
X0072504Y0222418D02*
X0071599Y0222418D01*
X0071485Y0222222D02*
X0073880Y0222222D01*
X0073724Y0222027D02*
X0071708Y0222027D01*
X0072070Y0221832D02*
X0073353Y0221832D01*
X0072085Y0222613D02*
X0071828Y0222613D01*
X0070749Y0222613D02*
X0070038Y0222613D01*
X0070038Y0222418D02*
X0070749Y0222418D01*
X0070749Y0222222D02*
X0070038Y0222222D01*
X0070038Y0222027D02*
X0070749Y0222027D01*
X0070749Y0221832D02*
X0070038Y0221832D01*
X0070038Y0221742D02*
X0070038Y0223844D01*
X0069855Y0224386D01*
X0069334Y0224604D01*
X0068816Y0224384D01*
X0068637Y0223844D01*
X0068637Y0221742D01*
X0067924Y0221742D01*
X0067924Y0224089D01*
X0068005Y0224553D01*
X0068255Y0224953D01*
X0068643Y0225220D01*
X0069103Y0225317D01*
X0069613Y0225217D01*
X0070023Y0224900D01*
X0070037Y0224900D01*
X0070037Y0225276D01*
X0070749Y0225276D01*
X0070749Y0221744D01*
X0070751Y0221742D01*
X0070038Y0221742D01*
X0070038Y0222809D02*
X0070749Y0222809D01*
X0070749Y0223004D02*
X0070038Y0223004D01*
X0070038Y0223199D02*
X0070749Y0223199D01*
X0070749Y0223395D02*
X0070038Y0223395D01*
X0070038Y0223590D02*
X0070749Y0223590D01*
X0070749Y0223785D02*
X0070038Y0223785D01*
X0069992Y0223981D02*
X0070749Y0223981D01*
X0070749Y0224176D02*
X0069926Y0224176D01*
X0069860Y0224371D02*
X0070749Y0224371D01*
X0070749Y0224567D02*
X0069423Y0224567D01*
X0069246Y0224567D02*
X0068014Y0224567D01*
X0067973Y0224371D02*
X0068812Y0224371D01*
X0068747Y0224176D02*
X0067939Y0224176D01*
X0067924Y0223981D02*
X0068682Y0223981D01*
X0068637Y0223785D02*
X0067924Y0223785D01*
X0067924Y0223590D02*
X0068637Y0223590D01*
X0068637Y0223395D02*
X0067924Y0223395D01*
X0067924Y0223199D02*
X0068637Y0223199D01*
X0068637Y0223004D02*
X0067924Y0223004D01*
X0067924Y0222809D02*
X0068637Y0222809D01*
X0068637Y0222613D02*
X0067924Y0222613D01*
X0067924Y0222418D02*
X0068637Y0222418D01*
X0068637Y0222222D02*
X0067924Y0222222D01*
X0067924Y0222027D02*
X0068637Y0222027D01*
X0068637Y0221832D02*
X0067924Y0221832D01*
X0066115Y0221124D02*
X0066115Y0219321D01*
X0066533Y0219622D01*
X0067031Y0219738D01*
X0067560Y0219622D01*
X0067977Y0219278D01*
X0068170Y0218860D01*
X0068220Y0218398D01*
X0068227Y0217931D01*
X0068224Y0217705D01*
X0067503Y0217705D01*
X0067517Y0217931D01*
X0067487Y0218431D01*
X0067279Y0218876D01*
X0066812Y0219026D01*
X0066351Y0218870D01*
X0066145Y0218427D01*
X0066113Y0217931D01*
X0066127Y0217705D01*
X0065403Y0217705D01*
X0065403Y0221124D01*
X0066113Y0221124D01*
X0066115Y0221124D01*
X0066115Y0221050D02*
X0065403Y0221050D01*
X0065403Y0220855D02*
X0066115Y0220855D01*
X0066115Y0220660D02*
X0065403Y0220660D01*
X0065403Y0220464D02*
X0066115Y0220464D01*
X0066115Y0220269D02*
X0065403Y0220269D01*
X0065403Y0220073D02*
X0066115Y0220073D01*
X0066115Y0219878D02*
X0065403Y0219878D01*
X0065403Y0219683D02*
X0066115Y0219683D01*
X0066115Y0219487D02*
X0065403Y0219487D01*
X0065403Y0219292D02*
X0067960Y0219292D01*
X0068061Y0219097D02*
X0065403Y0219097D01*
X0065403Y0218901D02*
X0066444Y0218901D01*
X0066275Y0218706D02*
X0065403Y0218706D01*
X0065403Y0218511D02*
X0066184Y0218511D01*
X0066138Y0218315D02*
X0065403Y0218315D01*
X0065403Y0218120D02*
X0066125Y0218120D01*
X0066114Y0217924D02*
X0065403Y0217924D01*
X0065403Y0217729D02*
X0066126Y0217729D01*
X0066129Y0217703D02*
X0066147Y0217431D01*
X0066351Y0216986D01*
X0066812Y0216829D01*
X0067281Y0216980D01*
X0067487Y0217427D01*
X0067503Y0217703D01*
X0068224Y0217703D01*
X0068220Y0217463D01*
X0068170Y0216998D01*
X0067975Y0216579D01*
X0067558Y0216234D01*
X0067029Y0216118D01*
X0066529Y0216228D01*
X0066115Y0216530D01*
X0066115Y0216159D01*
X0065405Y0216159D01*
X0065405Y0217262D01*
X0065405Y0217703D01*
X0066129Y0217703D01*
X0066140Y0217534D02*
X0065405Y0217534D01*
X0065405Y0217338D02*
X0066189Y0217338D01*
X0066279Y0217143D02*
X0065405Y0217143D01*
X0065405Y0216948D02*
X0066464Y0216948D01*
X0066346Y0216362D02*
X0067712Y0216362D01*
X0067949Y0216557D02*
X0065405Y0216557D01*
X0065405Y0216752D02*
X0068056Y0216752D01*
X0068147Y0216948D02*
X0067180Y0216948D01*
X0067356Y0217143D02*
X0068186Y0217143D01*
X0068206Y0217338D02*
X0067446Y0217338D01*
X0067493Y0217534D02*
X0068221Y0217534D01*
X0068224Y0217729D02*
X0067505Y0217729D01*
X0067516Y0217924D02*
X0068227Y0217924D01*
X0068224Y0218120D02*
X0067506Y0218120D01*
X0067494Y0218315D02*
X0068221Y0218315D01*
X0068208Y0218511D02*
X0067450Y0218511D01*
X0067358Y0218706D02*
X0068187Y0218706D01*
X0068151Y0218901D02*
X0067200Y0218901D01*
X0067723Y0219487D02*
X0066346Y0219487D01*
X0066793Y0219683D02*
X0067283Y0219683D01*
X0068241Y0219465D02*
X0068588Y0219665D01*
X0068979Y0219738D01*
X0069489Y0219638D01*
X0069899Y0219321D01*
X0069912Y0219321D01*
X0069912Y0219697D01*
X0070625Y0219697D01*
X0070625Y0216165D01*
X0070627Y0216159D01*
X0069914Y0216159D01*
X0069914Y0218285D01*
X0069735Y0218813D01*
X0069224Y0219026D01*
X0068757Y0218850D01*
X0068499Y0219157D01*
X0068241Y0219465D01*
X0068281Y0219487D02*
X0069684Y0219487D01*
X0069912Y0219487D02*
X0070625Y0219487D01*
X0070625Y0219292D02*
X0068386Y0219292D01*
X0068550Y0219097D02*
X0070625Y0219097D01*
X0070625Y0218901D02*
X0069523Y0218901D01*
X0069772Y0218706D02*
X0070625Y0218706D01*
X0070625Y0218511D02*
X0069838Y0218511D01*
X0069904Y0218315D02*
X0070625Y0218315D01*
X0070625Y0218120D02*
X0069914Y0218120D01*
X0069914Y0217924D02*
X0070625Y0217924D01*
X0070625Y0217729D02*
X0069914Y0217729D01*
X0069914Y0217534D02*
X0070625Y0217534D01*
X0070625Y0217338D02*
X0069914Y0217338D01*
X0069914Y0217143D02*
X0070625Y0217143D01*
X0070625Y0216948D02*
X0069914Y0216948D01*
X0069914Y0216752D02*
X0070625Y0216752D01*
X0070625Y0216557D02*
X0069914Y0216557D01*
X0069914Y0216362D02*
X0070625Y0216362D01*
X0070625Y0216166D02*
X0069914Y0216166D01*
X0071411Y0216166D02*
X0072123Y0216166D01*
X0072123Y0216157D02*
X0071411Y0216157D01*
X0071411Y0217134D01*
X0071409Y0217136D01*
X0072164Y0217136D01*
X0072186Y0217008D01*
X0072515Y0216807D01*
X0072914Y0216785D01*
X0073353Y0216872D01*
X0073523Y0217136D01*
X0074241Y0217136D01*
X0074161Y0216746D01*
X0073877Y0216384D01*
X0073466Y0216177D01*
X0073007Y0216116D01*
X0072519Y0216175D01*
X0072137Y0216470D01*
X0072123Y0216470D01*
X0072123Y0216157D01*
X0072123Y0216362D02*
X0071411Y0216362D01*
X0071411Y0216557D02*
X0074013Y0216557D01*
X0074162Y0216752D02*
X0071411Y0216752D01*
X0071411Y0216948D02*
X0072285Y0216948D01*
X0072162Y0217136D02*
X0071407Y0217136D01*
X0071407Y0218571D01*
X0071503Y0219096D01*
X0071844Y0219500D01*
X0072342Y0219689D01*
X0072877Y0219734D01*
X0072879Y0219736D01*
X0073328Y0219695D01*
X0073745Y0219530D01*
X0074070Y0219220D01*
X0073790Y0219008D01*
X0073511Y0218795D01*
X0073218Y0219026D01*
X0072842Y0219069D01*
X0072359Y0219002D01*
X0072117Y0218614D01*
X0072117Y0218244D01*
X0073101Y0218244D01*
X0073668Y0218132D01*
X0074101Y0217754D01*
X0074251Y0217197D01*
X0074239Y0217136D01*
X0073521Y0217136D01*
X0073582Y0217232D01*
X0073377Y0217575D01*
X0072968Y0217657D01*
X0072117Y0217657D01*
X0072117Y0217400D01*
X0072162Y0217136D01*
X0072161Y0217143D02*
X0071407Y0217143D01*
X0071407Y0217338D02*
X0072128Y0217338D01*
X0072117Y0217534D02*
X0071407Y0217534D01*
X0071407Y0217729D02*
X0074108Y0217729D01*
X0074161Y0217534D02*
X0073402Y0217534D01*
X0073518Y0217338D02*
X0074213Y0217338D01*
X0074241Y0217143D02*
X0073525Y0217143D01*
X0073402Y0216948D02*
X0074202Y0216948D01*
X0074751Y0216948D02*
X0075464Y0216948D01*
X0075464Y0217143D02*
X0074751Y0217143D01*
X0074751Y0217338D02*
X0075464Y0217338D01*
X0075464Y0217534D02*
X0074751Y0217534D01*
X0074751Y0217729D02*
X0075464Y0217729D01*
X0075464Y0217924D02*
X0074751Y0217924D01*
X0074751Y0218120D02*
X0075464Y0218120D01*
X0075479Y0218315D02*
X0074751Y0218315D01*
X0074751Y0218511D02*
X0075544Y0218511D01*
X0075609Y0218706D02*
X0074785Y0218706D01*
X0074819Y0218901D02*
X0075859Y0218901D01*
X0076467Y0218901D02*
X0077578Y0218901D01*
X0077578Y0218706D02*
X0076718Y0218706D01*
X0076784Y0218511D02*
X0077578Y0218511D01*
X0077578Y0218315D02*
X0076850Y0218315D01*
X0076865Y0218120D02*
X0077578Y0218120D01*
X0077578Y0217924D02*
X0076865Y0217924D01*
X0076865Y0217729D02*
X0077578Y0217729D01*
X0077578Y0217534D02*
X0076865Y0217534D01*
X0076865Y0217338D02*
X0077578Y0217338D01*
X0077578Y0217143D02*
X0076865Y0217143D01*
X0076865Y0216948D02*
X0077578Y0216948D01*
X0077578Y0216752D02*
X0076865Y0216752D01*
X0076865Y0216557D02*
X0077578Y0216557D01*
X0077578Y0216362D02*
X0076865Y0216362D01*
X0076865Y0216166D02*
X0077578Y0216166D01*
X0075464Y0216166D02*
X0074751Y0216166D01*
X0074751Y0216362D02*
X0075464Y0216362D01*
X0075464Y0216557D02*
X0074751Y0216557D01*
X0074751Y0216752D02*
X0075464Y0216752D01*
X0073833Y0216362D02*
X0072278Y0216362D01*
X0072593Y0216166D02*
X0073383Y0216166D01*
X0073906Y0217924D02*
X0071407Y0217924D01*
X0071407Y0218120D02*
X0073682Y0218120D01*
X0073650Y0218901D02*
X0073376Y0218901D01*
X0073907Y0219097D02*
X0071503Y0219097D01*
X0071467Y0218901D02*
X0072296Y0218901D01*
X0072175Y0218706D02*
X0071431Y0218706D01*
X0071407Y0218511D02*
X0072117Y0218511D01*
X0072117Y0218315D02*
X0071407Y0218315D01*
X0071668Y0219292D02*
X0073995Y0219292D01*
X0073789Y0219487D02*
X0071833Y0219487D01*
X0072325Y0219683D02*
X0073358Y0219683D01*
X0074907Y0219097D02*
X0077578Y0219097D01*
X0077578Y0219292D02*
X0075029Y0219292D01*
X0075243Y0219487D02*
X0076646Y0219487D01*
X0076865Y0219487D02*
X0077578Y0219487D01*
X0077578Y0219683D02*
X0076865Y0219683D01*
X0076865Y0219878D02*
X0077578Y0219878D01*
X0077578Y0220073D02*
X0076865Y0220073D01*
X0076865Y0220269D02*
X0077578Y0220269D01*
X0077578Y0220464D02*
X0076865Y0220464D01*
X0076865Y0220660D02*
X0077578Y0220660D01*
X0077578Y0220855D02*
X0076865Y0220855D01*
X0076865Y0221050D02*
X0077578Y0221050D01*
X0077578Y0221246D02*
X0076865Y0221246D01*
X0076865Y0221441D02*
X0077578Y0221441D01*
X0077578Y0221636D02*
X0076865Y0221636D01*
X0076865Y0221832D02*
X0077578Y0221832D01*
X0077578Y0222027D02*
X0076865Y0222027D01*
X0076725Y0222027D02*
X0075178Y0222027D01*
X0074979Y0222222D02*
X0077578Y0222222D01*
X0078519Y0222222D02*
X0080758Y0222222D01*
X0080562Y0222027D02*
X0078715Y0222027D01*
X0079032Y0221832D02*
X0080246Y0221832D01*
X0076455Y0221832D02*
X0075414Y0221832D01*
X0075656Y0219683D02*
X0076220Y0219683D01*
X0074231Y0223981D02*
X0073528Y0223981D01*
X0073904Y0224762D02*
X0071687Y0224762D01*
X0071871Y0224958D02*
X0073759Y0224958D01*
X0073447Y0225153D02*
X0072162Y0225153D01*
X0070749Y0225153D02*
X0070037Y0225153D01*
X0070037Y0224958D02*
X0070749Y0224958D01*
X0070749Y0224762D02*
X0068136Y0224762D01*
X0068262Y0224958D02*
X0069948Y0224958D01*
X0069696Y0225153D02*
X0068545Y0225153D01*
X0065706Y0224567D02*
X0064870Y0224567D01*
X0064867Y0224571D02*
X0064458Y0224650D01*
X0063958Y0224563D01*
X0063509Y0224321D01*
X0063290Y0224579D01*
X0063072Y0224837D01*
X0063489Y0225112D01*
X0063962Y0225272D01*
X0064460Y0225319D01*
X0064936Y0225262D01*
X0065371Y0225063D01*
X0065678Y0224699D01*
X0065777Y0224232D01*
X0065649Y0223724D01*
X0065267Y0223368D01*
X0064759Y0223230D01*
X0064446Y0223203D01*
X0064133Y0223175D01*
X0063834Y0223093D01*
X0063700Y0222825D01*
X0063944Y0222461D01*
X0064397Y0222372D01*
X0064806Y0222417D01*
X0065188Y0222571D01*
X0065513Y0222825D01*
X0065761Y0222581D01*
X0066009Y0222337D01*
X0066005Y0222335D01*
X0065546Y0221992D01*
X0065019Y0221774D01*
X0064452Y0221701D01*
X0063946Y0221756D01*
X0063474Y0221945D01*
X0063115Y0222301D01*
X0062987Y0222789D01*
X0063099Y0223325D01*
X0063479Y0223713D01*
X0064011Y0223848D01*
X0064598Y0223890D01*
X0064903Y0223969D01*
X0065064Y0224224D01*
X0064867Y0224571D01*
X0064981Y0224371D02*
X0065747Y0224371D01*
X0065763Y0224176D02*
X0065034Y0224176D01*
X0064910Y0223981D02*
X0065713Y0223981D01*
X0065664Y0223785D02*
X0063764Y0223785D01*
X0063359Y0223590D02*
X0065505Y0223590D01*
X0065295Y0223395D02*
X0063168Y0223395D01*
X0063073Y0223199D02*
X0064406Y0223199D01*
X0063789Y0223004D02*
X0063032Y0223004D01*
X0062991Y0222809D02*
X0063711Y0222809D01*
X0063842Y0222613D02*
X0063033Y0222613D01*
X0063085Y0222418D02*
X0064163Y0222418D01*
X0064807Y0222418D02*
X0065926Y0222418D01*
X0065855Y0222222D02*
X0063194Y0222222D01*
X0063391Y0222027D02*
X0065593Y0222027D01*
X0065159Y0221832D02*
X0063756Y0221832D01*
X0062456Y0222559D02*
X0062560Y0223030D01*
X0062582Y0223514D01*
X0062572Y0223742D01*
X0062574Y0223742D01*
X0061861Y0223742D01*
X0061871Y0223514D01*
X0061851Y0223075D01*
X0061696Y0222669D01*
X0061440Y0222476D01*
X0061123Y0222411D01*
X0060806Y0222476D01*
X0060550Y0222669D01*
X0060395Y0223071D01*
X0060375Y0223506D01*
X0060385Y0223742D01*
X0059672Y0223742D01*
X0059662Y0223514D01*
X0059684Y0223030D01*
X0059787Y0222559D01*
X0060046Y0222154D01*
X0060353Y0221898D01*
X0060724Y0221746D01*
X0061121Y0221699D01*
X0061519Y0221746D01*
X0061889Y0221898D01*
X0062196Y0222154D01*
X0062456Y0222559D01*
X0062468Y0222613D02*
X0061621Y0222613D01*
X0061749Y0222809D02*
X0062511Y0222809D01*
X0062554Y0223004D02*
X0061824Y0223004D01*
X0061857Y0223199D02*
X0062568Y0223199D01*
X0062576Y0223395D02*
X0061866Y0223395D01*
X0061868Y0223590D02*
X0062578Y0223590D01*
X0062564Y0223742D02*
X0062572Y0223742D01*
X0061859Y0223742D01*
X0061849Y0223949D01*
X0061694Y0224350D01*
X0061438Y0224543D01*
X0061121Y0224608D01*
X0060804Y0224543D01*
X0060548Y0224348D01*
X0060393Y0223943D01*
X0060383Y0223740D01*
X0059670Y0223740D01*
X0059680Y0223992D01*
X0059785Y0224461D01*
X0060042Y0224864D01*
X0060349Y0225120D01*
X0060720Y0225272D01*
X0061117Y0225317D01*
X0061515Y0225272D01*
X0061885Y0225120D01*
X0062192Y0224864D01*
X0062450Y0224463D01*
X0062554Y0223994D01*
X0062564Y0223742D01*
X0062562Y0223785D02*
X0061857Y0223785D01*
X0061837Y0223981D02*
X0062555Y0223981D01*
X0062514Y0224176D02*
X0061762Y0224176D01*
X0061666Y0224371D02*
X0062470Y0224371D01*
X0062383Y0224567D02*
X0061324Y0224567D01*
X0060919Y0224567D02*
X0059852Y0224567D01*
X0059765Y0224371D02*
X0060579Y0224371D01*
X0060482Y0224176D02*
X0059721Y0224176D01*
X0059680Y0223981D02*
X0060407Y0223981D01*
X0060385Y0223785D02*
X0059672Y0223785D01*
X0059666Y0223590D02*
X0060379Y0223590D01*
X0060380Y0223395D02*
X0059668Y0223395D01*
X0059677Y0223199D02*
X0060389Y0223199D01*
X0060421Y0223004D02*
X0059690Y0223004D01*
X0059732Y0222809D02*
X0060496Y0222809D01*
X0060625Y0222613D02*
X0059775Y0222613D01*
X0059877Y0222418D02*
X0061092Y0222418D01*
X0061154Y0222418D02*
X0062365Y0222418D01*
X0062240Y0222222D02*
X0060002Y0222222D01*
X0060198Y0222027D02*
X0062044Y0222027D01*
X0061728Y0221832D02*
X0060514Y0221832D01*
X0058979Y0222461D02*
X0058727Y0222061D01*
X0058338Y0221795D01*
X0057875Y0221699D01*
X0057369Y0221801D01*
X0056962Y0222118D01*
X0056948Y0222118D01*
X0056948Y0221742D01*
X0056235Y0221742D01*
X0056235Y0225274D01*
X0056948Y0225274D01*
X0056948Y0223171D01*
X0057127Y0222632D01*
X0057645Y0222411D01*
X0058166Y0222630D01*
X0058349Y0223171D01*
X0058349Y0225274D01*
X0059062Y0225274D01*
X0059062Y0222925D01*
X0059060Y0222927D01*
X0058979Y0222461D01*
X0058952Y0222418D02*
X0057660Y0222418D01*
X0057630Y0222418D02*
X0056235Y0222418D01*
X0056235Y0222613D02*
X0057171Y0222613D01*
X0057068Y0222809D02*
X0056235Y0222809D01*
X0056235Y0223004D02*
X0057004Y0223004D01*
X0056948Y0223199D02*
X0056235Y0223199D01*
X0056235Y0223395D02*
X0056948Y0223395D01*
X0056948Y0223590D02*
X0056235Y0223590D01*
X0056235Y0223785D02*
X0056948Y0223785D01*
X0056948Y0223981D02*
X0056235Y0223981D01*
X0056235Y0224176D02*
X0056948Y0224176D01*
X0056948Y0224371D02*
X0056235Y0224371D01*
X0056235Y0224567D02*
X0056948Y0224567D01*
X0056948Y0224762D02*
X0056235Y0224762D01*
X0056235Y0224958D02*
X0056948Y0224958D01*
X0056948Y0225153D02*
X0056235Y0225153D01*
X0055458Y0225153D02*
X0054745Y0225153D01*
X0054745Y0225278D02*
X0055458Y0225278D01*
X0055458Y0221746D01*
X0055458Y0221742D01*
X0054745Y0221742D01*
X0054745Y0223868D01*
X0054566Y0224396D01*
X0054054Y0224608D01*
X0053588Y0224433D01*
X0053330Y0224740D01*
X0053072Y0225047D01*
X0053418Y0225246D01*
X0053810Y0225319D01*
X0054320Y0225219D01*
X0054731Y0224902D01*
X0054745Y0224902D01*
X0054745Y0225278D01*
X0054745Y0224958D02*
X0055458Y0224958D01*
X0055458Y0224762D02*
X0053311Y0224762D01*
X0053147Y0224958D02*
X0054659Y0224958D01*
X0054405Y0225153D02*
X0053256Y0225153D01*
X0053475Y0224567D02*
X0053944Y0224567D01*
X0054154Y0224567D02*
X0055458Y0224567D01*
X0055458Y0224371D02*
X0054574Y0224371D01*
X0054641Y0224176D02*
X0055458Y0224176D01*
X0055458Y0223981D02*
X0054707Y0223981D01*
X0054745Y0223785D02*
X0055458Y0223785D01*
X0055458Y0223590D02*
X0054745Y0223590D01*
X0054745Y0223395D02*
X0055458Y0223395D01*
X0055458Y0223199D02*
X0054745Y0223199D01*
X0054745Y0223004D02*
X0055458Y0223004D01*
X0055458Y0222809D02*
X0054745Y0222809D01*
X0054745Y0222613D02*
X0055458Y0222613D01*
X0055458Y0222418D02*
X0054745Y0222418D01*
X0054745Y0222222D02*
X0055458Y0222222D01*
X0055458Y0222027D02*
X0054745Y0222027D01*
X0054745Y0221832D02*
X0055458Y0221832D01*
X0056235Y0221832D02*
X0056948Y0221832D01*
X0056948Y0222027D02*
X0056235Y0222027D01*
X0056235Y0222222D02*
X0058829Y0222222D01*
X0058678Y0222027D02*
X0057079Y0222027D01*
X0057330Y0221832D02*
X0058391Y0221832D01*
X0058126Y0222613D02*
X0059006Y0222613D01*
X0059040Y0222809D02*
X0058227Y0222809D01*
X0058293Y0223004D02*
X0059062Y0223004D01*
X0059062Y0223199D02*
X0058349Y0223199D01*
X0058349Y0223395D02*
X0059062Y0223395D01*
X0059062Y0223590D02*
X0058349Y0223590D01*
X0058349Y0223785D02*
X0059062Y0223785D01*
X0059062Y0223981D02*
X0058349Y0223981D01*
X0058349Y0224176D02*
X0059062Y0224176D01*
X0059062Y0224371D02*
X0058349Y0224371D01*
X0058349Y0224567D02*
X0059062Y0224567D01*
X0059062Y0224762D02*
X0058349Y0224762D01*
X0058349Y0224958D02*
X0059062Y0224958D01*
X0059062Y0225153D02*
X0058349Y0225153D01*
X0059977Y0224762D02*
X0062258Y0224762D01*
X0062080Y0224958D02*
X0060154Y0224958D01*
X0060430Y0225153D02*
X0061805Y0225153D01*
X0063135Y0224762D02*
X0065625Y0224762D01*
X0065460Y0224958D02*
X0063255Y0224958D01*
X0063301Y0224567D02*
X0063980Y0224567D01*
X0063603Y0224371D02*
X0063466Y0224371D01*
X0063610Y0225153D02*
X0065174Y0225153D01*
X0065492Y0222809D02*
X0065529Y0222809D01*
X0065728Y0222613D02*
X0065242Y0222613D01*
X0065023Y0219691D02*
X0064271Y0219691D01*
X0064135Y0219197D01*
X0063999Y0218703D01*
X0063863Y0218207D01*
X0063759Y0217823D01*
X0063761Y0217825D01*
X0064426Y0217825D01*
X0064538Y0218177D01*
X0064700Y0218683D01*
X0064861Y0219187D01*
X0065023Y0219691D01*
X0065020Y0219683D02*
X0064269Y0219683D01*
X0064215Y0219487D02*
X0064958Y0219487D01*
X0064895Y0219292D02*
X0064161Y0219292D01*
X0064107Y0219097D02*
X0064832Y0219097D01*
X0064770Y0218901D02*
X0064054Y0218901D01*
X0064000Y0218706D02*
X0064707Y0218706D01*
X0064645Y0218511D02*
X0063946Y0218511D01*
X0063893Y0218315D02*
X0064583Y0218315D01*
X0064520Y0218120D02*
X0063840Y0218120D01*
X0063787Y0217924D02*
X0064458Y0217924D01*
X0064428Y0217821D02*
X0063763Y0217821D01*
X0063731Y0217709D01*
X0063596Y0217215D01*
X0063582Y0217215D01*
X0063422Y0217711D01*
X0063387Y0217823D01*
X0063385Y0217825D01*
X0062771Y0217825D01*
X0062826Y0217644D01*
X0062974Y0217148D01*
X0063121Y0216652D01*
X0063269Y0216157D01*
X0063895Y0216157D01*
X0064056Y0216661D01*
X0064218Y0217165D01*
X0064379Y0217669D01*
X0064428Y0217821D01*
X0064398Y0217729D02*
X0063737Y0217729D01*
X0063683Y0217534D02*
X0064336Y0217534D01*
X0064273Y0217338D02*
X0063630Y0217338D01*
X0063542Y0217338D02*
X0062917Y0217338D01*
X0062975Y0217143D02*
X0064210Y0217143D01*
X0064148Y0216948D02*
X0063033Y0216948D01*
X0063091Y0216752D02*
X0064085Y0216752D01*
X0064023Y0216557D02*
X0063149Y0216557D01*
X0063208Y0216362D02*
X0063960Y0216362D01*
X0063898Y0216166D02*
X0063266Y0216166D01*
X0063479Y0217534D02*
X0062859Y0217534D01*
X0062800Y0217729D02*
X0063416Y0217729D01*
X0063381Y0217825D02*
X0063257Y0218209D01*
X0063098Y0218703D01*
X0062938Y0219199D01*
X0062779Y0219693D01*
X0062263Y0219693D01*
X0062103Y0219199D01*
X0061944Y0218705D01*
X0061785Y0218209D01*
X0061661Y0217825D01*
X0061659Y0217825D01*
X0062273Y0217825D01*
X0062365Y0218138D01*
X0062513Y0218634D01*
X0062527Y0218634D01*
X0062674Y0218138D01*
X0062767Y0217825D01*
X0063381Y0217825D01*
X0063349Y0217924D02*
X0062737Y0217924D01*
X0062680Y0218120D02*
X0063286Y0218120D01*
X0063223Y0218315D02*
X0062621Y0218315D01*
X0062418Y0218315D02*
X0061819Y0218315D01*
X0061756Y0218120D02*
X0062360Y0218120D01*
X0062302Y0217924D02*
X0061693Y0217924D01*
X0061661Y0217825D02*
X0061625Y0217713D01*
X0061466Y0217219D01*
X0061452Y0217219D01*
X0061316Y0217715D01*
X0061287Y0217827D01*
X0061283Y0217825D01*
X0060615Y0217825D01*
X0060664Y0217673D01*
X0060826Y0217169D01*
X0060987Y0216665D01*
X0061149Y0216159D01*
X0061777Y0216159D01*
X0061924Y0216656D01*
X0062072Y0217150D01*
X0062220Y0217644D01*
X0062275Y0217825D01*
X0061661Y0217825D01*
X0061630Y0217729D02*
X0062246Y0217729D01*
X0062187Y0217534D02*
X0061567Y0217534D01*
X0061366Y0217534D02*
X0060709Y0217534D01*
X0060646Y0217729D02*
X0061312Y0217729D01*
X0061283Y0217827D02*
X0061178Y0218211D01*
X0061042Y0218705D01*
X0060907Y0219201D01*
X0060771Y0219695D01*
X0060019Y0219695D01*
X0060019Y0219693D01*
X0060180Y0219189D01*
X0060342Y0218685D01*
X0060503Y0218181D01*
X0060615Y0217827D01*
X0061283Y0217827D01*
X0061256Y0217924D02*
X0060584Y0217924D01*
X0060522Y0218120D02*
X0061203Y0218120D01*
X0061149Y0218315D02*
X0060460Y0218315D01*
X0060398Y0218511D02*
X0061096Y0218511D01*
X0061042Y0218706D02*
X0060335Y0218706D01*
X0060272Y0218901D02*
X0060989Y0218901D01*
X0060935Y0219097D02*
X0060210Y0219097D01*
X0060147Y0219292D02*
X0060882Y0219292D01*
X0060828Y0219487D02*
X0060085Y0219487D01*
X0060022Y0219683D02*
X0060774Y0219683D01*
X0059781Y0219222D02*
X0059501Y0219010D01*
X0059222Y0218797D01*
X0058930Y0219028D01*
X0058554Y0219071D01*
X0058072Y0219004D01*
X0057830Y0218616D01*
X0057830Y0218246D01*
X0058814Y0218246D01*
X0059383Y0218134D01*
X0059816Y0217756D01*
X0059966Y0217199D01*
X0059928Y0217024D01*
X0059871Y0216748D01*
X0059588Y0216386D01*
X0059176Y0216179D01*
X0058718Y0216118D01*
X0058227Y0216177D01*
X0057846Y0216472D01*
X0057832Y0216472D01*
X0057832Y0216159D01*
X0057119Y0216159D01*
X0057119Y0216642D01*
X0057119Y0217024D01*
X0057895Y0217024D01*
X0057897Y0217010D01*
X0058225Y0216809D01*
X0058625Y0216787D01*
X0059064Y0216874D01*
X0059161Y0217024D01*
X0059928Y0217024D01*
X0059161Y0217024D01*
X0059294Y0217234D01*
X0059090Y0217577D01*
X0058680Y0217659D01*
X0057830Y0217659D01*
X0057830Y0217402D01*
X0057895Y0217024D01*
X0057119Y0217024D01*
X0057119Y0218571D01*
X0057216Y0219096D01*
X0057558Y0219500D01*
X0058056Y0219689D01*
X0058590Y0219734D01*
X0058590Y0219736D01*
X0059038Y0219695D01*
X0059456Y0219531D01*
X0059781Y0219222D01*
X0059707Y0219292D02*
X0057382Y0219292D01*
X0057547Y0219487D02*
X0059502Y0219487D01*
X0059615Y0219097D02*
X0057216Y0219097D01*
X0057180Y0218901D02*
X0058008Y0218901D01*
X0057886Y0218706D02*
X0057144Y0218706D01*
X0057119Y0218511D02*
X0057830Y0218511D01*
X0057830Y0218315D02*
X0057119Y0218315D01*
X0057119Y0218120D02*
X0059399Y0218120D01*
X0059623Y0217924D02*
X0057119Y0217924D01*
X0057119Y0217729D02*
X0059823Y0217729D01*
X0059876Y0217534D02*
X0059115Y0217534D01*
X0059232Y0217338D02*
X0059928Y0217338D01*
X0059954Y0217143D02*
X0059236Y0217143D01*
X0059112Y0216948D02*
X0059913Y0216948D01*
X0059872Y0216752D02*
X0057119Y0216752D01*
X0057119Y0216557D02*
X0059722Y0216557D01*
X0059539Y0216362D02*
X0057989Y0216362D01*
X0057832Y0216362D02*
X0057119Y0216362D01*
X0057119Y0216166D02*
X0057832Y0216166D01*
X0058318Y0216166D02*
X0059079Y0216166D01*
X0057999Y0216948D02*
X0057119Y0216948D01*
X0057119Y0217143D02*
X0057874Y0217143D01*
X0057841Y0217338D02*
X0057119Y0217338D01*
X0057119Y0217534D02*
X0057830Y0217534D01*
X0056336Y0217534D02*
X0055625Y0217534D01*
X0055625Y0217729D02*
X0056336Y0217729D01*
X0056336Y0217924D02*
X0055625Y0217924D01*
X0055625Y0218120D02*
X0056336Y0218120D01*
X0056336Y0218315D02*
X0055615Y0218315D01*
X0055625Y0218285D02*
X0055446Y0218813D01*
X0054934Y0219026D01*
X0054468Y0218850D01*
X0054210Y0219157D01*
X0053952Y0219465D01*
X0054298Y0219663D01*
X0054690Y0219736D01*
X0055200Y0219636D01*
X0055609Y0219319D01*
X0055623Y0219319D01*
X0055623Y0219695D01*
X0056336Y0219695D01*
X0056336Y0216163D01*
X0056338Y0216159D01*
X0055625Y0216159D01*
X0055625Y0218285D01*
X0055549Y0218511D02*
X0056336Y0218511D01*
X0056336Y0218706D02*
X0055482Y0218706D01*
X0055233Y0218901D02*
X0056336Y0218901D01*
X0056336Y0219097D02*
X0054261Y0219097D01*
X0054097Y0219292D02*
X0056336Y0219292D01*
X0056336Y0219487D02*
X0055623Y0219487D01*
X0055623Y0219683D02*
X0056336Y0219683D01*
X0055392Y0219487D02*
X0053992Y0219487D01*
X0054402Y0219683D02*
X0054962Y0219683D01*
X0054603Y0218901D02*
X0054425Y0218901D01*
X0053819Y0218706D02*
X0053096Y0218706D01*
X0053113Y0218685D02*
X0053820Y0218685D01*
X0053822Y0218683D01*
X0053897Y0218439D01*
X0053940Y0217915D01*
X0053895Y0217374D01*
X0053725Y0216860D01*
X0053389Y0216439D01*
X0052909Y0216191D01*
X0052371Y0216118D01*
X0051895Y0216179D01*
X0051456Y0216374D01*
X0051096Y0216689D01*
X0051353Y0216909D01*
X0051611Y0217130D01*
X0051964Y0216882D01*
X0052383Y0216787D01*
X0052826Y0216888D01*
X0053137Y0217213D01*
X0053227Y0217657D01*
X0051023Y0217657D01*
X0051023Y0218244D01*
X0051099Y0218683D01*
X0051849Y0218683D01*
X0051820Y0218648D01*
X0051733Y0218244D01*
X0053227Y0218244D01*
X0053143Y0218650D01*
X0053113Y0218685D01*
X0053115Y0218683D02*
X0052879Y0218961D01*
X0052483Y0219067D01*
X0052088Y0218961D01*
X0051853Y0218685D01*
X0051103Y0218685D01*
X0051127Y0218817D01*
X0051436Y0219307D01*
X0051916Y0219628D01*
X0052485Y0219738D01*
X0053001Y0219648D01*
X0053444Y0219370D01*
X0053747Y0218943D01*
X0053826Y0218685D01*
X0053822Y0218683D01*
X0053115Y0218683D01*
X0053172Y0218511D02*
X0053875Y0218511D01*
X0053907Y0218315D02*
X0053213Y0218315D01*
X0052930Y0218901D02*
X0053760Y0218901D01*
X0053638Y0219097D02*
X0051303Y0219097D01*
X0051427Y0219292D02*
X0053499Y0219292D01*
X0053257Y0219487D02*
X0051706Y0219487D01*
X0052199Y0219683D02*
X0052801Y0219683D01*
X0052037Y0218901D02*
X0051180Y0218901D01*
X0051107Y0218706D02*
X0051871Y0218706D01*
X0051791Y0218511D02*
X0051069Y0218511D01*
X0051035Y0218315D02*
X0051749Y0218315D01*
X0051023Y0218120D02*
X0053923Y0218120D01*
X0053939Y0217924D02*
X0051023Y0217924D01*
X0051023Y0217729D02*
X0053924Y0217729D01*
X0053908Y0217534D02*
X0053202Y0217534D01*
X0053162Y0217338D02*
X0053883Y0217338D01*
X0053819Y0217143D02*
X0053070Y0217143D01*
X0052883Y0216948D02*
X0053754Y0216948D01*
X0053639Y0216752D02*
X0051170Y0216752D01*
X0051247Y0216557D02*
X0053483Y0216557D01*
X0053239Y0216362D02*
X0051484Y0216362D01*
X0051996Y0216166D02*
X0052726Y0216166D01*
X0051870Y0216948D02*
X0051398Y0216948D01*
X0055625Y0216948D02*
X0056336Y0216948D01*
X0056336Y0217143D02*
X0055625Y0217143D01*
X0055625Y0217338D02*
X0056336Y0217338D01*
X0056336Y0216752D02*
X0055625Y0216752D01*
X0055625Y0216557D02*
X0056336Y0216557D01*
X0056336Y0216362D02*
X0055625Y0216362D01*
X0055625Y0216166D02*
X0056336Y0216166D01*
X0059090Y0218901D02*
X0059358Y0218901D01*
X0059069Y0219683D02*
X0058040Y0219683D01*
X0060772Y0217338D02*
X0061419Y0217338D01*
X0061504Y0217338D02*
X0062128Y0217338D01*
X0062070Y0217143D02*
X0060834Y0217143D01*
X0060897Y0216948D02*
X0062012Y0216948D01*
X0061953Y0216752D02*
X0060959Y0216752D01*
X0061022Y0216557D02*
X0061895Y0216557D01*
X0061837Y0216362D02*
X0061084Y0216362D01*
X0061147Y0216166D02*
X0061779Y0216166D01*
X0061882Y0218511D02*
X0062476Y0218511D01*
X0062563Y0218511D02*
X0063160Y0218511D01*
X0063097Y0218706D02*
X0061944Y0218706D01*
X0062007Y0218901D02*
X0063034Y0218901D01*
X0062971Y0219097D02*
X0062070Y0219097D01*
X0062134Y0219292D02*
X0062908Y0219292D01*
X0062845Y0219487D02*
X0062197Y0219487D01*
X0062260Y0219683D02*
X0062782Y0219683D01*
X0065405Y0216362D02*
X0066115Y0216362D01*
X0066115Y0216166D02*
X0065405Y0216166D01*
X0066810Y0216166D02*
X0067248Y0216166D01*
X0068714Y0218901D02*
X0068893Y0218901D01*
X0068681Y0219683D02*
X0069261Y0219683D01*
X0069912Y0219683D02*
X0070625Y0219683D01*
X0075125Y0224958D02*
X0076797Y0224958D01*
X0076528Y0225153D02*
X0075362Y0225153D01*
X0072301Y0228083D02*
X0072029Y0228083D01*
X0072070Y0228055D02*
X0071643Y0228348D01*
X0071216Y0228642D01*
X0070788Y0228935D01*
X0070361Y0229228D01*
X0069934Y0229522D01*
X0069507Y0229815D01*
X0069261Y0229823D01*
X0068883Y0229622D01*
X0068505Y0229421D01*
X0068127Y0229220D01*
X0067940Y0229289D01*
X0067727Y0229801D01*
X0067515Y0230313D01*
X0067302Y0230827D01*
X0067090Y0231339D01*
X0066877Y0231850D01*
X0066664Y0232364D01*
X0066452Y0232876D01*
X0066239Y0233390D01*
X0066027Y0233902D01*
X0065814Y0234413D01*
X0065601Y0234927D01*
X0065670Y0235138D01*
X0065954Y0235311D01*
X0066133Y0235449D01*
X0066554Y0235764D01*
X0066928Y0236136D01*
X0067245Y0236557D01*
X0067499Y0237020D01*
X0067684Y0237512D01*
X0067796Y0238028D01*
X0067834Y0238553D01*
X0067788Y0239130D01*
X0067655Y0239693D01*
X0067434Y0240226D01*
X0067131Y0240719D01*
X0066755Y0241157D01*
X0066316Y0241533D01*
X0065824Y0241837D01*
X0065290Y0242057D01*
X0064727Y0242191D01*
X0064151Y0242236D01*
X0063574Y0242191D01*
X0063011Y0242057D01*
X0062477Y0241837D01*
X0061985Y0241533D01*
X0061546Y0241157D01*
X0061170Y0240719D01*
X0060867Y0240226D01*
X0060647Y0239693D01*
X0060513Y0239130D01*
X0060468Y0238553D01*
X0060505Y0238028D01*
X0060617Y0237512D01*
X0060802Y0237018D01*
X0061056Y0236555D01*
X0061373Y0236134D01*
X0061747Y0235762D01*
X0062168Y0235447D01*
X0062348Y0235309D01*
X0062631Y0235136D01*
X0062700Y0234925D01*
X0062487Y0234413D01*
X0062275Y0233902D01*
X0062062Y0233388D01*
X0061849Y0232876D01*
X0061637Y0232364D01*
X0061424Y0231850D01*
X0061212Y0231337D01*
X0060999Y0230825D01*
X0060787Y0230311D01*
X0060574Y0229799D01*
X0060361Y0229285D01*
X0060174Y0229217D01*
X0059796Y0229417D01*
X0059418Y0229618D01*
X0059040Y0229819D01*
X0058794Y0229811D01*
X0058367Y0229518D01*
X0057940Y0229224D01*
X0057513Y0228931D01*
X0057086Y0228638D01*
X0056659Y0228344D01*
X0056231Y0228051D01*
X0056009Y0228073D01*
X0055617Y0228465D01*
X0055225Y0228856D01*
X0054834Y0229250D01*
X0054442Y0229642D01*
X0054050Y0230033D01*
X0053659Y0230425D01*
X0053637Y0230650D01*
X0053936Y0231085D01*
X0054235Y0231520D01*
X0054535Y0231955D01*
X0054834Y0232390D01*
X0055133Y0232825D01*
X0055432Y0233260D01*
X0055450Y0233512D01*
X0055253Y0234004D01*
X0055056Y0234496D01*
X0054859Y0234988D01*
X0054662Y0235480D01*
X0054466Y0235972D01*
X0054279Y0236138D01*
X0053753Y0236236D01*
X0053227Y0236335D01*
X0052702Y0236433D01*
X0052176Y0236531D01*
X0051651Y0236630D01*
X0051125Y0236728D01*
X0050981Y0236902D01*
X0050981Y0240232D01*
X0051125Y0240406D01*
X0051664Y0240506D01*
X0052204Y0240606D01*
X0052743Y0240707D01*
X0053283Y0240807D01*
X0053822Y0240907D01*
X0054361Y0241008D01*
X0054552Y0241173D01*
X0054751Y0241636D01*
X0054950Y0242098D01*
X0055149Y0242561D01*
X0055348Y0243024D01*
X0055546Y0243486D01*
X0055531Y0243736D01*
X0055216Y0244195D01*
X0054901Y0244654D01*
X0054586Y0245112D01*
X0054556Y0245154D01*
X0055361Y0245154D01*
X0055458Y0245012D01*
X0055785Y0244535D01*
X0056111Y0244059D01*
X0056275Y0243516D01*
X0056194Y0243128D01*
X0055995Y0242665D01*
X0055796Y0242203D01*
X0055598Y0241740D01*
X0055399Y0241278D01*
X0055200Y0240815D01*
X0054934Y0240451D01*
X0054487Y0240232D01*
X0053928Y0240128D01*
X0053367Y0240024D01*
X0052806Y0239919D01*
X0052245Y0239815D01*
X0051684Y0239711D01*
X0051684Y0237268D01*
X0052229Y0237167D01*
X0052773Y0237065D01*
X0053318Y0236965D01*
X0053861Y0236862D01*
X0054405Y0236762D01*
X0054859Y0236535D01*
X0055123Y0236156D01*
X0055318Y0235667D01*
X0055513Y0235179D01*
X0055708Y0234691D01*
X0055903Y0234203D01*
X0056098Y0233715D01*
X0056174Y0233337D01*
X0056009Y0232789D01*
X0055700Y0232341D01*
X0055391Y0231892D01*
X0055082Y0231443D01*
X0054773Y0230994D01*
X0054464Y0230545D01*
X0054810Y0230199D01*
X0055157Y0229852D01*
X0055503Y0229506D01*
X0055849Y0229159D01*
X0056196Y0228813D01*
X0056637Y0229116D01*
X0057078Y0229419D01*
X0057519Y0229722D01*
X0057960Y0230026D01*
X0058401Y0230329D01*
X0058934Y0230490D01*
X0059383Y0230378D01*
X0059668Y0230224D01*
X0059954Y0230071D01*
X0060166Y0230587D01*
X0060379Y0231102D01*
X0060592Y0231618D01*
X0060804Y0232134D01*
X0061017Y0232650D01*
X0061229Y0233165D01*
X0061442Y0233681D01*
X0061655Y0234197D01*
X0061867Y0234713D01*
X0061735Y0234817D01*
X0061302Y0235142D01*
X0060912Y0235518D01*
X0060570Y0235939D01*
X0060283Y0236400D01*
X0060054Y0236892D01*
X0059889Y0237407D01*
X0059788Y0237941D01*
X0059755Y0238482D01*
X0059792Y0239055D01*
X0059905Y0239618D01*
X0060090Y0240161D01*
X0060344Y0240677D01*
X0060662Y0241154D01*
X0061042Y0241587D01*
X0061474Y0241967D01*
X0061952Y0242285D01*
X0062468Y0242539D01*
X0063011Y0242724D01*
X0063574Y0242837D01*
X0064147Y0242874D01*
X0064720Y0242837D01*
X0065283Y0242724D01*
X0065826Y0242539D01*
X0066342Y0242285D01*
X0066820Y0241967D01*
X0067251Y0241587D01*
X0067631Y0241156D01*
X0067950Y0240677D01*
X0068204Y0240161D01*
X0068389Y0239618D01*
X0068501Y0239055D01*
X0068538Y0238482D01*
X0068505Y0237941D01*
X0068405Y0237407D01*
X0068239Y0236892D01*
X0068011Y0236400D01*
X0067724Y0235939D01*
X0067383Y0235518D01*
X0066993Y0235142D01*
X0066558Y0234817D01*
X0066426Y0234713D01*
X0066639Y0234197D01*
X0066851Y0233681D01*
X0067064Y0233165D01*
X0067277Y0232650D01*
X0067489Y0232134D01*
X0067702Y0231618D01*
X0067914Y0231102D01*
X0068127Y0230587D01*
X0068340Y0230071D01*
X0068625Y0230224D01*
X0068911Y0230378D01*
X0069359Y0230490D01*
X0069893Y0230329D01*
X0070332Y0230028D01*
X0070773Y0229724D01*
X0071214Y0229421D01*
X0071653Y0229120D01*
X0072092Y0228817D01*
X0072438Y0229163D01*
X0072785Y0229510D01*
X0073131Y0229856D01*
X0073477Y0230203D01*
X0073824Y0230549D01*
X0073515Y0230998D01*
X0073206Y0231449D01*
X0072897Y0231900D01*
X0072588Y0232348D01*
X0072279Y0232797D01*
X0072113Y0233344D01*
X0072190Y0233722D01*
X0072387Y0234213D01*
X0072584Y0234703D01*
X0072781Y0235193D01*
X0072975Y0235683D01*
X0073172Y0236173D01*
X0073434Y0236551D01*
X0073891Y0236778D01*
X0074434Y0236878D01*
X0074977Y0236978D01*
X0075521Y0237079D01*
X0076064Y0237179D01*
X0076607Y0237280D01*
X0076607Y0239720D01*
X0076046Y0239825D01*
X0075487Y0239929D01*
X0074926Y0240033D01*
X0074367Y0240138D01*
X0073806Y0240242D01*
X0073357Y0240461D01*
X0073092Y0240825D01*
X0072895Y0241285D01*
X0072698Y0241746D01*
X0072501Y0242207D01*
X0072304Y0242667D01*
X0072107Y0243128D01*
X0072021Y0243530D01*
X0072182Y0244069D01*
X0072509Y0244545D01*
X0072836Y0245022D01*
X0072934Y0245163D01*
X0073739Y0245163D01*
X0073745Y0245154D01*
X0073716Y0245112D01*
X0073401Y0244654D01*
X0073086Y0244195D01*
X0072771Y0243736D01*
X0072755Y0243486D01*
X0072954Y0243024D01*
X0073153Y0242561D01*
X0073351Y0242098D01*
X0073550Y0241636D01*
X0073749Y0241173D01*
X0073940Y0241008D01*
X0074479Y0240907D01*
X0075019Y0240807D01*
X0075558Y0240707D01*
X0076098Y0240606D01*
X0076637Y0240506D01*
X0077176Y0240406D01*
X0077320Y0240232D01*
X0077320Y0236902D01*
X0077176Y0236728D01*
X0076651Y0236630D01*
X0076125Y0236531D01*
X0075599Y0236433D01*
X0075074Y0236335D01*
X0074548Y0236236D01*
X0074023Y0236138D01*
X0073836Y0235972D01*
X0073639Y0235480D01*
X0073442Y0234988D01*
X0073245Y0234496D01*
X0073048Y0234004D01*
X0072851Y0233512D01*
X0072871Y0233260D01*
X0073170Y0232825D01*
X0073470Y0232390D01*
X0073769Y0231955D01*
X0074068Y0231520D01*
X0074367Y0231085D01*
X0074666Y0230650D01*
X0074645Y0230425D01*
X0074253Y0230033D01*
X0073861Y0229642D01*
X0073468Y0229250D01*
X0073076Y0228858D01*
X0072684Y0228467D01*
X0072292Y0228075D01*
X0072070Y0228055D01*
X0071744Y0228279D02*
X0072496Y0228279D01*
X0072692Y0228474D02*
X0071460Y0228474D01*
X0071175Y0228669D02*
X0072887Y0228669D01*
X0073082Y0228865D02*
X0072139Y0228865D01*
X0072022Y0228865D02*
X0070891Y0228865D01*
X0070606Y0229060D02*
X0071739Y0229060D01*
X0071455Y0229255D02*
X0070322Y0229255D01*
X0070037Y0229451D02*
X0071171Y0229451D01*
X0070887Y0229646D02*
X0069753Y0229646D01*
X0070033Y0230232D02*
X0068640Y0230232D01*
X0068273Y0230232D02*
X0067548Y0230232D01*
X0067630Y0230037D02*
X0070318Y0230037D01*
X0070602Y0229842D02*
X0067711Y0229842D01*
X0067792Y0229646D02*
X0068928Y0229646D01*
X0068561Y0229451D02*
X0067873Y0229451D01*
X0068032Y0229255D02*
X0068193Y0229255D01*
X0068193Y0230428D02*
X0067467Y0230428D01*
X0067387Y0230623D02*
X0068112Y0230623D01*
X0068032Y0230818D02*
X0067306Y0230818D01*
X0067225Y0231014D02*
X0067951Y0231014D01*
X0067870Y0231209D02*
X0067143Y0231209D01*
X0067062Y0231404D02*
X0067790Y0231404D01*
X0067709Y0231600D02*
X0066981Y0231600D01*
X0066900Y0231795D02*
X0067629Y0231795D01*
X0067548Y0231991D02*
X0066819Y0231991D01*
X0066738Y0232186D02*
X0067468Y0232186D01*
X0067387Y0232381D02*
X0066657Y0232381D01*
X0066576Y0232577D02*
X0067307Y0232577D01*
X0067226Y0232772D02*
X0066495Y0232772D01*
X0066414Y0232967D02*
X0067146Y0232967D01*
X0067065Y0233163D02*
X0066333Y0233163D01*
X0066252Y0233358D02*
X0066985Y0233358D01*
X0066904Y0233553D02*
X0066171Y0233553D01*
X0066090Y0233749D02*
X0066824Y0233749D01*
X0066743Y0233944D02*
X0066009Y0233944D01*
X0065928Y0234140D02*
X0066663Y0234140D01*
X0066582Y0234335D02*
X0065847Y0234335D01*
X0065766Y0234530D02*
X0066501Y0234530D01*
X0066443Y0234726D02*
X0065685Y0234726D01*
X0065604Y0234921D02*
X0066697Y0234921D01*
X0066959Y0235116D02*
X0065663Y0235116D01*
X0065955Y0235312D02*
X0067169Y0235312D01*
X0067372Y0235507D02*
X0066211Y0235507D01*
X0066472Y0235702D02*
X0067532Y0235702D01*
X0067690Y0235898D02*
X0066689Y0235898D01*
X0066885Y0236093D02*
X0067820Y0236093D01*
X0067942Y0236288D02*
X0067043Y0236288D01*
X0067190Y0236484D02*
X0068050Y0236484D01*
X0068141Y0236679D02*
X0067312Y0236679D01*
X0067419Y0236875D02*
X0068231Y0236875D01*
X0068296Y0237070D02*
X0067518Y0237070D01*
X0067591Y0237265D02*
X0068359Y0237265D01*
X0068415Y0237461D02*
X0067665Y0237461D01*
X0067716Y0237656D02*
X0068451Y0237656D01*
X0068488Y0237851D02*
X0067758Y0237851D01*
X0067798Y0238047D02*
X0068512Y0238047D01*
X0068524Y0238242D02*
X0067812Y0238242D01*
X0067826Y0238437D02*
X0068536Y0238437D01*
X0068529Y0238633D02*
X0067827Y0238633D01*
X0067812Y0238828D02*
X0068516Y0238828D01*
X0068503Y0239024D02*
X0067797Y0239024D01*
X0067767Y0239219D02*
X0068468Y0239219D01*
X0068429Y0239414D02*
X0067721Y0239414D01*
X0067674Y0239610D02*
X0068391Y0239610D01*
X0068325Y0239805D02*
X0067608Y0239805D01*
X0067528Y0240000D02*
X0068259Y0240000D01*
X0068187Y0240196D02*
X0067447Y0240196D01*
X0067333Y0240391D02*
X0068091Y0240391D01*
X0067995Y0240586D02*
X0067212Y0240586D01*
X0067077Y0240782D02*
X0067880Y0240782D01*
X0067750Y0240977D02*
X0066909Y0240977D01*
X0066737Y0241173D02*
X0067616Y0241173D01*
X0067444Y0241368D02*
X0066509Y0241368D01*
X0066268Y0241563D02*
X0067272Y0241563D01*
X0067056Y0241759D02*
X0065951Y0241759D01*
X0065540Y0241954D02*
X0066834Y0241954D01*
X0066546Y0242149D02*
X0064902Y0242149D01*
X0065227Y0242735D02*
X0063066Y0242735D01*
X0062470Y0242540D02*
X0065824Y0242540D01*
X0066221Y0242345D02*
X0062072Y0242345D01*
X0061748Y0242149D02*
X0063399Y0242149D01*
X0062761Y0241954D02*
X0061459Y0241954D01*
X0061238Y0241759D02*
X0062351Y0241759D01*
X0062034Y0241563D02*
X0061022Y0241563D01*
X0060851Y0241368D02*
X0061792Y0241368D01*
X0061564Y0241173D02*
X0060679Y0241173D01*
X0060544Y0240977D02*
X0061392Y0240977D01*
X0061225Y0240782D02*
X0060414Y0240782D01*
X0060299Y0240586D02*
X0061089Y0240586D01*
X0060969Y0240391D02*
X0060203Y0240391D01*
X0060107Y0240196D02*
X0060855Y0240196D01*
X0060774Y0240000D02*
X0060035Y0240000D01*
X0059968Y0239805D02*
X0060693Y0239805D01*
X0060627Y0239610D02*
X0059903Y0239610D01*
X0059864Y0239414D02*
X0060580Y0239414D01*
X0060534Y0239219D02*
X0059825Y0239219D01*
X0059790Y0239024D02*
X0060505Y0239024D01*
X0060489Y0238828D02*
X0059778Y0238828D01*
X0059765Y0238633D02*
X0060474Y0238633D01*
X0060476Y0238437D02*
X0059758Y0238437D01*
X0059770Y0238242D02*
X0060490Y0238242D01*
X0060504Y0238047D02*
X0059782Y0238047D01*
X0059805Y0237851D02*
X0060543Y0237851D01*
X0060586Y0237656D02*
X0059842Y0237656D01*
X0059879Y0237461D02*
X0060636Y0237461D01*
X0060710Y0237265D02*
X0059934Y0237265D01*
X0059997Y0237070D02*
X0060783Y0237070D01*
X0060881Y0236875D02*
X0060062Y0236875D01*
X0060153Y0236679D02*
X0060988Y0236679D01*
X0061110Y0236484D02*
X0060243Y0236484D01*
X0060352Y0236288D02*
X0061257Y0236288D01*
X0061414Y0236093D02*
X0060474Y0236093D01*
X0060603Y0235898D02*
X0061610Y0235898D01*
X0061827Y0235702D02*
X0060762Y0235702D01*
X0060924Y0235507D02*
X0062088Y0235507D01*
X0062344Y0235312D02*
X0061126Y0235312D01*
X0061336Y0235116D02*
X0062637Y0235116D01*
X0062698Y0234921D02*
X0061597Y0234921D01*
X0061851Y0234726D02*
X0062617Y0234726D01*
X0062536Y0234530D02*
X0061792Y0234530D01*
X0061712Y0234335D02*
X0062455Y0234335D01*
X0062374Y0234140D02*
X0061631Y0234140D01*
X0061550Y0233944D02*
X0062292Y0233944D01*
X0062211Y0233749D02*
X0061470Y0233749D01*
X0061389Y0233553D02*
X0062131Y0233553D01*
X0062050Y0233358D02*
X0061309Y0233358D01*
X0061228Y0233163D02*
X0061969Y0233163D01*
X0061887Y0232967D02*
X0061148Y0232967D01*
X0061067Y0232772D02*
X0061806Y0232772D01*
X0061725Y0232577D02*
X0060987Y0232577D01*
X0060906Y0232381D02*
X0061644Y0232381D01*
X0061563Y0232186D02*
X0060826Y0232186D01*
X0060745Y0231991D02*
X0061482Y0231991D01*
X0061401Y0231795D02*
X0060665Y0231795D01*
X0060584Y0231600D02*
X0061321Y0231600D01*
X0061240Y0231404D02*
X0060504Y0231404D01*
X0060423Y0231209D02*
X0061159Y0231209D01*
X0061078Y0231014D02*
X0060342Y0231014D01*
X0060262Y0230818D02*
X0060996Y0230818D01*
X0060916Y0230623D02*
X0060181Y0230623D01*
X0060101Y0230428D02*
X0060835Y0230428D01*
X0060754Y0230232D02*
X0060020Y0230232D01*
X0059654Y0230232D02*
X0058260Y0230232D01*
X0057976Y0230037D02*
X0060673Y0230037D01*
X0060591Y0229842D02*
X0057692Y0229842D01*
X0057408Y0229646D02*
X0058554Y0229646D01*
X0058270Y0229451D02*
X0057124Y0229451D01*
X0056840Y0229255D02*
X0057985Y0229255D01*
X0057701Y0229060D02*
X0056555Y0229060D01*
X0056271Y0228865D02*
X0057416Y0228865D01*
X0057132Y0228669D02*
X0055412Y0228669D01*
X0055217Y0228865D02*
X0056144Y0228865D01*
X0055949Y0229060D02*
X0055023Y0229060D01*
X0054828Y0229255D02*
X0055753Y0229255D01*
X0055558Y0229451D02*
X0054633Y0229451D01*
X0054438Y0229646D02*
X0055363Y0229646D01*
X0055167Y0229842D02*
X0054242Y0229842D01*
X0054047Y0230037D02*
X0054972Y0230037D01*
X0054777Y0230232D02*
X0053851Y0230232D01*
X0053658Y0230428D02*
X0054581Y0230428D01*
X0054517Y0230623D02*
X0053639Y0230623D01*
X0053753Y0230818D02*
X0054652Y0230818D01*
X0054786Y0231014D02*
X0053887Y0231014D01*
X0054022Y0231209D02*
X0054921Y0231209D01*
X0055055Y0231404D02*
X0054156Y0231404D01*
X0054290Y0231600D02*
X0055190Y0231600D01*
X0055324Y0231795D02*
X0054425Y0231795D01*
X0054559Y0231991D02*
X0055459Y0231991D01*
X0055593Y0232186D02*
X0054694Y0232186D01*
X0054828Y0232381D02*
X0055728Y0232381D01*
X0055862Y0232577D02*
X0054962Y0232577D01*
X0055097Y0232772D02*
X0055997Y0232772D01*
X0056063Y0232967D02*
X0055231Y0232967D01*
X0055365Y0233163D02*
X0056122Y0233163D01*
X0056170Y0233358D02*
X0055439Y0233358D01*
X0055433Y0233553D02*
X0056130Y0233553D01*
X0056084Y0233749D02*
X0055355Y0233749D01*
X0055277Y0233944D02*
X0056006Y0233944D01*
X0055928Y0234140D02*
X0055199Y0234140D01*
X0055121Y0234335D02*
X0055850Y0234335D01*
X0055772Y0234530D02*
X0055043Y0234530D01*
X0054964Y0234726D02*
X0055694Y0234726D01*
X0055616Y0234921D02*
X0054886Y0234921D01*
X0054808Y0235116D02*
X0055538Y0235116D01*
X0055460Y0235312D02*
X0054730Y0235312D01*
X0054652Y0235507D02*
X0055382Y0235507D01*
X0055304Y0235702D02*
X0054574Y0235702D01*
X0054496Y0235898D02*
X0055226Y0235898D01*
X0055148Y0236093D02*
X0054329Y0236093D01*
X0054571Y0236679D02*
X0051387Y0236679D01*
X0051004Y0236875D02*
X0053796Y0236875D01*
X0053474Y0236288D02*
X0055031Y0236288D01*
X0054895Y0236484D02*
X0052431Y0236484D01*
X0052746Y0237070D02*
X0050981Y0237070D01*
X0050981Y0237265D02*
X0051697Y0237265D01*
X0051684Y0237461D02*
X0050981Y0237461D01*
X0050981Y0237656D02*
X0051684Y0237656D01*
X0051684Y0237851D02*
X0050981Y0237851D01*
X0050981Y0238047D02*
X0051684Y0238047D01*
X0051684Y0238242D02*
X0050981Y0238242D01*
X0050981Y0238437D02*
X0051684Y0238437D01*
X0051684Y0238633D02*
X0050981Y0238633D01*
X0050981Y0238828D02*
X0051684Y0238828D01*
X0051684Y0239024D02*
X0050981Y0239024D01*
X0050981Y0239219D02*
X0051684Y0239219D01*
X0051684Y0239414D02*
X0050981Y0239414D01*
X0050981Y0239610D02*
X0051684Y0239610D01*
X0052192Y0239805D02*
X0050981Y0239805D01*
X0050981Y0240000D02*
X0053242Y0240000D01*
X0053147Y0240782D02*
X0055176Y0240782D01*
X0055270Y0240977D02*
X0054196Y0240977D01*
X0054551Y0241173D02*
X0055354Y0241173D01*
X0055438Y0241368D02*
X0054636Y0241368D01*
X0054720Y0241563D02*
X0055522Y0241563D01*
X0055605Y0241759D02*
X0054804Y0241759D01*
X0054888Y0241954D02*
X0055689Y0241954D01*
X0055773Y0242149D02*
X0054972Y0242149D01*
X0055056Y0242345D02*
X0055857Y0242345D01*
X0055941Y0242540D02*
X0055140Y0242540D01*
X0055224Y0242735D02*
X0056025Y0242735D01*
X0056109Y0242931D02*
X0055308Y0242931D01*
X0055392Y0243126D02*
X0056193Y0243126D01*
X0056234Y0243322D02*
X0055476Y0243322D01*
X0055544Y0243517D02*
X0056274Y0243517D01*
X0056216Y0243712D02*
X0055532Y0243712D01*
X0055413Y0243908D02*
X0056157Y0243908D01*
X0056081Y0244103D02*
X0055279Y0244103D01*
X0055145Y0244298D02*
X0055947Y0244298D01*
X0055813Y0244494D02*
X0055010Y0244494D01*
X0054876Y0244689D02*
X0055679Y0244689D01*
X0055545Y0244884D02*
X0054742Y0244884D01*
X0054608Y0245080D02*
X0055412Y0245080D01*
X0055336Y0245165D02*
X0054531Y0245165D01*
X0054245Y0245581D01*
X0053930Y0246039D01*
X0053615Y0246498D01*
X0053637Y0246720D01*
X0054029Y0247112D01*
X0054420Y0247504D01*
X0054812Y0247896D01*
X0055204Y0248287D01*
X0055596Y0248679D01*
X0055987Y0249071D01*
X0056210Y0249091D01*
X0056676Y0248772D01*
X0057143Y0248453D01*
X0057609Y0248134D01*
X0058076Y0247815D01*
X0058542Y0247496D01*
X0059009Y0247177D01*
X0059261Y0247159D01*
X0059710Y0247343D01*
X0060159Y0247526D01*
X0060607Y0247709D01*
X0061056Y0247892D01*
X0061505Y0248075D01*
X0061670Y0248264D01*
X0061775Y0248821D01*
X0061879Y0249378D01*
X0061983Y0249935D01*
X0062088Y0250492D01*
X0062192Y0251049D01*
X0062296Y0251606D01*
X0062470Y0251750D01*
X0065800Y0251750D01*
X0065974Y0251606D01*
X0066078Y0251049D01*
X0066182Y0250492D01*
X0066287Y0249935D01*
X0066391Y0249378D01*
X0066495Y0248821D01*
X0066599Y0248264D01*
X0066765Y0248075D01*
X0067214Y0247892D01*
X0067662Y0247709D01*
X0068111Y0247526D01*
X0068560Y0247343D01*
X0069009Y0247159D01*
X0069261Y0247177D01*
X0069727Y0247496D01*
X0070194Y0247815D01*
X0070661Y0248134D01*
X0071127Y0248453D01*
X0071594Y0248772D01*
X0072060Y0249091D01*
X0072285Y0249071D01*
X0072676Y0248679D01*
X0073068Y0248287D01*
X0073462Y0247896D01*
X0073853Y0247504D01*
X0074245Y0247112D01*
X0074637Y0246720D01*
X0074659Y0246498D01*
X0074344Y0246039D01*
X0074029Y0245581D01*
X0073743Y0245165D01*
X0073745Y0245154D01*
X0072940Y0245154D01*
X0073170Y0245488D01*
X0073497Y0245965D01*
X0073824Y0246443D01*
X0073477Y0246789D01*
X0073131Y0247136D01*
X0072785Y0247482D01*
X0072438Y0247829D01*
X0072092Y0248175D01*
X0071605Y0247841D01*
X0071119Y0247508D01*
X0070633Y0247173D01*
X0070147Y0246839D01*
X0069661Y0246504D01*
X0069113Y0246341D01*
X0068733Y0246417D01*
X0068287Y0246600D01*
X0067840Y0246783D01*
X0067393Y0246967D01*
X0066946Y0247150D01*
X0066499Y0247333D01*
X0066123Y0247598D01*
X0065901Y0248047D01*
X0065810Y0248533D01*
X0065720Y0249020D01*
X0065629Y0249506D01*
X0065538Y0249992D01*
X0065448Y0250478D01*
X0065357Y0250965D01*
X0062916Y0250965D01*
X0062826Y0250480D01*
X0062735Y0249996D01*
X0062645Y0249512D01*
X0062554Y0249028D01*
X0062464Y0248543D01*
X0062373Y0248059D01*
X0062151Y0247608D01*
X0061773Y0247341D01*
X0061326Y0247157D01*
X0060879Y0246974D01*
X0060432Y0246791D01*
X0059985Y0246608D01*
X0059538Y0246425D01*
X0059162Y0246350D01*
X0058615Y0246514D01*
X0058129Y0246848D01*
X0057643Y0247183D01*
X0057157Y0247518D01*
X0056670Y0247852D01*
X0056184Y0248187D01*
X0055838Y0247841D01*
X0055491Y0247494D01*
X0055145Y0247148D01*
X0054798Y0246801D01*
X0054452Y0246455D01*
X0054779Y0245978D01*
X0055105Y0245502D01*
X0055336Y0245165D01*
X0055261Y0245275D02*
X0054455Y0245275D01*
X0054321Y0245470D02*
X0055127Y0245470D01*
X0054993Y0245666D02*
X0054187Y0245666D01*
X0054053Y0245861D02*
X0054859Y0245861D01*
X0054725Y0246057D02*
X0053918Y0246057D01*
X0053784Y0246252D02*
X0054591Y0246252D01*
X0054457Y0246447D02*
X0053650Y0246447D01*
X0053629Y0246643D02*
X0054640Y0246643D01*
X0054835Y0246838D02*
X0053754Y0246838D01*
X0053950Y0247033D02*
X0055031Y0247033D01*
X0055226Y0247229D02*
X0054145Y0247229D01*
X0054341Y0247424D02*
X0055421Y0247424D01*
X0055617Y0247619D02*
X0054536Y0247619D01*
X0054731Y0247815D02*
X0055812Y0247815D01*
X0056007Y0248010D02*
X0054927Y0248010D01*
X0055122Y0248206D02*
X0057504Y0248206D01*
X0057219Y0248401D02*
X0055317Y0248401D01*
X0055513Y0248596D02*
X0056933Y0248596D01*
X0056647Y0248792D02*
X0055708Y0248792D01*
X0055903Y0248987D02*
X0056361Y0248987D01*
X0056441Y0248010D02*
X0057790Y0248010D01*
X0058076Y0247815D02*
X0056725Y0247815D01*
X0057009Y0247619D02*
X0058362Y0247619D01*
X0058648Y0247424D02*
X0057293Y0247424D01*
X0057576Y0247229D02*
X0058933Y0247229D01*
X0059431Y0247229D02*
X0061500Y0247229D01*
X0061891Y0247424D02*
X0059910Y0247424D01*
X0060389Y0247619D02*
X0062156Y0247619D01*
X0062253Y0247815D02*
X0060868Y0247815D01*
X0061347Y0248010D02*
X0062349Y0248010D01*
X0062401Y0248206D02*
X0061619Y0248206D01*
X0061696Y0248401D02*
X0062437Y0248401D01*
X0062474Y0248596D02*
X0061733Y0248596D01*
X0061769Y0248792D02*
X0062510Y0248792D01*
X0062547Y0248987D02*
X0061806Y0248987D01*
X0061842Y0249182D02*
X0062583Y0249182D01*
X0062620Y0249378D02*
X0061879Y0249378D01*
X0061916Y0249573D02*
X0062656Y0249573D01*
X0062693Y0249768D02*
X0061952Y0249768D01*
X0061989Y0249964D02*
X0062729Y0249964D01*
X0062766Y0250159D02*
X0062025Y0250159D01*
X0062062Y0250355D02*
X0062802Y0250355D01*
X0062839Y0250550D02*
X0062098Y0250550D01*
X0062135Y0250745D02*
X0062875Y0250745D01*
X0062912Y0250941D02*
X0062172Y0250941D01*
X0062208Y0251136D02*
X0066062Y0251136D01*
X0066098Y0250941D02*
X0065362Y0250941D01*
X0065398Y0250745D02*
X0066135Y0250745D01*
X0066171Y0250550D02*
X0065435Y0250550D01*
X0065471Y0250355D02*
X0066208Y0250355D01*
X0066245Y0250159D02*
X0065507Y0250159D01*
X0065544Y0249964D02*
X0066281Y0249964D01*
X0066318Y0249768D02*
X0065580Y0249768D01*
X0065617Y0249573D02*
X0066354Y0249573D01*
X0066391Y0249378D02*
X0065653Y0249378D01*
X0065689Y0249182D02*
X0066427Y0249182D01*
X0066464Y0248987D02*
X0065726Y0248987D01*
X0065762Y0248792D02*
X0066501Y0248792D01*
X0066537Y0248596D02*
X0065798Y0248596D01*
X0065835Y0248401D02*
X0066574Y0248401D01*
X0066650Y0248206D02*
X0065871Y0248206D01*
X0065919Y0248010D02*
X0066923Y0248010D01*
X0067402Y0247815D02*
X0066016Y0247815D01*
X0066113Y0247619D02*
X0067881Y0247619D01*
X0068360Y0247424D02*
X0066370Y0247424D01*
X0066753Y0247229D02*
X0068839Y0247229D01*
X0069336Y0247229D02*
X0070714Y0247229D01*
X0070997Y0247424D02*
X0069622Y0247424D01*
X0069908Y0247619D02*
X0071282Y0247619D01*
X0071568Y0247815D02*
X0070194Y0247815D01*
X0070480Y0248010D02*
X0071852Y0248010D01*
X0072257Y0248010D02*
X0073347Y0248010D01*
X0073543Y0247815D02*
X0072452Y0247815D01*
X0072647Y0247619D02*
X0073738Y0247619D01*
X0073933Y0247424D02*
X0072843Y0247424D01*
X0073038Y0247229D02*
X0074129Y0247229D01*
X0074324Y0247033D02*
X0073233Y0247033D01*
X0073429Y0246838D02*
X0074519Y0246838D01*
X0074644Y0246643D02*
X0073624Y0246643D01*
X0073820Y0246447D02*
X0074624Y0246447D01*
X0074490Y0246252D02*
X0073693Y0246252D01*
X0073560Y0246057D02*
X0074355Y0246057D01*
X0074221Y0245861D02*
X0073426Y0245861D01*
X0073292Y0245666D02*
X0074087Y0245666D01*
X0073953Y0245470D02*
X0073158Y0245470D01*
X0073024Y0245275D02*
X0073819Y0245275D01*
X0073693Y0245080D02*
X0072876Y0245080D01*
X0072742Y0244884D02*
X0073559Y0244884D01*
X0073425Y0244689D02*
X0072608Y0244689D01*
X0072474Y0244494D02*
X0073291Y0244494D01*
X0073157Y0244298D02*
X0072340Y0244298D01*
X0072206Y0244103D02*
X0073023Y0244103D01*
X0072888Y0243908D02*
X0072134Y0243908D01*
X0072075Y0243712D02*
X0072769Y0243712D01*
X0072757Y0243517D02*
X0072023Y0243517D01*
X0072066Y0243322D02*
X0072826Y0243322D01*
X0072910Y0243126D02*
X0072108Y0243126D01*
X0072192Y0242931D02*
X0072994Y0242931D01*
X0073078Y0242735D02*
X0072275Y0242735D01*
X0072359Y0242540D02*
X0073162Y0242540D01*
X0073246Y0242345D02*
X0072442Y0242345D01*
X0072526Y0242149D02*
X0073330Y0242149D01*
X0073414Y0241954D02*
X0072609Y0241954D01*
X0072693Y0241759D02*
X0073498Y0241759D01*
X0073581Y0241563D02*
X0072776Y0241563D01*
X0072860Y0241368D02*
X0073665Y0241368D01*
X0073750Y0241173D02*
X0072943Y0241173D01*
X0073027Y0240977D02*
X0074105Y0240977D01*
X0074056Y0240196D02*
X0077320Y0240196D01*
X0077320Y0240000D02*
X0075104Y0240000D01*
X0075155Y0240782D02*
X0073123Y0240782D01*
X0073266Y0240586D02*
X0076204Y0240586D01*
X0076153Y0239805D02*
X0077320Y0239805D01*
X0077320Y0239610D02*
X0076607Y0239610D01*
X0076607Y0239414D02*
X0077320Y0239414D01*
X0077320Y0239219D02*
X0076607Y0239219D01*
X0076607Y0239024D02*
X0077320Y0239024D01*
X0077320Y0238828D02*
X0076607Y0238828D01*
X0076607Y0238633D02*
X0077320Y0238633D01*
X0077320Y0238437D02*
X0076607Y0238437D01*
X0076607Y0238242D02*
X0077320Y0238242D01*
X0077320Y0238047D02*
X0076607Y0238047D01*
X0076607Y0237851D02*
X0077320Y0237851D01*
X0077320Y0237656D02*
X0076607Y0237656D01*
X0076607Y0237461D02*
X0077320Y0237461D01*
X0077320Y0237265D02*
X0076530Y0237265D01*
X0076914Y0236679D02*
X0073692Y0236679D01*
X0073387Y0236484D02*
X0075871Y0236484D01*
X0075473Y0237070D02*
X0077320Y0237070D01*
X0077298Y0236875D02*
X0074416Y0236875D01*
X0074827Y0236288D02*
X0073252Y0236288D01*
X0073140Y0236093D02*
X0073972Y0236093D01*
X0073806Y0235898D02*
X0073062Y0235898D01*
X0072983Y0235702D02*
X0073728Y0235702D01*
X0073650Y0235507D02*
X0072905Y0235507D01*
X0072828Y0235312D02*
X0073571Y0235312D01*
X0073493Y0235116D02*
X0072750Y0235116D01*
X0072671Y0234921D02*
X0073415Y0234921D01*
X0073337Y0234726D02*
X0072593Y0234726D01*
X0072514Y0234530D02*
X0073259Y0234530D01*
X0073181Y0234335D02*
X0072436Y0234335D01*
X0072358Y0234140D02*
X0073103Y0234140D01*
X0073024Y0233944D02*
X0072279Y0233944D01*
X0072201Y0233749D02*
X0072946Y0233749D01*
X0072868Y0233553D02*
X0072156Y0233553D01*
X0072116Y0233358D02*
X0072863Y0233358D01*
X0072938Y0233163D02*
X0072168Y0233163D01*
X0072227Y0232967D02*
X0073072Y0232967D01*
X0073207Y0232772D02*
X0072296Y0232772D01*
X0072431Y0232577D02*
X0073341Y0232577D01*
X0073475Y0232381D02*
X0072565Y0232381D01*
X0072700Y0232186D02*
X0073610Y0232186D01*
X0073744Y0231991D02*
X0072834Y0231991D01*
X0072968Y0231795D02*
X0073879Y0231795D01*
X0074013Y0231600D02*
X0073102Y0231600D01*
X0073236Y0231404D02*
X0074147Y0231404D01*
X0074282Y0231209D02*
X0073370Y0231209D01*
X0073504Y0231014D02*
X0074416Y0231014D01*
X0074550Y0230818D02*
X0073639Y0230818D01*
X0073773Y0230623D02*
X0074664Y0230623D01*
X0074645Y0230428D02*
X0073702Y0230428D01*
X0073507Y0230232D02*
X0074452Y0230232D01*
X0074256Y0230037D02*
X0073312Y0230037D01*
X0073116Y0229842D02*
X0074061Y0229842D01*
X0073866Y0229646D02*
X0072921Y0229646D01*
X0072726Y0229451D02*
X0073669Y0229451D01*
X0073473Y0229255D02*
X0072530Y0229255D01*
X0072335Y0229060D02*
X0073278Y0229060D01*
X0069566Y0230428D02*
X0069109Y0230428D01*
X0060511Y0229646D02*
X0059366Y0229646D01*
X0059733Y0229451D02*
X0060430Y0229451D01*
X0060280Y0229255D02*
X0060101Y0229255D01*
X0059184Y0230428D02*
X0058727Y0230428D01*
X0056847Y0228474D02*
X0055608Y0228474D01*
X0055803Y0228279D02*
X0056563Y0228279D01*
X0056278Y0228083D02*
X0055998Y0228083D01*
X0052574Y0224978D02*
X0052920Y0224561D01*
X0053107Y0224049D01*
X0053161Y0223506D01*
X0053107Y0222965D01*
X0052920Y0222455D01*
X0052572Y0222039D01*
X0052094Y0221783D01*
X0051556Y0221703D01*
X0051078Y0221776D01*
X0050645Y0221990D01*
X0050287Y0222315D01*
X0050548Y0222549D01*
X0050810Y0222783D01*
X0050808Y0222781D01*
X0051125Y0222514D01*
X0051525Y0222411D01*
X0052048Y0222541D01*
X0052369Y0222969D01*
X0052446Y0223506D01*
X0052371Y0224045D01*
X0052050Y0224476D01*
X0051527Y0224606D01*
X0051127Y0224504D01*
X0050810Y0224236D01*
X0050548Y0224470D01*
X0050287Y0224705D01*
X0050645Y0225030D01*
X0051078Y0225244D01*
X0051556Y0225317D01*
X0052096Y0225236D01*
X0052574Y0224978D01*
X0052591Y0224958D02*
X0050565Y0224958D01*
X0050350Y0224762D02*
X0052753Y0224762D01*
X0052916Y0224567D02*
X0051686Y0224567D01*
X0051372Y0224567D02*
X0050441Y0224567D01*
X0050659Y0224371D02*
X0050970Y0224371D01*
X0050894Y0225153D02*
X0052250Y0225153D01*
X0052128Y0224371D02*
X0052990Y0224371D01*
X0053061Y0224176D02*
X0052274Y0224176D01*
X0052380Y0223981D02*
X0053114Y0223981D01*
X0053133Y0223785D02*
X0052407Y0223785D01*
X0052434Y0223590D02*
X0053152Y0223590D01*
X0053150Y0223395D02*
X0052430Y0223395D01*
X0052402Y0223199D02*
X0053130Y0223199D01*
X0053111Y0223004D02*
X0052374Y0223004D01*
X0052249Y0222809D02*
X0053050Y0222809D01*
X0052978Y0222613D02*
X0052102Y0222613D01*
X0051550Y0222418D02*
X0052889Y0222418D01*
X0052726Y0222222D02*
X0050389Y0222222D01*
X0050401Y0222418D02*
X0051500Y0222418D01*
X0051007Y0222613D02*
X0050620Y0222613D01*
X0050604Y0222027D02*
X0052549Y0222027D01*
X0052184Y0221832D02*
X0050965Y0221832D01*
X0049891Y0222443D02*
X0049554Y0222022D01*
X0049074Y0221774D01*
X0048537Y0221701D01*
X0048060Y0221762D01*
X0047621Y0221957D01*
X0047261Y0222272D01*
X0047519Y0222492D01*
X0047777Y0222713D01*
X0048129Y0222465D01*
X0048548Y0222370D01*
X0048991Y0222470D01*
X0049302Y0222795D01*
X0049393Y0223240D01*
X0047190Y0223240D01*
X0047190Y0223827D01*
X0047247Y0224156D01*
X0047972Y0224156D01*
X0047901Y0223825D01*
X0049395Y0223825D01*
X0049326Y0224156D01*
X0050021Y0224156D01*
X0050062Y0224022D01*
X0050105Y0223498D01*
X0050060Y0222957D01*
X0049891Y0222443D01*
X0049871Y0222418D02*
X0048759Y0222418D01*
X0049128Y0222613D02*
X0049947Y0222613D01*
X0050011Y0222809D02*
X0049305Y0222809D01*
X0049345Y0223004D02*
X0050064Y0223004D01*
X0050080Y0223199D02*
X0049384Y0223199D01*
X0050097Y0223395D02*
X0047190Y0223395D01*
X0047190Y0223590D02*
X0050098Y0223590D01*
X0050082Y0223785D02*
X0047190Y0223785D01*
X0047217Y0223981D02*
X0047934Y0223981D01*
X0047974Y0224154D02*
X0047249Y0224154D01*
X0047290Y0224394D01*
X0047599Y0224884D01*
X0048080Y0225207D01*
X0048649Y0225315D01*
X0049164Y0225224D01*
X0049607Y0224947D01*
X0049909Y0224520D01*
X0050023Y0224152D01*
X0050021Y0224156D01*
X0049326Y0224156D01*
X0049310Y0224230D01*
X0049044Y0224541D01*
X0048649Y0224648D01*
X0048253Y0224541D01*
X0047989Y0224228D01*
X0047974Y0224154D01*
X0047978Y0224176D02*
X0047253Y0224176D01*
X0047287Y0224371D02*
X0048110Y0224371D01*
X0048348Y0224567D02*
X0047400Y0224567D01*
X0047523Y0224762D02*
X0049738Y0224762D01*
X0049875Y0224567D02*
X0048950Y0224567D01*
X0049190Y0224371D02*
X0049955Y0224371D01*
X0050015Y0224176D02*
X0049322Y0224176D01*
X0049362Y0223981D02*
X0050065Y0223981D01*
X0049590Y0224958D02*
X0047709Y0224958D01*
X0048000Y0225153D02*
X0049279Y0225153D01*
X0047918Y0222613D02*
X0047660Y0222613D01*
X0047432Y0222418D02*
X0048337Y0222418D01*
X0047903Y0221832D02*
X0049186Y0221832D01*
X0049559Y0222027D02*
X0047541Y0222027D01*
X0047317Y0222222D02*
X0049715Y0222222D01*
X0050981Y0240196D02*
X0054291Y0240196D01*
X0054812Y0240391D02*
X0051113Y0240391D01*
X0052097Y0240586D02*
X0055033Y0240586D01*
X0058428Y0246643D02*
X0060069Y0246643D01*
X0059592Y0246447D02*
X0058838Y0246447D01*
X0058144Y0246838D02*
X0060546Y0246838D01*
X0061023Y0247033D02*
X0057860Y0247033D01*
X0062245Y0251331D02*
X0066025Y0251331D01*
X0065988Y0251527D02*
X0062281Y0251527D01*
X0062436Y0251722D02*
X0065834Y0251722D01*
X0067230Y0247033D02*
X0070430Y0247033D01*
X0070146Y0246838D02*
X0067707Y0246838D01*
X0068183Y0246643D02*
X0069862Y0246643D01*
X0069471Y0246447D02*
X0068660Y0246447D01*
X0070765Y0248206D02*
X0073150Y0248206D01*
X0072954Y0248401D02*
X0071051Y0248401D01*
X0071337Y0248596D02*
X0072759Y0248596D01*
X0072564Y0248792D02*
X0071623Y0248792D01*
X0071909Y0248987D02*
X0072368Y0248987D01*
X0073500Y0240391D02*
X0077188Y0240391D01*
X0075635Y0186183D02*
X0068123Y0186183D01*
X0068123Y0183707D01*
X0073037Y0183707D01*
X0073037Y0180419D01*
X0068331Y0180419D01*
X0068331Y0177943D01*
X0073037Y0177943D01*
X0073037Y0174698D01*
X0068123Y0174698D01*
X0068123Y0172222D01*
X0075635Y0172222D01*
X0075635Y0173398D01*
X0075635Y0186183D01*
X0075635Y0186081D02*
X0068123Y0186081D01*
X0068123Y0185885D02*
X0075635Y0185885D01*
X0075635Y0185690D02*
X0068123Y0185690D01*
X0068123Y0185494D02*
X0075635Y0185494D01*
X0075635Y0185299D02*
X0068123Y0185299D01*
X0068123Y0185104D02*
X0075635Y0185104D01*
X0075635Y0184908D02*
X0068123Y0184908D01*
X0068123Y0184713D02*
X0075635Y0184713D01*
X0075635Y0184518D02*
X0068123Y0184518D01*
X0068123Y0184322D02*
X0075635Y0184322D01*
X0075635Y0184127D02*
X0068123Y0184127D01*
X0068123Y0183932D02*
X0075635Y0183932D01*
X0075635Y0183736D02*
X0068123Y0183736D01*
X0068331Y0180415D02*
X0075635Y0180415D01*
X0075635Y0180220D02*
X0068331Y0180220D01*
X0068331Y0180024D02*
X0075635Y0180024D01*
X0075635Y0179829D02*
X0068331Y0179829D01*
X0068331Y0179634D02*
X0075635Y0179634D01*
X0075635Y0179438D02*
X0068331Y0179438D01*
X0068331Y0179243D02*
X0075635Y0179243D01*
X0075635Y0179048D02*
X0068331Y0179048D01*
X0068331Y0178852D02*
X0075635Y0178852D01*
X0075635Y0178657D02*
X0068331Y0178657D01*
X0068331Y0178461D02*
X0075635Y0178461D01*
X0075635Y0178266D02*
X0068331Y0178266D01*
X0068331Y0178071D02*
X0075635Y0178071D01*
X0075635Y0177875D02*
X0073037Y0177875D01*
X0073037Y0177680D02*
X0075635Y0177680D01*
X0075635Y0177485D02*
X0073037Y0177485D01*
X0073037Y0177289D02*
X0075635Y0177289D01*
X0075635Y0177094D02*
X0073037Y0177094D01*
X0073037Y0176899D02*
X0075635Y0176899D01*
X0075635Y0176703D02*
X0073037Y0176703D01*
X0073037Y0176508D02*
X0075635Y0176508D01*
X0075635Y0176312D02*
X0073037Y0176312D01*
X0073037Y0176117D02*
X0075635Y0176117D01*
X0075635Y0175922D02*
X0073037Y0175922D01*
X0073037Y0175726D02*
X0075635Y0175726D01*
X0075635Y0175531D02*
X0073037Y0175531D01*
X0073037Y0175336D02*
X0075635Y0175336D01*
X0075635Y0175140D02*
X0073037Y0175140D01*
X0073037Y0174945D02*
X0075635Y0174945D01*
X0075635Y0174750D02*
X0073037Y0174750D01*
X0075635Y0174554D02*
X0068123Y0174554D01*
X0068123Y0174359D02*
X0075635Y0174359D01*
X0075635Y0174163D02*
X0068123Y0174163D01*
X0068123Y0173968D02*
X0075635Y0173968D01*
X0075635Y0173773D02*
X0068123Y0173773D01*
X0068123Y0173577D02*
X0075635Y0173577D01*
X0075635Y0173382D02*
X0068123Y0173382D01*
X0068123Y0173187D02*
X0075635Y0173187D01*
X0075635Y0172991D02*
X0068123Y0172991D01*
X0068123Y0172796D02*
X0075635Y0172796D01*
X0075635Y0172601D02*
X0068123Y0172601D01*
X0068123Y0172405D02*
X0075635Y0172405D01*
X0079031Y0174750D02*
X0084500Y0174750D01*
X0084531Y0174745D02*
X0085693Y0174702D01*
X0086260Y0174702D01*
X0086260Y0181104D01*
X0088849Y0181104D01*
X0088849Y0181109D01*
X0088849Y0172236D01*
X0085604Y0172236D01*
X0084446Y0172260D01*
X0083293Y0172359D01*
X0082160Y0172591D01*
X0081082Y0173006D01*
X0080038Y0173672D01*
X0079160Y0174551D01*
X0078484Y0175591D01*
X0078016Y0176739D01*
X0077747Y0177948D01*
X0077662Y0179186D01*
X0077737Y0180357D01*
X0077893Y0181113D01*
X0080657Y0181113D01*
X0080393Y0180362D01*
X0080270Y0179186D01*
X0080393Y0178052D01*
X0080766Y0176975D01*
X0081404Y0176030D01*
X0082292Y0175326D01*
X0083378Y0174920D01*
X0084531Y0174745D01*
X0083311Y0174945D02*
X0078904Y0174945D01*
X0078777Y0175140D02*
X0082788Y0175140D01*
X0082280Y0175336D02*
X0078650Y0175336D01*
X0078523Y0175531D02*
X0082033Y0175531D01*
X0081787Y0175726D02*
X0078429Y0175726D01*
X0078349Y0175922D02*
X0081540Y0175922D01*
X0081345Y0176117D02*
X0078269Y0176117D01*
X0078190Y0176312D02*
X0081213Y0176312D01*
X0081081Y0176508D02*
X0078110Y0176508D01*
X0078031Y0176703D02*
X0080949Y0176703D01*
X0080817Y0176899D02*
X0077981Y0176899D01*
X0077937Y0177094D02*
X0080725Y0177094D01*
X0080657Y0177289D02*
X0077894Y0177289D01*
X0077850Y0177485D02*
X0080589Y0177485D01*
X0080521Y0177680D02*
X0077807Y0177680D01*
X0077763Y0177875D02*
X0080454Y0177875D01*
X0080391Y0178071D02*
X0077739Y0178071D01*
X0077725Y0178266D02*
X0080369Y0178266D01*
X0080348Y0178461D02*
X0077712Y0178461D01*
X0077698Y0178657D02*
X0080327Y0178657D01*
X0080306Y0178852D02*
X0077685Y0178852D01*
X0077671Y0179048D02*
X0080285Y0179048D01*
X0080276Y0179243D02*
X0077666Y0179243D01*
X0077678Y0179438D02*
X0080296Y0179438D01*
X0080317Y0179634D02*
X0077691Y0179634D01*
X0077703Y0179829D02*
X0080337Y0179829D01*
X0080357Y0180024D02*
X0077716Y0180024D01*
X0077729Y0180220D02*
X0080378Y0180220D01*
X0080411Y0180415D02*
X0077749Y0180415D01*
X0077790Y0180610D02*
X0080480Y0180610D01*
X0080549Y0180806D02*
X0077830Y0180806D01*
X0077870Y0181001D02*
X0080618Y0181001D01*
X0080662Y0181109D02*
X0077898Y0181109D01*
X0077978Y0181501D01*
X0078394Y0182602D01*
X0078994Y0183608D01*
X0079774Y0184487D01*
X0080714Y0185191D01*
X0081881Y0185706D01*
X0083123Y0186003D01*
X0084389Y0186150D01*
X0085665Y0186192D01*
X0088854Y0186192D01*
X0088854Y0181118D01*
X0088849Y0181109D01*
X0086260Y0181109D01*
X0086260Y0183717D01*
X0085750Y0183717D01*
X0084612Y0183683D01*
X0083482Y0183532D01*
X0082410Y0183150D01*
X0081465Y0182441D01*
X0080789Y0181472D01*
X0080662Y0181109D01*
X0080693Y0181196D02*
X0077916Y0181196D01*
X0077956Y0181392D02*
X0080761Y0181392D01*
X0080870Y0181587D02*
X0078011Y0181587D01*
X0078085Y0181783D02*
X0081006Y0181783D01*
X0081142Y0181978D02*
X0078159Y0181978D01*
X0078232Y0182173D02*
X0081278Y0182173D01*
X0081415Y0182369D02*
X0078306Y0182369D01*
X0078380Y0182564D02*
X0081629Y0182564D01*
X0081890Y0182759D02*
X0078488Y0182759D01*
X0078605Y0182955D02*
X0082150Y0182955D01*
X0082411Y0183150D02*
X0078721Y0183150D01*
X0078838Y0183345D02*
X0082959Y0183345D01*
X0083546Y0183541D02*
X0078954Y0183541D01*
X0079108Y0183736D02*
X0088854Y0183736D01*
X0088854Y0183541D02*
X0086260Y0183541D01*
X0086260Y0183345D02*
X0088854Y0183345D01*
X0088854Y0183150D02*
X0086260Y0183150D01*
X0086260Y0182955D02*
X0088854Y0182955D01*
X0088854Y0182759D02*
X0086260Y0182759D01*
X0086260Y0182564D02*
X0088854Y0182564D01*
X0088854Y0182369D02*
X0086260Y0182369D01*
X0086260Y0182173D02*
X0088854Y0182173D01*
X0088854Y0181978D02*
X0086260Y0181978D01*
X0086260Y0181783D02*
X0088854Y0181783D01*
X0088854Y0181587D02*
X0086260Y0181587D01*
X0086260Y0181392D02*
X0088854Y0181392D01*
X0088854Y0181196D02*
X0086260Y0181196D01*
X0086260Y0181001D02*
X0088849Y0181001D01*
X0088849Y0180806D02*
X0086260Y0180806D01*
X0086260Y0180610D02*
X0088849Y0180610D01*
X0088849Y0180415D02*
X0086260Y0180415D01*
X0086260Y0180220D02*
X0088849Y0180220D01*
X0088849Y0180024D02*
X0086260Y0180024D01*
X0086260Y0179829D02*
X0088849Y0179829D01*
X0088849Y0179634D02*
X0086260Y0179634D01*
X0086260Y0179438D02*
X0088849Y0179438D01*
X0088849Y0179243D02*
X0086260Y0179243D01*
X0086260Y0179048D02*
X0088849Y0179048D01*
X0088849Y0178852D02*
X0086260Y0178852D01*
X0086260Y0178657D02*
X0088849Y0178657D01*
X0088849Y0178461D02*
X0086260Y0178461D01*
X0086260Y0178266D02*
X0088849Y0178266D01*
X0088849Y0178071D02*
X0086260Y0178071D01*
X0086260Y0177875D02*
X0088849Y0177875D01*
X0088849Y0177680D02*
X0086260Y0177680D01*
X0086260Y0177485D02*
X0088849Y0177485D01*
X0088849Y0177289D02*
X0086260Y0177289D01*
X0086260Y0177094D02*
X0088849Y0177094D01*
X0088849Y0176899D02*
X0086260Y0176899D01*
X0086260Y0176703D02*
X0088849Y0176703D01*
X0088849Y0176508D02*
X0086260Y0176508D01*
X0086260Y0176312D02*
X0088849Y0176312D01*
X0088849Y0176117D02*
X0086260Y0176117D01*
X0086260Y0175922D02*
X0088849Y0175922D01*
X0088849Y0175726D02*
X0086260Y0175726D01*
X0086260Y0175531D02*
X0088849Y0175531D01*
X0088849Y0175336D02*
X0086260Y0175336D01*
X0086260Y0175140D02*
X0088849Y0175140D01*
X0088849Y0174945D02*
X0086260Y0174945D01*
X0086260Y0174750D02*
X0088849Y0174750D01*
X0088849Y0174554D02*
X0079158Y0174554D01*
X0079352Y0174359D02*
X0088849Y0174359D01*
X0088849Y0174163D02*
X0079547Y0174163D01*
X0079743Y0173968D02*
X0088849Y0173968D01*
X0088849Y0173773D02*
X0079938Y0173773D01*
X0080187Y0173577D02*
X0088849Y0173577D01*
X0088849Y0173382D02*
X0080493Y0173382D01*
X0080800Y0173187D02*
X0088849Y0173187D01*
X0088849Y0172991D02*
X0081121Y0172991D01*
X0081627Y0172796D02*
X0088849Y0172796D01*
X0088849Y0172601D02*
X0082134Y0172601D01*
X0083067Y0172405D02*
X0088849Y0172405D01*
X0088684Y0167280D02*
X0086095Y0167280D01*
X0086095Y0155800D01*
X0081824Y0155800D01*
X0081824Y0153324D01*
X0088684Y0153324D01*
X0088684Y0154496D01*
X0088684Y0167280D01*
X0088684Y0167130D02*
X0086095Y0167130D01*
X0086095Y0166935D02*
X0088684Y0166935D01*
X0088684Y0166740D02*
X0086095Y0166740D01*
X0086095Y0166544D02*
X0088684Y0166544D01*
X0088684Y0166349D02*
X0086095Y0166349D01*
X0086095Y0166154D02*
X0088684Y0166154D01*
X0088684Y0165958D02*
X0086095Y0165958D01*
X0086095Y0165763D02*
X0088684Y0165763D01*
X0088684Y0165568D02*
X0086095Y0165568D01*
X0086095Y0165372D02*
X0088684Y0165372D01*
X0088684Y0165177D02*
X0086095Y0165177D01*
X0086095Y0164981D02*
X0088684Y0164981D01*
X0088684Y0164786D02*
X0086095Y0164786D01*
X0086095Y0164591D02*
X0088684Y0164591D01*
X0088684Y0164395D02*
X0086095Y0164395D01*
X0086095Y0164200D02*
X0088684Y0164200D01*
X0088684Y0164005D02*
X0086095Y0164005D01*
X0086095Y0163809D02*
X0088684Y0163809D01*
X0088684Y0163614D02*
X0086095Y0163614D01*
X0086095Y0163419D02*
X0088684Y0163419D01*
X0088684Y0163223D02*
X0086095Y0163223D01*
X0086095Y0163028D02*
X0088684Y0163028D01*
X0088684Y0162832D02*
X0086095Y0162832D01*
X0086095Y0162637D02*
X0088684Y0162637D01*
X0088684Y0162442D02*
X0086095Y0162442D01*
X0086095Y0162246D02*
X0088684Y0162246D01*
X0088684Y0162051D02*
X0086095Y0162051D01*
X0086095Y0161856D02*
X0088684Y0161856D01*
X0088684Y0161660D02*
X0086095Y0161660D01*
X0086095Y0161465D02*
X0088684Y0161465D01*
X0088684Y0161270D02*
X0086095Y0161270D01*
X0086095Y0161074D02*
X0088684Y0161074D01*
X0088684Y0160879D02*
X0086095Y0160879D01*
X0086095Y0160684D02*
X0088684Y0160684D01*
X0088684Y0160488D02*
X0086095Y0160488D01*
X0086095Y0160293D02*
X0088684Y0160293D01*
X0088684Y0160097D02*
X0086095Y0160097D01*
X0086095Y0159902D02*
X0088684Y0159902D01*
X0088684Y0159707D02*
X0086095Y0159707D01*
X0086095Y0159511D02*
X0088684Y0159511D01*
X0088684Y0159316D02*
X0086095Y0159316D01*
X0086095Y0159121D02*
X0088684Y0159121D01*
X0088684Y0158925D02*
X0086095Y0158925D01*
X0086095Y0158730D02*
X0088684Y0158730D01*
X0088684Y0158535D02*
X0086095Y0158535D01*
X0086095Y0158339D02*
X0088684Y0158339D01*
X0088684Y0158144D02*
X0086095Y0158144D01*
X0086095Y0157948D02*
X0088684Y0157948D01*
X0088684Y0157753D02*
X0086095Y0157753D01*
X0086095Y0157558D02*
X0088684Y0157558D01*
X0088684Y0157362D02*
X0086095Y0157362D01*
X0086095Y0157167D02*
X0088684Y0157167D01*
X0088684Y0156972D02*
X0086095Y0156972D01*
X0086095Y0156776D02*
X0088684Y0156776D01*
X0088684Y0156581D02*
X0086095Y0156581D01*
X0086095Y0156386D02*
X0088684Y0156386D01*
X0088684Y0156190D02*
X0086095Y0156190D01*
X0086095Y0155995D02*
X0088684Y0155995D01*
X0088684Y0155799D02*
X0081824Y0155799D01*
X0081824Y0155604D02*
X0088684Y0155604D01*
X0088684Y0155409D02*
X0081824Y0155409D01*
X0081824Y0155213D02*
X0088684Y0155213D01*
X0088684Y0155018D02*
X0081824Y0155018D01*
X0081824Y0154823D02*
X0088684Y0154823D01*
X0088684Y0154627D02*
X0081824Y0154627D01*
X0081824Y0154432D02*
X0088684Y0154432D01*
X0088684Y0154237D02*
X0081824Y0154237D01*
X0081824Y0154041D02*
X0088684Y0154041D01*
X0088684Y0153846D02*
X0081824Y0153846D01*
X0081824Y0153650D02*
X0088684Y0153650D01*
X0088684Y0153455D02*
X0081824Y0153455D01*
X0079115Y0153064D02*
X0077832Y0153064D01*
X0077865Y0152869D02*
X0079146Y0152869D01*
X0079164Y0152767D02*
X0079278Y0152091D01*
X0079500Y0150750D01*
X0079722Y0149408D01*
X0079944Y0148066D01*
X0080166Y0146724D01*
X0080388Y0145383D01*
X0080610Y0144041D01*
X0080832Y0142699D01*
X0081054Y0141357D01*
X0081276Y0140016D01*
X0081498Y0138674D01*
X0067041Y0138674D01*
X0067263Y0140016D01*
X0067486Y0141357D01*
X0067708Y0142699D01*
X0067930Y0144041D01*
X0068152Y0145383D01*
X0068374Y0146724D01*
X0068596Y0148066D01*
X0068818Y0149408D01*
X0069040Y0150750D01*
X0069262Y0152091D01*
X0069375Y0152762D01*
X0069399Y0152762D01*
X0070684Y0152762D01*
X0070504Y0151690D01*
X0070311Y0150537D01*
X0071034Y0150277D01*
X0071775Y0150069D01*
X0071898Y0151033D01*
X0072021Y0151997D01*
X0072626Y0151940D01*
X0072555Y0150934D01*
X0072484Y0149928D01*
X0073202Y0149828D01*
X0073925Y0149776D01*
X0073953Y0150787D01*
X0073982Y0151798D01*
X0074586Y0151798D01*
X0074615Y0150787D01*
X0074643Y0149776D01*
X0075352Y0149824D01*
X0076056Y0149918D01*
X0075985Y0150929D01*
X0075914Y0151940D01*
X0076519Y0151997D01*
X0076641Y0151028D01*
X0076764Y0150060D01*
X0077520Y0150272D01*
X0078257Y0150542D01*
X0078063Y0151694D01*
X0077884Y0152767D01*
X0079164Y0152767D01*
X0079164Y0152757D02*
X0077884Y0152757D01*
X0077870Y0152838D01*
X0077676Y0153991D01*
X0076594Y0153518D01*
X0075451Y0153230D01*
X0074274Y0153135D01*
X0073098Y0153230D01*
X0071955Y0153518D01*
X0070873Y0153991D01*
X0070679Y0152838D01*
X0070665Y0152757D01*
X0069380Y0152757D01*
X0069493Y0153428D01*
X0069715Y0154770D01*
X0068950Y0155498D01*
X0068298Y0156334D01*
X0068218Y0156471D01*
X0068232Y0156471D01*
X0073651Y0156471D01*
X0073537Y0156277D01*
X0073160Y0155625D01*
X0072782Y0154973D01*
X0075786Y0154973D01*
X0075408Y0155625D01*
X0075030Y0156277D01*
X0074917Y0156471D01*
X0080336Y0156471D01*
X0080256Y0156334D01*
X0079604Y0155498D01*
X0078834Y0154770D01*
X0079056Y0153428D01*
X0079164Y0152757D01*
X0079180Y0152674D02*
X0077900Y0152674D01*
X0077932Y0152478D02*
X0079213Y0152478D01*
X0079245Y0152283D02*
X0077965Y0152283D01*
X0077998Y0152088D02*
X0079278Y0152088D01*
X0079311Y0151892D02*
X0078030Y0151892D01*
X0078063Y0151697D02*
X0079343Y0151697D01*
X0079375Y0151502D02*
X0078096Y0151502D01*
X0078129Y0151306D02*
X0079408Y0151306D01*
X0079440Y0151111D02*
X0078162Y0151111D01*
X0078194Y0150915D02*
X0079472Y0150915D01*
X0079505Y0150720D02*
X0078227Y0150720D01*
X0078211Y0150525D02*
X0079537Y0150525D01*
X0079569Y0150329D02*
X0077676Y0150329D01*
X0077028Y0150134D02*
X0079602Y0150134D01*
X0079634Y0149939D02*
X0076054Y0149939D01*
X0076040Y0150134D02*
X0076755Y0150134D01*
X0076730Y0150329D02*
X0076027Y0150329D01*
X0076013Y0150525D02*
X0076705Y0150525D01*
X0076681Y0150720D02*
X0075999Y0150720D01*
X0075986Y0150915D02*
X0076656Y0150915D01*
X0076631Y0151111D02*
X0075972Y0151111D01*
X0075958Y0151306D02*
X0076606Y0151306D01*
X0076581Y0151502D02*
X0075945Y0151502D01*
X0075931Y0151697D02*
X0076557Y0151697D01*
X0076532Y0151892D02*
X0075917Y0151892D01*
X0074589Y0151697D02*
X0073979Y0151697D01*
X0073973Y0151502D02*
X0074595Y0151502D01*
X0074600Y0151306D02*
X0073968Y0151306D01*
X0073962Y0151111D02*
X0074606Y0151111D01*
X0074611Y0150915D02*
X0073957Y0150915D01*
X0073951Y0150720D02*
X0074617Y0150720D01*
X0074622Y0150525D02*
X0073946Y0150525D01*
X0073940Y0150329D02*
X0074627Y0150329D01*
X0074633Y0150134D02*
X0073935Y0150134D01*
X0073929Y0149939D02*
X0074638Y0149939D01*
X0072498Y0150134D02*
X0071784Y0150134D01*
X0071808Y0150329D02*
X0072512Y0150329D01*
X0072526Y0150525D02*
X0071833Y0150525D01*
X0071858Y0150720D02*
X0072540Y0150720D01*
X0072554Y0150915D02*
X0071883Y0150915D01*
X0071908Y0151111D02*
X0072567Y0151111D01*
X0072581Y0151306D02*
X0071933Y0151306D01*
X0071958Y0151502D02*
X0072595Y0151502D01*
X0072609Y0151697D02*
X0071983Y0151697D01*
X0072008Y0151892D02*
X0072622Y0151892D01*
X0072980Y0153260D02*
X0075569Y0153260D01*
X0076344Y0153455D02*
X0072205Y0153455D01*
X0071652Y0153650D02*
X0076897Y0153650D01*
X0077345Y0153846D02*
X0071204Y0153846D01*
X0070849Y0153846D02*
X0069562Y0153846D01*
X0069595Y0154041D02*
X0078954Y0154041D01*
X0078987Y0153846D02*
X0077700Y0153846D01*
X0077733Y0153650D02*
X0079019Y0153650D01*
X0079051Y0153455D02*
X0077766Y0153455D01*
X0077799Y0153260D02*
X0079083Y0153260D01*
X0078922Y0154237D02*
X0069627Y0154237D01*
X0069659Y0154432D02*
X0078890Y0154432D01*
X0078857Y0154627D02*
X0069692Y0154627D01*
X0069660Y0154823D02*
X0078889Y0154823D01*
X0079096Y0155018D02*
X0075760Y0155018D01*
X0075647Y0155213D02*
X0079303Y0155213D01*
X0079510Y0155409D02*
X0075534Y0155409D01*
X0075421Y0155604D02*
X0079687Y0155604D01*
X0079839Y0155799D02*
X0075307Y0155799D01*
X0075194Y0155995D02*
X0079991Y0155995D01*
X0080144Y0156190D02*
X0075081Y0156190D01*
X0074967Y0156386D02*
X0080286Y0156386D01*
X0080345Y0156476D02*
X0074926Y0156476D01*
X0074662Y0156934D01*
X0074284Y0157586D01*
X0073911Y0156934D01*
X0073651Y0156476D01*
X0068232Y0156476D01*
X0067788Y0157260D01*
X0067405Y0158247D01*
X0067174Y0159282D01*
X0067131Y0159849D01*
X0069300Y0159849D01*
X0069248Y0159655D01*
X0069498Y0158715D01*
X0070188Y0158025D01*
X0071128Y0157770D01*
X0072068Y0158025D01*
X0072758Y0158715D01*
X0073013Y0159655D01*
X0072961Y0159849D01*
X0075621Y0159849D01*
X0075569Y0159655D01*
X0075819Y0158715D01*
X0076509Y0158025D01*
X0077449Y0157770D01*
X0078389Y0158025D01*
X0079079Y0158715D01*
X0079334Y0159655D01*
X0079282Y0159849D01*
X0081451Y0159849D01*
X0081446Y0159849D01*
X0081404Y0159282D01*
X0081172Y0158247D01*
X0080789Y0157260D01*
X0080345Y0156476D01*
X0080405Y0156581D02*
X0074866Y0156581D01*
X0074753Y0156776D02*
X0080516Y0156776D01*
X0080626Y0156972D02*
X0074640Y0156972D01*
X0074527Y0157167D02*
X0080737Y0157167D01*
X0080829Y0157362D02*
X0074413Y0157362D01*
X0074300Y0157558D02*
X0080905Y0157558D01*
X0080981Y0157753D02*
X0067597Y0157753D01*
X0067672Y0157558D02*
X0074268Y0157558D01*
X0074156Y0157362D02*
X0067748Y0157362D01*
X0067840Y0157167D02*
X0074044Y0157167D01*
X0073932Y0156972D02*
X0067951Y0156972D01*
X0068062Y0156776D02*
X0073821Y0156776D01*
X0073711Y0156581D02*
X0068172Y0156581D01*
X0068268Y0156386D02*
X0073601Y0156386D01*
X0073487Y0156190D02*
X0068410Y0156190D01*
X0068562Y0155995D02*
X0073374Y0155995D01*
X0073261Y0155799D02*
X0068715Y0155799D01*
X0068867Y0155604D02*
X0073147Y0155604D01*
X0073034Y0155409D02*
X0069044Y0155409D01*
X0069249Y0155213D02*
X0072921Y0155213D01*
X0072808Y0155018D02*
X0069455Y0155018D01*
X0069530Y0153650D02*
X0070816Y0153650D01*
X0070783Y0153455D02*
X0069498Y0153455D01*
X0069465Y0153260D02*
X0070750Y0153260D01*
X0070717Y0153064D02*
X0069432Y0153064D01*
X0069399Y0152869D02*
X0070684Y0152869D01*
X0070669Y0152674D02*
X0069360Y0152674D01*
X0069327Y0152478D02*
X0070636Y0152478D01*
X0070604Y0152283D02*
X0069294Y0152283D01*
X0069261Y0152088D02*
X0070571Y0152088D01*
X0070538Y0151892D02*
X0069229Y0151892D01*
X0069197Y0151697D02*
X0070506Y0151697D01*
X0070473Y0151502D02*
X0069164Y0151502D01*
X0069132Y0151306D02*
X0070440Y0151306D01*
X0070407Y0151111D02*
X0069100Y0151111D01*
X0069067Y0150915D02*
X0070374Y0150915D01*
X0070341Y0150720D02*
X0069035Y0150720D01*
X0069003Y0150525D02*
X0070345Y0150525D01*
X0070888Y0150329D02*
X0068970Y0150329D01*
X0068938Y0150134D02*
X0071545Y0150134D01*
X0072485Y0149939D02*
X0068906Y0149939D01*
X0068873Y0149743D02*
X0079666Y0149743D01*
X0079699Y0149548D02*
X0068841Y0149548D01*
X0068809Y0149353D02*
X0079731Y0149353D01*
X0079763Y0149157D02*
X0068776Y0149157D01*
X0068744Y0148962D02*
X0079796Y0148962D01*
X0079828Y0148766D02*
X0068712Y0148766D01*
X0068679Y0148571D02*
X0079860Y0148571D01*
X0079893Y0148376D02*
X0068647Y0148376D01*
X0068615Y0148180D02*
X0079925Y0148180D01*
X0079957Y0147985D02*
X0068582Y0147985D01*
X0068550Y0147790D02*
X0079990Y0147790D01*
X0080022Y0147594D02*
X0068518Y0147594D01*
X0068485Y0147399D02*
X0080054Y0147399D01*
X0080087Y0147204D02*
X0068453Y0147204D01*
X0068421Y0147008D02*
X0080119Y0147008D01*
X0080151Y0146813D02*
X0068388Y0146813D01*
X0068356Y0146617D02*
X0080184Y0146617D01*
X0080216Y0146422D02*
X0068324Y0146422D01*
X0068291Y0146227D02*
X0080248Y0146227D01*
X0080281Y0146031D02*
X0068259Y0146031D01*
X0068227Y0145836D02*
X0080313Y0145836D01*
X0080345Y0145641D02*
X0068194Y0145641D01*
X0068162Y0145445D02*
X0080378Y0145445D01*
X0080410Y0145250D02*
X0068130Y0145250D01*
X0068097Y0145055D02*
X0080442Y0145055D01*
X0080475Y0144859D02*
X0068065Y0144859D01*
X0068033Y0144664D02*
X0080507Y0144664D01*
X0080539Y0144468D02*
X0068000Y0144468D01*
X0067968Y0144273D02*
X0080571Y0144273D01*
X0080604Y0144078D02*
X0067936Y0144078D01*
X0067903Y0143882D02*
X0080636Y0143882D01*
X0080668Y0143687D02*
X0067871Y0143687D01*
X0067839Y0143492D02*
X0080701Y0143492D01*
X0080733Y0143296D02*
X0067806Y0143296D01*
X0067774Y0143101D02*
X0080765Y0143101D01*
X0080798Y0142906D02*
X0067742Y0142906D01*
X0067709Y0142710D02*
X0080830Y0142710D01*
X0080862Y0142515D02*
X0067677Y0142515D01*
X0067645Y0142320D02*
X0080895Y0142320D01*
X0080927Y0142124D02*
X0067612Y0142124D01*
X0067580Y0141929D02*
X0080959Y0141929D01*
X0080992Y0141733D02*
X0067548Y0141733D01*
X0067515Y0141538D02*
X0081024Y0141538D01*
X0081056Y0141343D02*
X0067483Y0141343D01*
X0067451Y0141147D02*
X0081089Y0141147D01*
X0081121Y0140952D02*
X0067418Y0140952D01*
X0067386Y0140757D02*
X0081153Y0140757D01*
X0081186Y0140561D02*
X0067354Y0140561D01*
X0067321Y0140366D02*
X0081218Y0140366D01*
X0081250Y0140171D02*
X0067289Y0140171D01*
X0067257Y0139975D02*
X0081283Y0139975D01*
X0081315Y0139780D02*
X0067224Y0139780D01*
X0067192Y0139584D02*
X0081347Y0139584D01*
X0081380Y0139389D02*
X0067160Y0139389D01*
X0067127Y0139194D02*
X0081412Y0139194D01*
X0081444Y0138998D02*
X0067095Y0138998D01*
X0067063Y0138803D02*
X0081477Y0138803D01*
X0064212Y0155658D02*
X0063304Y0154761D01*
X0062256Y0154038D01*
X0061093Y0153509D01*
X0059860Y0153187D01*
X0058589Y0153079D01*
X0057243Y0153202D01*
X0055944Y0153565D01*
X0054739Y0154175D01*
X0053676Y0155006D01*
X0052802Y0156036D01*
X0052150Y0157217D01*
X0054182Y0157217D01*
X0055169Y0157217D01*
X0056152Y0156343D01*
X0057323Y0155753D01*
X0058623Y0155573D01*
X0059841Y0155739D01*
X0060975Y0156225D01*
X0061944Y0156991D01*
X0062686Y0157973D01*
X0063153Y0159112D01*
X0063314Y0160335D01*
X0063177Y0161474D01*
X0062789Y0162551D01*
X0062161Y0163510D01*
X0061178Y0164365D01*
X0059983Y0164880D01*
X0058689Y0165041D01*
X0057290Y0164876D01*
X0056019Y0164276D01*
X0055023Y0163283D01*
X0052131Y0163283D01*
X0052641Y0164276D01*
X0053303Y0165169D01*
X0054115Y0165929D01*
X0055150Y0166624D01*
X0056293Y0167129D01*
X0057503Y0167436D01*
X0058745Y0167540D01*
X0059993Y0167431D01*
X0061202Y0167106D01*
X0062336Y0166572D01*
X0063361Y0165854D01*
X0064245Y0164970D01*
X0064963Y0163945D01*
X0065497Y0162811D01*
X0065823Y0161602D01*
X0065931Y0160354D01*
X0065823Y0159083D01*
X0065492Y0157850D01*
X0064949Y0156698D01*
X0064212Y0155658D01*
X0064157Y0155604D02*
X0058850Y0155604D01*
X0058399Y0155604D02*
X0053169Y0155604D01*
X0053335Y0155409D02*
X0063959Y0155409D01*
X0063762Y0155213D02*
X0053500Y0155213D01*
X0053666Y0155018D02*
X0063565Y0155018D01*
X0063367Y0154823D02*
X0053911Y0154823D01*
X0054161Y0154627D02*
X0063111Y0154627D01*
X0062827Y0154432D02*
X0054410Y0154432D01*
X0054660Y0154237D02*
X0062544Y0154237D01*
X0062261Y0154041D02*
X0055003Y0154041D01*
X0055389Y0153846D02*
X0061834Y0153846D01*
X0061405Y0153650D02*
X0055776Y0153650D01*
X0056337Y0153455D02*
X0060888Y0153455D01*
X0060138Y0153260D02*
X0057035Y0153260D01*
X0057231Y0155799D02*
X0053003Y0155799D01*
X0052837Y0155995D02*
X0056843Y0155995D01*
X0056455Y0156190D02*
X0052717Y0156190D01*
X0052609Y0156386D02*
X0056104Y0156386D01*
X0055885Y0156581D02*
X0052501Y0156581D01*
X0052394Y0156776D02*
X0055665Y0156776D01*
X0055445Y0156972D02*
X0052286Y0156972D01*
X0052178Y0157167D02*
X0055226Y0157167D01*
X0050478Y0157167D02*
X0047889Y0157167D01*
X0047889Y0157362D02*
X0050478Y0157362D01*
X0050478Y0157558D02*
X0047889Y0157558D01*
X0047889Y0157753D02*
X0050478Y0157753D01*
X0050478Y0157948D02*
X0047889Y0157948D01*
X0047889Y0158144D02*
X0050478Y0158144D01*
X0050478Y0158339D02*
X0047889Y0158339D01*
X0047889Y0158535D02*
X0050478Y0158535D01*
X0050478Y0158730D02*
X0047889Y0158730D01*
X0047889Y0158925D02*
X0050478Y0158925D01*
X0050478Y0159121D02*
X0047889Y0159121D01*
X0047889Y0159316D02*
X0050478Y0159316D01*
X0050478Y0159511D02*
X0045008Y0159511D01*
X0045030Y0159542D02*
X0045687Y0160430D01*
X0045030Y0161290D01*
X0044374Y0162145D01*
X0043717Y0163005D01*
X0043060Y0163860D01*
X0042404Y0164715D01*
X0041747Y0165575D01*
X0041090Y0166435D01*
X0040434Y0167290D01*
X0043552Y0167290D01*
X0044274Y0166283D01*
X0044997Y0165277D01*
X0045720Y0164271D01*
X0046443Y0163265D01*
X0047166Y0162258D01*
X0047889Y0161252D01*
X0047889Y0167290D01*
X0050478Y0167290D01*
X0050478Y0154506D01*
X0050478Y0153324D01*
X0047889Y0153324D01*
X0047889Y0159476D01*
X0047166Y0158450D01*
X0046443Y0157425D01*
X0045720Y0156400D01*
X0044997Y0155375D01*
X0044274Y0154350D01*
X0043552Y0153324D01*
X0040434Y0153324D01*
X0041090Y0154213D01*
X0041747Y0155101D01*
X0042404Y0155989D01*
X0043060Y0156877D01*
X0043717Y0157765D01*
X0044374Y0158654D01*
X0045030Y0159542D01*
X0045152Y0159707D02*
X0050478Y0159707D01*
X0050478Y0159902D02*
X0045297Y0159902D01*
X0045441Y0160097D02*
X0050478Y0160097D01*
X0050478Y0160293D02*
X0045586Y0160293D01*
X0045643Y0160488D02*
X0050478Y0160488D01*
X0050478Y0160684D02*
X0045493Y0160684D01*
X0045344Y0160879D02*
X0050478Y0160879D01*
X0050478Y0161074D02*
X0045195Y0161074D01*
X0045046Y0161270D02*
X0047876Y0161270D01*
X0047889Y0161270D02*
X0050478Y0161270D01*
X0050478Y0161465D02*
X0047889Y0161465D01*
X0047736Y0161465D02*
X0044896Y0161465D01*
X0044746Y0161660D02*
X0047595Y0161660D01*
X0047455Y0161856D02*
X0044596Y0161856D01*
X0044446Y0162051D02*
X0047315Y0162051D01*
X0047174Y0162246D02*
X0044296Y0162246D01*
X0044147Y0162442D02*
X0047034Y0162442D01*
X0046894Y0162637D02*
X0043998Y0162637D01*
X0043849Y0162832D02*
X0046753Y0162832D01*
X0046613Y0163028D02*
X0043699Y0163028D01*
X0043549Y0163223D02*
X0046473Y0163223D01*
X0046332Y0163419D02*
X0043399Y0163419D01*
X0043249Y0163614D02*
X0046192Y0163614D01*
X0046052Y0163809D02*
X0043099Y0163809D01*
X0042949Y0164005D02*
X0045911Y0164005D01*
X0045771Y0164200D02*
X0042799Y0164200D01*
X0042649Y0164395D02*
X0045631Y0164395D01*
X0045490Y0164591D02*
X0042499Y0164591D01*
X0042349Y0164786D02*
X0045350Y0164786D01*
X0045210Y0164981D02*
X0042200Y0164981D01*
X0042051Y0165177D02*
X0045069Y0165177D01*
X0044929Y0165372D02*
X0041902Y0165372D01*
X0041752Y0165568D02*
X0044789Y0165568D01*
X0044648Y0165763D02*
X0041603Y0165763D01*
X0041454Y0165958D02*
X0044508Y0165958D01*
X0044368Y0166154D02*
X0041305Y0166154D01*
X0041156Y0166349D02*
X0044227Y0166349D01*
X0044087Y0166544D02*
X0041006Y0166544D01*
X0040856Y0166740D02*
X0043947Y0166740D01*
X0043806Y0166935D02*
X0040706Y0166935D01*
X0040556Y0167130D02*
X0043666Y0167130D01*
X0047889Y0167130D02*
X0050478Y0167130D01*
X0050478Y0166935D02*
X0047889Y0166935D01*
X0047889Y0166740D02*
X0050478Y0166740D01*
X0050478Y0166544D02*
X0047889Y0166544D01*
X0047889Y0166349D02*
X0050478Y0166349D01*
X0050478Y0166154D02*
X0047889Y0166154D01*
X0047889Y0165958D02*
X0050478Y0165958D01*
X0050478Y0165763D02*
X0047889Y0165763D01*
X0047889Y0165568D02*
X0050478Y0165568D01*
X0050478Y0165372D02*
X0047889Y0165372D01*
X0047889Y0165177D02*
X0050478Y0165177D01*
X0050478Y0164981D02*
X0047889Y0164981D01*
X0047889Y0164786D02*
X0050478Y0164786D01*
X0050478Y0164591D02*
X0047889Y0164591D01*
X0047889Y0164395D02*
X0050478Y0164395D01*
X0050478Y0164200D02*
X0047889Y0164200D01*
X0047889Y0164005D02*
X0050478Y0164005D01*
X0050478Y0163809D02*
X0047889Y0163809D01*
X0047889Y0163614D02*
X0050478Y0163614D01*
X0050478Y0163419D02*
X0047889Y0163419D01*
X0047889Y0163223D02*
X0050478Y0163223D01*
X0050478Y0163028D02*
X0047889Y0163028D01*
X0047889Y0162832D02*
X0050478Y0162832D01*
X0050478Y0162637D02*
X0047889Y0162637D01*
X0047889Y0162442D02*
X0050478Y0162442D01*
X0050478Y0162246D02*
X0047889Y0162246D01*
X0047889Y0162051D02*
X0050478Y0162051D01*
X0050478Y0161856D02*
X0047889Y0161856D01*
X0047889Y0161660D02*
X0050478Y0161660D01*
X0052201Y0163419D02*
X0055158Y0163419D01*
X0055355Y0163614D02*
X0052301Y0163614D01*
X0052402Y0163809D02*
X0055551Y0163809D01*
X0055747Y0164005D02*
X0052502Y0164005D01*
X0052603Y0164200D02*
X0055943Y0164200D01*
X0056273Y0164395D02*
X0052730Y0164395D01*
X0052875Y0164591D02*
X0056687Y0164591D01*
X0057101Y0164786D02*
X0053020Y0164786D01*
X0053164Y0164981D02*
X0058186Y0164981D01*
X0059168Y0164981D02*
X0064233Y0164981D01*
X0064373Y0164786D02*
X0060202Y0164786D01*
X0060655Y0164591D02*
X0064510Y0164591D01*
X0064647Y0164395D02*
X0061109Y0164395D01*
X0061368Y0164200D02*
X0064784Y0164200D01*
X0064921Y0164005D02*
X0061593Y0164005D01*
X0061817Y0163809D02*
X0065027Y0163809D01*
X0065119Y0163614D02*
X0062042Y0163614D01*
X0062221Y0163419D02*
X0065210Y0163419D01*
X0065302Y0163223D02*
X0062349Y0163223D01*
X0062477Y0163028D02*
X0065394Y0163028D01*
X0065486Y0162832D02*
X0062605Y0162832D01*
X0062733Y0162637D02*
X0065543Y0162637D01*
X0065596Y0162442D02*
X0062829Y0162442D01*
X0062899Y0162246D02*
X0065649Y0162246D01*
X0065701Y0162051D02*
X0062969Y0162051D01*
X0063040Y0161856D02*
X0065754Y0161856D01*
X0065807Y0161660D02*
X0063110Y0161660D01*
X0063178Y0161465D02*
X0065834Y0161465D01*
X0065851Y0161270D02*
X0063201Y0161270D01*
X0063225Y0161074D02*
X0065868Y0161074D01*
X0065885Y0160879D02*
X0063248Y0160879D01*
X0063272Y0160684D02*
X0065903Y0160684D01*
X0065920Y0160488D02*
X0063295Y0160488D01*
X0063308Y0160293D02*
X0065926Y0160293D01*
X0065909Y0160097D02*
X0063283Y0160097D01*
X0063257Y0159902D02*
X0065893Y0159902D01*
X0065876Y0159707D02*
X0063231Y0159707D01*
X0063206Y0159511D02*
X0065859Y0159511D01*
X0065842Y0159316D02*
X0063180Y0159316D01*
X0063154Y0159121D02*
X0065826Y0159121D01*
X0065780Y0158925D02*
X0063077Y0158925D01*
X0062996Y0158730D02*
X0065728Y0158730D01*
X0065675Y0158535D02*
X0062916Y0158535D01*
X0062836Y0158339D02*
X0065623Y0158339D01*
X0065571Y0158144D02*
X0062756Y0158144D01*
X0062667Y0157948D02*
X0065518Y0157948D01*
X0065446Y0157753D02*
X0062519Y0157753D01*
X0062372Y0157558D02*
X0065354Y0157558D01*
X0065262Y0157362D02*
X0062224Y0157362D01*
X0062077Y0157167D02*
X0065170Y0157167D01*
X0065078Y0156972D02*
X0061920Y0156972D01*
X0061673Y0156776D02*
X0064986Y0156776D01*
X0064866Y0156581D02*
X0061425Y0156581D01*
X0061178Y0156386D02*
X0064727Y0156386D01*
X0064589Y0156190D02*
X0060894Y0156190D01*
X0060438Y0155995D02*
X0064450Y0155995D01*
X0064312Y0155799D02*
X0059983Y0155799D01*
X0067445Y0158144D02*
X0070069Y0158144D01*
X0069874Y0158339D02*
X0067385Y0158339D01*
X0067341Y0158535D02*
X0069679Y0158535D01*
X0069494Y0158730D02*
X0067297Y0158730D01*
X0067254Y0158925D02*
X0069442Y0158925D01*
X0069390Y0159121D02*
X0067210Y0159121D01*
X0067171Y0159316D02*
X0069338Y0159316D01*
X0069286Y0159511D02*
X0067157Y0159511D01*
X0067142Y0159707D02*
X0069262Y0159707D01*
X0069295Y0159849D02*
X0067126Y0159849D01*
X0067089Y0160335D01*
X0067197Y0161587D01*
X0067523Y0162797D01*
X0068052Y0163935D01*
X0068775Y0164961D01*
X0069663Y0165849D01*
X0070689Y0166572D01*
X0071823Y0167101D01*
X0073032Y0167427D01*
X0074284Y0167535D01*
X0075531Y0167427D01*
X0076741Y0167101D01*
X0077874Y0166572D01*
X0078900Y0165849D01*
X0079788Y0164961D01*
X0080506Y0163935D01*
X0081035Y0162802D01*
X0081356Y0161592D01*
X0081465Y0160340D01*
X0081432Y0159854D01*
X0081446Y0159849D01*
X0079278Y0159849D01*
X0079074Y0160595D01*
X0078385Y0161285D01*
X0077445Y0161535D01*
X0076504Y0161285D01*
X0075815Y0160595D01*
X0075616Y0159849D01*
X0072956Y0159849D01*
X0072753Y0160595D01*
X0072063Y0161285D01*
X0071123Y0161535D01*
X0070183Y0161285D01*
X0069493Y0160595D01*
X0069295Y0159849D01*
X0069309Y0159902D02*
X0067122Y0159902D01*
X0067107Y0160097D02*
X0069361Y0160097D01*
X0069413Y0160293D02*
X0067092Y0160293D01*
X0067102Y0160488D02*
X0069465Y0160488D01*
X0069582Y0160684D02*
X0067119Y0160684D01*
X0067136Y0160879D02*
X0069777Y0160879D01*
X0069972Y0161074D02*
X0067153Y0161074D01*
X0067170Y0161270D02*
X0070168Y0161270D01*
X0070859Y0161465D02*
X0067187Y0161465D01*
X0067217Y0161660D02*
X0081338Y0161660D01*
X0081367Y0161465D02*
X0077709Y0161465D01*
X0077180Y0161465D02*
X0071388Y0161465D01*
X0072079Y0161270D02*
X0076489Y0161270D01*
X0076294Y0161074D02*
X0072274Y0161074D01*
X0072470Y0160879D02*
X0076098Y0160879D01*
X0075903Y0160684D02*
X0072665Y0160684D01*
X0072782Y0160488D02*
X0075786Y0160488D01*
X0075734Y0160293D02*
X0072836Y0160293D01*
X0072889Y0160097D02*
X0075682Y0160097D01*
X0075630Y0159902D02*
X0072942Y0159902D01*
X0072999Y0159707D02*
X0075583Y0159707D01*
X0075607Y0159511D02*
X0072974Y0159511D01*
X0072921Y0159316D02*
X0075659Y0159316D01*
X0075711Y0159121D02*
X0072868Y0159121D01*
X0072815Y0158925D02*
X0075763Y0158925D01*
X0075815Y0158730D02*
X0072762Y0158730D01*
X0072578Y0158535D02*
X0076000Y0158535D01*
X0076195Y0158339D02*
X0072382Y0158339D01*
X0072187Y0158144D02*
X0076391Y0158144D01*
X0076792Y0157948D02*
X0071785Y0157948D01*
X0070471Y0157948D02*
X0067521Y0157948D01*
X0067270Y0161856D02*
X0081286Y0161856D01*
X0081234Y0162051D02*
X0067322Y0162051D01*
X0067375Y0162246D02*
X0081183Y0162246D01*
X0081131Y0162442D02*
X0067428Y0162442D01*
X0067480Y0162637D02*
X0081079Y0162637D01*
X0081021Y0162832D02*
X0067540Y0162832D01*
X0067631Y0163028D02*
X0080930Y0163028D01*
X0080838Y0163223D02*
X0067721Y0163223D01*
X0067812Y0163419D02*
X0080747Y0163419D01*
X0080656Y0163614D02*
X0067903Y0163614D01*
X0067994Y0163809D02*
X0080565Y0163809D01*
X0080458Y0164005D02*
X0068101Y0164005D01*
X0068239Y0164200D02*
X0080321Y0164200D01*
X0080184Y0164395D02*
X0068377Y0164395D01*
X0068514Y0164591D02*
X0080047Y0164591D01*
X0079910Y0164786D02*
X0068652Y0164786D01*
X0068796Y0164981D02*
X0079767Y0164981D01*
X0079572Y0165177D02*
X0068991Y0165177D01*
X0069187Y0165372D02*
X0079376Y0165372D01*
X0079181Y0165568D02*
X0069382Y0165568D01*
X0069578Y0165763D02*
X0078986Y0165763D01*
X0078744Y0165958D02*
X0069819Y0165958D01*
X0070096Y0166154D02*
X0078467Y0166154D01*
X0078190Y0166349D02*
X0070373Y0166349D01*
X0070650Y0166544D02*
X0077913Y0166544D01*
X0077514Y0166740D02*
X0071049Y0166740D01*
X0071467Y0166935D02*
X0077096Y0166935D01*
X0076631Y0167130D02*
X0071933Y0167130D01*
X0072657Y0167326D02*
X0075906Y0167326D01*
X0074448Y0167521D02*
X0074120Y0167521D01*
X0078400Y0161270D02*
X0081384Y0161270D01*
X0081401Y0161074D02*
X0078596Y0161074D01*
X0078791Y0160879D02*
X0081418Y0160879D01*
X0081435Y0160684D02*
X0078986Y0160684D01*
X0079104Y0160488D02*
X0081452Y0160488D01*
X0081462Y0160293D02*
X0079157Y0160293D01*
X0079210Y0160097D02*
X0081449Y0160097D01*
X0081435Y0159902D02*
X0079263Y0159902D01*
X0079321Y0159707D02*
X0081435Y0159707D01*
X0081421Y0159511D02*
X0079295Y0159511D01*
X0079242Y0159316D02*
X0081406Y0159316D01*
X0081368Y0159121D02*
X0079189Y0159121D01*
X0079136Y0158925D02*
X0081324Y0158925D01*
X0081280Y0158730D02*
X0079083Y0158730D01*
X0078899Y0158535D02*
X0081236Y0158535D01*
X0081193Y0158339D02*
X0078703Y0158339D01*
X0078508Y0158144D02*
X0081132Y0158144D01*
X0081056Y0157948D02*
X0078107Y0157948D01*
X0064038Y0165177D02*
X0053312Y0165177D01*
X0053520Y0165372D02*
X0063842Y0165372D01*
X0063647Y0165568D02*
X0053729Y0165568D01*
X0053938Y0165763D02*
X0063452Y0165763D01*
X0063212Y0165958D02*
X0054159Y0165958D01*
X0054450Y0166154D02*
X0062933Y0166154D01*
X0062654Y0166349D02*
X0054741Y0166349D01*
X0055032Y0166544D02*
X0062375Y0166544D01*
X0061979Y0166740D02*
X0055413Y0166740D01*
X0055854Y0166935D02*
X0061564Y0166935D01*
X0061110Y0167130D02*
X0056299Y0167130D01*
X0057068Y0167326D02*
X0060385Y0167326D01*
X0058963Y0167521D02*
X0058518Y0167521D01*
X0056128Y0172236D02*
X0053279Y0172236D01*
X0053766Y0173398D01*
X0054252Y0174561D01*
X0054739Y0175723D01*
X0055226Y0176885D01*
X0055712Y0178047D01*
X0056199Y0179209D01*
X0056463Y0179847D01*
X0059194Y0179847D01*
X0059024Y0179370D01*
X0058651Y0178312D01*
X0061641Y0178312D01*
X0061268Y0179370D01*
X0061098Y0179847D01*
X0063810Y0179847D01*
X0063796Y0179843D01*
X0064060Y0179205D01*
X0064547Y0178043D01*
X0065034Y0176880D01*
X0065520Y0175718D01*
X0066007Y0174556D01*
X0066493Y0173394D01*
X0066980Y0172231D01*
X0064131Y0172231D01*
X0063616Y0173436D01*
X0063101Y0174641D01*
X0062586Y0175846D01*
X0057616Y0175846D01*
X0057120Y0174641D01*
X0056624Y0173441D01*
X0056128Y0172236D01*
X0056198Y0172405D02*
X0053350Y0172405D01*
X0053432Y0172601D02*
X0056278Y0172601D01*
X0056359Y0172796D02*
X0053514Y0172796D01*
X0053595Y0172991D02*
X0056439Y0172991D01*
X0056519Y0173187D02*
X0053677Y0173187D01*
X0053759Y0173382D02*
X0056600Y0173382D01*
X0056681Y0173577D02*
X0053841Y0173577D01*
X0053923Y0173773D02*
X0056761Y0173773D01*
X0056842Y0173968D02*
X0054004Y0173968D01*
X0054086Y0174163D02*
X0056923Y0174163D01*
X0057004Y0174359D02*
X0054168Y0174359D01*
X0054250Y0174554D02*
X0057084Y0174554D01*
X0057165Y0174750D02*
X0054332Y0174750D01*
X0054413Y0174945D02*
X0057245Y0174945D01*
X0057326Y0175140D02*
X0054495Y0175140D01*
X0054577Y0175336D02*
X0057406Y0175336D01*
X0057487Y0175531D02*
X0054659Y0175531D01*
X0054741Y0175726D02*
X0057567Y0175726D01*
X0055150Y0176703D02*
X0065108Y0176703D01*
X0065190Y0176508D02*
X0055068Y0176508D01*
X0054986Y0176312D02*
X0065271Y0176312D01*
X0065353Y0176117D02*
X0054904Y0176117D01*
X0054822Y0175922D02*
X0065435Y0175922D01*
X0065517Y0175726D02*
X0062637Y0175726D01*
X0062721Y0175531D02*
X0065598Y0175531D01*
X0065680Y0175336D02*
X0062804Y0175336D01*
X0062888Y0175140D02*
X0065762Y0175140D01*
X0065844Y0174945D02*
X0062971Y0174945D01*
X0063055Y0174750D02*
X0065926Y0174750D01*
X0066007Y0174554D02*
X0063138Y0174554D01*
X0063222Y0174359D02*
X0066089Y0174359D01*
X0066171Y0174163D02*
X0063305Y0174163D01*
X0063389Y0173968D02*
X0066253Y0173968D01*
X0066335Y0173773D02*
X0063472Y0173773D01*
X0063556Y0173577D02*
X0066416Y0173577D01*
X0066498Y0173382D02*
X0063639Y0173382D01*
X0063723Y0173187D02*
X0066580Y0173187D01*
X0066662Y0172991D02*
X0063806Y0172991D01*
X0063890Y0172796D02*
X0066744Y0172796D01*
X0066825Y0172601D02*
X0063973Y0172601D01*
X0064057Y0172405D02*
X0066907Y0172405D01*
X0065026Y0176899D02*
X0055231Y0176899D01*
X0055313Y0177094D02*
X0064944Y0177094D01*
X0064862Y0177289D02*
X0055395Y0177289D01*
X0055477Y0177485D02*
X0064781Y0177485D01*
X0064699Y0177680D02*
X0055559Y0177680D01*
X0055640Y0177875D02*
X0064617Y0177875D01*
X0064535Y0178071D02*
X0055722Y0178071D01*
X0055804Y0178266D02*
X0064453Y0178266D01*
X0064372Y0178461D02*
X0061589Y0178461D01*
X0061520Y0178657D02*
X0064290Y0178657D01*
X0064208Y0178852D02*
X0061451Y0178852D01*
X0061382Y0179048D02*
X0064126Y0179048D01*
X0064045Y0179243D02*
X0061313Y0179243D01*
X0061244Y0179438D02*
X0063963Y0179438D01*
X0063882Y0179634D02*
X0061174Y0179634D01*
X0061105Y0179829D02*
X0063801Y0179829D01*
X0063800Y0179843D02*
X0063796Y0179843D01*
X0061084Y0179843D01*
X0060876Y0180424D01*
X0060503Y0181482D01*
X0060130Y0182540D01*
X0059756Y0181482D01*
X0059383Y0180424D01*
X0059180Y0179843D01*
X0056449Y0179843D01*
X0056671Y0180372D01*
X0057158Y0181534D01*
X0057645Y0182696D01*
X0058131Y0183858D01*
X0058618Y0185020D01*
X0059109Y0186183D01*
X0061150Y0186183D01*
X0061637Y0185020D01*
X0062123Y0183858D01*
X0062610Y0182696D01*
X0063097Y0181534D01*
X0063583Y0180372D01*
X0063800Y0179843D01*
X0063726Y0180024D02*
X0061019Y0180024D01*
X0060949Y0180220D02*
X0063646Y0180220D01*
X0063565Y0180415D02*
X0060879Y0180415D01*
X0060810Y0180610D02*
X0063483Y0180610D01*
X0063401Y0180806D02*
X0060741Y0180806D01*
X0060672Y0181001D02*
X0063320Y0181001D01*
X0063238Y0181196D02*
X0060604Y0181196D01*
X0060535Y0181392D02*
X0063156Y0181392D01*
X0063074Y0181587D02*
X0060466Y0181587D01*
X0060397Y0181783D02*
X0062992Y0181783D01*
X0062911Y0181978D02*
X0060328Y0181978D01*
X0060259Y0182173D02*
X0062829Y0182173D01*
X0062747Y0182369D02*
X0060190Y0182369D01*
X0060069Y0182369D02*
X0057507Y0182369D01*
X0057589Y0182564D02*
X0062665Y0182564D01*
X0062583Y0182759D02*
X0057671Y0182759D01*
X0057753Y0182955D02*
X0062502Y0182955D01*
X0062420Y0183150D02*
X0057835Y0183150D01*
X0057916Y0183345D02*
X0062338Y0183345D01*
X0062256Y0183541D02*
X0057998Y0183541D01*
X0058080Y0183736D02*
X0062174Y0183736D01*
X0062093Y0183932D02*
X0058162Y0183932D01*
X0058244Y0184127D02*
X0062011Y0184127D01*
X0061929Y0184322D02*
X0058325Y0184322D01*
X0058407Y0184518D02*
X0061847Y0184518D01*
X0061765Y0184713D02*
X0058489Y0184713D01*
X0058571Y0184908D02*
X0061684Y0184908D01*
X0061602Y0185104D02*
X0058653Y0185104D01*
X0058736Y0185299D02*
X0061520Y0185299D01*
X0061438Y0185494D02*
X0058818Y0185494D01*
X0058901Y0185690D02*
X0061356Y0185690D01*
X0061275Y0185885D02*
X0058983Y0185885D01*
X0059066Y0186081D02*
X0061193Y0186081D01*
X0060000Y0182173D02*
X0057426Y0182173D01*
X0057344Y0181978D02*
X0059931Y0181978D01*
X0059862Y0181783D02*
X0057262Y0181783D01*
X0057180Y0181587D02*
X0059794Y0181587D01*
X0059725Y0181392D02*
X0057098Y0181392D01*
X0057017Y0181196D02*
X0059656Y0181196D01*
X0059587Y0181001D02*
X0056935Y0181001D01*
X0056853Y0180806D02*
X0059518Y0180806D01*
X0059449Y0180610D02*
X0056771Y0180610D01*
X0056690Y0180415D02*
X0059380Y0180415D01*
X0059312Y0180220D02*
X0056608Y0180220D01*
X0056526Y0180024D02*
X0059244Y0180024D01*
X0059188Y0179829D02*
X0056456Y0179829D01*
X0056375Y0179634D02*
X0059118Y0179634D01*
X0059048Y0179438D02*
X0056294Y0179438D01*
X0056213Y0179243D02*
X0058979Y0179243D01*
X0058910Y0179048D02*
X0056131Y0179048D01*
X0056049Y0178852D02*
X0058841Y0178852D01*
X0058773Y0178657D02*
X0055967Y0178657D01*
X0055886Y0178461D02*
X0058704Y0178461D01*
X0051829Y0178461D02*
X0049240Y0178461D01*
X0049240Y0178266D02*
X0051829Y0178266D01*
X0051829Y0178071D02*
X0049240Y0178071D01*
X0049240Y0177875D02*
X0051829Y0177875D01*
X0051829Y0177680D02*
X0049240Y0177680D01*
X0049240Y0177485D02*
X0051829Y0177485D01*
X0051829Y0177289D02*
X0049240Y0177289D01*
X0049240Y0177094D02*
X0051829Y0177094D01*
X0051829Y0176899D02*
X0049240Y0176899D01*
X0049240Y0176703D02*
X0051829Y0176703D01*
X0051829Y0176508D02*
X0049240Y0176508D01*
X0049240Y0176312D02*
X0051829Y0176312D01*
X0051829Y0176117D02*
X0049240Y0176117D01*
X0049240Y0175922D02*
X0051829Y0175922D01*
X0051829Y0175726D02*
X0049240Y0175726D01*
X0049240Y0175531D02*
X0051829Y0175531D01*
X0051829Y0175336D02*
X0049240Y0175336D01*
X0049240Y0175140D02*
X0051829Y0175140D01*
X0051829Y0174945D02*
X0049240Y0174945D01*
X0049240Y0174750D02*
X0051829Y0174750D01*
X0051829Y0174554D02*
X0042134Y0174554D01*
X0042139Y0174546D02*
X0041463Y0175586D01*
X0040996Y0176734D01*
X0040726Y0177943D01*
X0040646Y0179087D01*
X0043259Y0179087D01*
X0043372Y0178047D01*
X0043745Y0176970D01*
X0044383Y0176025D01*
X0045271Y0175321D01*
X0046358Y0174915D01*
X0047511Y0174740D01*
X0048673Y0174698D01*
X0049240Y0174698D01*
X0049240Y0179077D01*
X0051829Y0179077D01*
X0051829Y0179082D01*
X0051829Y0172231D01*
X0048583Y0172231D01*
X0047426Y0172255D01*
X0046273Y0172354D01*
X0045139Y0172586D01*
X0044062Y0173002D01*
X0043018Y0173668D01*
X0042139Y0174546D01*
X0042007Y0174750D02*
X0047449Y0174750D01*
X0046278Y0174945D02*
X0041880Y0174945D01*
X0041753Y0175140D02*
X0045755Y0175140D01*
X0045253Y0175336D02*
X0041626Y0175336D01*
X0041499Y0175531D02*
X0045007Y0175531D01*
X0044760Y0175726D02*
X0041406Y0175726D01*
X0041327Y0175922D02*
X0044514Y0175922D01*
X0044321Y0176117D02*
X0041247Y0176117D01*
X0041167Y0176312D02*
X0044189Y0176312D01*
X0044057Y0176508D02*
X0041088Y0176508D01*
X0041008Y0176703D02*
X0043926Y0176703D01*
X0043794Y0176899D02*
X0040959Y0176899D01*
X0040916Y0177094D02*
X0043702Y0177094D01*
X0043635Y0177289D02*
X0040872Y0177289D01*
X0040829Y0177485D02*
X0043567Y0177485D01*
X0043499Y0177680D02*
X0040785Y0177680D01*
X0040742Y0177875D02*
X0043432Y0177875D01*
X0043370Y0178071D02*
X0040718Y0178071D01*
X0040704Y0178266D02*
X0043348Y0178266D01*
X0043327Y0178461D02*
X0040690Y0178461D01*
X0040676Y0178657D02*
X0043306Y0178657D01*
X0043284Y0178852D02*
X0040663Y0178852D01*
X0040649Y0179048D02*
X0043263Y0179048D01*
X0043263Y0179082D02*
X0040651Y0179082D01*
X0040646Y0179176D01*
X0040722Y0180348D01*
X0040958Y0181501D01*
X0041374Y0182602D01*
X0041974Y0183608D01*
X0042753Y0184487D01*
X0043693Y0185191D01*
X0044860Y0185706D01*
X0046103Y0186003D01*
X0047369Y0186150D01*
X0048645Y0186192D01*
X0051834Y0186192D01*
X0051834Y0179096D01*
X0051829Y0179082D01*
X0049240Y0179082D01*
X0049240Y0183712D01*
X0048730Y0183712D01*
X0047591Y0183679D01*
X0046462Y0183528D01*
X0045389Y0183145D01*
X0044445Y0182436D01*
X0043769Y0181468D01*
X0043377Y0180353D01*
X0043254Y0179176D01*
X0043263Y0179082D01*
X0043261Y0179243D02*
X0040650Y0179243D01*
X0040663Y0179438D02*
X0043281Y0179438D01*
X0043302Y0179634D02*
X0040676Y0179634D01*
X0040688Y0179829D02*
X0043322Y0179829D01*
X0043343Y0180024D02*
X0040701Y0180024D01*
X0040713Y0180220D02*
X0043363Y0180220D01*
X0043399Y0180415D02*
X0040735Y0180415D01*
X0040775Y0180610D02*
X0043467Y0180610D01*
X0043536Y0180806D02*
X0040816Y0180806D01*
X0040856Y0181001D02*
X0043605Y0181001D01*
X0043674Y0181196D02*
X0040896Y0181196D01*
X0040936Y0181392D02*
X0043742Y0181392D01*
X0043852Y0181587D02*
X0040991Y0181587D01*
X0041064Y0181783D02*
X0043989Y0181783D01*
X0044125Y0181978D02*
X0041138Y0181978D01*
X0041212Y0182173D02*
X0044261Y0182173D01*
X0044397Y0182369D02*
X0041286Y0182369D01*
X0041360Y0182564D02*
X0044615Y0182564D01*
X0044875Y0182759D02*
X0041468Y0182759D01*
X0041584Y0182955D02*
X0045136Y0182955D01*
X0045404Y0183150D02*
X0041701Y0183150D01*
X0041817Y0183345D02*
X0045952Y0183345D01*
X0046561Y0183541D02*
X0041934Y0183541D01*
X0042088Y0183736D02*
X0051834Y0183736D01*
X0051834Y0183541D02*
X0049240Y0183541D01*
X0049240Y0183345D02*
X0051834Y0183345D01*
X0051834Y0183150D02*
X0049240Y0183150D01*
X0049240Y0182955D02*
X0051834Y0182955D01*
X0051834Y0182759D02*
X0049240Y0182759D01*
X0049240Y0182564D02*
X0051834Y0182564D01*
X0051834Y0182369D02*
X0049240Y0182369D01*
X0049240Y0182173D02*
X0051834Y0182173D01*
X0051834Y0181978D02*
X0049240Y0181978D01*
X0049240Y0181783D02*
X0051834Y0181783D01*
X0051834Y0181587D02*
X0049240Y0181587D01*
X0049240Y0181392D02*
X0051834Y0181392D01*
X0051834Y0181196D02*
X0049240Y0181196D01*
X0049240Y0181001D02*
X0051834Y0181001D01*
X0051834Y0180806D02*
X0049240Y0180806D01*
X0049240Y0180610D02*
X0051834Y0180610D01*
X0051834Y0180415D02*
X0049240Y0180415D01*
X0049240Y0180220D02*
X0051834Y0180220D01*
X0051834Y0180024D02*
X0049240Y0180024D01*
X0049240Y0179829D02*
X0051834Y0179829D01*
X0051834Y0179634D02*
X0049240Y0179634D01*
X0049240Y0179438D02*
X0051834Y0179438D01*
X0051834Y0179243D02*
X0049240Y0179243D01*
X0049240Y0179048D02*
X0051829Y0179048D01*
X0051829Y0178852D02*
X0049240Y0178852D01*
X0049240Y0178657D02*
X0051829Y0178657D01*
X0051829Y0174359D02*
X0042327Y0174359D01*
X0042522Y0174163D02*
X0051829Y0174163D01*
X0051829Y0173968D02*
X0042717Y0173968D01*
X0042913Y0173773D02*
X0051829Y0173773D01*
X0051829Y0173577D02*
X0043159Y0173577D01*
X0043466Y0173382D02*
X0051829Y0173382D01*
X0051829Y0173187D02*
X0043772Y0173187D01*
X0044089Y0172991D02*
X0051829Y0172991D01*
X0051829Y0172796D02*
X0044595Y0172796D01*
X0045101Y0172601D02*
X0051829Y0172601D01*
X0051829Y0172405D02*
X0046024Y0172405D01*
X0042261Y0183932D02*
X0051834Y0183932D01*
X0051834Y0184127D02*
X0042434Y0184127D01*
X0042607Y0184322D02*
X0051834Y0184322D01*
X0051834Y0184518D02*
X0042795Y0184518D01*
X0043056Y0184713D02*
X0051834Y0184713D01*
X0051834Y0184908D02*
X0043316Y0184908D01*
X0043577Y0185104D02*
X0051834Y0185104D01*
X0051834Y0185299D02*
X0043939Y0185299D01*
X0044382Y0185494D02*
X0051834Y0185494D01*
X0051834Y0185690D02*
X0044825Y0185690D01*
X0045610Y0185885D02*
X0051834Y0185885D01*
X0051834Y0186081D02*
X0046772Y0186081D01*
X0047776Y0159316D02*
X0044863Y0159316D01*
X0044719Y0159121D02*
X0047638Y0159121D01*
X0047501Y0158925D02*
X0044575Y0158925D01*
X0044430Y0158730D02*
X0047363Y0158730D01*
X0047225Y0158535D02*
X0044286Y0158535D01*
X0044141Y0158339D02*
X0047087Y0158339D01*
X0046950Y0158144D02*
X0043997Y0158144D01*
X0043852Y0157948D02*
X0046812Y0157948D01*
X0046674Y0157753D02*
X0043708Y0157753D01*
X0043563Y0157558D02*
X0046536Y0157558D01*
X0046399Y0157362D02*
X0043419Y0157362D01*
X0043275Y0157167D02*
X0046261Y0157167D01*
X0046123Y0156972D02*
X0043130Y0156972D01*
X0042986Y0156776D02*
X0045985Y0156776D01*
X0045848Y0156581D02*
X0042841Y0156581D01*
X0042697Y0156386D02*
X0045710Y0156386D01*
X0045572Y0156190D02*
X0042552Y0156190D01*
X0042408Y0155995D02*
X0045434Y0155995D01*
X0045297Y0155799D02*
X0042263Y0155799D01*
X0042119Y0155604D02*
X0045159Y0155604D01*
X0045021Y0155409D02*
X0041975Y0155409D01*
X0041830Y0155213D02*
X0044884Y0155213D01*
X0044746Y0155018D02*
X0041686Y0155018D01*
X0041541Y0154823D02*
X0044608Y0154823D01*
X0044470Y0154627D02*
X0041397Y0154627D01*
X0041252Y0154432D02*
X0044333Y0154432D01*
X0044195Y0154237D02*
X0041108Y0154237D01*
X0040964Y0154041D02*
X0044057Y0154041D01*
X0043919Y0153846D02*
X0040819Y0153846D01*
X0040675Y0153650D02*
X0043782Y0153650D01*
X0043644Y0153455D02*
X0040530Y0153455D01*
X0047889Y0153455D02*
X0050478Y0153455D01*
X0050478Y0153650D02*
X0047889Y0153650D01*
X0047889Y0153846D02*
X0050478Y0153846D01*
X0050478Y0154041D02*
X0047889Y0154041D01*
X0047889Y0154237D02*
X0050478Y0154237D01*
X0050478Y0154432D02*
X0047889Y0154432D01*
X0047889Y0154627D02*
X0050478Y0154627D01*
X0050478Y0154823D02*
X0047889Y0154823D01*
X0047889Y0155018D02*
X0050478Y0155018D01*
X0050478Y0155213D02*
X0047889Y0155213D01*
X0047889Y0155409D02*
X0050478Y0155409D01*
X0050478Y0155604D02*
X0047889Y0155604D01*
X0047889Y0155799D02*
X0050478Y0155799D01*
X0050478Y0155995D02*
X0047889Y0155995D01*
X0047889Y0156190D02*
X0050478Y0156190D01*
X0050478Y0156386D02*
X0047889Y0156386D01*
X0047889Y0156581D02*
X0050478Y0156581D01*
X0050478Y0156776D02*
X0047889Y0156776D01*
X0047889Y0156972D02*
X0050478Y0156972D01*
X0073037Y0180610D02*
X0075635Y0180610D01*
X0075635Y0180806D02*
X0073037Y0180806D01*
X0073037Y0181001D02*
X0075635Y0181001D01*
X0075635Y0181196D02*
X0073037Y0181196D01*
X0073037Y0181392D02*
X0075635Y0181392D01*
X0075635Y0181587D02*
X0073037Y0181587D01*
X0073037Y0181783D02*
X0075635Y0181783D01*
X0075635Y0181978D02*
X0073037Y0181978D01*
X0073037Y0182173D02*
X0075635Y0182173D01*
X0075635Y0182369D02*
X0073037Y0182369D01*
X0073037Y0182564D02*
X0075635Y0182564D01*
X0075635Y0182759D02*
X0073037Y0182759D01*
X0073037Y0182955D02*
X0075635Y0182955D01*
X0075635Y0183150D02*
X0073037Y0183150D01*
X0073037Y0183345D02*
X0075635Y0183345D01*
X0075635Y0183541D02*
X0073037Y0183541D01*
X0079281Y0183932D02*
X0088854Y0183932D01*
X0088854Y0184127D02*
X0079455Y0184127D01*
X0079628Y0184322D02*
X0088854Y0184322D01*
X0088854Y0184518D02*
X0079815Y0184518D01*
X0080076Y0184713D02*
X0088854Y0184713D01*
X0088854Y0184908D02*
X0080337Y0184908D01*
X0080598Y0185104D02*
X0088854Y0185104D01*
X0088854Y0185299D02*
X0080960Y0185299D01*
X0081402Y0185494D02*
X0088854Y0185494D01*
X0088854Y0185690D02*
X0081845Y0185690D01*
X0082631Y0185885D02*
X0088854Y0185885D01*
X0088854Y0186081D02*
X0083792Y0186081D01*
D14*
X0165842Y0135286D02*
X0167076Y0134669D01*
X0168311Y0133435D01*
X0166459Y0133435D01*
X0165842Y0132817D01*
X0165842Y0132200D01*
X0166459Y0131583D01*
X0167693Y0131583D01*
X0168311Y0132200D01*
X0168311Y0133435D01*
X0169525Y0134669D02*
X0170142Y0135286D01*
X0171377Y0135286D01*
X0171994Y0134669D01*
X0171994Y0132200D01*
X0171377Y0131583D01*
X0170142Y0131583D01*
X0169525Y0132200D01*
D15*
X0155620Y0104673D03*
X0185644Y0087311D03*
D16*
X0173770Y0167311D02*
X0149360Y0167311D01*
X0148278Y0168394D01*
X0148278Y0192803D01*
X0149360Y0193886D01*
X0173770Y0193886D01*
X0174852Y0192803D01*
X0174852Y0168394D01*
X0173770Y0167311D01*
X0151329Y0172724D02*
X0151331Y0172821D01*
X0151337Y0172918D01*
X0151347Y0173014D01*
X0151361Y0173110D01*
X0151379Y0173206D01*
X0151400Y0173300D01*
X0151426Y0173394D01*
X0151455Y0173486D01*
X0151489Y0173577D01*
X0151525Y0173667D01*
X0151566Y0173755D01*
X0151610Y0173841D01*
X0151658Y0173926D01*
X0151709Y0174008D01*
X0151763Y0174089D01*
X0151821Y0174167D01*
X0151882Y0174242D01*
X0151945Y0174315D01*
X0152012Y0174386D01*
X0152082Y0174453D01*
X0152154Y0174518D01*
X0152229Y0174579D01*
X0152307Y0174638D01*
X0152386Y0174693D01*
X0152468Y0174745D01*
X0152552Y0174793D01*
X0152638Y0174838D01*
X0152726Y0174880D01*
X0152815Y0174918D01*
X0152906Y0174952D01*
X0152998Y0174982D01*
X0153091Y0175009D01*
X0153186Y0175031D01*
X0153281Y0175050D01*
X0153377Y0175065D01*
X0153473Y0175076D01*
X0153570Y0175083D01*
X0153667Y0175086D01*
X0153764Y0175085D01*
X0153861Y0175080D01*
X0153957Y0175071D01*
X0154053Y0175058D01*
X0154149Y0175041D01*
X0154244Y0175020D01*
X0154337Y0174996D01*
X0154430Y0174967D01*
X0154522Y0174935D01*
X0154612Y0174899D01*
X0154700Y0174860D01*
X0154787Y0174816D01*
X0154872Y0174770D01*
X0154955Y0174719D01*
X0155036Y0174666D01*
X0155114Y0174609D01*
X0155191Y0174549D01*
X0155264Y0174486D01*
X0155335Y0174420D01*
X0155403Y0174351D01*
X0155469Y0174279D01*
X0155531Y0174205D01*
X0155590Y0174128D01*
X0155646Y0174049D01*
X0155699Y0173967D01*
X0155749Y0173884D01*
X0155794Y0173798D01*
X0155837Y0173711D01*
X0155876Y0173622D01*
X0155911Y0173532D01*
X0155942Y0173440D01*
X0155969Y0173347D01*
X0155993Y0173253D01*
X0156013Y0173158D01*
X0156029Y0173062D01*
X0156041Y0172966D01*
X0156049Y0172869D01*
X0156053Y0172772D01*
X0156053Y0172676D01*
X0156049Y0172579D01*
X0156041Y0172482D01*
X0156029Y0172386D01*
X0156013Y0172290D01*
X0155993Y0172195D01*
X0155969Y0172101D01*
X0155942Y0172008D01*
X0155911Y0171916D01*
X0155876Y0171826D01*
X0155837Y0171737D01*
X0155794Y0171650D01*
X0155749Y0171564D01*
X0155699Y0171481D01*
X0155646Y0171399D01*
X0155590Y0171320D01*
X0155531Y0171243D01*
X0155469Y0171169D01*
X0155403Y0171097D01*
X0155335Y0171028D01*
X0155264Y0170962D01*
X0155191Y0170899D01*
X0155114Y0170839D01*
X0155036Y0170782D01*
X0154955Y0170729D01*
X0154872Y0170678D01*
X0154787Y0170632D01*
X0154700Y0170588D01*
X0154612Y0170549D01*
X0154522Y0170513D01*
X0154430Y0170481D01*
X0154337Y0170452D01*
X0154244Y0170428D01*
X0154149Y0170407D01*
X0154053Y0170390D01*
X0153957Y0170377D01*
X0153861Y0170368D01*
X0153764Y0170363D01*
X0153667Y0170362D01*
X0153570Y0170365D01*
X0153473Y0170372D01*
X0153377Y0170383D01*
X0153281Y0170398D01*
X0153186Y0170417D01*
X0153091Y0170439D01*
X0152998Y0170466D01*
X0152906Y0170496D01*
X0152815Y0170530D01*
X0152726Y0170568D01*
X0152638Y0170610D01*
X0152552Y0170655D01*
X0152468Y0170703D01*
X0152386Y0170755D01*
X0152307Y0170810D01*
X0152229Y0170869D01*
X0152154Y0170930D01*
X0152082Y0170995D01*
X0152012Y0171062D01*
X0151945Y0171133D01*
X0151882Y0171206D01*
X0151821Y0171281D01*
X0151763Y0171359D01*
X0151709Y0171440D01*
X0151658Y0171522D01*
X0151610Y0171607D01*
X0151566Y0171693D01*
X0151525Y0171781D01*
X0151489Y0171871D01*
X0151455Y0171962D01*
X0151426Y0172054D01*
X0151400Y0172148D01*
X0151379Y0172242D01*
X0151361Y0172338D01*
X0151347Y0172434D01*
X0151337Y0172530D01*
X0151331Y0172627D01*
X0151329Y0172724D01*
D17*
X0181171Y0083965D03*
D18*
X0092394Y0069240D02*
X0030894Y0069240D01*
D19*
X0199773Y0195804D02*
X0199773Y0196554D01*
X0200523Y0197305D01*
X0204276Y0197305D01*
X0204276Y0196554D02*
X0204276Y0198056D01*
X0204276Y0199657D02*
X0204276Y0201909D01*
X0203526Y0202660D01*
X0202024Y0202660D01*
X0201274Y0201909D01*
X0201274Y0199657D01*
X0199773Y0199657D02*
X0204276Y0199657D01*
X0199773Y0195804D02*
X0200523Y0195053D01*
X0200523Y0204261D02*
X0199773Y0205012D01*
X0199773Y0206513D01*
X0200523Y0207264D01*
X0201274Y0207264D01*
X0202024Y0206513D01*
X0202024Y0205762D01*
X0202024Y0206513D02*
X0202775Y0207264D01*
X0203526Y0207264D01*
X0204276Y0206513D01*
X0204276Y0205012D01*
X0203526Y0204261D01*
D20*
X0204459Y0127803D02*
X0213514Y0127803D01*
X0213514Y0099063D01*
X0204459Y0099063D01*
X0193829Y0099063D02*
X0184774Y0099063D01*
X0184774Y0127803D01*
X0193829Y0127803D01*
D21*
X0205049Y0108020D03*
M02*
